<?xml version="1.0" standalone="no"?>
<!DOCTYPE svg PUBLIC "-//W3C//DTD SVG 1.1//EN" "http://www.w3.org/Graphics/SVG/1.1/DTD/svg11.dtd" >
<svg>
<metadata>
Created by FontForge 20090914 at Sun Sep 22 21:59:16 2019
 By www-data
Copyright (c) 2017 by MaryamSoft.com. All rights reserved.
</metadata>
<defs>
<font id="Ray-Light" horiz-adv-x="0" >
  <font-face 
    font-family="Ray Light"
    font-weight="300"
    font-stretch="normal"
    units-per-em="1000"
    panose-1="2 0 5 4 0 0 0 2 0 4"
    ascent="800"
    descent="-200"
    x-height="434"
    cap-height="607"
    bbox="-145 -470 1215 960.001"
    underline-thickness="50"
    underline-position="-50"
    unicode-range="U+000A-U+FFFC"
  />
<missing-glyph horiz-adv-x="605" 
d="M173 103h259v509h-259v-509zM80 715h445v-715h-445v715z" />
    <glyph glyph-name="uni0671" unicode="&#x627;&#x64b;" horiz-adv-x="205" 
d="M89 5l-5.99805 295c-0.666992 24.667 -1.33398 46.667 -2.00098 66s-1.83398 36.833 -3.50098 52.5s-4.33398 30 -8.00098 43s-8.5 25.833 -14.5 38.5l40 35c14.667 -27.333 23.334 -58.333 26.001 -93s4 -77 4 -127v-308l-26 -7zM185.002 675l5 -30l-215 -85l-5 30z
M185.002 785l5 -30l-215 -85l-5 30z" />
    <glyph glyph-name="uniFB51" unicode="&#xfe8e;&#x64b;" horiz-adv-x="230" arabic-form="final" 
d="M220 0c-26 0 -47.6709 3 -65.0039 9s-31.166 14.5 -41.499 25.5s-17.666 24.167 -21.999 39.5s-6.5 32.333 -6.5 51v175c0 24.667 -0.333008 46.667 -1 66s-2.16699 36.833 -4.5 52.5s-5.5 30 -9.5 43s-9 25.833 -15 38.5l40 35
c14.667 -27.333 23.334 -58.333 26.001 -93s4 -77 4 -127v-225c7.33301 -13.333 19.333 -23.333 36 -30s36.334 -10 59.001 -10h10v-50h-10zM184.996 675l5 -30l-215 -85l-5 30zM184.996 785l5 -30l-215 -85l-5 30z" />
    <glyph glyph-name="uniFDF2" unicode="&#x627;&#xfedf;&#xfee0;&#xfeea;" horiz-adv-x="1066" arabic-form="isolated" 
d="M190 45c-42.667 0 -73.332 7.83301 -91.999 23.5s-28 41.167 -28 76.5c0 15.333 0.666992 28.666 2 39.999s4 24.333 8 39c4 6.66699 12.833 15.334 26.5 26.001s29.167 22 46.5 34s35.833 24 55.5 36l53.5 33l-12 72l30 15l15 -5l55 -350
c7.33301 -12.667 19.833 -21.667 37.5 -27s35.167 -8 52.5 -8s36.166 1.5 56.499 4.5s36.5 8.16699 48.5 15.5l-7 360l42 10v-320c0 -28 8.5 -46.667 25.5 -56s41.833 -14 74.5 -14c25.333 0 48.666 1.5 69.999 4.5s38 8.16699 50 15.5l-7 175
c0 22.667 -0.333008 42.667 -1 60s-2.16699 33.666 -4.5 48.999s-5.66602 30.333 -9.99902 45s-10.166 30 -17.499 46l40 35c17.333 -35.333 27.5 -70.833 30.5 -106.5s4.5 -73.5 4.5 -113.5v-145c0 -25.333 -5.16699 -46.666 -15.5 -63.999s-21.833 -29.333 -34.5 -36
c-10.667 -5.33301 -24.5 -9.16602 -41.5 -11.499s-38.167 -3.5 -63.5 -3.5c-34 0 -60.5 4.5 -79.5 13.5s-32.833 21.167 -41.5 36.5c-10 -20 -26.333 -33.333 -49 -40s-46 -10 -70 -10c-15.333 0 -30 1.16699 -44 3.5s-27 6.66602 -39 12.999s-22.333 15.5 -31 27.5
s-15 28 -19 48l-8.5 -18.5c-2.33301 -5 -3.5 -7.83301 -3.5 -8.5c-2.66699 -5.33301 -13.834 -10 -33.501 -14s-43.5 -6 -71.5 -6zM195.002 95c18 0 36.498 0.833008 55.498 2.5s37.167 4.83398 54.5 9.50098l-35 201l-51 -30l-48 -30.5
c-14.667 -9.66699 -27.5 -18.834 -38.5 -27.501s-18.5 -15.667 -22.5 -21c-1.33301 -18.667 -1.66602 -34.5 -0.999023 -47.5s3.83398 -23.667 9.50098 -32s14.5 -14.5 26.5 -18.5s28.667 -6 50 -6zM951 5l-6.99805 399.999c-0.666992 24 -1.33398 45 -2.00098 63
s-1.83398 34.833 -3.50098 50.5s-4.33398 30.834 -8.00098 45.501s-8.5 30 -14.5 46l40 30c14.667 -35.333 23.334 -70.833 26.001 -106.5s4 -73.5 4 -113.5v-413l-25 -7zM645.002 549.999c-25.333 0 -45.167 2.33398 -59.5 7.00098s-25.5 14.667 -33.5 30
c-8 -15.333 -18.5 -25.333 -31.5 -30s-28.167 -7 -45.5 -7c-20 0 -35 4.33301 -45 13s-15 19.334 -15 32.001c0 15.333 1 31.333 3 48s4.33301 38.334 7 65.001l30 -3l-10 -105c1.33301 -2.66699 3.33301 -5.33398 6 -8.00098c6 -4.66699 15.667 -7 29 -7
c20 0 33.833 3.16699 41.5 9.5s12.167 18.166 13.5 35.499l5 45h30v-45c0 -18.667 6.5 -30.834 19.5 -36.501s33.833 -8.5 62.5 -8.5c4 15.333 5.66699 31.666 5 48.999s-4.66699 41 -12 71l27 15l8 -5c2.66699 -12.667 4.66699 -23.167 6 -31.5s2.33301 -15.5 3 -21.5
s1 -11 1 -15v-12c0 -12.667 -1.66699 -25.667 -5 -39s-10 -28.666 -20 -45.999h-20zM535.001 960c8.66699 -11.333 15.334 -22.167 20.001 -32.5s8.16699 -21.5 10.5 -33.5s3.66602 -25.167 3.99902 -39.5s0.5 -30.833 0.5 -49.5v-55l-30 -10v60
c0 16 -0.166992 29.5 -0.5 40.5s-1.5 21 -3.5 30s-5 18 -9 27s-9.66699 19.833 -17 32.5z" />
    <glyph glyph-name="uniFEF5" unicode="&#xfedf;&#xfe82;" horiz-adv-x="485" arabic-form="isolated" 
d="M100 580c26 -60 46.833 -113.169 62.5 -159.502s27.834 -88.166 36.501 -125.499s14.5 -71 17.5 -101s4.5 -58.333 4.5 -85v-24c36 20 67.167 40 93.5 60s44.5 39 54.5 57l-6 203c-0.666992 24 -1.33398 45 -2.00098 63s-1.83398 34.833 -3.50098 50.5
s-4.16699 30.834 -7.5 45.501s-8.33301 30 -15 46l40 30c14.667 -35.333 23.334 -70.833 26.001 -106.5s4 -73.5 4 -113.5v-175c0 -27.333 -3.66699 -49.166 -11 -65.499s-15.333 -29.5 -24 -39.5c-10 -12 -23.833 -25.333 -41.5 -40s-38 -29.334 -61 -44.001
s-48.333 -29 -76 -43s-56.5 -26.667 -86.5 -38l-25 30l3 13l54.5 24c17.667 8 35.167 16.667 52.5 26c-0.666992 32.667 -3 65.334 -7 98.001s-10.833 67.5 -20.5 104.5s-22.667 77.667 -39 122s-37.5 95.166 -63.5 152.499zM-25 639.998l-20.001 20.002
c7.33301 14.667 13.166 27 17.499 37s8 17.667 11 23s6 9.16602 9 11.499s7.16699 3.5 12.5 3.5c7.33301 0 17.333 -2.5 30 -7.5s32.667 -7.5 60 -7.5c17.333 0 35.833 1.33301 55.5 4s39.5 7 59.5 13l5 -7l-10 -32c-20 -6.66699 -39.833 -11.334 -59.5 -14.001
s-38.167 -4 -55.5 -4s-32.666 1.33301 -45.999 4s-25.666 5.66699 -36.999 9l-22 -53h-10z" />
    <glyph glyph-name="uniFEF6" unicode="&#xfee0;&#xfe82;" horiz-adv-x="500" arabic-form="final" 
d="M100 580c26 -60 46.832 -113.171 62.499 -159.504s27.834 -88.166 36.501 -125.499s14.5 -71 17.5 -101s4.5 -58.333 4.5 -85v-24c34 18.667 63.5 37.334 88.5 56.001s43.5 36.667 55.5 54v210c0 24 -0.333008 45 -1 63s-2.16699 34.833 -4.5 50.5
s-5.5 30.834 -9.5 45.501s-9 30 -15 46l40 30c14.667 -35.333 23.334 -70.833 26.001 -106.5s4 -73.5 4 -113.5v-330c7.33301 -13.333 19.333 -23.333 36 -30s36.334 -10 59.001 -10v-50c-26 0 -47.667 3 -65 9s-31.166 14.5 -41.499 25.5s-17.666 24.167 -21.999 39.5
s-6.5 32.333 -6.5 51v13c-10.667 -13.333 -24.834 -27.333 -42.501 -42s-37.834 -29.167 -60.501 -43.5s-47.334 -28.166 -74.001 -41.499s-54.334 -25.333 -83.001 -36l-25 30l3 13l54.5 24c17.667 8 35.167 16.667 52.5 26c-0.666992 32.667 -3 65.334 -7 98.001
s-10.833 67.5 -20.5 104.5s-22.667 77.667 -39 122s-37.5 95.166 -63.5 152.499zM-25.001 639.996l-20.001 20.002c7.33301 14.667 13.166 27 17.499 37s8 17.667 11 23s6 9.16602 9 11.499s7.16699 3.5 12.5 3.5c7.33301 0 17.333 -2.5 30 -7.5s32.667 -7.5 60 -7.5
c17.333 0 35.833 1.33301 55.5 4s39.5 7 59.5 13l5 -7l-10 -32c-20 -6.66699 -39.833 -11.334 -59.5 -14.001s-38.167 -4 -55.5 -4s-32.666 1.33301 -45.999 4s-25.666 5.66699 -36.999 9l-22 -53h-10z" />
    <glyph glyph-name="uniFEF7" unicode="&#xfedf;&#xfe84;" horiz-adv-x="485" arabic-form="isolated" 
d="M120 535c20.667 -51.333 37.499 -97.501 50.499 -138.501s23.333 -78.833 31 -113.5s12.834 -66.5 15.501 -95.5s4 -57.167 4 -84.5v-18c36 20 67.167 40 93.5 60s44.5 39 54.5 57l-6 203c-0.666992 24 -1.33398 45 -2.00098 63s-1.83398 34.833 -3.50098 50.5
s-4.16699 30.834 -7.5 45.501s-8.33301 30 -15 46l40 30c14.667 -35.333 23.334 -70.833 26.001 -106.5s4 -73.5 4 -113.5v-175c0 -27.333 -3.66699 -49.166 -11 -65.499s-15.333 -29.5 -24 -39.5c-10 -12 -23.833 -25.333 -41.5 -40s-38 -29.334 -61 -44.001
s-48.333 -29 -76 -43s-56.5 -26.667 -86.5 -38l-25 30l3 13l54.5 24c17.667 8 35.167 16.667 52.5 26c-0.666992 33.333 -3.16699 66 -7.5 98s-10.666 65.167 -18.999 99.5s-19.333 70.5 -33 108.5s-30.5 80 -50.5 126zM151.999 769.999l-7 -25.001h-96
c-6 -12 -9 -24.333 -9 -37c0 -17.333 5.66699 -32.166 17 -44.499s27.333 -18.5 48 -18.5c10 0 22.5 1.5 37.5 4.5s32.5 8.16699 52.5 15.5l5 -35l-195 -70l-5 30l66 27c-17.333 6.66699 -31 17.5 -41 32.5s-15 31.833 -15 50.5c0 10 1.66699 21.5 5 34.5s10 28.167 20 45.5
h110z" />
    <glyph glyph-name="uniFEF8" unicode="&#xfee0;&#xfe84;" horiz-adv-x="500" arabic-form="final" 
d="M120 535c20.667 -51.333 37.498 -97.5029 50.498 -138.503s23.333 -78.833 31 -113.5s12.834 -66.5 15.501 -95.5s4 -57.167 4 -84.5v-18c34 18.667 63.5 37.334 88.5 56.001s43.5 36.667 55.5 54v210c0 24 -0.333008 45 -1 63s-2.16699 34.833 -4.5 50.5
s-5.5 30.834 -9.5 45.501s-9 30 -15 46l40 30c14.667 -35.333 23.334 -70.833 26.001 -106.5s4 -73.5 4 -113.5v-330c7.33301 -13.333 19.333 -23.333 36 -30s36.334 -10 59.001 -10v-50c-26 0 -47.667 3 -65 9s-31.166 14.5 -41.499 25.5s-17.666 24.167 -21.999 39.5
s-6.5 32.333 -6.5 51v13c-10.667 -13.333 -24.834 -27.333 -42.501 -42s-37.834 -29.167 -60.501 -43.5s-47.334 -28.166 -74.001 -41.499s-54.334 -25.333 -83.001 -36l-25 30l3 13l54.5 24c17.667 8 35.167 16.667 52.5 26c-0.666992 33.333 -3.16699 66 -7.5 98
s-10.666 65.167 -18.999 99.5s-19.333 70.5 -33 108.5s-30.5 80 -50.5 126zM151.998 769.997l-7 -25.001h-96c-6 -12 -9 -24.333 -9 -37c0 -17.333 5.66699 -32.166 17 -44.499s27.333 -18.5 48 -18.5c10 0 22.5 1.5 37.5 4.5s32.5 8.16699 52.5 15.5l5 -35l-195 -70l-5 30
l66 27c-17.333 6.66699 -31 17.5 -41 32.5s-15 31.833 -15 50.5c0 10 1.66699 21.5 5 34.5s10 28.167 20 45.5h110z" />
    <glyph glyph-name="uniFEF9" unicode="&#xfedf;&#xfe88;" horiz-adv-x="485" arabic-form="isolated" 
d="M100 580c26 -60 46.833 -113.169 62.5 -159.502s27.834 -88.166 36.501 -125.499s14.5 -71 17.5 -101s4.5 -58.333 4.5 -85v-24c36 20 67.167 40 93.5 60s44.5 39 54.5 57l-6 203c-0.666992 24 -1.33398 45 -2.00098 63s-1.83398 34.833 -3.50098 50.5
s-4.16699 30.834 -7.5 45.501s-8.33301 30 -15 46l40 30c14.667 -35.333 23.334 -70.833 26.001 -106.5s4 -73.5 4 -113.5v-175c0 -27.333 -3.66699 -49.166 -11 -65.499s-15.333 -29.5 -24 -39.5c-10 -12 -23.833 -25.333 -41.5 -40s-38 -29.334 -61 -44.001
s-48.333 -29 -76 -43s-56.5 -26.667 -86.5 -38l-25 30l3 13l54.5 24c17.667 8 35.167 16.667 52.5 26c-0.666992 32.667 -3 65.334 -7 98.001s-10.833 67.5 -20.5 104.5s-22.667 77.667 -39 122s-37.5 95.166 -63.5 152.499zM202 -145.002l-7 -24.999h-96
c-6 -12 -9 -23.833 -9 -35.5s2.5 -22.334 7.5 -32.001s12.333 -17.5 22 -23.5s21.5 -9 35.5 -9c10 0 22.5 1.5 37.5 4.5s32.5 8.16699 52.5 15.5l5 -35l-195 -70l-5 30l66 28c-17.333 6 -31 16.5 -41 31.5s-15 31.833 -15 50.5c0 10 1.66699 21.5 5 34.5s10 28.167 20 45.5
h110z" />
    <glyph glyph-name="uniFEFA" unicode="&#xfee0;&#xfe88;" horiz-adv-x="500" arabic-form="final" 
d="M100 580c26 -60 46.832 -113.171 62.499 -159.504s27.834 -88.166 36.501 -125.499s14.5 -71 17.5 -101s4.5 -58.333 4.5 -85v-24c34 18.667 63.5 37.334 88.5 56.001s43.5 36.667 55.5 54v210c0 24 -0.333008 45 -1 63s-2.16699 34.833 -4.5 50.5
s-5.5 30.834 -9.5 45.501s-9 30 -15 46l40 30c14.667 -35.333 23.334 -70.833 26.001 -106.5s4 -73.5 4 -113.5v-330c7.33301 -13.333 19.333 -23.333 36 -30s36.334 -10 59.001 -10v-50c-26 0 -47.667 3 -65 9s-31.166 14.5 -41.499 25.5s-17.666 24.167 -21.999 39.5
s-6.5 32.333 -6.5 51v13c-10.667 -13.333 -24.834 -27.333 -42.501 -42s-37.834 -29.167 -60.501 -43.5s-47.334 -28.166 -74.001 -41.499s-54.334 -25.333 -83.001 -36l-25 30l3 13l54.5 24c17.667 8 35.167 16.667 52.5 26c-0.666992 32.667 -3 65.334 -7 98.001
s-10.833 67.5 -20.5 104.5s-22.667 77.667 -39 122s-37.5 95.166 -63.5 152.499zM201.999 -145.004l-7 -24.999h-96c-6 -12 -9 -23.833 -9 -35.5s2.5 -22.334 7.5 -32.001s12.333 -17.5 22 -23.5s21.5 -9 35.5 -9c10 0 22.5 1.5 37.5 4.5s32.5 8.16699 52.5 15.5l5 -35
l-195 -70l-5 30l66 28c-17.333 6 -31 16.5 -41 31.5s-15 31.833 -15 50.5c0 10 1.66699 21.5 5 34.5s10 28.167 20 45.5h110z" />
    <glyph glyph-name="uniFEFB" unicode="&#xfedf;&#xfe8e;" horiz-adv-x="485" arabic-form="isolated" 
d="M100 580c26 -60 46.833 -113.169 62.5 -159.502s27.834 -88.166 36.501 -125.499s14.5 -71 17.5 -101s4.5 -58.333 4.5 -85v-24c36 20 67.167 40 93.5 60s44.5 39 54.5 57l-6 203c-0.666992 24 -1.33398 45 -2.00098 63s-1.83398 34.833 -3.50098 50.5
s-4.16699 30.834 -7.5 45.501s-8.33301 30 -15 46l40 30c14.667 -35.333 23.334 -70.833 26.001 -106.5s4 -73.5 4 -113.5v-175c0 -27.333 -3.66699 -49.166 -11 -65.499s-15.333 -29.5 -24 -39.5c-10 -12 -23.833 -25.333 -41.5 -40s-38 -29.334 -61 -44.001
s-48.333 -29 -76 -43s-56.5 -26.667 -86.5 -38l-25 30l3 13l54.5 24c17.667 8 35.167 16.667 52.5 26c-0.666992 32.667 -3 65.334 -7 98.001s-10.833 67.5 -20.5 104.5s-22.667 77.667 -39 122s-37.5 95.166 -63.5 152.499z" />
    <glyph glyph-name="uniFEFC" unicode="&#xfee0;&#xfe8e;" horiz-adv-x="500" arabic-form="final" 
d="M100 580c26 -60 46.832 -113.171 62.499 -159.504s27.834 -88.166 36.501 -125.499s14.5 -71 17.5 -101s4.5 -58.333 4.5 -85v-24c34 18.667 63.5 37.334 88.5 56.001s43.5 36.667 55.5 54v210c0 24 -0.333008 45 -1 63s-2.16699 34.833 -4.5 50.5
s-5.5 30.834 -9.5 45.501s-9 30 -15 46l40 30c14.667 -35.333 23.334 -70.833 26.001 -106.5s4 -73.5 4 -113.5v-330c7.33301 -13.333 19.333 -23.333 36 -30s36.334 -10 59.001 -10v-50c-26 0 -47.667 3 -65 9s-31.166 14.5 -41.499 25.5s-17.666 24.167 -21.999 39.5
s-6.5 32.333 -6.5 51v13c-10.667 -13.333 -24.834 -27.333 -42.501 -42s-37.834 -29.167 -60.501 -43.5s-47.334 -28.166 -74.001 -41.499s-54.334 -25.333 -83.001 -36l-25 30l3 13l54.5 24c17.667 8 35.167 16.667 52.5 26c-0.666992 32.667 -3 65.334 -7 98.001
s-10.833 67.5 -20.5 104.5s-22.667 77.667 -39 122s-37.5 95.166 -63.5 152.499z" />
    <glyph glyph-name="la.an" unicode="&#xfedf;&#xfb51;" horiz-adv-x="485" 
d="M120 535c20.667 -51.333 37.499 -97.501 50.499 -138.501s23.333 -78.833 31 -113.5s12.834 -66.5 15.501 -95.5s4 -57.167 4 -84.5v-18c36 20 67.167 40 93.5 60s44.5 39 54.5 57l-6 203c-0.666992 24 -1.33398 45 -2.00098 63s-1.83398 34.833 -3.50098 50.5
s-4.16699 30.834 -7.5 45.501s-8.33301 30 -15 46l40 30c14.667 -35.333 23.334 -70.833 26.001 -106.5s4 -73.5 4 -113.5v-175c0 -27.333 -3.66699 -49.166 -11 -65.499s-15.333 -29.5 -24 -39.5c-10 -12 -23.833 -25.333 -41.5 -40s-38 -29.334 -61 -44.001
s-48.333 -29 -76 -43s-56.5 -26.667 -86.5 -38l-25 30l3 13l54.5 24c17.667 8 35.167 16.667 52.5 26c-0.666992 33.333 -3.16699 66 -7.5 98s-10.666 65.167 -18.999 99.5s-19.333 70.5 -33 108.5s-30.5 80 -50.5 126zM204.999 674.999l5 -30l-215 -85l-5 30z
M204.999 784.999l5 -30l-215 -80l-5 25z" />
    <glyph glyph-name="la.an.fina" unicode="&#xfee0;&#xfb51;" horiz-adv-x="500" 
d="M120 535c20.667 -51.333 37.498 -97.5029 50.498 -138.503s23.333 -78.833 31 -113.5s12.834 -66.5 15.501 -95.5s4 -57.167 4 -84.5v-18c34 18.667 63.5 37.334 88.5 56.001s43.5 36.667 55.5 54v210c0 24 -0.333008 45 -1 63s-2.16699 34.833 -4.5 50.5
s-5.5 30.834 -9.5 45.501s-9 30 -15 46l40 30c14.667 -35.333 23.334 -70.833 26.001 -106.5s4 -73.5 4 -113.5v-330c7.33301 -13.333 19.333 -23.333 36 -30s36.334 -10 59.001 -10v-50c-26 0 -47.667 3 -65 9s-31.166 14.5 -41.499 25.5s-17.666 24.167 -21.999 39.5
s-6.5 32.333 -6.5 51v13c-10.667 -13.333 -24.834 -27.333 -42.501 -42s-37.834 -29.167 -60.501 -43.5s-47.334 -28.166 -74.001 -41.499s-54.334 -25.333 -83.001 -36l-25 30l3 13l54.5 24c17.667 8 35.167 16.667 52.5 26c-0.666992 33.333 -3.16699 66 -7.5 98
s-10.666 65.167 -18.999 99.5s-19.333 70.5 -33 108.5s-30.5 80 -50.5 126zM204.998 674.997l5 -30l-215 -85l-5 30zM204.998 784.997l5 -30l-215 -80l-5 25z" />
    <glyph glyph-name="lellah" unicode="&#xfedf;&#x650;&#xfee0;&#x654;&#xfeea;" horiz-adv-x="905" 
d="M190 45c-42.667 0 -73.332 7.83301 -91.999 23.5s-28 41.167 -28 76.5c0 15.333 0.666992 28.666 2 39.999s4 24.333 8 39c4 6.66699 12.833 15.334 26.5 26.001s29.167 22 46.5 34s35.833 24 55.5 36l53.5 33l-12 72l30 15l15 -5l55 -350
c7.33301 -12.667 19.833 -21.667 37.5 -27s35.167 -8 52.5 -8s36.166 1.5 56.499 4.5s36.5 8.16699 48.5 15.5l-7 360l42 10v-320c0 -28 8.5 -46.667 25.5 -56s41.833 -14 74.5 -14c25.333 0 48.666 1.5 69.999 4.5s38 8.16699 50 15.5l-7 175
c0 22.667 -0.333008 42.667 -1 60s-2.16699 33.666 -4.5 48.999s-5.66602 30.333 -9.99902 45s-10.166 30 -17.499 46l40 35c17.333 -35.333 27.5 -70.833 30.5 -106.5s4.5 -73.5 4.5 -113.5v-145c0 -25.333 -5.16699 -46.666 -15.5 -63.999s-21.833 -29.333 -34.5 -36
c-10.667 -5.33301 -24.5 -9.16602 -41.5 -11.499s-38.167 -3.5 -63.5 -3.5c-34 0 -60.5 4.5 -79.5 13.5s-32.833 21.167 -41.5 36.5c-10 -20 -26.333 -33.333 -49 -40s-46 -10 -70 -10c-15.333 0 -30 1.16699 -44 3.5s-27 6.66602 -39 12.999s-22.333 15.5 -31 27.5
s-15 28 -19 48l-8.5 -18.5c-2.33301 -5 -3.5 -7.83301 -3.5 -8.5c-2.66699 -5.33301 -13.834 -10 -33.501 -14s-43.5 -6 -71.5 -6zM195.002 95c18 0 36.498 0.833008 55.498 2.5s37.167 4.83398 54.5 9.50098l-35 201l-51 -30l-48 -30.5
c-14.667 -9.66699 -27.5 -18.834 -38.5 -27.501s-18.5 -15.667 -22.5 -21c-1.33301 -18.667 -1.66602 -34.5 -0.999023 -47.5s3.83398 -23.667 9.50098 -32s14.5 -14.5 26.5 -18.5s28.667 -6 50 -6zM645 550c-25.333 0 -45.167 2.33398 -59.5 7.00098s-25.5 14.667 -33.5 30
c-8 -15.333 -18.5 -25.333 -31.5 -30s-28.167 -7 -45.5 -7c-20 0 -35 4.33301 -45 13s-15 19.334 -15 32.001c0 15.333 1 31.333 3 48s4.33301 38.334 7 65.001l30 -3l-10 -105c1.33301 -2.66699 3.33301 -5.33398 6 -8.00098c6 -4.66699 15.667 -7 29 -7
c20 0 33.833 3.16699 41.5 9.5s12.167 18.166 13.5 35.499l5 45h30v-45c0 -18.667 6.5 -30.834 19.5 -36.501s33.833 -8.5 62.5 -8.5c4 15.333 5.66699 31.666 5 48.999s-4.66699 41 -12 71l27 15l8 -5c2.66699 -12.667 4.66699 -23.167 6 -31.5s2.33301 -15.5 3 -21.5
s1 -11 1 -15v-12c0 -12.667 -1.66699 -25.667 -5 -39s-10 -28.666 -20 -45.999h-20zM534.999 960.001c8.66699 -11.333 15.334 -22.167 20.001 -32.5s8.16699 -21.5 10.5 -33.5s3.66602 -25.167 3.99902 -39.5s0.5 -30.833 0.5 -49.5v-55l-30 -10v60
c0 16 -0.166992 29.5 -0.5 40.5s-1.5 21 -3.5 30s-5 18 -9 27s-9.66699 19.833 -17 32.5z" />
    <glyph glyph-name="uni0621" unicode="&#x621;" horiz-adv-x="454" arabic-form="isolated" 
d="M382 135c-53.333 -23.333 -103.831 -46.501 -151.498 -69.501l-150.5 -75.5l-8 5l-2 30l111 60c-18 6 -33.5 13.833 -46.5 23.5s-23.5 19.834 -31.5 30.501s-13.833 21.5 -17.5 32.5s-5.5 20.5 -5.5 28.5c0 22.667 5.5 44 16.5 64s24.333 37.5 40 52.5s32 26.833 49 35.5
s31.833 13 44.5 13c4.66699 0 9.16699 -0.5 13.5 -1.5s9.33301 -2.83301 15 -5.5s12.334 -6.66699 20.001 -12l29.5 -21l-23 -35c-17.333 10 -30.333 16.667 -39 20s-15.667 5 -21 5c-6 0 -14.5 -2.5 -25.5 -7.5s-22.333 -12 -34 -21s-22.667 -20 -33 -33
s-17.833 -27.5 -22.5 -43.5c2.66699 -12.667 8 -24.5 16 -35.5s17.667 -20.5 29 -28.5s23.666 -14.333 36.999 -19s26.666 -7 39.999 -7c12.667 0 29.667 4.16699 51 12.5s52.666 22.5 93.999 42.5l7 -5z" />
    <glyph glyph-name="uni0622" unicode="&#x622;" horiz-adv-x="205" arabic-form="isolated" 
d="M89 5l-5.99805 340c-0.666992 24.667 -1.33398 46.667 -2.00098 66s-1.83398 36.833 -3.50098 52.5s-4.33398 30 -8.00098 43s-8.5 25.833 -14.5 38.5l40 35c14.667 -27.333 23.334 -58.333 26.001 -93s4 -77 4 -127v-353l-26 -7zM90.002 680
c-17.333 0 -32.667 1.33496 -46 4.00195s-25.666 5.66699 -36.999 9l-22 -53h-10l-20 20c7.33301 14.667 13.166 27 17.499 37s8 17.667 11 23s6 9.16602 9 11.499s7.16699 3.5 12.5 3.5c7.33301 0 17.333 -2.5 30 -7.5s32.667 -7.5 60 -7.5c17.333 0 35.833 1.33301 55.5 4
s39.5 7 59.5 13l5 -7l-10 -32c-20 -6.66699 -39.833 -11.334 -59.5 -14.001s-38.167 -4 -55.5 -4z" />
    <glyph glyph-name="uni0623" unicode="&#x623;" horiz-adv-x="205" arabic-form="isolated" 
d="M89 5l-5.99805 285c-0.666992 24.667 -1.33398 46.667 -2.00098 66s-1.83398 36.833 -3.50098 52.5s-4.33398 30 -8.00098 43s-8.5 25.833 -14.5 38.5l40 35c14.667 -27.333 23.334 -58.333 26.001 -93s4 -77 4 -127v-298l-26 -7zM142.002 770l-7 -25.001h-96
c-6 -12 -9 -24.333 -9 -37c0 -17.333 5.66699 -32.166 17 -44.499s27.333 -18.5 48 -18.5c10 0 22.5 1.5 37.5 4.5s32.5 8.16699 52.5 15.5l5 -35l-195 -70l-5 30l66 27c-17.333 6.66699 -31 17.5 -41 32.5s-15 31.833 -15 50.5c0 10 1.66699 21.5 5 34.5s10 28.167 20 45.5
h110z" />
    <glyph glyph-name="uni0624" unicode="&#x624;" horiz-adv-x="410" arabic-form="isolated" 
d="M60 -190c28.667 1.33301 56.502 6.49707 83.502 15.4971s51.667 21.5 74 37.5s41.833 35.167 58.5 57.5s29.334 47.166 38.001 74.499c0 2.66699 -0.166992 5.33398 -0.5 8.00098s-0.5 5.33398 -0.5 8.00098c-21.333 -7.33301 -42.5 -12.666 -63.5 -15.999
s-44.167 -5 -69.5 -5c-38 0 -66.667 6.83301 -86 20.5s-29 31.834 -29 54.501c0 10 2 24 6 42s8.66699 37.167 14 57.5s11.166 40.333 17.499 60s12.166 36.5 17.499 50.5l20 15c38.667 -3.33301 71.5 -12.333 98.5 -27s48.667 -33.667 65 -57s28.166 -50.833 35.499 -82.5
s11 -66.167 11 -103.5c0 -34 -7.5 -66 -22.5 -96s-33.5 -56.5 -55.5 -79.5s-45.833 -41.167 -71.5 -54.5s-49.167 -20 -70.5 -20c-5.33301 0 -14.5 0.833008 -27.5 2.5s-27.167 4.16699 -42.5 7.5v30zM190.002 39.9971c23.333 0 45.6689 1.83301 67.002 5.5
s38.666 7.5 51.999 11.5c-7.33301 55.333 -23.666 98 -48.999 128s-63 48.333 -113 55c-2.66699 -6 -6.33398 -17.167 -11.001 -33.5l-14.5 -52c-5 -18.333 -9.5 -36 -13.5 -53s-6.66699 -29.167 -8 -36.5c7.33301 -10 19.166 -16.667 35.499 -20s34.5 -5 54.5 -5z
M242.005 569.997l-7 -24.999h-96c-6 -12 -9 -23.833 -9 -35.5s2.5 -22.334 7.5 -32.001s12.333 -17.5 22 -23.5s21.5 -9 35.5 -9c10 0 22.5 1.5 37.5 4.5s32.5 8.16699 52.5 15.5l5 -35l-195 -70l-5 30l66 27c-17.333 6.66699 -31 17.5 -41 32.5s-15 31.833 -15 50.5
c0 10 1.66699 21.5 5 34.5s10 28.167 20 45.5h110z" />
    <glyph glyph-name="uni0625" unicode="&#x625;" horiz-adv-x="205" arabic-form="isolated" 
d="M83 405c-0.666992 24 -1.33203 44.999 -1.99902 62.999s-1.83398 34.833 -3.50098 50.5s-4.33398 30.834 -8.00098 45.501s-8.5 30 -14.5 46l40 30c14.667 -35.333 23.334 -70.833 26.001 -106.5s4 -73.5 4 -113.5v-413l-25 -7l-10 5zM162.002 -135.001l-7 -24.999h-96
c-6 -12 -9 -23.833 -9 -35.5s2.5 -22.334 7.5 -32.001s12.333 -17.5 22 -23.5s21.5 -9 35.5 -9c10 0 22.5 1.5 37.5 4.5s32.5 8.16699 52.5 15.5l5 -35l-195 -70l-5 30l66 28c-17.333 6 -31 16.5 -41 31.5s-15 31.833 -15 50.5c0 10 1.66699 21.5 5 34.5s10 28.167 20 45.5
h110z" />
    <glyph glyph-name="uni0626" unicode="&#x626;" horiz-adv-x="650" arabic-form="isolated" 
d="M540 300c-30 20 -49.998 29.9961 -59.998 29.9961c-12.667 0 -27.834 -5.5 -45.501 -16.5s-35.167 -25.833 -52.5 -44.5s-32.666 -40.5 -45.999 -65.5s-22 -51.167 -26 -78.5c7.33301 -7.33301 25.166 -12.666 53.499 -15.999s68.833 -6.33301 121.5 -9
c21.333 -1.33301 38.333 -3.33301 51 -6s22.167 -6.5 28.5 -11.5s10.5 -11 12.5 -18s3 -15.167 3 -24.5c0 -14 -0.666992 -27.667 -2 -41s-3 -25.5 -5 -36.5s-4.16699 -20.667 -6.5 -29s-4.5 -14.5 -6.5 -18.5c-4 -6 -13 -14.667 -27 -26s-32.833 -22.5 -56.5 -33.5
s-52 -20.5 -85 -28.5s-70.167 -12 -111.5 -12c-38.667 0 -71.334 3.83301 -98.001 11.5s-48.334 17.834 -65.001 30.501s-28.667 27.5 -36 44.5s-11 34.833 -11 53.5c0 17.333 1 39 3 65s4.33301 51.333 7 76c2.66699 28.667 6 58.334 10 89.001l38 -3
c-2.66699 -34 -5.33398 -66.333 -8.00098 -97l-6 -80c-2 -27.333 -3.33301 -49 -4 -65c10 -20 28.833 -37.5 56.5 -52.5s65.5 -22.5 113.5 -22.5c52.667 0 100.667 6.5 144 19.5s77.666 29.5 102.999 49.5c3.33301 16 5.83301 33.833 7.5 53.5s1.83398 37.167 0.500977 52.5
c-4 1.33301 -10.667 2.5 -20 3.5s-20.333 1.83301 -33 2.5s-26.667 1.33398 -42 2.00098l-45 2c-22.667 1.33301 -41.667 3.66602 -57 6.99902s-27.666 8 -36.999 14s-16 13.333 -20 22s-6 19.334 -6 32.001c0 31.333 7.16699 62.5 21.5 93.5s32 58.833 53 83.5
s43.333 44.667 67 60s44.834 23 63.501 23c10 0 21.667 -4 35 -12s30 -20.667 50 -38zM252.002 525.996l-7 -24.999h-96c-6 -12 -9 -23.833 -9 -35.5s2.5 -22.334 7.5 -32.001s12.333 -17.5 22 -23.5s21.5 -9 35.5 -9c10 0 22.5 1.5 37.5 4.5s32.5 8.16699 52.5 15.5l5 -35
l-195 -70l-5 30l66 27c-17.333 6.66699 -31 17.5 -41 32.5s-15 31.833 -15 50.5c0 10 1.66699 21.5 5 34.5s10 28.167 20 45.5h110z" />
    <glyph glyph-name="uni0627" unicode="&#x627;" horiz-adv-x="205" arabic-form="isolated" 
d="M83 405c-0.666992 24 -1.33203 44.999 -1.99902 62.999s-1.83398 34.833 -3.50098 50.5s-4.33398 30.834 -8.00098 45.501s-8.5 30 -14.5 46l40 30c14.667 -35.333 23.334 -70.833 26.001 -106.5s4 -73.5 4 -113.5v-413l-25 -7l-10 5z" />
    <glyph glyph-name="uni0628" unicode="&#x628;" horiz-adv-x="725" arabic-form="isolated" 
d="M325 45c22.667 0 48.334 0.834961 77.001 2.50195s56.834 4.33398 84.501 8.00098s53.167 8.66699 76.5 15s41.666 14.166 54.999 23.499c-1.33301 21.333 -5.16602 48.666 -11.499 81.999s-15.166 66.333 -26.499 99l30 25l15 -5
c7.33301 -22.667 14.166 -47.834 20.499 -75.501s9.5 -54.167 9.5 -79.5c0 -15.333 -1.83301 -28.666 -5.5 -39.999s-8.5 -21.333 -14.5 -30s-12.5 -15.834 -19.5 -21.501s-13.833 -10.167 -20.5 -13.5c-20 -10 -53 -19.167 -99 -27.5s-103 -12.5 -171 -12.5
c-34 0 -66.333 1.33301 -97 4s-57.667 8 -81 16s-42 19.5 -56 34.5s-21 35.167 -21 60.5c0 15.333 0.666992 31.5 2 48.5s2.66602 33.167 3.99902 48.5l6 53l38 -3l-7 -83.5c-2 -24.333 -3.66699 -50.5 -5 -78.5c8 -8.66699 19.333 -16.167 34 -22.5s31.667 -11.5 51 -15.5
s40.166 -7 62.499 -9s45.5 -3 69.5 -3zM395 -139.998l-30 -50l-65 40l30 50z" />
    <glyph glyph-name="uni0629" unicode="&#x629;" horiz-adv-x="425" arabic-form="isolated" 
d="M195 0c-45.333 0 -77.5 7.00195 -96.5 21.002s-28.5 33.667 -28.5 59s6.33301 60.166 19 104.499s28 93.166 46 146.499l15 9c44 -14 79.333 -29.333 106 -46s47.334 -34.334 62.001 -53.001s24.5 -38.167 29.5 -58.5s7.5 -41.166 7.5 -62.499
c0 -12.667 -1.16699 -25.834 -3.5 -39.501s-6.83301 -25.5 -13.5 -35.5c-11.333 -17.333 -29.833 -29.166 -55.5 -35.499s-54.834 -9.5 -87.501 -9.5zM158 285.002c-3.33301 -8.66699 -7.66895 -21.668 -13.002 -39.001l-16.5 -56c-5.66699 -20 -10.667 -39.833 -15 -59.5
s-7.16602 -36.5 -8.49902 -50.5c2.66699 -5.33301 7.5 -9.83301 14.5 -13.5s15 -6.66699 24 -9s18.5 -4.16602 28.5 -5.49902s19.333 -2 28 -2c20.667 0 41.167 1.5 61.5 4.5s38.166 8.16699 53.499 15.5c1.33301 26 0.333008 49.833 -3 71.5s-10.666 41.167 -21.999 58.5
s-27.666 33 -48.999 47s-49 26.667 -83 38zM214.997 460.001l30 50l65 -40l-30 -50zM119.997 510.001l65 -40l-30 -50l-65 40z" />
    <glyph glyph-name="uni062A" unicode="&#x62a;" horiz-adv-x="725" arabic-form="isolated" 
d="M325 45c22.667 0 48.334 0.834961 77.001 2.50195s56.834 4.33398 84.501 8.00098s53.167 8.66699 76.5 15s41.666 14.166 54.999 23.499c-1.33301 21.333 -5.16602 48.666 -11.499 81.999s-15.166 66.333 -26.499 99l30 25l15 -5
c7.33301 -22.667 14.166 -47.834 20.499 -75.501s9.5 -54.167 9.5 -79.5c0 -15.333 -1.83301 -28.666 -5.5 -39.999s-8.5 -21.333 -14.5 -30s-12.5 -15.834 -19.5 -21.501s-13.833 -10.167 -20.5 -13.5c-20 -10 -53 -19.167 -99 -27.5s-103 -12.5 -171 -12.5
c-34 0 -66.333 1.33301 -97 4s-57.667 8 -81 16s-42 19.5 -56 34.5s-21 35.167 -21 60.5c0 15.333 0.666992 31.5 2 48.5s2.66602 33.167 3.99902 48.5l6 53l38 -3l-7 -83.5c-2 -24.333 -3.66699 -50.5 -5 -78.5c8 -8.66699 19.333 -16.167 34 -22.5s31.667 -11.5 51 -15.5
s40.166 -7 62.499 -9s45.5 -3 69.5 -3zM270 430.002l65 -40l-30 -50l-65 40zM365 380.002l30 50l65 -40l-30 -50z" />
    <glyph glyph-name="uni062B" unicode="&#x62b;" horiz-adv-x="725" arabic-form="isolated" 
d="M325 45c22.667 0 48.334 0.834961 77.001 2.50195s56.834 4.33398 84.501 8.00098s53.167 8.66699 76.5 15s41.666 14.166 54.999 23.499c-1.33301 21.333 -5.16602 48.666 -11.499 81.999s-15.166 66.333 -26.499 99l30 25l15 -5
c7.33301 -22.667 14.166 -47.834 20.499 -75.501s9.5 -54.167 9.5 -79.5c0 -15.333 -1.83301 -28.666 -5.5 -39.999s-8.5 -21.333 -14.5 -30s-12.5 -15.834 -19.5 -21.501s-13.833 -10.167 -20.5 -13.5c-20 -10 -53 -19.167 -99 -27.5s-103 -12.5 -171 -12.5
c-34 0 -66.333 1.33301 -97 4s-57.667 8 -81 16s-42 19.5 -56 34.5s-21 35.167 -21 60.5c0 15.333 0.666992 31.5 2 48.5s2.66602 33.167 3.99902 48.5l6 53l38 -3l-7 -83.5c-2 -24.333 -3.66699 -50.5 -5 -78.5c8 -8.66699 19.333 -16.167 34 -22.5s31.667 -11.5 51 -15.5
s40.166 -7 62.499 -9s45.5 -3 69.5 -3zM270 430.002l65 -40l-30 -50l-65 40zM315 540.002l65 -40l-30 -50l-65 40zM365 380.002l30 50l65 -40l-30 -50z" />
    <glyph glyph-name="uni062C" unicode="&#x62c;" horiz-adv-x="590" arabic-form="isolated" 
d="M510 -240l-10.0039 -35.001c-40 -5.33301 -77.333 -8.33301 -112 -9s-60.667 -1 -78 -1c-37.333 0 -70.833 3.66699 -100.5 11s-54.834 19.5 -75.501 36.5s-36.5 39.167 -47.5 66.5s-16.5 61 -16.5 101v5c0 32 8.33301 64.5 25 97.5s40.334 64.333 71.001 94
s68 56.334 112 80.001s93 42.5 147 56.5l-82.5 29.5c-25.667 9 -49 16.667 -70 23s-39 11.166 -54 14.499s-26.167 5 -33.5 5c-12.667 0 -26.5 -3.16699 -41.5 -9.5s-26.167 -13.166 -33.5 -20.499v-52c0 -14.667 0.333008 -30.667 1 -48l-11 -10l-23 10
c-1.33301 7.33301 -2 15 -2 23v27c0 28 0.833008 47.5 2.5 58.5s4.16699 18.167 7.5 21.5c1.33301 1.33301 5.33301 4.5 12 9.5s14.667 10.167 24 15.5s20 10 32 14s24.333 6 37 6s29.834 -2.66699 51.501 -8s46.834 -12.5 75.501 -21.5s59.834 -19.5 93.501 -31.5
l104.5 -39l5 -15l-15 -35c-25.333 0 -50.333 -3.16699 -75 -9.5s-49.667 -14.833 -75 -25.5c-69.333 -29.333 -124.5 -62.833 -165.5 -100.5s-69.167 -84.167 -84.5 -139.5v-5c0 -31.333 3.16699 -58.833 9.5 -82.5s17.5 -43.5 33.5 -59.5s37.333 -28 64 -36
s60.667 -12 102 -12h35.5c12.333 0 26 0.333008 41 1s31.333 1.66699 49 3s37.834 3.33301 60.501 6zM384.996 -30.001l-30 -50l-65 40l30 50z" />
    <glyph glyph-name="uni062D" unicode="&#x62d;" horiz-adv-x="590" arabic-form="isolated" 
d="M510 -240l-10.0039 -35.001c-40 -5.33301 -77.333 -8.33301 -112 -9s-60.667 -1 -78 -1c-37.333 0 -70.833 3.66699 -100.5 11s-54.834 19.5 -75.501 36.5s-36.5 39.167 -47.5 66.5s-16.5 61 -16.5 101v5c0 32 8.33301 64.5 25 97.5s40.334 64.333 71.001 94
s68 56.334 112 80.001s93 42.5 147 56.5l-82.5 29.5c-25.667 9 -49 16.667 -70 23s-39 11.166 -54 14.499s-26.167 5 -33.5 5c-12.667 0 -26.5 -3.16699 -41.5 -9.5s-26.167 -13.166 -33.5 -20.499v-52c0 -14.667 0.333008 -30.667 1 -48l-11 -10l-23 10
c-1.33301 7.33301 -2 15 -2 23v27c0 28 0.833008 47.5 2.5 58.5s4.16699 18.167 7.5 21.5c1.33301 1.33301 5.33301 4.5 12 9.5s14.667 10.167 24 15.5s20 10 32 14s24.333 6 37 6s29.834 -2.66699 51.501 -8s46.834 -12.5 75.501 -21.5s59.834 -19.5 93.501 -31.5
l104.5 -39l5 -15l-15 -35c-25.333 0 -50.333 -3.16699 -75 -9.5s-49.667 -14.833 -75 -25.5c-69.333 -29.333 -124.5 -62.833 -165.5 -100.5s-69.167 -84.167 -84.5 -139.5v-5c0 -31.333 3.16699 -58.833 9.5 -82.5s17.5 -43.5 33.5 -59.5s37.333 -28 64 -36
s60.667 -12 102 -12h35.5c12.333 0 26 0.333008 41 1s31.333 1.66699 49 3s37.834 3.33301 60.501 6z" />
    <glyph glyph-name="uni062E" unicode="&#x62e;" horiz-adv-x="590" arabic-form="isolated" 
d="M510 -240l-10.0039 -35.001c-40 -5.33301 -77.333 -8.33301 -112 -9s-60.667 -1 -78 -1c-37.333 0 -70.833 3.66699 -100.5 11s-54.834 19.5 -75.501 36.5s-36.5 39.167 -47.5 66.5s-16.5 61 -16.5 101v5c0 32 8.33301 64.5 25 97.5s40.334 64.333 71.001 94
s68 56.334 112 80.001s93 42.5 147 56.5l-82.5 29.5c-25.667 9 -49 16.667 -70 23s-39 11.166 -54 14.499s-26.167 5 -33.5 5c-12.667 0 -26.5 -3.16699 -41.5 -9.5s-26.167 -13.166 -33.5 -20.499v-52c0 -14.667 0.333008 -30.667 1 -48l-11 -10l-23 10
c-1.33301 7.33301 -2 15 -2 23v27c0 28 0.833008 47.5 2.5 58.5s4.16699 18.167 7.5 21.5c1.33301 1.33301 5.33301 4.5 12 9.5s14.667 10.167 24 15.5s20 10 32 14s24.333 6 37 6s29.834 -2.66699 51.501 -8s46.834 -12.5 75.501 -21.5s59.834 -19.5 93.501 -31.5
l104.5 -39l5 -15l-15 -35c-25.333 0 -50.333 -3.16699 -75 -9.5s-49.667 -14.833 -75 -25.5c-69.333 -29.333 -124.5 -62.833 -165.5 -100.5s-69.167 -84.167 -84.5 -139.5v-5c0 -31.333 3.16699 -58.833 9.5 -82.5s17.5 -43.5 33.5 -59.5s37.333 -28 64 -36
s60.667 -12 102 -12h35.5c12.333 0 26 0.333008 41 1s31.333 1.66699 49 3s37.834 3.33301 60.501 6zM154.996 524.999l30 50l65 -40l-30 -50z" />
    <glyph glyph-name="uni062F" unicode="&#x62f;" horiz-adv-x="460" arabic-form="isolated" 
d="M195 0c-26 0 -47.666 1.66797 -64.999 5.00098s-31.166 8.16602 -41.499 14.499s-17.666 14.5 -21.999 24.5s-6.5 22 -6.5 36c0 7.33301 0.333008 16.666 1 27.999s1.66699 22.333 3 33c1.33301 12 2.66602 25 3.99902 39l35 -2
c-1.33301 -15.333 -2.33301 -29.666 -3 -42.999l-2 -35.5c-0.666992 -12.333 -1 -22.166 -1 -29.499c9.33301 -8 24.833 -13.333 46.5 -16s43.834 -4 66.501 -4c16.667 0 37.5 1.16699 62.5 3.5s50.833 7.83301 77.5 16.5c-0.666992 36 -3.33398 68 -8.00098 96
s-13.334 53 -26.001 75s-30.334 42 -53.001 60s-52 35.333 -88 52l10 32l15 10c37.333 -15.333 68.333 -33.333 93 -54s44.167 -43 58.5 -67s24.333 -49.167 30 -75.5s8.5 -52.5 8.5 -78.5c0 -21.333 -3.33301 -39.5 -10 -54.5s-17.5 -27.333 -32.5 -37
s-35 -16.834 -60 -21.501s-55.833 -7 -92.5 -7z" />
    <glyph glyph-name="uni0630" unicode="&#x630;" horiz-adv-x="460" arabic-form="isolated" 
d="M195 0c-26 0 -47.666 1.66797 -64.999 5.00098s-31.166 8.16602 -41.499 14.499s-17.666 14.5 -21.999 24.5s-6.5 22 -6.5 36c0 7.33301 0.333008 16.666 1 27.999s1.66699 22.333 3 33c1.33301 12 2.66602 25 3.99902 39l35 -2
c-1.33301 -15.333 -2.33301 -29.666 -3 -42.999l-2 -35.5c-0.666992 -12.333 -1 -22.166 -1 -29.499c9.33301 -8 24.833 -13.333 46.5 -16s43.834 -4 66.501 -4c16.667 0 37.5 1.16699 62.5 3.5s50.833 7.83301 77.5 16.5c-0.666992 36 -3.33398 68 -8.00098 96
s-13.334 53 -26.001 75s-30.334 42 -53.001 60s-52 35.333 -88 52l10 32l15 10c37.333 -15.333 68.333 -33.333 93 -54s44.167 -43 58.5 -67s24.333 -49.167 30 -75.5s8.5 -52.5 8.5 -78.5c0 -21.333 -3.33301 -39.5 -10 -54.5s-17.5 -27.333 -32.5 -37
s-35 -16.834 -60 -21.501s-55.833 -7 -92.5 -7zM170.001 520.001l30 50l65 -40l-30 -50z" />
    <glyph glyph-name="uni0631" unicode="&#x631;" horiz-adv-x="255" arabic-form="isolated" 
d="M-60 -190c26 1.33301 50.9971 7.5 74.9971 18.5s45.5 25.667 64.5 44s35 39.333 48 63s22.167 48.5 27.5 74.5c-1.33301 12.667 -3.83301 27 -7.5 43s-8 32.833 -13 50.5s-10.5 35.167 -16.5 52.5s-12 33.666 -18 48.999l30 25l15 -5c6 -14 11.833 -29.667 17.5 -47
s10.5 -35 14.5 -53s7.16699 -35.667 9.5 -53s3.5 -33 3.5 -47c0 -38.667 -6.83301 -73.667 -20.5 -105s-30.167 -58.166 -49.5 -80.499s-39.666 -39.5 -60.999 -51.5s-39.333 -18 -54 -18c-5.33301 0 -13.666 0.833008 -24.999 2.5s-24.666 4.16699 -39.999 7.5v30z" />
    <glyph glyph-name="uni0632" unicode="&#x632;" horiz-adv-x="255" arabic-form="isolated" 
d="M-60 -190c26 1.33301 50.9971 7.5 74.9971 18.5s45.5 25.667 64.5 44s35 39.333 48 63s22.167 48.5 27.5 74.5c-1.33301 12.667 -3.83301 27 -7.5 43s-8 32.833 -13 50.5s-10.5 35.167 -16.5 52.5s-12 33.666 -18 48.999l30 25l15 -5c6 -14 11.833 -29.667 17.5 -47
s10.5 -35 14.5 -53s7.16699 -35.667 9.5 -53s3.5 -33 3.5 -47c0 -38.667 -6.83301 -73.667 -20.5 -105s-30.167 -58.166 -49.5 -80.499s-39.666 -39.5 -60.999 -51.5s-39.333 -18 -54 -18c-5.33301 0 -13.666 0.833008 -24.999 2.5s-24.666 4.16699 -39.999 7.5v30z
M69.9971 350l30 50l65 -40l-30 -50z" />
    <glyph glyph-name="uni0633" unicode="&#x633;" horiz-adv-x="1065" arabic-form="isolated" 
d="M850 0c-8 0 -16.3271 0.666016 -24.9941 1.99902s-17.5 3.83301 -26.5 7.5s-17.333 9 -25 16s-14.5 16.5 -20.5 28.5c-6 -12 -13.667 -21.667 -23 -29c-8.66699 -6.66699 -21.834 -12.5 -39.501 -17.5s-37.834 -7.5 -60.501 -7.5c-12.667 0 -24.834 0.833008 -36.501 2.5
s-22.167 5.83398 -31.5 12.501c0.666992 -8 1.33398 -17.167 2.00098 -27.5s1 -21.166 1 -32.499c0 -17.333 -1.66699 -34 -5 -50s-8.33301 -29.333 -15 -40c-4 -6 -13 -14.667 -27 -26s-32.333 -22.5 -55 -33.5s-49.5 -20.5 -80.5 -28.5s-65.167 -12 -102.5 -12
c-38.667 0 -71.334 3.83301 -98.001 11.5s-48.334 17.834 -65.001 30.501s-28.667 27.5 -36 44.5s-11 34.833 -11 53.5c0 12.667 0.5 28 1.5 46s2.5 37.333 4.5 58s4.16699 41.834 6.5 63.501s4.83301 42.5 7.5 62.5l38 -3l-6 -72l-5.5 -70.5l-4.5 -60
c-1.33301 -17.667 -2 -30.834 -2 -39.501c10 -20 28.833 -37.5 56.5 -52.5s65.5 -22.5 113.5 -22.5c24 0 48 2 72 6s47 9.66699 69 17s42 15.833 60 25.5s32.667 20.167 44 31.5c0 24.667 -1.16699 50.667 -3.5 78s-5.5 54.5 -9.5 81.5s-8.83301 53.667 -14.5 80
s-11.5 51.5 -17.5 75.5l30 20l15 -5l19 -94.5c5.33301 -27.667 10.666 -47.834 15.999 -60.501c7.33301 -7.33301 17.833 -12.5 31.5 -15.5s28.167 -4.5 43.5 -4.5c36 0 66 5.33301 90 16l25 154h35c-1.33301 -18.667 -2.33301 -34 -3 -46s-1.16699 -21.5 -1.5 -28.5
s-0.5 -12.333 -0.5 -16v-9.5c0 -14 2.33301 -25.5 7 -34.5s10.5 -16.167 17.5 -21.5s15 -9 24 -11s17.833 -3 26.5 -3c20 0 39.333 2.33301 58 7s33.667 10.667 45 18c0 11.333 -1 25 -3 41s-4.5 33 -7.5 51s-6.83301 36.167 -11.5 54.5s-10 36.166 -16 53.499l30 25l15 -5
c7.33301 -22.667 14.166 -49.167 20.499 -79.5s9.5 -60.5 9.5 -90.5c0 -28 -5.16699 -51 -15.5 -69s-21.833 -30 -34.5 -36s-26 -10.833 -40 -14.5s-32.333 -5.5 -55 -5.5z" />
    <glyph glyph-name="uni0634" unicode="&#x634;" horiz-adv-x="1065" arabic-form="isolated" 
d="M850 0c-8 0 -16.3271 0.666016 -24.9941 1.99902s-17.5 3.83301 -26.5 7.5s-17.333 9 -25 16s-14.5 16.5 -20.5 28.5c-6 -12 -13.667 -21.667 -23 -29c-8.66699 -6.66699 -21.834 -12.5 -39.501 -17.5s-37.834 -7.5 -60.501 -7.5c-12.667 0 -24.834 0.833008 -36.501 2.5
s-22.167 5.83398 -31.5 12.501c0.666992 -8 1.33398 -17.167 2.00098 -27.5s1 -21.166 1 -32.499c0 -17.333 -1.66699 -34 -5 -50s-8.33301 -29.333 -15 -40c-4 -6 -13 -14.667 -27 -26s-32.333 -22.5 -55 -33.5s-49.5 -20.5 -80.5 -28.5s-65.167 -12 -102.5 -12
c-38.667 0 -71.334 3.83301 -98.001 11.5s-48.334 17.834 -65.001 30.501s-28.667 27.5 -36 44.5s-11 34.833 -11 53.5c0 12.667 0.5 28 1.5 46s2.5 37.333 4.5 58s4.16699 41.834 6.5 63.501s4.83301 42.5 7.5 62.5l38 -3l-6 -72l-5.5 -70.5l-4.5 -60
c-1.33301 -17.667 -2 -30.834 -2 -39.501c10 -20 28.833 -37.5 56.5 -52.5s65.5 -22.5 113.5 -22.5c24 0 48 2 72 6s47 9.66699 69 17s42 15.833 60 25.5s32.667 20.167 44 31.5c0 24.667 -1.16699 50.667 -3.5 78s-5.5 54.5 -9.5 81.5s-8.83301 53.667 -14.5 80
s-11.5 51.5 -17.5 75.5l30 20l15 -5l19 -94.5c5.33301 -27.667 10.666 -47.834 15.999 -60.501c7.33301 -7.33301 17.833 -12.5 31.5 -15.5s28.167 -4.5 43.5 -4.5c36 0 66 5.33301 90 16l25 154h35c-1.33301 -18.667 -2.33301 -34 -3 -46s-1.16699 -21.5 -1.5 -28.5
s-0.5 -12.333 -0.5 -16v-9.5c0 -14 2.33301 -25.5 7 -34.5s10.5 -16.167 17.5 -21.5s15 -9 24 -11s17.833 -3 26.5 -3c20 0 39.333 2.33301 58 7s33.667 10.667 45 18c0 11.333 -1 25 -3 41s-4.5 33 -7.5 51s-6.83301 36.167 -11.5 54.5s-10 36.166 -16 53.499l30 25l15 -5
c7.33301 -22.667 14.166 -49.167 20.499 -79.5s9.5 -60.5 9.5 -90.5c0 -28 -5.16699 -51 -15.5 -69s-21.833 -30 -34.5 -36s-26 -10.833 -40 -14.5s-32.333 -5.5 -55 -5.5zM670.006 409.999l65 -40l-30 -50l-65 40zM765.006 359.999l30 50l65 -40l-30 -50zM715.006 519.999
l65 -40l-30 -50l-65 40z" />
    <glyph glyph-name="uni0635" unicode="&#x635;" horiz-adv-x="1075" arabic-form="isolated" 
d="M680 0c-30 0 -54.3291 1.8291 -72.9961 5.49609s-34 10.834 -46 21.501c1.33301 -10 2.33301 -20.833 3 -32.5s1 -24.834 1 -39.501c0 -17.333 -1.66699 -34 -5 -50s-8.33301 -29.333 -15 -40c-4 -6 -13 -14.667 -27 -26s-32.333 -22.5 -55 -33.5
s-49.5 -20.5 -80.5 -28.5s-65.167 -12 -102.5 -12c-38.667 0 -71.334 3.83301 -98.001 11.5s-48.334 17.834 -65.001 30.501s-28.667 27.5 -36 44.5s-11 34.833 -11 53.5c0 17.333 1 39 3 65s4.33301 51.333 7 76c2.66699 28.667 6 58.334 10 89.001l38 -3
c-2.66699 -34 -5.33398 -66.333 -8.00098 -97l-6 -80c-2 -27.333 -3.33301 -49 -4 -65c10 -20 28.833 -37.5 56.5 -52.5s65.5 -22.5 113.5 -22.5c24 0 48 2 72 6s47 9.66699 69 17s42 15.833 60 25.5s32.667 20.167 44 31.5c0 24.667 -1.16699 50.667 -3.5 78
s-5.5 54.5 -9.5 81.5s-8.83301 53.667 -14.5 80s-11.5 51.5 -17.5 75.5l30 20l15 -5l15 -75c3.33301 -14 6.66602 -26.167 9.99902 -36.5s7.66602 -19.166 12.999 -26.499l106 90.5l75 63l50.5 40.5c13 10 23.667 17.5 32 22.5s15 8.16699 20 9.5s9.5 2 13.5 2
c14.667 0 30.5 -4.33301 47.5 -13s32.833 -21.167 47.5 -37.5s26.667 -36.666 36 -60.999s14 -52.166 14 -83.499c0 -8.66699 -1.16699 -17.834 -3.5 -27.501s-5.66602 -18.667 -9.99902 -27s-9.5 -15.833 -15.5 -22.5s-12.667 -11.667 -20 -15
c-40 -18.667 -105.333 -28 -196 -28h-80zM850.004 259.996c-7.33301 0 -17.4971 -3.83203 -30.4971 -11.499s-29.667 -19.5 -50 -35.5s-44.833 -36.5 -73.5 -61.5l-103 -89.5c9.33301 -4.66699 20.166 -7.83398 32.499 -9.50098s27.166 -2.5 44.499 -2.5h105
c91.333 0 154.666 10 189.999 30c2.66699 24 0.5 46.833 -6.5 68.5s-16.5 40.667 -28.5 57s-25.167 29.5 -39.5 39.5s-27.833 15 -40.5 15z" />
    <glyph glyph-name="uni0636" unicode="&#x636;" horiz-adv-x="1075" arabic-form="isolated" 
d="M680 0c-30 0 -54.3291 1.8291 -72.9961 5.49609s-34 10.834 -46 21.501c1.33301 -10 2.33301 -20.833 3 -32.5s1 -24.834 1 -39.501c0 -17.333 -1.66699 -34 -5 -50s-8.33301 -29.333 -15 -40c-4 -6 -13 -14.667 -27 -26s-32.333 -22.5 -55 -33.5
s-49.5 -20.5 -80.5 -28.5s-65.167 -12 -102.5 -12c-38.667 0 -71.334 3.83301 -98.001 11.5s-48.334 17.834 -65.001 30.501s-28.667 27.5 -36 44.5s-11 34.833 -11 53.5c0 17.333 1 39 3 65s4.33301 51.333 7 76c2.66699 28.667 6 58.334 10 89.001l38 -3
c-2.66699 -34 -5.33398 -66.333 -8.00098 -97l-6 -80c-2 -27.333 -3.33301 -49 -4 -65c10 -20 28.833 -37.5 56.5 -52.5s65.5 -22.5 113.5 -22.5c24 0 48 2 72 6s47 9.66699 69 17s42 15.833 60 25.5s32.667 20.167 44 31.5c0 24.667 -1.16699 50.667 -3.5 78
s-5.5 54.5 -9.5 81.5s-8.83301 53.667 -14.5 80s-11.5 51.5 -17.5 75.5l30 20l15 -5l15 -75c3.33301 -14 6.66602 -26.167 9.99902 -36.5s7.66602 -19.166 12.999 -26.499l106 90.5l75 63l50.5 40.5c13 10 23.667 17.5 32 22.5s15 8.16699 20 9.5s9.5 2 13.5 2
c14.667 0 30.5 -4.33301 47.5 -13s32.833 -21.167 47.5 -37.5s26.667 -36.666 36 -60.999s14 -52.166 14 -83.499c0 -8.66699 -1.16699 -17.834 -3.5 -27.501s-5.66602 -18.667 -9.99902 -27s-9.5 -15.833 -15.5 -22.5s-12.667 -11.667 -20 -15
c-40 -18.667 -105.333 -28 -196 -28h-80zM850.004 259.996c-7.33301 0 -17.4971 -3.83203 -30.4971 -11.499s-29.667 -19.5 -50 -35.5s-44.833 -36.5 -73.5 -61.5l-103 -89.5c9.33301 -4.66699 20.166 -7.83398 32.499 -9.50098s27.166 -2.5 44.499 -2.5h105
c91.333 0 154.666 10 189.999 30c2.66699 24 0.5 46.833 -6.5 68.5s-16.5 40.667 -28.5 57s-25.167 29.5 -39.5 39.5s-27.833 15 -40.5 15zM800.007 444.997l30 50l65 -40l-30 -50z" />
    <glyph glyph-name="uni0637" unicode="&#x637;" horiz-adv-x="655" arabic-form="isolated" 
d="M340 0c-42.667 0 -84.999 0.663086 -126.999 1.99609s-88 5.66602 -138 12.999l-15 35l5 15c18 -3.33301 34.333 -5.33301 49 -6l66 61c7.33301 6.66699 13.666 13.5 18.999 20.5s9.5 15.167 12.5 24.5s5.16699 20.833 6.5 34.5s2 30.834 2 51.501v30.5
c0 13 -0.166992 26.833 -0.5 41.5l-1 44c-0.333008 14.667 -0.5 27.334 -0.5 38.001c-0.666992 24 -1.33398 45 -2.00098 63s-1.83398 34.833 -3.50098 50.5s-4.33398 30.834 -8.00098 45.501s-8.5 30 -14.5 46l40 30c14.667 -35.333 23.334 -70.833 26.001 -106.5
s4 -73.5 4 -113.5v-97.5c0 -26.333 -0.333008 -48.5 -1 -66.5s-1.66699 -32.667 -3 -44s-3 -21.666 -5 -30.999l82.5 68c21.667 17.333 39.334 31 53.001 41s24.5 16.667 32.5 20s15 5 21 5c14.667 0 30.5 -4.33301 47.5 -13s32.833 -21.167 47.5 -37.5
s26.667 -36.666 36 -60.999s14 -52.166 14 -83.499c0 -8.66699 -1.16699 -17.834 -3.5 -27.501s-5.66602 -18.667 -9.99902 -27s-9.5 -15.833 -15.5 -22.5s-12.667 -11.667 -20 -15c-40 -18.667 -105.333 -28 -196 -28zM430.001 259.996
c-7.33301 0 -17.499 -3.83203 -30.499 -11.499s-30 -19.834 -51 -36.501s-46.5 -38 -76.5 -64l-107 -94c14 -1.33301 28 -2.33301 42 -3s28.5 -1 43.5 -1h48h56.5c91.333 0 154.666 10 189.999 30c2.66699 24 0.5 46.833 -6.5 68.5s-16.5 40.667 -28.5 57
s-25.167 29.5 -39.5 39.5s-27.833 15 -40.5 15z" />
    <glyph glyph-name="uni0638" unicode="&#x638;" horiz-adv-x="655" arabic-form="isolated" 
d="M340 0c-42.667 0 -84.999 0.663086 -126.999 1.99609s-88 5.66602 -138 12.999l-15 35l5 15c18 -3.33301 34.333 -5.33301 49 -6l66 61c7.33301 6.66699 13.666 13.5 18.999 20.5s9.5 15.167 12.5 24.5s5.16699 20.833 6.5 34.5s2 30.834 2 51.501v30.5
c0 13 -0.166992 26.833 -0.5 41.5l-1 44c-0.333008 14.667 -0.5 27.334 -0.5 38.001c-0.666992 24 -1.33398 45 -2.00098 63s-1.83398 34.833 -3.50098 50.5s-4.33398 30.834 -8.00098 45.501s-8.5 30 -14.5 46l40 30c14.667 -35.333 23.334 -70.833 26.001 -106.5
s4 -73.5 4 -113.5v-97.5c0 -26.333 -0.333008 -48.5 -1 -66.5s-1.66699 -32.667 -3 -44s-3 -21.666 -5 -30.999l82.5 68c21.667 17.333 39.334 31 53.001 41s24.5 16.667 32.5 20s15 5 21 5c14.667 0 30.5 -4.33301 47.5 -13s32.833 -21.167 47.5 -37.5
s26.667 -36.666 36 -60.999s14 -52.166 14 -83.499c0 -8.66699 -1.16699 -17.834 -3.5 -27.501s-5.66602 -18.667 -9.99902 -27s-9.5 -15.833 -15.5 -22.5s-12.667 -11.667 -20 -15c-40 -18.667 -105.333 -28 -196 -28zM430.001 259.996
c-7.33301 0 -17.499 -3.83203 -30.499 -11.499s-30 -19.834 -51 -36.501s-46.5 -38 -76.5 -64l-107 -94c14 -1.33301 28 -2.33301 42 -3s28.5 -1 43.5 -1h48h56.5c91.333 0 154.666 10 189.999 30c2.66699 24 0.5 46.833 -6.5 68.5s-16.5 40.667 -28.5 57
s-25.167 29.5 -39.5 39.5s-27.833 15 -40.5 15zM400.002 444.997l30 50l65 -40l-30 -50z" />
    <glyph glyph-name="uni0639" unicode="&#x639;" horiz-adv-x="505" arabic-form="isolated" 
d="M70 -70c0 35.333 11.833 70.667 35.5 106s58.5 67.666 104.5 96.999c-22.667 6 -42.167 14.5 -58.5 25.5s-29.833 23.333 -40.5 37s-18.5 27.834 -23.5 42.501s-7.5 28.667 -7.5 42c0 24 6.33301 46.833 19 68.5s28 40.667 46 57s37 29.5 57 39.5s37.667 15 53 15
c12.667 0 26 -4.83301 40 -14.5s32.333 -23.167 55 -40.5l-20 -35c-22.667 15.333 -39.834 25.833 -51.501 31.5s-21.167 8.5 -28.5 8.5c-10 0 -21.833 -3.16699 -35.5 -9.5s-27 -15 -40 -26s-25 -23.833 -36 -38.5s-18.833 -30 -23.5 -46
c5.33301 -30 20.5 -55.833 45.5 -77.5s56.5 -32.5 94.5 -32.5c15.333 0 36 4.83301 62 14.5s60.333 23.167 103 40.5l10 -10l-5 -40c-47.333 -20 -89.333 -38.833 -126 -56.5s-68.167 -35.667 -94.5 -54s-47.666 -37.5 -63.999 -57.5s-28.166 -42.333 -35.499 -67v-5
c0 -30 3.5 -56.5 10.5 -79.5s18.667 -42.333 35 -58s38.166 -27.5 65.499 -35.5s61.666 -12 102.999 -12h33.5c11 0 22.667 0.333008 35 1s26.333 1.66699 42 3s34.167 3.33301 55.5 6l10 -10l-10 -35c-38 -5.33301 -71.5 -8.33301 -100.5 -9s-52.167 -1 -69.5 -1
c-36 0 -69.167 3.5 -99.5 10.5s-56.166 18.5 -77.499 34.5s-38 37.5 -50 64.5s-18 60.5 -18 100.5v5v0z" />
    <glyph glyph-name="uni063A" unicode="&#x63a;" horiz-adv-x="505" arabic-form="isolated" 
d="M70 -70c0 35.333 11.833 70.667 35.5 106s58.5 67.666 104.5 96.999c-22.667 6 -42.167 14.5 -58.5 25.5s-29.833 23.333 -40.5 37s-18.5 27.834 -23.5 42.501s-7.5 28.667 -7.5 42c0 24 6.33301 46.833 19 68.5s28 40.667 46 57s37 29.5 57 39.5s37.667 15 53 15
c12.667 0 26 -4.83301 40 -14.5s32.333 -23.167 55 -40.5l-20 -35c-22.667 15.333 -39.834 25.833 -51.501 31.5s-21.167 8.5 -28.5 8.5c-10 0 -21.833 -3.16699 -35.5 -9.5s-27 -15 -40 -26s-25 -23.833 -36 -38.5s-18.833 -30 -23.5 -46
c5.33301 -30 20.5 -55.833 45.5 -77.5s56.5 -32.5 94.5 -32.5c15.333 0 36 4.83301 62 14.5s60.333 23.167 103 40.5l10 -10l-5 -40c-47.333 -20 -89.333 -38.833 -126 -56.5s-68.167 -35.667 -94.5 -54s-47.666 -37.5 -63.999 -57.5s-28.166 -42.333 -35.499 -67v-5
c0 -30 3.5 -56.5 10.5 -79.5s18.667 -42.333 35 -58s38.166 -27.5 65.499 -35.5s61.666 -12 102.999 -12h33.5c11 0 22.667 0.333008 35 1s26.333 1.66699 42 3s34.167 3.33301 55.5 6l10 -10l-10 -35c-38 -5.33301 -71.5 -8.33301 -100.5 -9s-52.167 -1 -69.5 -1
c-36 0 -69.167 3.5 -99.5 10.5s-56.166 18.5 -77.499 34.5s-38 37.5 -50 64.5s-18 60.5 -18 100.5v5zM190 595.001l30 50l65 -40l-30 -50z" />
    <glyph glyph-name="uni0641" unicode="&#x641;" horiz-adv-x="735" arabic-form="isolated" 
d="M325 -5c-34 0 -66.3311 1.33105 -96.998 3.99805s-57.667 8 -81 16s-42 19.5 -56 34.5s-21 35.167 -21 60.5c0 15.333 0.666992 31.5 2 48.5s2.66602 33.167 3.99902 48.5l6 53l38 -3l-7 -83.5c-2 -24.333 -3.66699 -50.5 -5 -78.5c8 -8.66699 19.333 -16.167 34 -22.5
s31.667 -11.5 51 -15.5s40.166 -7 62.499 -9s45.5 -3 69.5 -3c30.667 0 61.834 1.16699 93.501 3.5s61.167 5.5 88.5 9.5s51.5 9 72.5 15s36.167 12.667 45.5 20c0.666992 14.667 1 29.334 1 44.001s-0.666992 29.667 -2 45c-21.333 -7.33301 -43.166 -12.833 -65.499 -16.5
s-48.5 -5.5 -78.5 -5.5c-38 0 -65.833 6.83301 -83.5 20.5s-26.5 31.834 -26.5 54.501c0 10 2 23.667 6 41s8.66699 35.833 14 55.5s11.166 39.167 17.499 58.5s12.166 36 17.499 50c3.33301 2 6.33301 4.33301 9 7c2.66699 2 5 3.66699 7 5s3.33301 2.33301 4 3
c46 -1.33301 83.333 -11.166 112 -29.499s51 -41.833 67 -70.5s26.833 -61 32.5 -97s8.5 -72 8.5 -108c0 -17.333 -1.83301 -32.5 -5.5 -45.5s-8.5 -24.167 -14.5 -33.5s-12.5 -16.833 -19.5 -22.5s-13.833 -10.167 -20.5 -13.5c-10 -5.33301 -23.833 -10.333 -41.5 -15
s-38.5 -8.83398 -62.5 -12.501s-50.833 -6.66699 -80.5 -9s-61.5 -3.5 -95.5 -3.5zM490.002 209.998c26.667 0 51.332 1.83203 73.999 5.49902s41 7.5 55 11.5c-4 24 -9.66699 46.5 -17 67.5s-17.666 39.5 -30.999 55.5s-29.833 28.833 -49.5 38.5s-43.5 15.167 -71.5 16.5
c-2.66699 -6 -6.16699 -16.833 -10.5 -32.5l-13.5 -50.5l-13 -51.5c-4 -16.333 -6.66699 -28.166 -8 -35.499c7.33301 -10 18.333 -16.667 33 -20s32 -5 52 -5zM445 589.997l30 50l65 -40l-30 -50z" />
    <glyph glyph-name="uni0642" unicode="&#x642;" horiz-adv-x="635" arabic-form="isolated" 
d="M350 335c44.667 -1.33301 81.1709 -10.0039 109.504 -26.0039s50.166 -38.333 65.499 -67s25.833 -62.667 31.5 -102s8.5 -82.666 8.5 -129.999c0 -20 -1.66699 -38.167 -5 -54.5s-8.33301 -29.833 -15 -40.5c-4 -6 -13 -14.667 -27 -26s-32.333 -22.5 -55 -33.5
s-49.5 -20.5 -80.5 -28.5s-65.167 -12 -102.5 -12c-38.667 0 -71.334 3.83301 -98.001 11.5s-48.334 17.834 -65.001 30.501s-28.667 27.5 -36 44.5s-11 34.833 -11 53.5c0 17.333 1 39 3 65s4.33301 51.333 7 76c2.66699 28.667 6 58.334 10 89.001l38 -3
c-2.66699 -34 -5.33398 -66.333 -8.00098 -97l-6 -80c-2 -27.333 -3.33301 -49 -4 -65c10 -20 28.833 -37.5 56.5 -52.5s65.5 -22.5 113.5 -22.5c22.667 0 46 2 70 6s47 9.5 69 16.5s42.167 15.333 60.5 25s33.5 20.5 45.5 32.5c0.666992 20.667 1 40.667 1 60
s-0.666992 38.333 -2 57c-21.333 -7.33301 -42.666 -12.833 -63.999 -16.5s-44.666 -5.5 -69.999 -5.5c-38 0 -66.667 6.83301 -86 20.5s-29 31.834 -29 54.501c0 10 2 23.667 6 41s8.66699 35.833 14 55.5s11.166 39.167 17.499 58.5s12.166 36 17.499 50zM400.004 89.9961
c23.333 0 45.832 2 67.499 6s39.167 7.66699 52.5 11c-3.33301 25.333 -8.66602 48.666 -15.999 69.999s-17.5 39.833 -30.5 55.5s-29.167 28 -48.5 37s-42.666 14.167 -69.999 15.5c-2.66699 -6 -6.16699 -16.833 -10.5 -32.5l-13.5 -50.5l-13 -51.5
c-4 -16.333 -6.66699 -28.166 -8 -35.499c7.33301 -10 19.166 -16.667 35.499 -20s34.5 -5 54.5 -5zM415.003 454.996l30 50l65 -40l-30 -50zM320.003 504.996l65 -40l-30 -50l-65 40z" />
    <glyph glyph-name="uni0643" unicode="&#x643;" horiz-adv-x="735" arabic-form="isolated" 
d="M625 640c14.667 -35.333 23.3379 -70.834 26.0049 -106.501s4 -73.5 4 -113.5v-305c0 -22.667 -4.83301 -41.5 -14.5 -56.5s-19.834 -25.167 -30.501 -30.5c-17.333 -9.33301 -49 -17.166 -95 -23.499s-104.333 -9.5 -175 -9.5c-37.333 0 -72.5 1.33301 -105.5 4
s-61.667 8 -86 16s-43.5 19.5 -57.5 34.5s-21 35.167 -21 60.5c0 15.333 0.666992 31.5 2 48.5s2.66602 33.167 3.99902 48.5l6 53l38 -3l-7 -83.5c-2 -24.333 -3.66699 -50.5 -5 -78.5c16 -17.333 44.833 -30 86.5 -38s90.167 -12 145.5 -12c30 0 59.167 0.666992 87.5 2
s54.833 3.16602 79.5 5.49902s46.667 5.5 66 9.5s35 9 47 15l-7 328c-0.666992 24 -1.33398 45 -2.00098 63s-1.83398 34.833 -3.50098 50.5s-4.33398 30.834 -8.00098 45.501s-8.5 30 -14.5 46zM460.004 442.999l-135.002 -43.002c22.667 -10 41 -19.667 55 -29
s24.833 -18.166 32.5 -26.499s12.834 -16.333 15.501 -24s4 -14.5 4 -20.5c0 -7.33301 -2.33301 -15.166 -7 -23.499s-12.5 -16.5 -23.5 -24.5s-26 -15.5 -45 -22.5s-42.833 -12.833 -71.5 -17.5l-20 25l5 10c10 1.33301 21.333 3.33301 34 6s25.334 6 38.001 10
s24.834 8.5 36.501 13.5s21.167 10.167 28.5 15.5c-4.66699 9.33301 -14.5 20.5 -29.5 33.5s-40.833 27.833 -77.5 44.5l-5 10c1.33301 8.66699 2.66602 16.167 3.99902 22.5s3.5 11.833 6.5 16.5s6.83301 8.66699 11.5 12s10.667 6.33301 18 9l127 43z" />
    <glyph glyph-name="uni0644" unicode="&#x644;" horiz-adv-x="610" arabic-form="isolated" 
d="M530 0c0 -17.333 -1.5 -34.168 -4.5 -50.501s-8.16699 -29.5 -15.5 -39.5c-6 -8.66699 -16.167 -18.5 -30.5 -29.5s-31.666 -21.333 -51.999 -31s-43.833 -17.834 -70.5 -24.501s-55.667 -10 -87 -10c-36 0 -66.667 3.83301 -92 11.5s-46 17.834 -62 30.501
s-27.667 27.5 -35 44.5s-11 34.833 -11 53.5c0 17.333 1 39 3 65s4.33301 51.333 7 76c2.66699 28.667 6 58.334 10 89.001l38 -3c-2.66699 -34 -5.33398 -66.333 -8.00098 -97l-6 -80c-2 -27.333 -3.33301 -49 -4 -65c10 -20 28.5 -37.5 55.5 -52.5
s61.833 -22.5 104.5 -22.5c36.667 0 75.334 6.16699 116.001 18.5s76.334 31.166 107.001 56.499l-5 465c-0.666992 24 -1.33398 45 -2.00098 63s-1.83398 34.833 -3.50098 50.5s-4.33398 30.834 -8.00098 45.501s-8.5 30 -14.5 46l40 30
c14.667 -35.333 23.334 -70.833 26.001 -106.5s4 -73.5 4 -113.5v-420v0z" />
    <glyph glyph-name="uni0645" unicode="&#x645;" horiz-adv-x="500" arabic-form="isolated" 
d="M375 0c-21.333 0 -44.333 3.5 -69 10.5s-48.5 15.333 -71.5 25s-43.5 19.667 -61.5 30s-30.667 18.5 -38 24.5c-6 -5.33301 -10.833 -10.666 -14.5 -15.999s-6.16699 -12.833 -7.5 -22.5s-2.16602 -22.5 -2.49902 -38.5s-0.5 -37 -0.5 -63c0 -28 0.5 -57.167 1.5 -87.5
s2.16699 -59.5 3.5 -87.5l-30 -10l-11 5c-2 62 -3.16699 113.667 -3.5 155s-0.5 74.666 -0.5 99.999c0 28 5.83301 51.667 17.5 71s30.167 31.666 55.5 36.999l42 67c10 16 20.5 30.333 31.5 43s23.667 23.5 38 32.5s31.166 16.333 50.499 22s42.666 9.83398 69.999 12.501
l20 -10c12.667 -50 21.667 -94 27 -132s8 -65.667 8 -83c0 -11.333 -1.66699 -22.166 -5 -32.499s-7.66602 -19.333 -12.999 -27s-11.333 -13.834 -18 -18.501s-13 -7 -19 -7zM360 255c-21.333 -2.66699 -39.5029 -5.33594 -54.5029 -8.00293s-29 -8.16699 -42 -16.5
s-26.333 -21.166 -40 -38.499s-30.167 -41.666 -49.5 -72.999c14.667 -10 31.5 -19.333 50.5 -28s38.333 -16.334 58 -23.001s38.834 -12 57.501 -16s35.334 -6.33301 50.001 -7c0 10 -0.666992 22.833 -2 38.5s-3.16602 32.834 -5.49902 51.501s-5.5 38.334 -9.5 59.001
s-8.33301 41 -13 61z" />
    <glyph glyph-name="uni0646" unicode="&#x646;" horiz-adv-x="635" arabic-form="isolated" 
d="M565 5c0 -17.333 -1.66309 -34.0039 -4.99609 -50.0039s-8.33301 -29.333 -15 -40c-4 -6 -13 -14.667 -27 -26s-32.333 -22.5 -55 -33.5s-49.5 -20.5 -80.5 -28.5s-65.167 -12 -102.5 -12c-38.667 0 -71.334 3.83301 -98.001 11.5s-48.334 17.834 -65.001 30.501
s-28.667 27.5 -36 44.5s-11 34.833 -11 53.5c0 17.333 1 39 3 65s4.33301 51.333 7 76c2.66699 28.667 6 58.334 10 89.001l38 -3c-2.66699 -34 -5.33398 -66.333 -8.00098 -97l-6 -80c-2 -27.333 -3.33301 -49 -4 -65c10 -20 28.833 -37.5 56.5 -52.5
s65.5 -22.5 113.5 -22.5c24 0 48 2 72 6s47 9.66699 69 17s42 15.833 60 25.5s32.667 20.167 44 31.5c0 24.667 -1.16699 50.667 -3.5 78s-5.5 54.5 -9.5 81.5s-8.83301 53.667 -14.5 80s-11.5 51.5 -17.5 75.5l30 20l15 -5c7.33301 -30 13.666 -58.833 18.999 -86.5
s9.5 -53.167 12.5 -76.5s5.16699 -44.166 6.5 -62.499s2 -33.166 2 -44.499zM235.004 319.996l30 50l65 -40l-30 -50z" />
    <glyph glyph-name="uni0647" unicode="&#x647;" horiz-adv-x="425" arabic-form="isolated" 
d="M195 0c-45.333 0 -77.5 7.00195 -96.5 21.002s-28.5 33.667 -28.5 59s6.33301 60.166 19 104.499s28 93.166 46 146.499l15 9c44 -14 79.333 -29.333 106 -46s47.334 -34.334 62.001 -53.001s24.5 -38.167 29.5 -58.5s7.5 -41.166 7.5 -62.499
c0 -12.667 -1.16699 -25.834 -3.5 -39.501s-6.83301 -25.5 -13.5 -35.5c-11.333 -17.333 -29.833 -29.166 -55.5 -35.499s-54.834 -9.5 -87.501 -9.5zM158 285.002c-3.33301 -8.66699 -7.66895 -21.668 -13.002 -39.001l-16.5 -56c-5.66699 -20 -10.667 -39.833 -15 -59.5
s-7.16602 -36.5 -8.49902 -50.5c2.66699 -5.33301 7.5 -9.83301 14.5 -13.5s15 -6.66699 24 -9s18.5 -4.16602 28.5 -5.49902s19.333 -2 28 -2c20.667 0 41.167 1.5 61.5 4.5s38.166 8.16699 53.499 15.5c1.33301 26 0.333008 49.833 -3 71.5s-10.666 41.167 -21.999 58.5
s-27.666 33 -48.999 47s-49 26.667 -83 38z" />
    <glyph glyph-name="uni0648" unicode="&#x648;" horiz-adv-x="410" arabic-form="isolated" 
d="M60 -190c28.667 1.33301 56.502 6.49707 83.502 15.4971s51.667 21.5 74 37.5s41.833 35.167 58.5 57.5s29.334 47.166 38.001 74.499c0 2.66699 -0.166992 5.33398 -0.5 8.00098s-0.5 5.33398 -0.5 8.00098c-21.333 -7.33301 -42.5 -12.666 -63.5 -15.999
s-44.167 -5 -69.5 -5c-38 0 -66.667 6.83301 -86 20.5s-29 31.834 -29 54.501c0 10 2 24 6 42s8.66699 37.167 14 57.5s11.166 40.333 17.499 60s12.166 36.5 17.499 50.5l20 15c38.667 -3.33301 71.5 -12.333 98.5 -27s48.667 -33.667 65 -57s28.166 -50.833 35.499 -82.5
s11 -66.167 11 -103.5c0 -34 -7.5 -66 -22.5 -96s-33.5 -56.5 -55.5 -79.5s-45.833 -41.167 -71.5 -54.5s-49.167 -20 -70.5 -20c-5.33301 0 -14.5 0.833008 -27.5 2.5s-27.167 4.16699 -42.5 7.5v30zM190.002 39.9971c23.333 0 45.6689 1.83301 67.002 5.5
s38.666 7.5 51.999 11.5c-7.33301 55.333 -23.666 98 -48.999 128s-63 48.333 -113 55c-2.66699 -6 -6.33398 -17.167 -11.001 -33.5l-14.5 -52c-5 -18.333 -9.5 -36 -13.5 -53s-6.66699 -29.167 -8 -36.5c7.33301 -10 19.166 -16.667 35.499 -20s34.5 -5 54.5 -5z" />
    <glyph glyph-name="uni0649" unicode="&#x649;" horiz-adv-x="650" arabic-form="isolated" 
d="M540 300c-30 20 -49.998 29.9961 -59.998 29.9961c-12.667 0 -27.834 -5.5 -45.501 -16.5s-35.167 -25.833 -52.5 -44.5s-32.666 -40.5 -45.999 -65.5s-22 -51.167 -26 -78.5c7.33301 -7.33301 25.166 -12.666 53.499 -15.999s68.833 -6.33301 121.5 -9
c21.333 -1.33301 38.333 -3.33301 51 -6s22.167 -6.5 28.5 -11.5s10.5 -11 12.5 -18s3 -15.167 3 -24.5c0 -14 -0.666992 -27.667 -2 -41s-3 -25.5 -5 -36.5s-4.16699 -20.667 -6.5 -29s-4.5 -14.5 -6.5 -18.5c-4 -6 -13 -14.667 -27 -26s-32.833 -22.5 -56.5 -33.5
s-52 -20.5 -85 -28.5s-70.167 -12 -111.5 -12c-38.667 0 -71.334 3.83301 -98.001 11.5s-48.334 17.834 -65.001 30.501s-28.667 27.5 -36 44.5s-11 34.833 -11 53.5c0 17.333 1 39 3 65s4.33301 51.333 7 76c2.66699 28.667 6 58.334 10 89.001l38 -3
c-2.66699 -34 -5.33398 -66.333 -8.00098 -97l-6 -80c-2 -27.333 -3.33301 -49 -4 -65c10 -20 28.833 -37.5 56.5 -52.5s65.5 -22.5 113.5 -22.5c52.667 0 100.667 6.5 144 19.5s77.666 29.5 102.999 49.5c3.33301 16 5.83301 33.833 7.5 53.5s1.83398 37.167 0.500977 52.5
c-4 1.33301 -10.667 2.5 -20 3.5s-20.333 1.83301 -33 2.5s-26.667 1.33398 -42 2.00098l-45 2c-22.667 1.33301 -41.667 3.66602 -57 6.99902s-27.666 8 -36.999 14s-16 13.333 -20 22s-6 19.334 -6 32.001c0 31.333 7.16699 62.5 21.5 93.5s32 58.833 53 83.5
s43.333 44.667 67 60s44.834 23 63.501 23c10 0 21.667 -4 35 -12s30 -20.667 50 -38z" />
    <glyph glyph-name="uni064A" unicode="&#x64a;" horiz-adv-x="650" arabic-form="isolated" 
d="M540 300c-30 20 -49.998 29.9961 -59.998 29.9961c-12.667 0 -27.834 -5.5 -45.501 -16.5s-35.167 -25.833 -52.5 -44.5s-32.666 -40.5 -45.999 -65.5s-22 -51.167 -26 -78.5c7.33301 -7.33301 25.166 -12.666 53.499 -15.999s68.833 -6.33301 121.5 -9
c21.333 -1.33301 38.333 -3.33301 51 -6s22.167 -6.5 28.5 -11.5s10.5 -11 12.5 -18s3 -15.167 3 -24.5c0 -14 -0.666992 -27.667 -2 -41s-3 -25.5 -5 -36.5s-4.16699 -20.667 -6.5 -29s-4.5 -14.5 -6.5 -18.5c-4 -6 -13 -14.667 -27 -26s-32.833 -22.5 -56.5 -33.5
s-52 -20.5 -85 -28.5s-70.167 -12 -111.5 -12c-38.667 0 -71.334 3.83301 -98.001 11.5s-48.334 17.834 -65.001 30.501s-28.667 27.5 -36 44.5s-11 34.833 -11 53.5c0 17.333 1 39 3 65s4.33301 51.333 7 76c2.66699 28.667 6 58.334 10 89.001l38 -3
c-2.66699 -34 -5.33398 -66.333 -8.00098 -97l-6 -80c-2 -27.333 -3.33301 -49 -4 -65c10 -20 28.833 -37.5 56.5 -52.5s65.5 -22.5 113.5 -22.5c52.667 0 100.667 6.5 144 19.5s77.666 29.5 102.999 49.5c3.33301 16 5.83301 33.833 7.5 53.5s1.83398 37.167 0.500977 52.5
c-4 1.33301 -10.667 2.5 -20 3.5s-20.333 1.83301 -33 2.5s-26.667 1.33398 -42 2.00098l-45 2c-22.667 1.33301 -41.667 3.66602 -57 6.99902s-27.666 8 -36.999 14s-16 13.333 -20 22s-6 19.334 -6 32.001c0 31.333 7.16699 62.5 21.5 93.5s32 58.833 53 83.5
s43.333 44.667 67 60s44.834 23 63.501 23c10 0 21.667 -4 35 -12s30 -20.667 50 -38zM229.002 -250.004l65 -40l-30 -50l-65 40zM419.002 -290.004l-30 -50l-65 40l30 50z" />
    <glyph glyph-name="uni067E" unicode="&#x67e;" horiz-adv-x="725" arabic-form="isolated" 
d="M325 45c22.667 0 48.334 0.834961 77.001 2.50195s56.834 4.33398 84.501 8.00098s53.167 8.66699 76.5 15s41.666 14.166 54.999 23.499c-1.33301 21.333 -5.16602 48.666 -11.499 81.999s-15.166 66.333 -26.499 99l30 25l15 -5
c7.33301 -22.667 14.166 -47.834 20.499 -75.501s9.5 -54.167 9.5 -79.5c0 -15.333 -1.83301 -28.666 -5.5 -39.999s-8.5 -21.333 -14.5 -30s-12.5 -15.834 -19.5 -21.501s-13.833 -10.167 -20.5 -13.5c-20 -10 -53 -19.167 -99 -27.5s-103 -12.5 -171 -12.5
c-34 0 -66.333 1.33301 -97 4s-57.667 8 -81 16s-42 19.5 -56 34.5s-21 35.167 -21 60.5c0 15.333 0.666992 31.5 2 48.5s2.66602 33.167 3.99902 48.5l6 53l38 -3l-7 -83.5c-2 -24.333 -3.66699 -50.5 -5 -78.5c8 -8.66699 19.333 -16.167 34 -22.5s31.667 -11.5 51 -15.5
s40.166 -7 62.499 -9s45.5 -3 69.5 -3zM270 -99.998l65 -40l-30 -50l-65 40zM385 -299.998l-65 40l30 50l65 -40zM460 -139.998l-30 -50l-65 40l30 50z" />
    <glyph glyph-name="uni0686" unicode="&#x686;" horiz-adv-x="590" arabic-form="isolated" 
d="M510 -240l-10.0039 -35.001c-40 -5.33301 -77.333 -8.33301 -112 -9s-60.667 -1 -78 -1c-37.333 0 -70.833 3.66699 -100.5 11s-54.834 19.5 -75.501 36.5s-36.5 39.167 -47.5 66.5s-16.5 61 -16.5 101v5c0 32 8.33301 64.5 25 97.5s40.334 64.333 71.001 94
s68 56.334 112 80.001s93 42.5 147 56.5l-82.5 29.5c-25.667 9 -49 16.667 -70 23s-39 11.166 -54 14.499s-26.167 5 -33.5 5c-12.667 0 -26.5 -3.16699 -41.5 -9.5s-26.167 -13.166 -33.5 -20.499v-52c0 -14.667 0.333008 -30.667 1 -48l-11 -10l-23 10
c-1.33301 7.33301 -2 15 -2 23v27c0 28 0.833008 47.5 2.5 58.5s4.16699 18.167 7.5 21.5c1.33301 1.33301 5.33301 4.5 12 9.5s14.667 10.167 24 15.5s20 10 32 14s24.333 6 37 6s29.834 -2.66699 51.501 -8s46.834 -12.5 75.501 -21.5s59.834 -19.5 93.501 -31.5
l104.5 -39l5 -15l-15 -35c-25.333 0 -50.333 -3.16699 -75 -9.5s-49.667 -14.833 -75 -25.5c-69.333 -29.333 -124.5 -62.833 -165.5 -100.5s-69.167 -84.167 -84.5 -139.5v-5c0 -31.333 3.16699 -58.833 9.5 -82.5s17.5 -43.5 33.5 -59.5s37.333 -28 64 -36
s60.667 -12 102 -12h35.5c12.333 0 26 0.333008 41 1s31.333 1.66699 49 3s37.834 3.33301 60.501 6zM269.996 44.999l65 -40l-30 -50l-65 40zM429.996 -45.001l-65 40l30 50l65 -40zM384.996 -155.001l-65 40l30 50l65 -40z" />
    <glyph glyph-name="uni0698" unicode="&#x698;" horiz-adv-x="255" arabic-form="isolated" 
d="M-60 -190c26 1.33301 50.9971 7.5 74.9971 18.5s45.5 25.667 64.5 44s35 39.333 48 63s22.167 48.5 27.5 74.5c-1.33301 12.667 -3.83301 27 -7.5 43s-8 32.833 -13 50.5s-10.5 35.167 -16.5 52.5s-12 33.666 -18 48.999l30 25l15 -5c6 -14 11.833 -29.667 17.5 -47
s10.5 -35 14.5 -53s7.16699 -35.667 9.5 -53s3.5 -33 3.5 -47c0 -38.667 -6.83301 -73.667 -20.5 -105s-30.167 -58.166 -49.5 -80.499s-39.666 -39.5 -60.999 -51.5s-39.333 -18 -54 -18c-5.33301 0 -13.666 0.833008 -24.999 2.5s-24.666 4.16699 -39.999 7.5v30z
M134.997 350l30 50l65 -40l-30 -50zM84.9971 510l65 -40l-30 -50l-65 40zM39.9971 400l65 -40l-30 -50l-65 40z" />
    <glyph glyph-name="uni06A9" unicode="&#x6a9;" horiz-adv-x="690" arabic-form="isolated" 
d="M325 45c22.667 0 46.3359 0.668945 71.0029 2.00195s48.167 3.16602 70.5 5.49902s43 5.5 62 9.5s34.5 9 46.5 15c0.666992 22 -2.16602 45 -8.49902 69s-18.333 50 -36 78s-42.167 58.5 -73.5 91.5s-72 69.5 -122 109.5l5 20c2 8.66699 4.16699 15.667 6.5 21
s5.5 9.66602 9.5 12.999s9 6.16602 15 8.49902s14 4.83301 24 7.5l265 75l10 -10l-5 -35l-280 -80c51.333 -42.667 91.833 -81.167 121.5 -115.5s52.167 -65.166 67.5 -92.499s25.166 -51 29.499 -71s6.5 -37 6.5 -51c0 -22.667 -4.83301 -41.5 -14.5 -56.5
s-19.834 -25.167 -30.501 -30.5c-8.66699 -4.66699 -20.834 -9 -36.501 -13s-34 -7.5 -55 -10.5s-44.167 -5.33301 -69.5 -7s-51.666 -2.5 -78.999 -2.5c-34 0 -66.333 1.33301 -97 4s-57.667 8 -81 16s-42 19.5 -56 34.5s-21 35.167 -21 60.5
c0 15.333 0.666992 31.5 2 48.5s2.66602 33.167 3.99902 48.5l6 53l38 -3l-7 -83.5c-2 -24.333 -3.66699 -50.5 -5 -78.5c8 -8.66699 19.333 -16.167 34 -22.5s31.667 -11.5 51 -15.5s40.166 -7 62.499 -9s45.5 -3 69.5 -3z" />
    <glyph glyph-name="uni06AF" unicode="&#x6af;" horiz-adv-x="700" arabic-form="isolated" 
d="M325 45c22.667 0 46.3359 0.671875 71.0029 2.00488s48.167 3.16602 70.5 5.49902s43 5.5 62 9.5s34.5 9 46.5 15c0.666992 22 -2 44.667 -8 68s-17.167 48.166 -33.5 74.499s-39 54.666 -68 84.999s-65.833 63.833 -110.5 100.5l5 20c2 8.66699 4.16699 15.667 6.5 21
s5.5 9.66602 9.5 12.999s9 6.16602 15 8.49902s14 4.83301 24 7.5l255 70l10 -10l-5 -35l-270 -75c46 -38.667 82.667 -74 110 -106s48 -60.833 62 -86.5s23 -48.167 27 -67.5s6 -36 6 -50c0 -22.667 -4.83301 -41.5 -14.5 -56.5s-19.834 -25.167 -30.501 -30.5
c-8.66699 -4.66699 -20.834 -9 -36.501 -13s-34 -7.5 -55 -10.5s-44.167 -5.33301 -69.5 -7s-51.666 -2.5 -78.999 -2.5c-34 0 -66.333 1.33301 -97 4s-57.667 8 -81 16s-42 19.5 -56 34.5s-21 35.167 -21 60.5c0 15.333 0.666992 31.5 2 48.5s2.66602 33.167 3.99902 48.5
l6 53l38 -3l-7 -83.5c-2 -24.333 -3.66699 -50.5 -5 -78.5c8 -8.66699 19.333 -16.167 34 -22.5s31.667 -11.5 51 -15.5s40.166 -7 62.499 -9s45.5 -3 69.5 -3zM395.002 570.005l235 65l-5 -40l-235 -65z" />
    <glyph glyph-name="uni06C0" unicode="&#x6c0;" horiz-adv-x="425" arabic-form="isolated" 
d="M195 0c-45.333 0 -77.5 7.00195 -96.5 21.002s-28.5 33.667 -28.5 59s6.33301 60.166 19 104.499s28 93.166 46 146.499l15 9c44 -14 79.333 -29.333 106 -46s47.334 -34.334 62.001 -53.001s24.5 -38.167 29.5 -58.5s7.5 -41.166 7.5 -62.499
c0 -12.667 -1.16699 -25.834 -3.5 -39.501s-6.83301 -25.5 -13.5 -35.5c-11.333 -17.333 -29.833 -29.166 -55.5 -35.499s-54.834 -9.5 -87.501 -9.5zM158 285.002c-3.33301 -8.66699 -7.66895 -21.668 -13.002 -39.001l-16.5 -56c-5.66699 -20 -10.667 -39.833 -15 -59.5
s-7.16602 -36.5 -8.49902 -50.5c2.66699 -5.33301 7.5 -9.83301 14.5 -13.5s15 -6.66699 24 -9s18.5 -4.16602 28.5 -5.49902s19.333 -2 28 -2c20.667 0 41.167 1.5 61.5 4.5s38.166 8.16699 53.499 15.5c1.33301 26 0.333008 49.833 -3 71.5s-10.666 41.167 -21.999 58.5
s-27.666 33 -48.999 47s-49 26.667 -83 38zM186.997 420.001c-76.667 0 -114.999 23.3311 -114.999 69.998c0 14.667 3.66699 29.834 11 45.501s16.5 29.667 27.5 42s22.833 22.5 35.5 30.5s24.667 12 36 12c5.33301 0 12 -2.66699 20 -8s19.667 -13.666 35 -24.999l-17 -29
l-43 22c-5.33301 0 -12 -2.33301 -20 -7s-16 -10.834 -24 -18.501s-15.333 -16.667 -22 -27s-11.334 -21.166 -14.001 -32.499c9.33301 -23.333 41 -35 95 -35h135l-12 -40h-128z" />
    <glyph glyph-name="uni06CC" unicode="&#x6cc;" horiz-adv-x="650" arabic-form="isolated" 
d="M540 300c-30 20 -49.998 29.9961 -59.998 29.9961c-12.667 0 -27.834 -5.5 -45.501 -16.5s-35.167 -25.833 -52.5 -44.5s-32.666 -40.5 -45.999 -65.5s-22 -51.167 -26 -78.5c7.33301 -7.33301 25.166 -12.666 53.499 -15.999s68.833 -6.33301 121.5 -9
c21.333 -1.33301 38.333 -3.33301 51 -6s22.167 -6.5 28.5 -11.5s10.5 -11 12.5 -18s3 -15.167 3 -24.5c0 -14 -0.666992 -27.667 -2 -41s-3 -25.5 -5 -36.5s-4.16699 -20.667 -6.5 -29s-4.5 -14.5 -6.5 -18.5c-4 -6 -13 -14.667 -27 -26s-32.833 -22.5 -56.5 -33.5
s-52 -20.5 -85 -28.5s-70.167 -12 -111.5 -12c-38.667 0 -71.334 3.83301 -98.001 11.5s-48.334 17.834 -65.001 30.501s-28.667 27.5 -36 44.5s-11 34.833 -11 53.5c0 17.333 1 39 3 65s4.33301 51.333 7 76c2.66699 28.667 6 58.334 10 89.001l38 -3
c-2.66699 -34 -5.33398 -66.333 -8.00098 -97l-6 -80c-2 -27.333 -3.33301 -49 -4 -65c10 -20 28.833 -37.5 56.5 -52.5s65.5 -22.5 113.5 -22.5c52.667 0 100.667 6.5 144 19.5s77.666 29.5 102.999 49.5c3.33301 16 5.83301 33.833 7.5 53.5s1.83398 37.167 0.500977 52.5
c-4 1.33301 -10.667 2.5 -20 3.5s-20.333 1.83301 -33 2.5s-26.667 1.33398 -42 2.00098l-45 2c-22.667 1.33301 -41.667 3.66602 -57 6.99902s-27.666 8 -36.999 14s-16 13.333 -20 22s-6 19.334 -6 32.001c0 31.333 7.16699 62.5 21.5 93.5s32 58.833 53 83.5
s43.333 44.667 67 60s44.834 23 63.501 23c10 0 21.667 -4 35 -12s30 -20.667 50 -38z" />
    <glyph glyph-name="uniFB57" unicode="&#x67e;" horiz-adv-x="720" arabic-form="final" 
d="M720 0c-9.33301 0 -19.001 0.667969 -29.001 2.00098s-19.667 4.16602 -29 8.49902s-18.166 10.5 -26.499 18.5s-15.166 18.667 -20.499 32c-4.66699 -7.33301 -9 -13 -13 -17s-8 -7 -12 -9c-19.333 -10 -51.333 -19.167 -96 -27.5s-101 -12.5 -169 -12.5
c-34 0 -66.333 1.33301 -97 4s-57.667 8 -81 16s-42 19.5 -56 34.5s-21 35.167 -21 60.5c0 15.333 0.666992 31.5 2 48.5s2.66602 33.167 3.99902 48.5l6 53l38 -3l-7 -83.5c-2 -24.333 -3.66699 -50.5 -5 -78.5c8 -8.66699 19.333 -16.167 34 -22.5s31.667 -11.5 51 -15.5
s40.166 -7 62.499 -9s45.5 -3 69.5 -3c25.333 0 50.666 0.833008 75.999 2.5s49.5 4 72.5 7s44.333 6.5 64 10.5s36.167 8.66699 49.5 14l23 141h35c-1.33301 -18.667 -2.33301 -34 -3 -46s-1.16699 -21.5 -1.5 -28.5s-0.5 -12.333 -0.5 -16v-9.5
c0 -14 2.33301 -25.5 7 -34.5s10.834 -16.167 18.501 -21.5s16.334 -9 26.001 -11s19.167 -3 28.5 -3v-50zM459.999 -139.999l-30 -50l-65 40l30 50zM384.999 -299.999l-65 40l30 50l65 -40zM269.999 -99.999l65 -40l-30 -50l-65 40z" />
    <glyph glyph-name="uniFB58" unicode="&#x67e;" horiz-adv-x="280" arabic-form="initial" 
d="M0 0c-5.33301 0 -9.99902 2.33496 -13.999 7.00195s-6 10.667 -6 18c0 8 2 14.167 6 18.5s8.66699 6.5 14 6.5c16 0 32.5 0.333008 49.5 1s33.333 2 49 4s30 4.5 43 7.5s23.5 7.16699 31.5 12.5c0 8.66699 -1 21 -3 37s-5 33.333 -9 52s-8.66699 37.834 -14 57.501
s-11 37.5 -17 53.5l30 25l15 -5c4 -8.66699 8 -20.334 12 -35.001s7.66699 -30.334 11 -47.001s6.16602 -33.167 8.49902 -49.5s3.5 -30.833 3.5 -43.5c0 -25.333 -5.16699 -46.333 -15.5 -63s-21.833 -28.334 -34.5 -35.001c-13.333 -7.33301 -34.5 -12.833 -63.5 -16.5
s-61.167 -5.5 -96.5 -5.5zM169.001 -129.998l-30 -50l-65 40l30 50zM94.001 -289.998l-65 40l30 50l65 -40zM-20.999 -89.998l65 -40l-30 -50l-65 40z" />
    <glyph glyph-name="uniFB59" unicode="&#x67e;" horiz-adv-x="280" arabic-form="medial" 
d="M280 0c-9.33301 0 -18.835 0.665039 -28.502 1.99805s-19.167 4 -28.5 8s-18 9.83301 -26 17.5s-14.667 17.834 -20 30.501c-3.33301 -6 -7.33301 -12.167 -12 -18.5s-9.66699 -11.166 -15 -14.499c-10 -7.33301 -27.5 -13.333 -52.5 -18s-57.5 -7 -97.5 -7
c-5.33301 -0 -10 2.33301 -14 7s-6 10.667 -6 18c0 8 2 14.167 6 18.5s8.66699 6.5 14 6.5c40 0 71.667 1.5 95 4.5s40 6.5 50 10.5l25 155h35c-1.33301 -18.667 -2.33301 -34 -3 -46s-1.16699 -21.5 -1.5 -28.5s-0.5 -12.333 -0.5 -16v-9.5c0 -14 2.33301 -25.5 7 -34.5
s10.834 -16.167 18.501 -21.5s16.334 -9 26.001 -11s19.167 -3 28.5 -3v-50zM244.998 -130.002l-30 -50l-65 40l30 50zM169.998 -290.002l-65 40l30 50l65 -40zM54.998 -90.002l65 -40l-30 -50l-65 40z" />
    <glyph glyph-name="uniFB7B" unicode="&#x686;" horiz-adv-x="590" arabic-form="final" 
d="M510 -240l-10.002 -35c-40 -5.33301 -77.333 -8.33301 -112 -9s-60.667 -1 -78 -1c-37.333 0 -70.833 3.66699 -100.5 11s-54.834 19.5 -75.501 36.5s-36.5 39.167 -47.5 66.5s-16.5 61 -16.5 101v5c0 32 8.33301 64.5 25 97.5s40.334 64.333 71.001 94
s68 56.334 112 80.001s93 42.5 147 56.5l-82.5 29.5c-25.667 9 -49 16.667 -70 23s-39 11.166 -54 14.499s-26.167 5 -33.5 5c-12.667 0 -26.5 -3.16699 -41.5 -9.5s-26.167 -13.166 -33.5 -20.499v-52c0 -14.667 0.333008 -30.667 1 -48l-11 -10l-23 10
c-1.33301 7.33301 -2 15 -2 23v27c0 28 0.833008 47.5 2.5 58.5s4.16699 18.167 7.5 21.5c1.33301 1.33301 5.33301 4.5 12 9.5s14.667 10.167 24 15.5s20 10 32 14s24.333 6 37 6s29.834 -2.66699 51.501 -8s46.834 -12.5 75.501 -21.5s59.834 -19.5 93.501 -31.5
l104.5 -39l5 -15l-15 -35c-16 0 -31.833 -1.33301 -47.5 -4s-31.5 -6.33398 -47.5 -11.001c1.33301 -30.667 4.83301 -56.5 10.5 -77.5s13.834 -38 24.501 -51s24.167 -22.333 40.5 -28s36.166 -8.5 59.499 -8.5h45v-50h-50c-18 -0 -36.333 1.83301 -55 5.5
s-35.834 12.5 -51.501 26.5s-28.834 34.5 -39.501 61.5s-17 63.5 -19 109.5l-10 -4l-10 -4c-69.333 -29.333 -124.5 -62.833 -165.5 -100.5s-69.167 -84.167 -84.5 -139.5v-5c0 -31.333 3.16699 -58.833 9.5 -82.5s17.5 -43.5 33.5 -59.5s37.333 -28 64 -36
s60.667 -12 102 -12h35.5c12.333 0 26 0.333008 41 1s31.333 1.66699 49 3s37.834 3.33301 60.501 6zM319.998 -180l-65 40l30 50l65 -40zM364.998 -70l-65 40l30 50l65 -40zM204.998 20l65 -40l-30 -50l-65 40z" />
    <glyph glyph-name="uniFB7C" unicode="&#x686;" horiz-adv-x="580" arabic-form="initial" 
d="M0 0c-5.33301 0 -10 2.33008 -14 6.99707s-6 10.667 -6 18c0 8 2 14.167 6 18.5s8.66699 6.5 14 6.5h75c28 0 51.167 0.833008 69.5 2.5s33.5 3.83398 45.5 6.50098s21.833 5.83398 29.5 9.50098s14.5 7.5 20.5 11.5c22 14 41.167 26.833 57.5 38.5l46 34
c14.333 11 28.833 21.5 43.5 31.5s31.334 20 50.001 30c-64 24.667 -116.833 43.5 -158.5 56.5s-69.5 19.5 -83.5 19.5c-12.667 0 -26.5 -3.16699 -41.5 -9.5s-26.167 -13.166 -33.5 -20.499v-53c0 -15.333 0.333008 -29.333 1 -42l-26 -15l-8 10
c-1.33301 12.667 -2 22.334 -2 29.001v21c0 28 0.833008 47.5 2.5 58.5s4.16699 18.167 7.5 21.5c1.33301 1.33301 5.33301 4.5 12 9.5s14.667 10.167 24 15.5s20 10 32 14s24.333 6 37 6s29.334 -2.66699 50.001 -8s44.667 -12.5 72 -21.5s57.333 -19.5 90 -31.5l103 -39
l5 -15l-15 -35c-11.333 0 -21.5 -0.333008 -30.5 -1s-18.833 -3.33398 -29.5 -8.00098s-23.5 -12.167 -38.5 -22.5s-33.833 -24.833 -56.5 -43.5c-32.667 -26 -59.334 -46.5 -80.001 -61.5s-40.334 -26 -59.001 -33s-39 -11.333 -61 -13s-50.333 -2.5 -85 -2.5h-65z
M170 -90.0029l65 -40l-30 -50l-65 40zM285 -290.003l-65 40l30 50l65 -40zM360 -130.003l-30 -50l-65 40l30 50z" />
    <glyph glyph-name="uniFB7D" unicode="&#x686;" horiz-adv-x="590" arabic-form="medial" 
d="M0 0c-5.33301 0 -9.99805 2.32812 -13.998 6.99512s-6 10.667 -6 18c0 8 2 14.167 6 18.5s8.66699 6.5 14 6.5h75c28 0 51.167 0.833008 69.5 2.5s33.5 3.83398 45.5 6.50098s21.833 5.83398 29.5 9.50098s14.5 7.5 20.5 11.5c22 14 41.167 26.833 57.5 38.5l46 34
c14.333 11 28.833 21.5 43.5 31.5s31.334 20 50.001 30c-64 24.667 -116.833 43.5 -158.5 56.5s-69.5 19.5 -83.5 19.5c-12.667 0 -26.5 -3.16699 -41.5 -9.5s-26.167 -13.166 -33.5 -20.499v-53c0 -15.333 0.333008 -29.333 1 -42l-26 -15l-8 10
c-1.33301 12.667 -2 22.334 -2 29.001v21c0 28 0.833008 47.5 2.5 58.5s4.16699 18.167 7.5 21.5c1.33301 1.33301 5.33301 4.5 12 9.5s14.667 10.167 24 15.5s20 10 32 14s24.333 6 37 6s29.334 -2.66699 50.001 -8s44.667 -12.5 72 -21.5s57.333 -19.5 90 -31.5l103 -39
l5 -15l-15 -35c-9.33301 0 -17.666 -0.166992 -24.999 -0.5s-14.833 -1.66602 -22.5 -3.99902s-16.334 -6 -26.001 -11s-20.834 -12.167 -33.501 -21.5c7.33301 -33.333 20.666 -58 39.999 -74s48.333 -24 87 -24h65v-50h-70c-15.333 0 -30.833 1.16699 -46.5 3.5
s-30.5 7.83301 -44.5 16.5s-26.5 21 -37.5 37s-19.833 37.667 -26.5 65l-15 -12c-32.667 -26 -59.334 -46.5 -80.001 -61.5s-40.334 -26 -59.001 -33s-39 -11.333 -61 -13s-50.333 -2.5 -85 -2.5h-65zM360.002 -130.005l-30 -50l-65 40l30 50zM285.002 -290.005l-65 40
l30 50l65 -40zM170.002 -90.0049l65 -40l-30 -50l-65 40z" />
    <glyph glyph-name="uniFB8B" unicode="&#x698;" horiz-adv-x="260" arabic-form="final" 
d="M260 0c-32 0 -55.3359 4.33301 -70.0029 13c-1.33301 -37.333 -9 -70.833 -23 -100.5s-30.667 -55.167 -50 -76.5s-39.166 -37.666 -59.499 -48.999s-37.833 -17 -52.5 -17c-5.33301 0 -13.666 0.833008 -24.999 2.5s-24.666 4.16699 -39.999 7.5v30
c26 1.33301 51 7.5 75 18.5s45.5 25.667 64.5 44s35 39.333 48 63s22.167 48.5 27.5 74.5c-1.33301 12.667 -3.83301 27 -7.5 43s-8 32.833 -13 50.5s-10.5 35.167 -16.5 52.5s-12 33.666 -18 48.999l30 25l15 -5c5.33301 -15.333 10.5 -31.333 15.5 -48l14 -47.5l11.5 -40
c3.33301 -11.667 6.33301 -19.834 9 -24.501c5.33301 -5.33301 12.5 -9.16602 21.5 -11.499s23.5 -3.5 43.5 -3.5v-50zM39.9971 400l65 -40l-30 -50l-65 40zM84.9971 510l65 -40l-30 -50l-65 40zM134.997 350l30 50l65 -40l-30 -50z" />
    <glyph glyph-name="uniFB8F" unicode="&#x6a9;" horiz-adv-x="750" arabic-form="final" 
d="M740 0c-15.333 0 -29.165 0.668945 -41.498 2.00195s-23.333 4.33301 -33 9s-18.5 10.834 -26.5 18.501s-15.667 18.167 -23 31.5c-4 -7.33301 -8 -12.833 -12 -16.5s-8.66699 -6.83398 -14 -9.50098c-22.667 -12.667 -56.834 -22.5 -102.501 -29.5
s-99.834 -10.5 -162.501 -10.5c-34 0 -66.333 1.33301 -97 4s-57.667 8 -81 16s-42 19.5 -56 34.5s-21 35.167 -21 60.5c0 15.333 0.666992 31.5 2 48.5s2.66602 33.167 3.99902 48.5l6 53l38 -3l-7 -83.5c-2 -24.333 -3.66699 -50.5 -5 -78.5
c8 -8.66699 19.333 -16.167 34 -22.5s31.667 -11.5 51 -15.5s40.166 -7 62.499 -9s45.5 -3 69.5 -3c62 0 116.667 3.16699 164 9.5s85.666 16.833 114.999 31.5c-15.333 34.667 -30.666 65.834 -45.999 93.501s-33.166 54.5 -53.499 80.5s-44 52.167 -71 78.5
s-59.833 55.166 -98.5 86.499l5 20c2 8.66699 4.16699 15.667 6.5 21s5.5 9.66602 9.5 12.999s9 6.16602 15 8.49902s14 4.83301 24 7.5l265 75l10 -10l-5 -35l-280 -80c38.667 -32.667 71 -62.167 97 -88.5s48.833 -53.333 68.5 -81s37.834 -57.667 54.501 -90
s35 -70.833 55 -115.5c7.33301 -7.33301 17.833 -12.5 31.5 -15.5s33.167 -4.5 58.5 -4.5v-50h-10z" />
    <glyph glyph-name="uniFB90" unicode="&#x6a9;" horiz-adv-x="395" arabic-form="initial" 
d="M0 0c-5.33301 0 -9.99902 2.33398 -13.999 7.00098s-6 10.667 -6 18c0 8 2 14.167 6 18.5s8.66699 6.5 14 6.5h30c24 0 48.333 0.333008 73 1s48.167 2 70.5 4s42.666 4.66699 60.999 8s33.5 8 45.5 14c0.666992 22 -2.16602 45 -8.49902 69s-18.333 50 -36 78
s-42.167 58.5 -73.5 91.5s-72 69.5 -122 109.5l5 20c2 8.66699 4.16699 15.667 6.5 21s5.5 9.66602 9.5 12.999s9 6.16602 15 8.49902s14 4.83301 24 7.5l265 75l10 -10l-5 -35l-280 -80c51.333 -42.667 91.833 -81.167 121.5 -115.5s52.167 -65.166 67.5 -92.499
s25.166 -51 29.499 -71s6.5 -37 6.5 -51c0 -22.667 -4.83301 -41.5 -14.5 -56.5s-19.834 -25.167 -30.501 -30.5c-17.333 -9.33301 -47.166 -16.333 -89.499 -21s-92.5 -7 -150.5 -7h-30z" />
    <glyph glyph-name="uniFB91" unicode="&#x6a9;" horiz-adv-x="455" arabic-form="medial" 
d="M445 0c-15.333 0 -29.1719 0.668945 -41.5049 2.00195s-23.333 4.33301 -33 9s-18.5 10.834 -26.5 18.501s-15.667 18.167 -23 31.5c-4 -7.33301 -8 -12.833 -12 -16.5s-8.66699 -6.83398 -14 -9.50098c-22.667 -12.667 -56.167 -21.667 -100.5 -27
s-99.166 -8 -164.499 -8h-30c-5.33301 0 -10 2.33301 -14 7s-6 10.667 -6 18c0 8 2 14.167 6 18.5s8.66699 6.5 14 6.5h30c64 0 119.333 2.5 166 7.5s84.334 14.5 113.001 28.5c-15.333 34.667 -30.666 65.834 -45.999 93.501s-33.166 54.5 -53.499 80.5
s-44 52.167 -71 78.5s-59.833 55.166 -98.5 86.499l5 20c2 8.66699 4.16699 15.667 6.5 21s5.5 9.66602 9.5 12.999s9 6.16602 15 8.49902s14 4.83301 24 7.5l265 75l10 -10l-5 -35l-280 -80c38.667 -32.667 71 -62.167 97 -88.5s48.833 -53.333 68.5 -81
s37.834 -57.667 54.501 -90s35 -70.833 55 -115.5c7.33301 -7.33301 17.833 -12.5 31.5 -15.5s33.167 -4.5 58.5 -4.5v-50h-10z" />
    <glyph glyph-name="uniFB93" unicode="&#x6af;" horiz-adv-x="750" arabic-form="final" 
d="M740 0c-15.333 0 -29.1641 0.669922 -41.4971 2.00293s-23.333 4.33301 -33 9s-18.5 10.834 -26.5 18.501s-15.667 18.167 -23 31.5c-4 -7.33301 -8 -12.833 -12 -16.5s-8.66699 -6.83398 -14 -9.50098c-22.667 -12.667 -56.834 -22.5 -102.501 -29.5
s-99.834 -10.5 -162.501 -10.5c-34 0 -66.333 1.33301 -97 4s-57.667 8 -81 16s-42 19.5 -56 34.5s-21 35.167 -21 60.5c0 15.333 0.666992 31.5 2 48.5s2.66602 33.167 3.99902 48.5l6 53l38 -3l-7 -83.5c-2 -24.333 -3.66699 -50.5 -5 -78.5
c8 -8.66699 19.333 -16.167 34 -22.5s31.667 -11.5 51 -15.5s40.166 -7 62.499 -9s45.5 -3 69.5 -3c64 0 119.333 3.5 166 10.5s84 18.167 112 33.5c-15.333 34 -30.5 64.5 -45.5 91.5s-32 52.5 -51 76.5s-40.667 47.833 -65 71.5s-53.166 49.167 -86.499 76.5l5 20
c2 8.66699 4.16699 15.667 6.5 21s5.5 9.66602 9.5 12.999s9 6.16602 15 8.49902s14 4.83301 24 7.5l255 70l10 -10l-5 -35l-270 -75c34 -28.667 62.5 -55 85.5 -79s43.833 -49 62.5 -75s36.167 -54.833 52.5 -86.5s34.5 -69.834 54.5 -114.501
c7.33301 -7.33301 17.833 -12.5 31.5 -15.5s33.167 -4.5 58.5 -4.5v-50h-10zM395.002 570.003l235 65l-5 -40l-235 -65z" />
    <glyph glyph-name="uniFB94" unicode="&#x6af;" horiz-adv-x="395" arabic-form="initial" 
d="M0 0c-5.33301 0 -9.99902 2.33691 -13.999 7.00391s-6 10.667 -6 18c0 8 2 14.167 6 18.5s8.66699 6.5 14 6.5h20c24 0 48.333 0.333008 73 1s48.167 2 70.5 4s42.666 4.66699 60.999 8s33.5 8 45.5 14c0.666992 22 -2 44.667 -8 68s-17.167 48.166 -33.5 74.499
s-39 54.666 -68 84.999s-65.833 63.833 -110.5 100.5l5 20c2 8.66699 4.16699 15.667 6.5 21s5.5 9.66602 9.5 12.999s9 6.16602 15 8.49902s14 4.83301 24 7.5l255 70l10 -10l-5 -35l-270 -75c46 -38.667 82.667 -74 110 -106s48 -60.833 62 -86.5s23 -48.167 27 -67.5
s6 -36 6 -50c0 -22.667 -4.83301 -41.5 -14.5 -56.5s-19.834 -25.167 -30.501 -30.5c-17.333 -9.33301 -47.166 -16.333 -89.499 -21s-92.5 -7 -150.5 -7h-20zM90.001 570.004l235 65l-5 -40l-235 -65z" />
    <glyph glyph-name="uniFB95" unicode="&#x6af;" horiz-adv-x="445" arabic-form="medial" 
d="M435 0c-15.333 0 -29.1689 0.670898 -41.502 2.00391s-23.333 4.33301 -33 9s-18.5 10.834 -26.5 18.501s-15.667 18.167 -23 31.5c-4 -7.33301 -8 -12.833 -12 -16.5s-8.66699 -6.83398 -14 -9.50098c-22.667 -12.667 -56.167 -21.667 -100.5 -27
s-99.166 -8 -164.499 -8h-20c-5.33301 0 -10 2.33301 -14 7s-6 10.667 -6 18c0 8 2 14.167 6 18.5s8.66699 6.5 14 6.5h20c66 0 121.833 2.66699 167.5 8s82.5 15.666 110.5 30.999c-15.333 34 -30.5 64.5 -45.5 91.5s-32 52.5 -51 76.5s-40.667 47.833 -65 71.5
s-53.166 49.167 -86.499 76.5l5 20c2 8.66699 4.16699 15.667 6.5 21s5.5 9.66602 9.5 12.999s9 6.16602 15 8.49902s14 4.83301 24 7.5l255 70l10 -10l-5 -35l-270 -75c34 -28.667 62.5 -55 85.5 -79s43.833 -49 62.5 -75s36.167 -54.833 52.5 -86.5
s34.5 -69.834 54.5 -114.501c7.33301 -7.33301 17.833 -12.5 31.5 -15.5s33.167 -4.5 58.5 -4.5v-50h-10zM89.9971 570.004l235 65l-5 -40l-235 -65z" />
    <glyph glyph-name="uniFBA5" unicode="&#x6c0;" horiz-adv-x="445" arabic-form="final" 
d="M190 25c-42.667 0 -73.3311 7.83594 -91.998 23.5029s-28 41.167 -28 76.5c0 15.333 0.666992 28.666 2 39.999s4 24.333 8 39c4 6.66699 13 15.5 27 26.5s30 22.667 48 35l56.5 37l54.5 33.5l-12 69l30 15l15 -5l51 -330c7.33301 -12.667 20 -21.667 38 -27s37 -8 57 -8
v-50c-15.333 0 -30 1 -44 3s-27 5.66699 -39 11s-22.5 13.166 -31.5 23.499s-15.833 24.166 -20.5 41.499l-10 -23.5c-2.66699 -6.33301 -4.33398 -9.83301 -5.00098 -10.5c-2.66699 -5.33301 -13.834 -10 -33.501 -14s-43.5 -6 -71.5 -6zM273.003 290.003l-51.5029 -30.999
c-17.667 -10.667 -34 -21 -49 -31s-28.167 -19.167 -39.5 -27.5s-19 -15.5 -23 -21.5c-1.33301 -18.667 -1.66602 -34.5 -0.999023 -47.5s3.83398 -23.667 9.50098 -32s14.5 -14.5 26.5 -18.5s28.667 -6 50 -6c18.667 0 37.834 1 57.501 3s38.167 5.33301 55.5 10
c-0.666992 1.33301 -1 3.66602 -1 6.99902zM242 500.004c-76.667 0 -114.999 23.3311 -114.999 69.998c0 14.667 3.66699 29.834 11 45.501s16.5 29.667 27.5 42s22.833 22.5 35.5 30.5s24.667 12 36 12c5.33301 0 12 -2.66699 20 -8s19.667 -13.666 35 -24.999l-17 -29
l-43 22c-5.33301 0 -12 -2.33301 -20 -7s-16 -10.834 -24 -18.501s-15.333 -16.667 -22 -27s-11.334 -21.166 -14.001 -32.499c9.33301 -23.333 41 -35 95 -35h135l-12 -40h-128z" />
    <glyph glyph-name="uniFBAF" unicode="&#x6d2;" horiz-adv-x="365" arabic-form="final" 
d="M265 0c-12.667 0 -27.001 -2.00195 -43.001 -6.00195s-31.667 -10.667 -47 -20s-29.833 -21.333 -43.5 -36s-24.167 -33 -31.5 -55c2.66699 -9.33301 7 -18.166 13 -26.499s15.333 -15.5 28 -21.5s29 -10.833 49 -14.5s45 -5.5 75 -5.5c7.33301 0 22.5 0.166992 45.5 0.5
s49.167 0.666016 78.5 0.999023s59.666 1 90.999 2s59 2.5 83 4.5l7 -12l-15 -38c-14 -0.666992 -30.333 -1.5 -49 -2.5s-38.167 -1.83301 -58.5 -2.5s-40.666 -1.16699 -60.999 -1.5s-39.333 -0.666016 -57 -0.999023s-33.167 -0.5 -46.5 -0.5h-28
c-35.333 0 -64.666 2.66699 -87.999 8s-42.333 12.833 -57 22.5s-25 21.334 -31 35.001s-9 28.5 -9 44.5c0 22.667 5.66699 44.5 17 65.5s26.333 39.667 45 56s39.5 29.333 62.5 39s46.5 14.5 70.5 14.5h100v-50h-100z" />
    <glyph glyph-name="uniFBE8" unicode="&#x649;" horiz-adv-x="280" arabic-form="initial" 
d="M0 0c-5.33301 0 -9.99902 2.33496 -13.999 7.00195s-6 10.667 -6 18c0 8 2 14.167 6 18.5s8.66699 6.5 14 6.5c16 0 32.5 0.333008 49.5 1s33.333 2 49 4s30 4.5 43 7.5s23.5 7.16699 31.5 12.5c0 8.66699 -1 21 -3 37s-5 33.333 -9 52s-8.66699 37.834 -14 57.501
s-11 37.5 -17 53.5l30 25l15 -5c4 -8.66699 8 -20.334 12 -35.001s7.66699 -30.334 11 -47.001s6.16602 -33.167 8.49902 -49.5s3.5 -30.833 3.5 -43.5c0 -25.333 -5.16699 -46.333 -15.5 -63s-21.833 -28.334 -34.5 -35.001c-13.333 -7.33301 -34.5 -12.833 -63.5 -16.5
s-61.167 -5.5 -96.5 -5.5z" />
    <glyph glyph-name="uniFBE9" unicode="&#x649;" horiz-adv-x="280" arabic-form="medial" 
d="M280 0c-9.33301 0 -18.835 0.665039 -28.502 1.99805s-19.167 4 -28.5 8s-18 9.83301 -26 17.5s-14.667 17.834 -20 30.501c-3.33301 -6 -7.33301 -12.167 -12 -18.5s-9.66699 -11.166 -15 -14.499c-10 -7.33301 -27.5 -13.333 -52.5 -18s-57.5 -7 -97.5 -7
c-5.33301 -0 -10 2.33301 -14 7s-6 10.667 -6 18c0 8 2 14.167 6 18.5s8.66699 6.5 14 6.5c40 0 71.667 1.5 95 4.5s40 6.5 50 10.5l25 155h35c-1.33301 -18.667 -2.33301 -34 -3 -46s-1.16699 -21.5 -1.5 -28.5s-0.5 -12.333 -0.5 -16v-9.5c0 -14 2.33301 -25.5 7 -34.5
s10.834 -16.167 18.501 -21.5s16.334 -9 26.001 -11s19.167 -3 28.5 -3v-50v0z" />
    <glyph glyph-name="uniFBFD" unicode="&#x6cc;" horiz-adv-x="610" arabic-form="final" 
d="M562 0c2 -6 2.99902 -14.334 2.99902 -25.001c0 -10 -0.666992 -20.667 -2 -32s-3 -22.166 -5 -32.499s-4.16699 -19.5 -6.5 -27.5s-4.5 -14 -6.5 -18c-4 -6 -13 -14.667 -27 -26s-32.333 -22.5 -55 -33.5s-49.5 -20.5 -80.5 -28.5s-65.167 -12 -102.5 -12
c-38.667 0 -71.334 3.83301 -98.001 11.5s-48.334 17.834 -65.001 30.501s-28.667 27.5 -36 44.5s-11 34.833 -11 53.5c0 17.333 1 39 3 65s4.33301 51.333 7 76c2.66699 28.667 6 58.334 10 89.001l38 -3c-2.66699 -34 -5.33398 -66.333 -8.00098 -97l-6 -80
c-2 -27.333 -3.33301 -49 -4 -65c10 -20 28.833 -37.5 56.5 -52.5s65.5 -22.5 113.5 -22.5c22 0 44 1.66699 66 5s43.333 8.16602 64 14.499s39.667 13.666 57 21.999s32.333 17.5 45 27.5c3.33301 16 5.83301 33.833 7.5 53.5s1.83398 37.167 0.500977 52.5
c-6 2.66699 -13.667 4.66699 -23 6s-22.666 2.5 -39.999 3.5s-39.666 1.83301 -66.999 2.5s-62.333 1.66699 -105 3l-5 10c1.33301 3.33301 2.5 6.5 3.5 9.5s2.16699 6.16699 3.5 9.5c2.66699 6.66699 5.83398 11 9.50098 13s8.16699 3 13.5 3h300v-50h-48z" />
    <glyph glyph-name="uniFBFE" unicode="&#x6cc;" horiz-adv-x="280" arabic-form="initial" 
d="M0 0c-5.33301 0 -9.99902 2.33496 -13.999 7.00195s-6 10.667 -6 18c0 8 2 14.167 6 18.5s8.66699 6.5 14 6.5c16 0 32.5 0.333008 49.5 1s33.333 2 49 4s30 4.5 43 7.5s23.5 7.16699 31.5 12.5c0 8.66699 -1 21 -3 37s-5 33.333 -9 52s-8.66699 37.834 -14 57.501
s-11 37.5 -17 53.5l30 25l15 -5c4 -8.66699 8 -20.334 12 -35.001s7.66699 -30.334 11 -47.001s6.16602 -33.167 8.49902 -49.5s3.5 -30.833 3.5 -43.5c0 -25.333 -5.16699 -46.333 -15.5 -63s-21.833 -28.334 -34.5 -35.001c-13.333 -7.33301 -34.5 -12.833 -63.5 -16.5
s-61.167 -5.5 -96.5 -5.5zM169.001 -129.998l-30 -50l-65 40l30 50zM-20.999 -89.998l65 -40l-30 -50l-65 40z" />
    <glyph glyph-name="uniFBFF" unicode="&#x6cc;" horiz-adv-x="280" arabic-form="medial" 
d="M280 0c-9.33301 0 -18.835 0.665039 -28.502 1.99805s-19.167 4 -28.5 8s-18 9.83301 -26 17.5s-14.667 17.834 -20 30.501c-3.33301 -6 -7.33301 -12.167 -12 -18.5s-9.66699 -11.166 -15 -14.499c-10 -7.33301 -27.5 -13.333 -52.5 -18s-57.5 -7 -97.5 -7
c-5.33301 -0 -10 2.33301 -14 7s-6 10.667 -6 18c0 8 2 14.167 6 18.5s8.66699 6.5 14 6.5c40 0 71.667 1.5 95 4.5s40 6.5 50 10.5l25 155h35c-1.33301 -18.667 -2.33301 -34 -3 -46s-1.16699 -21.5 -1.5 -28.5s-0.5 -12.333 -0.5 -16v-9.5c0 -14 2.33301 -25.5 7 -34.5
s10.834 -16.167 18.501 -21.5s16.334 -9 26.001 -11s19.167 -3 28.5 -3v-50zM244.998 -130.002l-30 -50l-65 40l30 50zM54.998 -90.002l65 -40l-30 -50l-65 40z" />
    <glyph glyph-name="uniFC5E" unicode="&#xfc5e;" arabic-form="isolated" 
d="M-65 350c0 -6 -1.16602 -15.665 -3.49902 -28.998s-6.5 -30.666 -12.5 -51.999l111 56c2.66699 1.33301 5.16699 2.66602 7.5 3.99902s4.83301 2.66602 7.5 3.99902c-9.33301 4 -18.333 9.33301 -27 16s-16.667 13.667 -24 21s-13.166 15.333 -17.499 24s-6.5 17 -6.5 25
c0 4 0.5 8.33301 1.5 13s4.66699 10.834 11 18.501s16.166 17.834 29.499 30.501s32.666 29 57.999 49c22.667 -15.333 40 -32.5 52 -51.5s18 -38.5 18 -58.5c0 -10 -1.5 -20.333 -4.5 -31s-8.5 -21.5 -16.5 -32.5s-19.167 -22.167 -33.5 -33.5s-32.833 -22.333 -55.5 -33
l-115 -55l-25 20c2.66699 8.66699 5.16699 17.834 7.5 27.501l6.5 27c2 8.33301 3.5 15.666 4.5 21.999s1.5 10.833 1.5 13.5c0 7.33301 -3.5 16.666 -10.5 27.999s-21.833 27 -44.5 47l15 30c27.333 -22.667 45 -41.834 53 -57.501s12 -29.834 12 -42.501z
M-4.99902 430.002c2.66699 -12 11.667 -25.333 27 -40s33.333 -27 54 -37c10.667 8.66699 19 18 25 28s9 21.333 9 34c0 30 -15 55 -45 75zM90.001 0.00195312c-25.333 0 -45.167 2.33398 -59.5 7.00098s-25.5 14.667 -33.5 30c-8 -15.333 -18.5 -25.333 -31.5 -30
s-28.167 -7 -45.5 -7c-20 0 -35 4.33301 -45 13s-15 19.334 -15 32.001c0 15.333 1 31.333 3 48s4.33301 38.334 7 65.001l30 -3l-10 -105c1.33301 -2.66699 3.33301 -5.33398 6 -8.00098c6 -4.66699 15.667 -7 29 -7c20 0 33.833 3.16699 41.5 9.5
s12.167 18.166 13.5 35.499l5 45h30v-45c0 -18.667 6.5 -30.834 19.5 -36.501s33.833 -8.5 62.5 -8.5c4 15.333 5.66699 31.666 5 48.999s-4.66699 41 -12 71l27 15l8 -5c2.66699 -12.667 4.66699 -23.167 6 -31.5s2.33301 -15.5 3 -21.5s1 -11 1 -15v-12
c0 -12.667 -1.66699 -25.667 -5 -39s-10 -28.666 -20 -45.999h-20z" />
    <glyph glyph-name="uniFC5F" unicode="&#xfc5f;" arabic-form="isolated" 
d="M90 325c-25.333 0 -45.167 2.33398 -59.5 7.00098s-25.5 14.667 -33.5 30c-8 -15.333 -18.5 -25.333 -31.5 -30s-28.167 -7 -45.5 -7c-20 0 -35 4.33301 -45 13s-15 19.334 -15 32.001c0 15.333 1 31.333 3 48s4.33301 38.334 7 65.001l30 -3l-10 -105
c1.33301 -2.66699 3.33301 -5.33398 6 -8.00098c6 -4.66699 15.667 -7 29 -7c20 0 33.833 3.16699 41.5 9.5s12.167 18.166 13.5 35.499l5 45h30v-45c0 -18.667 6.5 -30.834 19.5 -36.501s33.833 -8.5 62.5 -8.5c4 15.333 5.66699 31.666 5 48.999s-4.66699 41 -12 71l27 15
l8 -5c2.66699 -12.667 4.66699 -23.167 6 -31.5s2.33301 -15.5 3 -21.5s1 -11 1 -15v-12c0 -12.667 -1.66699 -25.667 -5 -39s-10 -28.666 -20 -45.999h-20zM104.999 105.001l5 -30l-215 -85l-5 30zM104.999 215.001l5 -30l-215 -85l-5 30z" />
    <glyph glyph-name="uniFC60" unicode="&#xfc60;" arabic-form="isolated" 
d="M105 350l5 -30l-215 -85l-5 30zM90 0c-25.333 0 -45.167 2.33398 -59.5 7.00098s-25.5 14.667 -33.5 30c-8 -15.333 -18.5 -25.333 -31.5 -30s-28.167 -7 -45.5 -7c-20 0 -35 4.33301 -45 13s-15 19.334 -15 32.001c0 15.333 1 31.333 3 48s4.33301 38.334 7 65.001
l30 -3l-10 -105c1.33301 -2.66699 3.33301 -5.33398 6 -8.00098c6 -4.66699 15.667 -7 29 -7c20 0 33.833 3.16699 41.5 9.5s12.167 18.166 13.5 35.499l5 45h30v-45c0 -18.667 6.5 -30.834 19.5 -36.501s33.833 -8.5 62.5 -8.5c4 15.333 5.66699 31.666 5 48.999
s-4.66699 41 -12 71l27 15l8 -5c2.66699 -12.667 4.66699 -23.167 6 -31.5s2.33301 -15.5 3 -21.5s1 -11 1 -15v-12c0 -12.667 -1.66699 -25.667 -5 -39s-10 -28.666 -20 -45.999h-20z" />
    <glyph glyph-name="uniFC61" unicode="&#xfc61;" arabic-form="isolated" 
d="M0 320c2.66699 1.33301 5.16797 2.66602 7.50098 3.99902s4.83301 2.66602 7.5 3.99902c-9.33301 4 -18.333 9.33301 -27 16s-16.667 13.667 -24 21s-13.166 15.333 -17.499 24s-6.5 17 -6.5 25c0 4 0.5 8.33301 1.5 13s4.66699 10.834 11 18.501
s16.166 17.834 29.499 30.501s32.666 29 57.999 49c22.667 -15.333 40 -32.5 52 -51.5s18 -38.5 18 -58.5c0 -10 -1.5 -20.333 -4.5 -31s-8.5 -21.5 -16.5 -32.5s-19.167 -22.167 -33.5 -33.5s-32.833 -22.333 -55.5 -33l-105 -50l-5 30zM80.001 410c0 30 -15 55 -45 75
l-70 -60c2.66699 -12 11.667 -25.333 27 -40s33.333 -27 54 -37c10.667 8.66699 19 18 25 28s9 21.333 9 34zM90.001 0c-25.333 0 -45.167 2.33398 -59.5 7.00098s-25.5 14.667 -33.5 30c-8 -15.333 -18.5 -25.333 -31.5 -30s-28.167 -7 -45.5 -7c-20 0 -35 4.33301 -45 13
s-15 19.334 -15 32.001c0 15.333 1 31.333 3 48s4.33301 38.334 7 65.001l30 -3l-10 -105c1.33301 -2.66699 3.33301 -5.33398 6 -8.00098c6 -4.66699 15.667 -7 29 -7c20 0 33.833 3.16699 41.5 9.5s12.167 18.166 13.5 35.499l5 45h30v-45
c0 -18.667 6.5 -30.834 19.5 -36.501s33.833 -8.5 62.5 -8.5c4 15.333 5.66699 31.666 5 48.999s-4.66699 41 -12 71l27 15l8 -5c2.66699 -12.667 4.66699 -23.167 6 -31.5s2.33301 -15.5 3 -21.5s1 -11 1 -15v-12c0 -12.667 -1.66699 -25.667 -5 -39
s-10 -28.666 -20 -45.999h-20z" />
    <glyph glyph-name="uniFC62" unicode="&#xfc62;" arabic-form="isolated" 
d="M90 200c-25.333 0 -45.167 2.33398 -59.5 7.00098s-25.5 14.667 -33.5 30c-8 -15.333 -18.5 -25.333 -31.5 -30s-28.167 -7 -45.5 -7c-20 0 -35 4.33301 -45 13s-15 19.334 -15 32.001c0 15.333 1 31.333 3 48s4.33301 38.334 7 65.001l30 -3l-10 -105
c1.33301 -2.66699 3.33301 -5.33398 6 -8.00098c6 -4.66699 15.667 -7 29 -7c20 0 33.833 3.16699 41.5 9.5s12.167 18.166 13.5 35.499l5 45h30v-45c0 -18.667 6.5 -30.834 19.5 -36.501s33.833 -8.5 62.5 -8.5c4 15.333 5.66699 31.666 5 48.999s-4.66699 41 -12 71l27 15
l8 -5c2.66699 -12.667 4.66699 -23.167 6 -31.5s2.33301 -15.5 3 -21.5s1 -11 1 -15v-12c0 -12.667 -1.66699 -25.667 -5 -39s-10 -28.666 -20 -45.999h-20zM104.999 105.001l5 -30l-215 -85l-5 30z" />
    <glyph glyph-name="uniFC63" unicode="&#xfc63;" arabic-form="isolated" 
d="M90 0c-25.333 0 -45.167 2.33398 -59.5 7.00098s-25.5 14.667 -33.5 30c-8 -15.333 -18.5 -25.333 -31.5 -30s-28.167 -7 -45.5 -7c-20 0 -35 4.33301 -45 13s-15 19.334 -15 32.001c0 15.333 1 31.333 3 48s4.33301 38.334 7 65.001l30 -3l-10 -105
c1.33301 -2.66699 3.33301 -5.33398 6 -8.00098c6 -4.66699 15.667 -7 29 -7c20 0 33.833 3.16699 41.5 9.5s12.167 18.166 13.5 35.499l5 45h30v-45c0 -18.667 6.5 -30.834 19.5 -36.501s33.833 -8.5 62.5 -8.5c4 15.333 5.66699 31.666 5 48.999s-4.66699 41 -12 71l27 15
l8 -5c2.66699 -12.667 4.66699 -23.167 6 -31.5s2.33301 -15.5 3 -21.5s1 -11 1 -15v-12c0 -12.667 -1.66699 -25.667 -5 -39s-10 -28.666 -20 -45.999h-20zM-14.001 220.001v59.999c0 16 -0.166992 29.5 -0.5 40.5s-1.5 21 -3.5 30s-5 18 -9 27s-9.66699 19.833 -17 32.5
l25 30c8.66699 -11.333 15.334 -22.166 20.001 -32.499s8.16699 -21.5 10.5 -33.5s3.66602 -25.167 3.99902 -39.5s0.5 -30.833 0.5 -49.5v-55z" />
    <glyph glyph-name="uniFC64" unicode="&#xfc64;" horiz-adv-x="495" arabic-form="final" 
d="M495 0c-25.333 0 -46.3418 2.49707 -63.0088 7.49707s-30.5 12.5 -41.5 22.5s-19.667 22.5 -26 37.5s-11.166 32.5 -14.499 52.5l-14 80c-24.667 -7.33301 -52.167 -14.333 -82.5 -21s-59.166 -11.667 -86.499 -15c6 -21.333 11.333 -44.666 16 -69.999s7 -48.333 7 -69
c0 -38.667 -6.83301 -73.667 -20.5 -105s-30.167 -58.166 -49.5 -80.499s-39.666 -39.5 -60.999 -51.5s-39.333 -18 -54 -18c-5.33301 0 -13.666 0.833008 -24.999 2.5s-24.666 4.16699 -39.999 7.5v30c26 1.33301 51 7.5 75 18.5s45.5 25.667 64.5 44s35 39.333 48 63
s22.167 48.5 27.5 74.5c-1.33301 12.667 -3.66602 27 -6.99902 43s-7.16602 31.667 -11.499 47s-8.83301 29.833 -13.5 43.5s-9 24.167 -13 31.5l18 35c16 1.33301 33.667 3.5 53 6.5s38.833 6.5 58.5 10.5s38.834 8.33301 57.501 13s35.667 9.66699 51 15l20 -10l17 -105
c5.33301 -35.333 16.833 -59.166 34.5 -71.499s42.834 -18.5 75.501 -18.5v-50zM371.991 549.997l-7 -24.999h-96c-6 -12 -9 -23.833 -9 -35.5s2.5 -22.334 7.5 -32.001s12.333 -17.5 22 -23.5s21.5 -9 35.5 -9c10 0 22.5 1.5 37.5 4.5s32.5 8.16699 52.5 15.5l5 -35
l-195 -70l-5 30l66 27c-17.333 6.66699 -31 17.5 -41 32.5s-15 31.833 -15 50.5c0 10 1.66699 21.5 5 34.5s10 28.167 20 45.5h110z" />
    <glyph glyph-name="uniFC65" unicode="&#xfc65;" horiz-adv-x="495" arabic-form="final" 
d="M495 0c-25.333 0 -46.3418 2.49707 -63.0088 7.49707s-30.5 12.5 -41.5 22.5s-19.667 22.5 -26 37.5s-11.166 32.5 -14.499 52.5l-14 80c-24.667 -7.33301 -52.167 -14.333 -82.5 -21s-59.166 -11.667 -86.499 -15c6 -21.333 11.333 -44.666 16 -69.999s7 -48.333 7 -69
c0 -38.667 -6.83301 -73.667 -20.5 -105s-30.167 -58.166 -49.5 -80.499s-39.666 -39.5 -60.999 -51.5s-39.333 -18 -54 -18c-5.33301 0 -13.666 0.833008 -24.999 2.5s-24.666 4.16699 -39.999 7.5v30c26 1.33301 51 7.5 75 18.5s45.5 25.667 64.5 44s35 39.333 48 63
s22.167 48.5 27.5 74.5c-1.33301 12.667 -3.66602 27 -6.99902 43s-7.16602 31.667 -11.499 47s-8.83301 29.833 -13.5 43.5s-9 24.167 -13 31.5l18 35c16 1.33301 33.667 3.5 53 6.5s38.833 6.5 58.5 10.5s38.834 8.33301 57.501 13s35.667 9.66699 51 15l20 -10l17 -105
c5.33301 -35.333 16.833 -59.166 34.5 -71.499s42.834 -18.5 75.501 -18.5v-50zM401.991 549.997l-7 -24.999h-96c-6 -12 -9 -23.833 -9 -35.5s2.5 -22.334 7.5 -32.001s12.333 -17.5 22 -23.5s21.5 -9 35.5 -9c10 0 22.5 1.5 37.5 4.5s32.5 8.16699 52.5 15.5l5 -35
l-195 -70l-5 30l66 27c-17.333 6.66699 -31 17.5 -41 32.5s-15 31.833 -15 50.5c0 10 1.66699 21.5 5 34.5s10 28.167 20 45.5h110zM134.991 309.998l-65 40l30 50l65 -40z" />
    <glyph glyph-name="uniFC67" unicode="&#xfc67;" horiz-adv-x="875" arabic-form="final" 
d="M875 0c-25.333 0 -46.333 2.49707 -63 7.49707s-30.5 12.5 -41.5 22.5s-19.667 22.5 -26 37.5s-11.166 32.5 -14.499 52.5l-14 80c-25.333 -7.33301 -54.166 -14.5 -86.499 -21.5s-62.5 -12.167 -90.5 -15.5c9.33301 -48 16 -89.833 20 -125.5s6 -63.167 6 -82.5
c0 -17.333 -1.66699 -34 -5 -50s-8.33301 -29.333 -15 -40c-4 -6 -13 -14.667 -27 -26s-32.333 -22.5 -55 -33.5s-49.5 -20.5 -80.5 -28.5s-65.167 -12 -102.5 -12c-38.667 0 -71.334 3.83301 -98.001 11.5s-48.334 17.834 -65.001 30.501s-28.667 27.5 -36 44.5
s-11 34.833 -11 53.5c0 17.333 1 39 3 65s4.33301 51.333 7 76c2.66699 28.667 6 58.334 10 89.001l38 -3c-2.66699 -34 -5.33398 -66.333 -8.00098 -97l-6 -80c-2 -27.333 -3.33301 -49 -4 -65c10 -20 28.833 -37.5 56.5 -52.5s65.5 -22.5 113.5 -22.5c24 0 48 2 72 6
s47 9.66699 69 17s42 15.833 60 25.5s32.667 20.167 44 31.5c0 23.333 -1 47.5 -3 72.5s-4.83301 49.833 -8.5 74.5s-7.66699 48.5 -12 71.5s-8.83301 44.5 -13.5 64.5l20 32c16 1.33301 33.667 3.5 53 6.5s38.833 6.5 58.5 10.5s38.834 8.33301 57.501 13
s35.667 9.66699 51 15l20 -10l17 -105c6 -35.333 17.667 -59.166 35 -71.499s42.333 -18.5 75 -18.5v-50zM752 549.997l-7 -24.999h-96c-6 -12 -9 -23.833 -9 -35.5s2.5 -22.334 7.5 -32.001s12.333 -17.5 22 -23.5s21.5 -9 35.5 -9c10 0 22.5 1.5 37.5 4.5
s32.5 8.16699 52.5 15.5l5 -35l-195 -70l-5 30l66 27c-17.333 6.66699 -31 17.5 -41 32.5s-15 31.833 -15 50.5c0 10 1.66699 21.5 5 34.5s10 28.167 20 45.5h110zM300 229.998l-65 40l30 50l65 -40z" />
    <glyph glyph-name="uniFC68" unicode="&#xfc68;" horiz-adv-x="825" arabic-form="final" 
d="M795 0c-30 0 -56.6689 5.16309 -80.002 15.4961s-44.166 23.666 -62.499 39.999s-34.666 34.333 -48.999 54s-27.333 38.5 -39 56.5l-32.5 48.5c-10 14.333 -20 24.5 -30 30.5c-20 0 -40.667 -5.16699 -62 -15.5s-41 -24.166 -59 -41.499s-33.5 -37 -46.5 -59
s-21.5 -45 -25.5 -69c4 -4 9.5 -7.33301 16.5 -10s17.333 -5.16699 31 -7.5s31.5 -4.66602 53.5 -6.99902s50 -4.83301 84 -7.5c18.667 -1.33301 33.667 -3.83301 45 -7.5s20 -8.16699 26 -13.5s9.83301 -11.5 11.5 -18.5s2.5 -14.833 2.5 -23.5
c0 -22.667 -2 -43.167 -6 -61.5s-8.33301 -31.166 -13 -38.499c-4 -6 -13 -14.667 -27 -26s-32.833 -22.5 -56.5 -33.5s-52 -20.5 -85 -28.5s-70.167 -12 -111.5 -12c-38.667 0 -71.334 3.83301 -98.001 11.5s-48.334 17.834 -65.001 30.501s-28.667 27.5 -36 44.5
s-11 34.833 -11 53.5c0 17.333 1 39 3 65s4.33301 51.333 7 76c2.66699 28.667 6 58.334 10 89.001l38 -3c-2.66699 -34 -5.33398 -66.333 -8.00098 -97l-6 -80c-2 -27.333 -3.33301 -49 -4 -65c10 -20 28.833 -37.5 56.5 -52.5s65.5 -22.5 113.5 -22.5
c52.667 0 100.834 6.66699 144.501 20s77.834 29.666 102.501 48.999c4 14.667 6.83301 28 8.5 40s1.83398 25.667 0.500977 41c-4 2.66699 -10.833 4.66699 -20.5 6s-21 2.33301 -34 3s-27.167 1.5 -42.5 2.5s-30.333 2.16699 -45 3.5c-24 2.66699 -43.667 6 -59 10
s-27.5 9 -36.5 15s-15.333 13.5 -19 22.5s-5.5 19.833 -5.5 32.5c0 26 6.66699 53 20 81s31 53.333 53 76s47 41.334 75 56.001s56.333 22 85 22c11.333 0 22.333 -6 33 -18s21.667 -27.167 33 -45.5l38 -59c14 -21 30 -40.667 48 -59s38.833 -33.5 62.5 -45.5
s51.5 -18 83.5 -18h20v-50h-30zM541.998 589.996l-7 -24.999h-96c-6 -12 -9 -23.833 -9 -35.5s2.5 -22.334 7.5 -32.001s12.333 -17.5 22 -23.5s21.5 -9 35.5 -9c10 0 22.5 1.5 37.5 4.5s32.5 8.16699 52.5 15.5l5 -35l-195 -70l-5 30l66 27
c-17.333 6.66699 -31 17.5 -41 32.5s-15 31.833 -15 50.5c0 10 1.66699 21.5 5 34.5s10 28.167 20 45.5h110z" />
    <glyph glyph-name="uniFC6A" unicode="&#xfc6a;" horiz-adv-x="495" arabic-form="final" 
d="M495 0c-25.333 0 -46.3418 2.49707 -63.0088 7.49707s-30.5 12.5 -41.5 22.5s-19.667 22.5 -26 37.5s-11.166 32.5 -14.499 52.5l-14 80c-24.667 -7.33301 -52.167 -14.333 -82.5 -21s-59.166 -11.667 -86.499 -15c6 -21.333 11.333 -44.666 16 -69.999s7 -48.333 7 -69
c0 -38.667 -6.83301 -73.667 -20.5 -105s-30.167 -58.166 -49.5 -80.499s-39.666 -39.5 -60.999 -51.5s-39.333 -18 -54 -18c-5.33301 0 -13.666 0.833008 -24.999 2.5s-24.666 4.16699 -39.999 7.5v30c26 1.33301 51 7.5 75 18.5s45.5 25.667 64.5 44s35 39.333 48 63
s22.167 48.5 27.5 74.5c-1.33301 12.667 -3.66602 27 -6.99902 43s-7.16602 31.667 -11.499 47s-8.83301 29.833 -13.5 43.5s-9 24.167 -13 31.5l18 35c16 1.33301 33.667 3.5 53 6.5s38.833 6.5 58.5 10.5s38.834 8.33301 57.501 13s35.667 9.66699 51 15l20 -10l17 -105
c5.33301 -35.333 16.833 -59.166 34.5 -71.499s42.834 -18.5 75.501 -18.5v-50zM394.991 -130.003l-30 -50l-65 40l30 50z" />
    <glyph glyph-name="uniFC6B" unicode="&#xfc6b;" horiz-adv-x="495" arabic-form="final" 
d="M495 0c-25.333 0 -46.3418 2.49707 -63.0088 7.49707s-30.5 12.5 -41.5 22.5s-19.667 22.5 -26 37.5s-11.166 32.5 -14.499 52.5l-14 80c-24.667 -7.33301 -52.167 -14.333 -82.5 -21s-59.166 -11.667 -86.499 -15c6 -21.333 11.333 -44.666 16 -69.999s7 -48.333 7 -69
c0 -38.667 -6.83301 -73.667 -20.5 -105s-30.167 -58.166 -49.5 -80.499s-39.666 -39.5 -60.999 -51.5s-39.333 -18 -54 -18c-5.33301 0 -13.666 0.833008 -24.999 2.5s-24.666 4.16699 -39.999 7.5v30c26 1.33301 51 7.5 75 18.5s45.5 25.667 64.5 44s35 39.333 48 63
s22.167 48.5 27.5 74.5c-1.33301 12.667 -3.66602 27 -6.99902 43s-7.16602 31.667 -11.499 47s-8.83301 29.833 -13.5 43.5s-9 24.167 -13 31.5l18 35c16 1.33301 33.667 3.5 53 6.5s38.833 6.5 58.5 10.5s38.834 8.33301 57.501 13s35.667 9.66699 51 15l20 -10l17 -105
c5.33301 -35.333 16.833 -59.166 34.5 -71.499s42.834 -18.5 75.501 -18.5v-50zM394.991 -130.003l-30 -50l-65 40l30 50zM134.991 309.997l-65 40l30 50l65 -40z" />
    <glyph glyph-name="uniFC6D" unicode="&#xfc6d;" horiz-adv-x="875" arabic-form="final" 
d="M875 0c-25.333 0 -46.333 2.49707 -63 7.49707s-30.5 12.5 -41.5 22.5s-19.667 22.5 -26 37.5s-11.166 32.5 -14.499 52.5l-14 80c-25.333 -7.33301 -54.166 -14.5 -86.499 -21.5s-62.5 -12.167 -90.5 -15.5c9.33301 -48 16 -89.833 20 -125.5s6 -63.167 6 -82.5
c0 -17.333 -1.66699 -34 -5 -50s-8.33301 -29.333 -15 -40c-4 -6 -13 -14.667 -27 -26s-32.333 -22.5 -55 -33.5s-49.5 -20.5 -80.5 -28.5s-65.167 -12 -102.5 -12c-38.667 0 -71.334 3.83301 -98.001 11.5s-48.334 17.834 -65.001 30.501s-28.667 27.5 -36 44.5
s-11 34.833 -11 53.5c0 17.333 1 39 3 65s4.33301 51.333 7 76c2.66699 28.667 6 58.334 10 89.001l38 -3c-2.66699 -34 -5.33398 -66.333 -8.00098 -97l-6 -80c-2 -27.333 -3.33301 -49 -4 -65c10 -20 28.833 -37.5 56.5 -52.5s65.5 -22.5 113.5 -22.5c24 0 48 2 72 6
s47 9.66699 69 17s42 15.833 60 25.5s32.667 20.167 44 31.5c0 23.333 -1 47.5 -3 72.5s-4.83301 49.833 -8.5 74.5s-7.66699 48.5 -12 71.5s-8.83301 44.5 -13.5 64.5l20 32c16 1.33301 33.667 3.5 53 6.5s38.833 6.5 58.5 10.5s38.834 8.33301 57.501 13
s35.667 9.66699 51 15l20 -10l17 -105c6 -35.333 17.667 -59.166 35 -71.499s42.333 -18.5 75 -18.5v-50zM805 -130.003l-30 -50l-65 40l30 50zM300 229.997l-65 40l30 50l65 -40z" />
    <glyph glyph-name="uniFC70" unicode="&#xfc70;" horiz-adv-x="495" arabic-form="final" 
d="M495 0c-25.333 0 -46.3418 2.49707 -63.0088 7.49707s-30.5 12.5 -41.5 22.5s-19.667 22.5 -26 37.5s-11.166 32.5 -14.499 52.5l-14 80c-24.667 -7.33301 -52.167 -14.333 -82.5 -21s-59.166 -11.667 -86.499 -15c6 -21.333 11.333 -44.666 16 -69.999s7 -48.333 7 -69
c0 -38.667 -6.83301 -73.667 -20.5 -105s-30.167 -58.166 -49.5 -80.499s-39.666 -39.5 -60.999 -51.5s-39.333 -18 -54 -18c-5.33301 0 -13.666 0.833008 -24.999 2.5s-24.666 4.16699 -39.999 7.5v30c26 1.33301 51 7.5 75 18.5s45.5 25.667 64.5 44s35 39.333 48 63
s22.167 48.5 27.5 74.5c-1.33301 12.667 -3.66602 27 -6.99902 43s-7.16602 31.667 -11.499 47s-8.83301 29.833 -13.5 43.5s-9 24.167 -13 31.5l18 35c16 1.33301 33.667 3.5 53 6.5s38.833 6.5 58.5 10.5s38.834 8.33301 57.501 13s35.667 9.66699 51 15l20 -10l17 -105
c5.33301 -35.333 16.833 -59.166 34.5 -71.499s42.834 -18.5 75.501 -18.5v-50zM239.991 439.997l65 -40l-30 -50l-65 40zM334.991 389.997l30 50l65 -40l-30 -50z" />
    <glyph glyph-name="uniFC71" unicode="&#xfc71;" horiz-adv-x="495" arabic-form="final" 
d="M495 0c-25.333 0 -46.3418 2.49707 -63.0088 7.49707s-30.5 12.5 -41.5 22.5s-19.667 22.5 -26 37.5s-11.166 32.5 -14.499 52.5l-14 80c-24.667 -7.33301 -52.167 -14.333 -82.5 -21s-59.166 -11.667 -86.499 -15c6 -21.333 11.333 -44.666 16 -69.999s7 -48.333 7 -69
c0 -38.667 -6.83301 -73.667 -20.5 -105s-30.167 -58.166 -49.5 -80.499s-39.666 -39.5 -60.999 -51.5s-39.333 -18 -54 -18c-5.33301 0 -13.666 0.833008 -24.999 2.5s-24.666 4.16699 -39.999 7.5v30c26 1.33301 51 7.5 75 18.5s45.5 25.667 64.5 44s35 39.333 48 63
s22.167 48.5 27.5 74.5c-1.33301 12.667 -3.66602 27 -6.99902 43s-7.16602 31.667 -11.499 47s-8.83301 29.833 -13.5 43.5s-9 24.167 -13 31.5l18 35c16 1.33301 33.667 3.5 53 6.5s38.833 6.5 58.5 10.5s38.834 8.33301 57.501 13s35.667 9.66699 51 15l20 -10l17 -105
c5.33301 -35.333 16.833 -59.166 34.5 -71.499s42.834 -18.5 75.501 -18.5v-50zM134.991 309.997l-65 40l30 50l65 -40zM364.991 389.997l30 50l65 -40l-30 -50zM269.991 439.997l65 -40l-30 -50l-65 40z" />
    <glyph glyph-name="uniFC73" unicode="&#xfc73;" horiz-adv-x="875" arabic-form="final" 
d="M875 0c-25.333 0 -46.333 2.49707 -63 7.49707s-30.5 12.5 -41.5 22.5s-19.667 22.5 -26 37.5s-11.166 32.5 -14.499 52.5l-14 80c-25.333 -7.33301 -54.166 -14.5 -86.499 -21.5s-62.5 -12.167 -90.5 -15.5c9.33301 -48 16 -89.833 20 -125.5s6 -63.167 6 -82.5
c0 -17.333 -1.66699 -34 -5 -50s-8.33301 -29.333 -15 -40c-4 -6 -13 -14.667 -27 -26s-32.333 -22.5 -55 -33.5s-49.5 -20.5 -80.5 -28.5s-65.167 -12 -102.5 -12c-38.667 0 -71.334 3.83301 -98.001 11.5s-48.334 17.834 -65.001 30.501s-28.667 27.5 -36 44.5
s-11 34.833 -11 53.5c0 17.333 1 39 3 65s4.33301 51.333 7 76c2.66699 28.667 6 58.334 10 89.001l38 -3c-2.66699 -34 -5.33398 -66.333 -8.00098 -97l-6 -80c-2 -27.333 -3.33301 -49 -4 -65c10 -20 28.833 -37.5 56.5 -52.5s65.5 -22.5 113.5 -22.5c24 0 48 2 72 6
s47 9.66699 69 17s42 15.833 60 25.5s32.667 20.167 44 31.5c0 23.333 -1 47.5 -3 72.5s-4.83301 49.833 -8.5 74.5s-7.66699 48.5 -12 71.5s-8.83301 44.5 -13.5 64.5l20 32c16 1.33301 33.667 3.5 53 6.5s38.833 6.5 58.5 10.5s38.834 8.33301 57.501 13
s35.667 9.66699 51 15l20 -10l17 -105c6 -35.333 17.667 -59.166 35 -71.499s42.333 -18.5 75 -18.5v-50zM300 229.997l-65 40l30 50l65 -40zM715 389.997l30 50l65 -40l-30 -50zM620 439.997l65 -40l-30 -50l-65 40z" />
    <glyph glyph-name="uniFC74" unicode="&#xfc74;" horiz-adv-x="825" arabic-form="final" 
d="M795 0c-30 0 -56.6689 5.16309 -80.002 15.4961s-44.166 23.666 -62.499 39.999s-34.666 34.333 -48.999 54s-27.333 38.5 -39 56.5l-32.5 48.5c-10 14.333 -20 24.5 -30 30.5c-20 0 -40.667 -5.16699 -62 -15.5s-41 -24.166 -59 -41.499s-33.5 -37 -46.5 -59
s-21.5 -45 -25.5 -69c4 -4 9.5 -7.33301 16.5 -10s17.333 -5.16699 31 -7.5s31.5 -4.66602 53.5 -6.99902s50 -4.83301 84 -7.5c18.667 -1.33301 33.667 -3.83301 45 -7.5s20 -8.16699 26 -13.5s9.83301 -11.5 11.5 -18.5s2.5 -14.833 2.5 -23.5
c0 -22.667 -2 -43.167 -6 -61.5s-8.33301 -31.166 -13 -38.499c-4 -6 -13 -14.667 -27 -26s-32.833 -22.5 -56.5 -33.5s-52 -20.5 -85 -28.5s-70.167 -12 -111.5 -12c-38.667 0 -71.334 3.83301 -98.001 11.5s-48.334 17.834 -65.001 30.501s-28.667 27.5 -36 44.5
s-11 34.833 -11 53.5c0 17.333 1 39 3 65s4.33301 51.333 7 76c2.66699 28.667 6 58.334 10 89.001l38 -3c-2.66699 -34 -5.33398 -66.333 -8.00098 -97l-6 -80c-2 -27.333 -3.33301 -49 -4 -65c10 -20 28.833 -37.5 56.5 -52.5s65.5 -22.5 113.5 -22.5
c52.667 0 100.834 6.66699 144.501 20s77.834 29.666 102.501 48.999c4 14.667 6.83301 28 8.5 40s1.83398 25.667 0.500977 41c-4 2.66699 -10.833 4.66699 -20.5 6s-21 2.33301 -34 3s-27.167 1.5 -42.5 2.5s-30.333 2.16699 -45 3.5c-24 2.66699 -43.667 6 -59 10
s-27.5 9 -36.5 15s-15.333 13.5 -19 22.5s-5.5 19.833 -5.5 32.5c0 26 6.66699 53 20 81s31 53.333 53 76s47 41.334 75 56.001s56.333 22 85 22c11.333 0 22.333 -6 33 -18s21.667 -27.167 33 -45.5l38 -59c14 -21 30 -40.667 48 -59s38.833 -33.5 62.5 -45.5
s51.5 -18 83.5 -18h20v-50h-30zM409.998 479.996l65 -40l-30 -50l-65 40zM504.998 429.996l30 50l65 -40l-30 -50z" />
    <glyph glyph-name="uniFC76" unicode="&#xfc76;" horiz-adv-x="495" arabic-form="final" 
d="M495 0c-25.333 0 -46.3418 2.49707 -63.0088 7.49707s-30.5 12.5 -41.5 22.5s-19.667 22.5 -26 37.5s-11.166 32.5 -14.499 52.5l-14 80c-24.667 -7.33301 -52.167 -14.333 -82.5 -21s-59.166 -11.667 -86.499 -15c6 -21.333 11.333 -44.666 16 -69.999s7 -48.333 7 -69
c0 -38.667 -6.83301 -73.667 -20.5 -105s-30.167 -58.166 -49.5 -80.499s-39.666 -39.5 -60.999 -51.5s-39.333 -18 -54 -18c-5.33301 0 -13.666 0.833008 -24.999 2.5s-24.666 4.16699 -39.999 7.5v30c26 1.33301 51 7.5 75 18.5s45.5 25.667 64.5 44s35 39.333 48 63
s22.167 48.5 27.5 74.5c-1.33301 12.667 -3.66602 27 -6.99902 43s-7.16602 31.667 -11.499 47s-8.83301 29.833 -13.5 43.5s-9 24.167 -13 31.5l18 35c16 1.33301 33.667 3.5 53 6.5s38.833 6.5 58.5 10.5s38.834 8.33301 57.501 13s35.667 9.66699 51 15l20 -10l17 -105
c5.33301 -35.333 16.833 -59.166 34.5 -71.499s42.834 -18.5 75.501 -18.5v-50zM334.991 389.997l30 50l65 -40l-30 -50zM284.991 549.997l65 -40l-30 -50l-65 40zM239.991 439.997l65 -40l-30 -50l-65 40z" />
    <glyph glyph-name="uniFC77" unicode="&#xfc77;" horiz-adv-x="875" arabic-form="final" 
d="M875 0c-25.333 0 -46.333 2.49707 -63 7.49707s-30.5 12.5 -41.5 22.5s-19.667 22.5 -26 37.5s-11.166 32.5 -14.499 52.5l-14 80c-25.333 -7.33301 -54.166 -14.5 -86.499 -21.5s-62.5 -12.167 -90.5 -15.5c9.33301 -48 16 -89.833 20 -125.5s6 -63.167 6 -82.5
c0 -17.333 -1.66699 -34 -5 -50s-8.33301 -29.333 -15 -40c-4 -6 -13 -14.667 -27 -26s-32.333 -22.5 -55 -33.5s-49.5 -20.5 -80.5 -28.5s-65.167 -12 -102.5 -12c-38.667 0 -71.334 3.83301 -98.001 11.5s-48.334 17.834 -65.001 30.501s-28.667 27.5 -36 44.5
s-11 34.833 -11 53.5c0 17.333 1 39 3 65s4.33301 51.333 7 76c2.66699 28.667 6 58.334 10 89.001l38 -3c-2.66699 -34 -5.33398 -66.333 -8.00098 -97l-6 -80c-2 -27.333 -3.33301 -49 -4 -65c10 -20 28.833 -37.5 56.5 -52.5s65.5 -22.5 113.5 -22.5c24 0 48 2 72 6
s47 9.66699 69 17s42 15.833 60 25.5s32.667 20.167 44 31.5c0 23.333 -1 47.5 -3 72.5s-4.83301 49.833 -8.5 74.5s-7.66699 48.5 -12 71.5s-8.83301 44.5 -13.5 64.5l20 32c16 1.33301 33.667 3.5 53 6.5s38.833 6.5 58.5 10.5s38.834 8.33301 57.501 13
s35.667 9.66699 51 15l20 -10l17 -105c6 -35.333 17.667 -59.166 35 -71.499s42.333 -18.5 75 -18.5v-50zM620 439.997l65 -40l-30 -50l-65 40zM300 229.997l-65 40l30 50l65 -40zM715 389.997l30 50l65 -40l-30 -50zM665 549.997l65 -40l-30 -50l-65 40z" />
    <glyph glyph-name="uniFC7A" unicode="&#xfc7a;" horiz-adv-x="825" arabic-form="final" 
d="M795 0c-30 0 -56.6689 5.16309 -80.002 15.4961s-44.166 23.666 -62.499 39.999s-34.666 34.333 -48.999 54s-27.333 38.5 -39 56.5l-32.5 48.5c-10 14.333 -20 24.5 -30 30.5c-20 0 -40.667 -5.16699 -62 -15.5s-41 -24.166 -59 -41.499s-33.5 -37 -46.5 -59
s-21.5 -45 -25.5 -69c4 -4 9.5 -7.33301 16.5 -10s17.333 -5.16699 31 -7.5s31.5 -4.66602 53.5 -6.99902s50 -4.83301 84 -7.5c18.667 -1.33301 33.667 -3.83301 45 -7.5s20 -8.16699 26 -13.5s9.83301 -11.5 11.5 -18.5s2.5 -14.833 2.5 -23.5
c0 -22.667 -2 -43.167 -6 -61.5s-8.33301 -31.166 -13 -38.499c-4 -6 -13 -14.667 -27 -26s-32.833 -22.5 -56.5 -33.5s-52 -20.5 -85 -28.5s-70.167 -12 -111.5 -12c-38.667 0 -71.334 3.83301 -98.001 11.5s-48.334 17.834 -65.001 30.501s-28.667 27.5 -36 44.5
s-11 34.833 -11 53.5c0 17.333 1 39 3 65s4.33301 51.333 7 76c2.66699 28.667 6 58.334 10 89.001l38 -3c-2.66699 -34 -5.33398 -66.333 -8.00098 -97l-6 -80c-2 -27.333 -3.33301 -49 -4 -65c10 -20 28.833 -37.5 56.5 -52.5s65.5 -22.5 113.5 -22.5
c52.667 0 100.834 6.66699 144.501 20s77.834 29.666 102.501 48.999c4 14.667 6.83301 28 8.5 40s1.83398 25.667 0.500977 41c-4 2.66699 -10.833 4.66699 -20.5 6s-21 2.33301 -34 3s-27.167 1.5 -42.5 2.5s-30.333 2.16699 -45 3.5c-24 2.66699 -43.667 6 -59 10
s-27.5 9 -36.5 15s-15.333 13.5 -19 22.5s-5.5 19.833 -5.5 32.5c0 26 6.66699 53 20 81s31 53.333 53 76s47 41.334 75 56.001s56.333 22 85 22c11.333 0 22.333 -6 33 -18s21.667 -27.167 33 -45.5l38 -59c14 -21 30 -40.667 48 -59s38.833 -33.5 62.5 -45.5
s51.5 -18 83.5 -18h20v-50h-30zM409.998 479.996l65 -40l-30 -50l-65 40zM454.998 589.996l65 -40l-30 -50l-65 40zM504.998 429.996l30 50l65 -40l-30 -50z" />
    <glyph glyph-name="uniFC8A" unicode="&#xfc8a;" horiz-adv-x="495" arabic-form="final" 
d="M495 0c-25.333 0 -46.3418 2.49707 -63.0088 7.49707s-30.5 12.5 -41.5 22.5s-19.667 22.5 -26 37.5s-11.166 32.5 -14.499 52.5l-14 80c-24.667 -7.33301 -52.167 -14.333 -82.5 -21s-59.166 -11.667 -86.499 -15c6 -21.333 11.333 -44.666 16 -69.999s7 -48.333 7 -69
c0 -38.667 -6.83301 -73.667 -20.5 -105s-30.167 -58.166 -49.5 -80.499s-39.666 -39.5 -60.999 -51.5s-39.333 -18 -54 -18c-5.33301 0 -13.666 0.833008 -24.999 2.5s-24.666 4.16699 -39.999 7.5v30c26 1.33301 51 7.5 75 18.5s45.5 25.667 64.5 44s35 39.333 48 63
s22.167 48.5 27.5 74.5c-1.33301 12.667 -3.66602 27 -6.99902 43s-7.16602 31.667 -11.499 47s-8.83301 29.833 -13.5 43.5s-9 24.167 -13 31.5l18 35c16 1.33301 33.667 3.5 53 6.5s38.833 6.5 58.5 10.5s38.834 8.33301 57.501 13s35.667 9.66699 51 15l20 -10l17 -105
c5.33301 -35.333 16.833 -59.166 34.5 -71.499s42.834 -18.5 75.501 -18.5v-50zM269.991 389.997l30 50l65 -40l-30 -50z" />
    <glyph glyph-name="uniFC8B" unicode="&#xfc8b;" horiz-adv-x="495" arabic-form="final" 
d="M495 0c-25.333 0 -46.3418 2.49707 -63.0088 7.49707s-30.5 12.5 -41.5 22.5s-19.667 22.5 -26 37.5s-11.166 32.5 -14.499 52.5l-14 80c-24.667 -7.33301 -52.167 -14.333 -82.5 -21s-59.166 -11.667 -86.499 -15c6 -21.333 11.333 -44.666 16 -69.999s7 -48.333 7 -69
c0 -38.667 -6.83301 -73.667 -20.5 -105s-30.167 -58.166 -49.5 -80.499s-39.666 -39.5 -60.999 -51.5s-39.333 -18 -54 -18c-5.33301 0 -13.666 0.833008 -24.999 2.5s-24.666 4.16699 -39.999 7.5v30c26 1.33301 51 7.5 75 18.5s45.5 25.667 64.5 44s35 39.333 48 63
s22.167 48.5 27.5 74.5c-1.33301 12.667 -3.66602 27 -6.99902 43s-7.16602 31.667 -11.499 47s-8.83301 29.833 -13.5 43.5s-9 24.167 -13 31.5l18 35c16 1.33301 33.667 3.5 53 6.5s38.833 6.5 58.5 10.5s38.834 8.33301 57.501 13s35.667 9.66699 51 15l20 -10l17 -105
c5.33301 -35.333 16.833 -59.166 34.5 -71.499s42.834 -18.5 75.501 -18.5v-50zM299.991 389.997l30 50l65 -40l-30 -50zM134.991 309.997l-65 40l30 50l65 -40z" />
    <glyph glyph-name="uniFC8D" unicode="&#xfc8d;" horiz-adv-x="875" arabic-form="final" 
d="M875 0c-25.333 0 -46.333 2.49707 -63 7.49707s-30.5 12.5 -41.5 22.5s-19.667 22.5 -26 37.5s-11.166 32.5 -14.499 52.5l-14 80c-25.333 -7.33301 -54.166 -14.5 -86.499 -21.5s-62.5 -12.167 -90.5 -15.5c9.33301 -48 16 -89.833 20 -125.5s6 -63.167 6 -82.5
c0 -17.333 -1.66699 -34 -5 -50s-8.33301 -29.333 -15 -40c-4 -6 -13 -14.667 -27 -26s-32.333 -22.5 -55 -33.5s-49.5 -20.5 -80.5 -28.5s-65.167 -12 -102.5 -12c-38.667 0 -71.334 3.83301 -98.001 11.5s-48.334 17.834 -65.001 30.501s-28.667 27.5 -36 44.5
s-11 34.833 -11 53.5c0 17.333 1 39 3 65s4.33301 51.333 7 76c2.66699 28.667 6 58.334 10 89.001l38 -3c-2.66699 -34 -5.33398 -66.333 -8.00098 -97l-6 -80c-2 -27.333 -3.33301 -49 -4 -65c10 -20 28.833 -37.5 56.5 -52.5s65.5 -22.5 113.5 -22.5c24 0 48 2 72 6
s47 9.66699 69 17s42 15.833 60 25.5s32.667 20.167 44 31.5c0 23.333 -1 47.5 -3 72.5s-4.83301 49.833 -8.5 74.5s-7.66699 48.5 -12 71.5s-8.83301 44.5 -13.5 64.5l20 32c16 1.33301 33.667 3.5 53 6.5s38.833 6.5 58.5 10.5s38.834 8.33301 57.501 13
s35.667 9.66699 51 15l20 -10l17 -105c6 -35.333 17.667 -59.166 35 -71.499s42.333 -18.5 75 -18.5v-50zM650 389.997l30 50l65 -40l-30 -50zM300 229.997l-65 40l30 50l65 -40z" />
    <glyph glyph-name="uniFC8E" unicode="&#xfc8e;" horiz-adv-x="825" arabic-form="final" 
d="M795 0c-30 0 -56.6689 5.16309 -80.002 15.4961s-44.166 23.666 -62.499 39.999s-34.666 34.333 -48.999 54s-27.333 38.5 -39 56.5l-32.5 48.5c-10 14.333 -20 24.5 -30 30.5c-20 0 -40.667 -5.16699 -62 -15.5s-41 -24.166 -59 -41.499s-33.5 -37 -46.5 -59
s-21.5 -45 -25.5 -69c4 -4 9.5 -7.33301 16.5 -10s17.333 -5.16699 31 -7.5s31.5 -4.66602 53.5 -6.99902s50 -4.83301 84 -7.5c18.667 -1.33301 33.667 -3.83301 45 -7.5s20 -8.16699 26 -13.5s9.83301 -11.5 11.5 -18.5s2.5 -14.833 2.5 -23.5
c0 -22.667 -2 -43.167 -6 -61.5s-8.33301 -31.166 -13 -38.499c-4 -6 -13 -14.667 -27 -26s-32.833 -22.5 -56.5 -33.5s-52 -20.5 -85 -28.5s-70.167 -12 -111.5 -12c-38.667 0 -71.334 3.83301 -98.001 11.5s-48.334 17.834 -65.001 30.501s-28.667 27.5 -36 44.5
s-11 34.833 -11 53.5c0 17.333 1 39 3 65s4.33301 51.333 7 76c2.66699 28.667 6 58.334 10 89.001l38 -3c-2.66699 -34 -5.33398 -66.333 -8.00098 -97l-6 -80c-2 -27.333 -3.33301 -49 -4 -65c10 -20 28.833 -37.5 56.5 -52.5s65.5 -22.5 113.5 -22.5
c52.667 0 100.834 6.66699 144.501 20s77.834 29.666 102.501 48.999c4 14.667 6.83301 28 8.5 40s1.83398 25.667 0.500977 41c-4 2.66699 -10.833 4.66699 -20.5 6s-21 2.33301 -34 3s-27.167 1.5 -42.5 2.5s-30.333 2.16699 -45 3.5c-24 2.66699 -43.667 6 -59 10
s-27.5 9 -36.5 15s-15.333 13.5 -19 22.5s-5.5 19.833 -5.5 32.5c0 26 6.66699 53 20 81s31 53.333 53 76s47 41.334 75 56.001s56.333 22 85 22c11.333 0 22.333 -6 33 -18s21.667 -27.167 33 -45.5l38 -59c14 -21 30 -40.667 48 -59s38.833 -33.5 62.5 -45.5
s51.5 -18 83.5 -18h20v-50h-30zM439.998 429.996l30 50l65 -40l-30 -50z" />
    <glyph glyph-name="uniFC91" unicode="&#xfc91;" horiz-adv-x="495" arabic-form="final" 
d="M495 0c-25.333 0 -46.3418 2.49707 -63.0088 7.49707s-30.5 12.5 -41.5 22.5s-19.667 22.5 -26 37.5s-11.166 32.5 -14.499 52.5l-14 80c-24.667 -7.33301 -52.167 -14.333 -82.5 -21s-59.166 -11.667 -86.499 -15c6 -21.333 11.333 -44.666 16 -69.999s7 -48.333 7 -69
c0 -38.667 -6.83301 -73.667 -20.5 -105s-30.167 -58.166 -49.5 -80.499s-39.666 -39.5 -60.999 -51.5s-39.333 -18 -54 -18c-5.33301 0 -13.666 0.833008 -24.999 2.5s-24.666 4.16699 -39.999 7.5v30c26 1.33301 51 7.5 75 18.5s45.5 25.667 64.5 44s35 39.333 48 63
s22.167 48.5 27.5 74.5c-1.33301 12.667 -3.66602 27 -6.99902 43s-7.16602 31.667 -11.499 47s-8.83301 29.833 -13.5 43.5s-9 24.167 -13 31.5l18 35c16 1.33301 33.667 3.5 53 6.5s38.833 6.5 58.5 10.5s38.834 8.33301 57.501 13s35.667 9.66699 51 15l20 -10l17 -105
c5.33301 -35.333 16.833 -59.166 34.5 -71.499s42.834 -18.5 75.501 -18.5v-50zM269.991 -90.0029l65 -40l-30 -50l-65 40zM459.991 -130.003l-30 -50l-65 40l30 50z" />
    <glyph glyph-name="uniFC92" unicode="&#xfc92;" horiz-adv-x="495" arabic-form="final" 
d="M495 0c-25.333 0 -46.3418 2.49707 -63.0088 7.49707s-30.5 12.5 -41.5 22.5s-19.667 22.5 -26 37.5s-11.166 32.5 -14.499 52.5l-14 80c-24.667 -7.33301 -52.167 -14.333 -82.5 -21s-59.166 -11.667 -86.499 -15c6 -21.333 11.333 -44.666 16 -69.999s7 -48.333 7 -69
c0 -38.667 -6.83301 -73.667 -20.5 -105s-30.167 -58.166 -49.5 -80.499s-39.666 -39.5 -60.999 -51.5s-39.333 -18 -54 -18c-5.33301 0 -13.666 0.833008 -24.999 2.5s-24.666 4.16699 -39.999 7.5v30c26 1.33301 51 7.5 75 18.5s45.5 25.667 64.5 44s35 39.333 48 63
s22.167 48.5 27.5 74.5c-1.33301 12.667 -3.66602 27 -6.99902 43s-7.16602 31.667 -11.499 47s-8.83301 29.833 -13.5 43.5s-9 24.167 -13 31.5l18 35c16 1.33301 33.667 3.5 53 6.5s38.833 6.5 58.5 10.5s38.834 8.33301 57.501 13s35.667 9.66699 51 15l20 -10l17 -105
c5.33301 -35.333 16.833 -59.166 34.5 -71.499s42.834 -18.5 75.501 -18.5v-50zM134.991 309.997l-65 40l30 50l65 -40zM459.991 -130.003l-30 -50l-65 40l30 50zM269.991 -90.0029l65 -40l-30 -50l-65 40z" />
    <glyph glyph-name="uniFC94" unicode="&#xfc94;" horiz-adv-x="875" arabic-form="final" 
d="M875 0c-25.333 0 -46.333 2.49707 -63 7.49707s-30.5 12.5 -41.5 22.5s-19.667 22.5 -26 37.5s-11.166 32.5 -14.499 52.5l-14 80c-25.333 -7.33301 -54.166 -14.5 -86.499 -21.5s-62.5 -12.167 -90.5 -15.5c9.33301 -48 16 -89.833 20 -125.5s6 -63.167 6 -82.5
c0 -17.333 -1.66699 -34 -5 -50s-8.33301 -29.333 -15 -40c-4 -6 -13 -14.667 -27 -26s-32.333 -22.5 -55 -33.5s-49.5 -20.5 -80.5 -28.5s-65.167 -12 -102.5 -12c-38.667 0 -71.334 3.83301 -98.001 11.5s-48.334 17.834 -65.001 30.501s-28.667 27.5 -36 44.5
s-11 34.833 -11 53.5c0 17.333 1 39 3 65s4.33301 51.333 7 76c2.66699 28.667 6 58.334 10 89.001l38 -3c-2.66699 -34 -5.33398 -66.333 -8.00098 -97l-6 -80c-2 -27.333 -3.33301 -49 -4 -65c10 -20 28.833 -37.5 56.5 -52.5s65.5 -22.5 113.5 -22.5c24 0 48 2 72 6
s47 9.66699 69 17s42 15.833 60 25.5s32.667 20.167 44 31.5c0 23.333 -1 47.5 -3 72.5s-4.83301 49.833 -8.5 74.5s-7.66699 48.5 -12 71.5s-8.83301 44.5 -13.5 64.5l20 32c16 1.33301 33.667 3.5 53 6.5s38.833 6.5 58.5 10.5s38.834 8.33301 57.501 13
s35.667 9.66699 51 15l20 -10l17 -105c6 -35.333 17.667 -59.166 35 -71.499s42.333 -18.5 75 -18.5v-50zM300 229.997l-65 40l30 50l65 -40zM870 -130.003l-30 -50l-65 40l30 50zM680 -90.0029l65 -40l-30 -50l-65 40z" />
    <glyph glyph-name="uniFCFB" unicode="&#xfcfb;" horiz-adv-x="1210" arabic-form="isolated" 
d="M995 0c-8 0 -16.3311 0.664062 -24.998 1.99707s-17.5 3.83301 -26.5 7.5s-17.333 9 -25 16s-14.5 16.5 -20.5 28.5c-6 -12 -13.667 -21.667 -23 -29c-8.66699 -6.66699 -21.834 -12.5 -39.501 -17.5s-37.834 -7.5 -60.501 -7.5c-26.667 0 -50.5 5.16699 -71.5 15.5
s-40 23.666 -57 39.999s-32.167 34.333 -45.5 54l-37 56.5c-11.333 18 -22 34.167 -32 48.5s-20 24.5 -30 30.5c-20 0 -40.667 -5.16699 -62 -15.5s-41 -24.166 -59 -41.499s-33.5 -37 -46.5 -59s-21.5 -45 -25.5 -69c4 -4 9.5 -7.33301 16.5 -10s17.333 -5.16699 31 -7.5
s31.5 -4.66602 53.5 -6.99902s50 -4.83301 84 -7.5c18.667 -1.33301 33.667 -3.83301 45 -7.5s20 -8.16699 26 -13.5s9.83301 -11.5 11.5 -18.5s2.5 -14.833 2.5 -23.5c0 -22.667 -2 -43.167 -6 -61.5s-8.33301 -31.166 -13 -38.499c-4 -6 -13 -14.667 -27 -26
s-32.833 -22.5 -56.5 -33.5s-52 -20.5 -85 -28.5s-70.167 -12 -111.5 -12c-38.667 0 -71.334 3.83301 -98.001 11.5s-48.334 17.834 -65.001 30.501s-28.667 27.5 -36 44.5s-11 34.833 -11 53.5c0 17.333 1 39 3 65s4.33301 51.333 7 76c2.66699 28.667 6 58.334 10 89.001
l38 -3c-2.66699 -34 -5.33398 -66.333 -8.00098 -97l-6 -80c-2 -27.333 -3.33301 -49 -4 -65c10 -20 28.833 -37.5 56.5 -52.5s65.5 -22.5 113.5 -22.5c52.667 0 100.834 6.66699 144.501 20s77.834 29.666 102.501 48.999c4 14.667 6.83301 28 8.5 40
s1.83398 25.667 0.500977 41c-4 2.66699 -10.833 4.66699 -20.5 6s-21 2.33301 -34 3s-27.167 1.5 -42.5 2.5s-30.333 2.16699 -45 3.5c-24 2.66699 -43.667 6 -59 10s-27.5 9 -36.5 15s-15.333 13.5 -19 22.5s-5.5 19.833 -5.5 32.5c0 26 6.66699 53 20 81s31 53.333 53 76
s47 41.334 75 56.001s56.333 22 85 22c11.333 0 22.333 -6 33 -18s21.667 -27.167 33 -45.5l36.5 -59c13 -21 27.667 -40.667 44 -59s34.833 -33.5 55.5 -45.5s44.334 -18 71.001 -18c36 0 66 5.33301 90 16l25 154h35c-1.33301 -18.667 -2.33301 -34 -3 -46
s-1.16699 -21.5 -1.5 -28.5s-0.5 -12.333 -0.5 -16v-9.5c0 -14 2.33301 -25.5 7 -34.5s10.5 -16.167 17.5 -21.5s15 -9 24 -11s17.833 -3 26.5 -3c20 0 39.333 2.33301 58 7s33.667 10.667 45 18c0 11.333 -1 25 -3 41s-4.5 33 -7.5 51s-6.83301 36.167 -11.5 54.5
s-10 36.166 -16 53.499l30 25l15 -5c7.33301 -22.667 14.166 -49.167 20.499 -79.5s9.5 -60.5 9.5 -90.5c0 -28 -5.16699 -51 -15.5 -69s-21.833 -30 -34.5 -36s-26 -10.833 -40 -14.5s-32.333 -5.5 -55 -5.5z" />
    <glyph glyph-name="uniFCFD" unicode="&#xfcfd;" horiz-adv-x="1210" arabic-form="isolated" 
d="M995 0c-8 0 -16.3311 0.664062 -24.998 1.99707s-17.5 3.83301 -26.5 7.5s-17.333 9 -25 16s-14.5 16.5 -20.5 28.5c-6 -12 -13.667 -21.667 -23 -29c-8.66699 -6.66699 -21.834 -12.5 -39.501 -17.5s-37.834 -7.5 -60.501 -7.5c-26.667 0 -50.5 5.16699 -71.5 15.5
s-40 23.666 -57 39.999s-32.167 34.333 -45.5 54l-37 56.5c-11.333 18 -22 34.167 -32 48.5s-20 24.5 -30 30.5c-20 0 -40.667 -5.16699 -62 -15.5s-41 -24.166 -59 -41.499s-33.5 -37 -46.5 -59s-21.5 -45 -25.5 -69c4 -4 9.5 -7.33301 16.5 -10s17.333 -5.16699 31 -7.5
s31.5 -4.66602 53.5 -6.99902s50 -4.83301 84 -7.5c18.667 -1.33301 33.667 -3.83301 45 -7.5s20 -8.16699 26 -13.5s9.83301 -11.5 11.5 -18.5s2.5 -14.833 2.5 -23.5c0 -22.667 -2 -43.167 -6 -61.5s-8.33301 -31.166 -13 -38.499c-4 -6 -13 -14.667 -27 -26
s-32.833 -22.5 -56.5 -33.5s-52 -20.5 -85 -28.5s-70.167 -12 -111.5 -12c-38.667 0 -71.334 3.83301 -98.001 11.5s-48.334 17.834 -65.001 30.501s-28.667 27.5 -36 44.5s-11 34.833 -11 53.5c0 17.333 1 39 3 65s4.33301 51.333 7 76c2.66699 28.667 6 58.334 10 89.001
l38 -3c-2.66699 -34 -5.33398 -66.333 -8.00098 -97l-6 -80c-2 -27.333 -3.33301 -49 -4 -65c10 -20 28.833 -37.5 56.5 -52.5s65.5 -22.5 113.5 -22.5c52.667 0 100.834 6.66699 144.501 20s77.834 29.666 102.501 48.999c4 14.667 6.83301 28 8.5 40
s1.83398 25.667 0.500977 41c-4 2.66699 -10.833 4.66699 -20.5 6s-21 2.33301 -34 3s-27.167 1.5 -42.5 2.5s-30.333 2.16699 -45 3.5c-24 2.66699 -43.667 6 -59 10s-27.5 9 -36.5 15s-15.333 13.5 -19 22.5s-5.5 19.833 -5.5 32.5c0 26 6.66699 53 20 81s31 53.333 53 76
s47 41.334 75 56.001s56.333 22 85 22c11.333 0 22.333 -6 33 -18s21.667 -27.167 33 -45.5l36.5 -59c13 -21 27.667 -40.667 44 -59s34.833 -33.5 55.5 -45.5s44.334 -18 71.001 -18c36 0 66 5.33301 90 16l25 154h35c-1.33301 -18.667 -2.33301 -34 -3 -46
s-1.16699 -21.5 -1.5 -28.5s-0.5 -12.333 -0.5 -16v-9.5c0 -14 2.33301 -25.5 7 -34.5s10.5 -16.167 17.5 -21.5s15 -9 24 -11s17.833 -3 26.5 -3c20 0 39.333 2.33301 58 7s33.667 10.667 45 18c0 11.333 -1 25 -3 41s-4.5 33 -7.5 51s-6.83301 36.167 -11.5 54.5
s-10 36.166 -16 53.499l30 25l15 -5c7.33301 -22.667 14.166 -49.167 20.499 -79.5s9.5 -60.5 9.5 -90.5c0 -28 -5.16699 -51 -15.5 -69s-21.833 -30 -34.5 -36s-26 -10.833 -40 -14.5s-32.333 -5.5 -55 -5.5zM815.002 409.997l65 -40l-30 -50l-65 40zM910.002 359.997
l30 50l65 -40l-30 -50zM860.002 519.997l65 -40l-30 -50l-65 40z" />
    <glyph glyph-name="uniFD05" unicode="&#xfd05;" horiz-adv-x="1160" arabic-form="isolated" 
d="M800 0c-32 0 -60.002 5.16211 -84.002 15.4951s-45.333 23.666 -64 39.999s-35.167 34.333 -49.5 54s-27.333 38.5 -39 56.5l-32 48.5c-9.66699 14.333 -19.5 24.5 -29.5 30.5c-20 0 -40.667 -5.16699 -62 -15.5s-41 -24.166 -59 -41.499s-33.5 -37 -46.5 -59
s-21.5 -45 -25.5 -69c4 -4 9.5 -7.33301 16.5 -10s17.333 -5.16699 31 -7.5s31.5 -4.66602 53.5 -6.99902s50 -4.83301 84 -7.5c18.667 -1.33301 33.667 -3.83301 45 -7.5s20 -8.16699 26 -13.5s9.83301 -11.5 11.5 -18.5s2.5 -14.833 2.5 -23.5
c0 -22.667 -2 -43.167 -6 -61.5s-8.33301 -31.166 -13 -38.499c-4 -6 -13 -14.667 -27 -26s-32.833 -22.5 -56.5 -33.5s-52 -20.5 -85 -28.5s-70.167 -12 -111.5 -12c-38.667 0 -71.334 3.83301 -98.001 11.5s-48.334 17.834 -65.001 30.501s-28.667 27.5 -36 44.5
s-11 34.833 -11 53.5c0 17.333 1 39 3 65s4.33301 51.333 7 76c2.66699 28.667 6 58.334 10 89.001l38 -3c-2.66699 -34 -5.33398 -66.333 -8.00098 -97l-6 -80c-2 -27.333 -3.33301 -49 -4 -65c10 -20 28.833 -37.5 56.5 -52.5s65.5 -22.5 113.5 -22.5
c52.667 0 100.834 6.66699 144.501 20s77.834 29.666 102.501 48.999c4 14.667 6.83301 28 8.5 40s1.83398 25.667 0.500977 41c-4 2.66699 -10.833 4.66699 -20.5 6s-21 2.33301 -34 3s-27.167 1.5 -42.5 2.5s-30.333 2.16699 -45 3.5c-24 2.66699 -43.667 6 -59 10
s-27.5 9 -36.5 15s-15.333 13.5 -19 22.5s-5.5 19.833 -5.5 32.5c0 26 6.66699 53 20 81s31 53.333 53 76s47 41.334 75 56.001s56.333 22 85 22c12 0 23.333 -6.5 34 -19.5s22 -29.333 34 -49l40 -62.5c14.667 -22 32.334 -42 53.001 -60l136 116c34 28 60.333 49 79 63
s32.167 22.833 40.5 26.5s15.5 5.5 21.5 5.5c14.667 0 30.5 -4.33301 47.5 -13s32.833 -21.167 47.5 -37.5s26.667 -36.666 36 -60.999s14 -52.166 14 -83.499c0 -8.66699 -1.16699 -17.834 -3.5 -27.501s-5.66602 -18.667 -9.99902 -27s-9.5 -15.833 -15.5 -22.5
s-12.667 -11.667 -20 -15c-40 -18.667 -105.333 -28 -196 -28h-45zM934.998 259.995c-7.33301 0 -16.832 -3.50098 -28.499 -10.501s-27 -17.667 -46 -32s-41.667 -32.833 -68 -55.5l-93.5 -82c15.333 -9.33301 32 -16.666 50 -21.999s38.333 -8 61 -8h50
c91.333 0 154.666 10 189.999 30c2.66699 24 0.5 46.833 -6.5 68.5s-16.5 40.667 -28.5 57s-25.167 29.5 -39.5 39.5s-27.833 15 -40.5 15z" />
    <glyph glyph-name="uniFD07" unicode="&#xfd07;" horiz-adv-x="1160" arabic-form="isolated" 
d="M800 0c-32 0 -60.002 5.16211 -84.002 15.4951s-45.333 23.666 -64 39.999s-35.167 34.333 -49.5 54s-27.333 38.5 -39 56.5l-32 48.5c-9.66699 14.333 -19.5 24.5 -29.5 30.5c-20 0 -40.667 -5.16699 -62 -15.5s-41 -24.166 -59 -41.499s-33.5 -37 -46.5 -59
s-21.5 -45 -25.5 -69c4 -4 9.5 -7.33301 16.5 -10s17.333 -5.16699 31 -7.5s31.5 -4.66602 53.5 -6.99902s50 -4.83301 84 -7.5c18.667 -1.33301 33.667 -3.83301 45 -7.5s20 -8.16699 26 -13.5s9.83301 -11.5 11.5 -18.5s2.5 -14.833 2.5 -23.5
c0 -22.667 -2 -43.167 -6 -61.5s-8.33301 -31.166 -13 -38.499c-4 -6 -13 -14.667 -27 -26s-32.833 -22.5 -56.5 -33.5s-52 -20.5 -85 -28.5s-70.167 -12 -111.5 -12c-38.667 0 -71.334 3.83301 -98.001 11.5s-48.334 17.834 -65.001 30.501s-28.667 27.5 -36 44.5
s-11 34.833 -11 53.5c0 17.333 1 39 3 65s4.33301 51.333 7 76c2.66699 28.667 6 58.334 10 89.001l38 -3c-2.66699 -34 -5.33398 -66.333 -8.00098 -97l-6 -80c-2 -27.333 -3.33301 -49 -4 -65c10 -20 28.833 -37.5 56.5 -52.5s65.5 -22.5 113.5 -22.5
c52.667 0 100.834 6.66699 144.501 20s77.834 29.666 102.501 48.999c4 14.667 6.83301 28 8.5 40s1.83398 25.667 0.500977 41c-4 2.66699 -10.833 4.66699 -20.5 6s-21 2.33301 -34 3s-27.167 1.5 -42.5 2.5s-30.333 2.16699 -45 3.5c-24 2.66699 -43.667 6 -59 10
s-27.5 9 -36.5 15s-15.333 13.5 -19 22.5s-5.5 19.833 -5.5 32.5c0 26 6.66699 53 20 81s31 53.333 53 76s47 41.334 75 56.001s56.333 22 85 22c12 0 23.333 -6.5 34 -19.5s22 -29.333 34 -49l40 -62.5c14.667 -22 32.334 -42 53.001 -60l136 116c34 28 60.333 49 79 63
s32.167 22.833 40.5 26.5s15.5 5.5 21.5 5.5c14.667 0 30.5 -4.33301 47.5 -13s32.833 -21.167 47.5 -37.5s26.667 -36.666 36 -60.999s14 -52.166 14 -83.499c0 -8.66699 -1.16699 -17.834 -3.5 -27.501s-5.66602 -18.667 -9.99902 -27s-9.5 -15.833 -15.5 -22.5
s-12.667 -11.667 -20 -15c-40 -18.667 -105.333 -28 -196 -28h-45zM934.998 259.995c-7.33301 0 -16.832 -3.50098 -28.499 -10.501s-27 -17.667 -46 -32s-41.667 -32.833 -68 -55.5l-93.5 -82c15.333 -9.33301 32 -16.666 50 -21.999s38.333 -8 61 -8h50
c91.333 0 154.666 10 189.999 30c2.66699 24 0.5 46.833 -6.5 68.5s-16.5 40.667 -28.5 57s-25.167 29.5 -39.5 39.5s-27.833 15 -40.5 15zM884.999 444.994l30 50l65 -40l-30 -50z" />
    <glyph glyph-name="uniFD0D" unicode="&#xfd0d;" horiz-adv-x="920" arabic-form="isolated" 
d="M705 0c-8 0 -16.3369 0.666016 -25.0039 1.99902s-17.5 4 -26.5 8s-17.333 9.5 -25 16.5s-14.5 16.5 -20.5 28.5c-9.33301 -17.333 -22.666 -30.833 -39.999 -40.5s-45 -14.5 -83 -14.5c-22.667 0 -41.667 2.5 -57 7.5s-28.333 12.5 -39 22.5s-19 22.5 -25 37.5
s-10.667 32.5 -14 52.5l-15 83c-26 -2.66699 -54.167 -7 -84.5 -13s-58.833 -12.667 -85.5 -20c6 -21.333 11.667 -45.5 17 -72.5s8 -51.167 8 -72.5c0 -38.667 -6.83301 -73.667 -20.5 -105s-30.167 -58.166 -49.5 -80.499s-39.666 -39.5 -60.999 -51.5
s-39.333 -18 -54 -18c-5.33301 0 -13.666 0.833008 -24.999 2.5s-24.666 4.16699 -39.999 7.5v30c26 1.33301 51 7.5 75 18.5s45.5 25.667 64.5 44s35 39.333 48 63s22.167 48.5 27.5 74.5c-1.33301 12.667 -3.66602 27 -6.99902 43s-7.16602 31.667 -11.499 47
s-8.83301 29.833 -13.5 43.5s-9 24.167 -13 31.5l18 35c14.667 4.66699 31.5 9.5 50.5 14.5s38.333 9.5 58 13.5s39.167 7.5 58.5 10.5s37 5.16699 53 6.5l20 -10l17 -105c5.33301 -35.333 16.666 -59.166 33.999 -71.499s41 -18.5 71 -18.5c36 0 66 5.33301 90 16l25 154
h35c-1.33301 -18.667 -2.33301 -34 -3 -46s-1.16699 -21.5 -1.5 -28.5s-0.5 -12.333 -0.5 -16v-9.5c0 -14 2.33301 -25.5 7 -34.5s10.5 -16.167 17.5 -21.5s15 -9 24 -11s17.833 -3 26.5 -3c20 0 39.333 2.33301 58 7s33.667 10.667 45 18c0 11.333 -1 25 -3 41
s-4.5 33 -7.5 51s-6.83301 36.167 -11.5 54.5s-10 36.166 -16 53.499l30 25l15 -5c7.33301 -22.667 14.166 -49.167 20.499 -79.5s9.5 -60.5 9.5 -90.5c0 -26 -3.83301 -47.167 -11.5 -63.5s-18 -29 -31 -38s-28.333 -15.167 -46 -18.5s-36.5 -5 -56.5 -5zM569.996 519.999
l65 -40l-30 -50l-65 40zM524.996 409.999l65 -40l-30 -50l-65 40zM619.996 359.999l30 50l65 -40l-30 -50zM134.996 309.999l-65 40l30 50l65 -40z" />
    <glyph glyph-name="uniFD0E" unicode="&#xfd0e;" horiz-adv-x="920" arabic-form="isolated" 
d="M705 0c-8 0 -16.3369 0.666016 -25.0039 1.99902s-17.5 4 -26.5 8s-17.333 9.5 -25 16.5s-14.5 16.5 -20.5 28.5c-9.33301 -17.333 -22.666 -30.833 -39.999 -40.5s-45 -14.5 -83 -14.5c-22.667 0 -41.667 2.5 -57 7.5s-28.333 12.5 -39 22.5s-19 22.5 -25 37.5
s-10.667 32.5 -14 52.5l-15 83c-26 -2.66699 -54.167 -7 -84.5 -13s-58.833 -12.667 -85.5 -20c6 -21.333 11.667 -45.5 17 -72.5s8 -51.167 8 -72.5c0 -38.667 -6.83301 -73.667 -20.5 -105s-30.167 -58.166 -49.5 -80.499s-39.666 -39.5 -60.999 -51.5
s-39.333 -18 -54 -18c-5.33301 0 -13.666 0.833008 -24.999 2.5s-24.666 4.16699 -39.999 7.5v30c26 1.33301 51 7.5 75 18.5s45.5 25.667 64.5 44s35 39.333 48 63s22.167 48.5 27.5 74.5c-1.33301 12.667 -3.66602 27 -6.99902 43s-7.16602 31.667 -11.499 47
s-8.83301 29.833 -13.5 43.5s-9 24.167 -13 31.5l18 35c14.667 4.66699 31.5 9.5 50.5 14.5s38.333 9.5 58 13.5s39.167 7.5 58.5 10.5s37 5.16699 53 6.5l20 -10l17 -105c5.33301 -35.333 16.666 -59.166 33.999 -71.499s41 -18.5 71 -18.5c36 0 66 5.33301 90 16l25 154
h35c-1.33301 -18.667 -2.33301 -34 -3 -46s-1.16699 -21.5 -1.5 -28.5s-0.5 -12.333 -0.5 -16v-9.5c0 -14 2.33301 -25.5 7 -34.5s10.5 -16.167 17.5 -21.5s15 -9 24 -11s17.833 -3 26.5 -3c20 0 39.333 2.33301 58 7s33.667 10.667 45 18c0 11.333 -1 25 -3 41
s-4.5 33 -7.5 51s-6.83301 36.167 -11.5 54.5s-10 36.166 -16 53.499l30 25l15 -5c7.33301 -22.667 14.166 -49.167 20.499 -79.5s9.5 -60.5 9.5 -90.5c0 -26 -3.83301 -47.167 -11.5 -63.5s-18 -29 -31 -38s-28.333 -15.167 -46 -18.5s-36.5 -5 -56.5 -5zM134.996 309.999
l-65 40l30 50l65 -40z" />
    <glyph glyph-name="uniFD0F" unicode="&#xfd0f;" horiz-adv-x="900" arabic-form="isolated" 
d="M485 0c-22.667 0 -41.6719 2.5 -57.0049 7.5s-28.333 12.5 -39 22.5s-19 22.5 -25 37.5s-10.667 32.5 -14 52.5l-15 83c-26 -2.66699 -54.167 -7 -84.5 -13s-58.833 -12.667 -85.5 -20c6 -21.333 11.667 -45.5 17 -72.5s8 -51.167 8 -72.5
c0 -38.667 -6.83301 -73.667 -20.5 -105s-30.167 -58.166 -49.5 -80.499s-39.666 -39.5 -60.999 -51.5s-39.333 -18 -54 -18c-5.33301 0 -13.666 0.833008 -24.999 2.5s-24.666 4.16699 -39.999 7.5v30c26 1.33301 51 7.5 75 18.5s45.5 25.667 64.5 44s35 39.333 48 63
s22.167 48.5 27.5 74.5c-1.33301 12.667 -3.66602 27 -6.99902 43s-7.16602 31.667 -11.499 47s-8.83301 29.833 -13.5 43.5s-9 24.167 -13 31.5l18 35c14.667 4.66699 31.5 9.5 50.5 14.5s38.333 9.5 58 13.5s39.167 7.5 58.5 10.5s37 5.16699 53 6.5l20 -10l17 -105
c3.33301 -19.333 7.66602 -34.333 12.999 -45l102 87.5l72.5 61c19.667 16.333 35.834 29.166 48.501 38.499s23 16.5 31 21.5s14.5 8.16699 19.5 9.5s9.5 2 13.5 2c14.667 0 30.5 -4.33301 47.5 -13s32.833 -21.167 47.5 -37.5s26.667 -36.666 36 -60.999
s14 -52.166 14 -83.499c0 -24.667 -5.16699 -44.834 -15.5 -60.501s-25.833 -27.834 -46.5 -36.501s-46.167 -14.667 -76.5 -18s-65.833 -5 -106.5 -5h-100zM674.995 260c-7.33301 0 -17.3311 -3.66504 -29.998 -10.998s-29 -19 -49 -35l-72.5 -60.5l-100.5 -87.5
c8.66699 -6 18.5 -10.167 29.5 -12.5s23.5 -3.5 37.5 -3.5h110c91.333 0 154.666 10 189.999 30c0 3.33301 0.166992 6.16602 0.5 8.49902s0.5 5.16602 0.5 8.49902c0 22 -3.83301 42.833 -11.5 62.5s-17.334 37 -29.001 52s-24.167 26.833 -37.5 35.5s-26 13 -38 13z
M134.997 310.002l-65 40l30 50l65 -40z" />
    <glyph glyph-name="uniFD10" unicode="&#xfd10;" horiz-adv-x="900" arabic-form="isolated" 
d="M485 0c-22.667 0 -41.6719 2.5 -57.0049 7.5s-28.333 12.5 -39 22.5s-19 22.5 -25 37.5s-10.667 32.5 -14 52.5l-15 83c-26 -2.66699 -54.167 -7 -84.5 -13s-58.833 -12.667 -85.5 -20c6 -21.333 11.667 -45.5 17 -72.5s8 -51.167 8 -72.5
c0 -38.667 -6.83301 -73.667 -20.5 -105s-30.167 -58.166 -49.5 -80.499s-39.666 -39.5 -60.999 -51.5s-39.333 -18 -54 -18c-5.33301 0 -13.666 0.833008 -24.999 2.5s-24.666 4.16699 -39.999 7.5v30c26 1.33301 51 7.5 75 18.5s45.5 25.667 64.5 44s35 39.333 48 63
s22.167 48.5 27.5 74.5c-1.33301 12.667 -3.66602 27 -6.99902 43s-7.16602 31.667 -11.499 47s-8.83301 29.833 -13.5 43.5s-9 24.167 -13 31.5l18 35c14.667 4.66699 31.5 9.5 50.5 14.5s38.333 9.5 58 13.5s39.167 7.5 58.5 10.5s37 5.16699 53 6.5l20 -10l17 -105
c3.33301 -19.333 7.66602 -34.333 12.999 -45l102 87.5l72.5 61c19.667 16.333 35.834 29.166 48.501 38.499s23 16.5 31 21.5s14.5 8.16699 19.5 9.5s9.5 2 13.5 2c14.667 0 30.5 -4.33301 47.5 -13s32.833 -21.167 47.5 -37.5s26.667 -36.666 36 -60.999
s14 -52.166 14 -83.499c0 -24.667 -5.16699 -44.834 -15.5 -60.501s-25.833 -27.834 -46.5 -36.501s-46.167 -14.667 -76.5 -18s-65.833 -5 -106.5 -5h-100zM674.995 260c-7.33301 0 -17.3311 -3.66504 -29.998 -10.998s-29 -19 -49 -35l-72.5 -60.5l-100.5 -87.5
c8.66699 -6 18.5 -10.167 29.5 -12.5s23.5 -3.5 37.5 -3.5h110c91.333 0 154.666 10 189.999 30c0 3.33301 0.166992 6.16602 0.5 8.49902s0.5 5.16602 0.5 8.49902c0 22 -3.83301 42.833 -11.5 62.5s-17.334 37 -29.001 52s-24.167 26.833 -37.5 35.5s-26 13 -38 13z
M134.997 310.002l-65 40l30 50l65 -40zM624.997 445.002l30 50l65 -40l-30 -50z" />
    <glyph glyph-name="uniFD17" unicode="&#xfd17;" horiz-adv-x="1215" arabic-form="final" 
d="M1215 0c-9.33301 0 -19.001 0.667969 -29.001 2.00098s-19.667 4.16602 -29 8.49902s-18 10.333 -26 18s-14.667 18.167 -20 31.5c-7.33301 -15.333 -16 -27 -26 -35c-7.33301 -6 -19.166 -11.667 -35.499 -17s-34.5 -8 -54.5 -8c-8 0 -16.333 0.666992 -25 2
s-17.5 3.83301 -26.5 7.5s-17.333 9 -25 16s-14.5 16.5 -20.5 28.5c-6 -12 -13.667 -21.667 -23 -29c-8.66699 -6.66699 -21.834 -12.5 -39.501 -17.5s-37.834 -7.5 -60.501 -7.5c-26.667 0 -50.5 5.16699 -71.5 15.5s-40 23.666 -57 39.999s-32.167 34.333 -45.5 54
l-37 56.5c-11.333 18 -22 34.167 -32 48.5s-20 24.5 -30 30.5c-20 0 -40.667 -5.16699 -62 -15.5s-41 -24.166 -59 -41.499s-33.5 -37 -46.5 -59s-21.5 -45 -25.5 -69c4 -4 9.5 -7.33301 16.5 -10s17.333 -5.16699 31 -7.5s31.5 -4.66602 53.5 -6.99902s50 -4.83301 84 -7.5
c18.667 -1.33301 33.667 -3.83301 45 -7.5s20 -8.16699 26 -13.5s9.83301 -11.5 11.5 -18.5s2.5 -14.833 2.5 -23.5c0 -22.667 -2 -43.167 -6 -61.5s-8.33301 -31.166 -13 -38.499c-4 -6 -13 -14.667 -27 -26s-32.833 -22.5 -56.5 -33.5s-52 -20.5 -85 -28.5
s-70.167 -12 -111.5 -12c-38.667 0 -71.334 3.83301 -98.001 11.5s-48.334 17.834 -65.001 30.501s-28.667 27.5 -36 44.5s-11 34.833 -11 53.5c0 17.333 1 39 3 65s4.33301 51.333 7 76c2.66699 28.667 6 58.334 10 89.001l38 -3
c-2.66699 -34 -5.33398 -66.333 -8.00098 -97l-6 -80c-2 -27.333 -3.33301 -49 -4 -65c10 -20 28.833 -37.5 56.5 -52.5s65.5 -22.5 113.5 -22.5c52.667 0 100.834 6.66699 144.501 20s77.834 29.666 102.501 48.999c4 14.667 6.83301 28 8.5 40s1.83398 25.667 0.500977 41
c-4 2.66699 -10.833 4.66699 -20.5 6s-21 2.33301 -34 3s-27.167 1.5 -42.5 2.5s-30.333 2.16699 -45 3.5c-24 2.66699 -43.667 6 -59 10s-27.5 9 -36.5 15s-15.333 13.5 -19 22.5s-5.5 19.833 -5.5 32.5c0 26 6.66699 53 20 81s31 53.333 53 76s47 41.334 75 56.001
s56.333 22 85 22c11.333 0 22.333 -6 33 -18s21.667 -27.167 33 -45.5l36.5 -59c13 -21 27.667 -40.667 44 -59s34.833 -33.5 55.5 -45.5s44.334 -18 71.001 -18c36 0 66 5.33301 90 16l25 154h35c-1.33301 -18.667 -2.33301 -34 -3 -46s-1.16699 -21.5 -1.5 -28.5
s-0.5 -12.333 -0.5 -16v-9.5c0 -14 2.33301 -25.5 7 -34.5s10.5 -16.167 17.5 -21.5s15 -9 24 -11s17.833 -3 26.5 -3c18 0 33.667 1.83301 47 5.5s24.333 7.5 33 11.5c3.33301 15.333 6.33301 33.166 9 53.499l8 58.5l8 66h35
c-1.33301 -22.667 -2.16602 -41.334 -2.49902 -56.001s-0.833008 -26.834 -1.5 -36.501s-1 -16.834 -1 -21.501v-11c0 -25.333 7.66699 -43.333 23 -54s34.333 -16 57 -16v-50v0z" />
    <glyph glyph-name="uniFD21" unicode="&#xfd21;" horiz-adv-x="1170" arabic-form="final" 
d="M1160 0c-17.333 0 -35.6699 1.99414 -55.0029 5.99414s-36.666 13.667 -51.999 29c-2.66699 -2 -6.66699 -4.33301 -12 -7c-40 -18.667 -105.333 -28 -196 -28h-45c-32 0 -60 5.16699 -84 15.5s-45.333 23.666 -64 39.999s-35.167 34.333 -49.5 54s-27.333 38.5 -39 56.5
l-32 48.5c-9.66699 14.333 -19.5 24.5 -29.5 30.5c-20 0 -40.667 -5.16699 -62 -15.5s-41 -24.166 -59 -41.499s-33.5 -37 -46.5 -59s-21.5 -45 -25.5 -69c4 -4 9.5 -7.33301 16.5 -10s17.333 -5.16699 31 -7.5s31.5 -4.66602 53.5 -6.99902s50 -4.83301 84 -7.5
c18.667 -1.33301 33.667 -3.83301 45 -7.5s20 -8.16699 26 -13.5s9.83301 -11.5 11.5 -18.5s2.5 -14.833 2.5 -23.5c0 -22.667 -2 -43.167 -6 -61.5s-8.33301 -31.166 -13 -38.499c-4 -6 -13 -14.667 -27 -26s-32.833 -22.5 -56.5 -33.5s-52 -20.5 -85 -28.5
s-70.167 -12 -111.5 -12c-38.667 0 -71.334 3.83301 -98.001 11.5s-48.334 17.834 -65.001 30.501s-28.667 27.5 -36 44.5s-11 34.833 -11 53.5c0 17.333 1 39 3 65s4.33301 51.333 7 76c2.66699 28.667 6 58.334 10 89.001l38 -3
c-2.66699 -34 -5.33398 -66.333 -8.00098 -97l-6 -80c-2 -27.333 -3.33301 -49 -4 -65c10 -20 28.833 -37.5 56.5 -52.5s65.5 -22.5 113.5 -22.5c52.667 0 100.834 6.66699 144.501 20s77.834 29.666 102.501 48.999c4 14.667 6.83301 28 8.5 40s1.83398 25.667 0.500977 41
c-4 2.66699 -10.833 4.66699 -20.5 6s-21 2.33301 -34 3s-27.167 1.5 -42.5 2.5s-30.333 2.16699 -45 3.5c-24 2.66699 -43.667 6 -59 10s-27.5 9 -36.5 15s-15.333 13.5 -19 22.5s-5.5 19.833 -5.5 32.5c0 26 6.66699 53 20 81s31 53.333 53 76s47 41.334 75 56.001
s56.333 22 85 22c12 0 23.333 -6.5 34 -19.5s22 -29.333 34 -49l40 -62.5c14.667 -22 32.334 -42 53.001 -60l136 116c34 28 60.333 49 79 63s32.167 22.833 40.5 26.5s15.5 5.5 21.5 5.5c14.667 0 30.5 -4.33301 47.5 -13s32.833 -21.167 47.5 -37.5
s26.667 -36.666 36 -60.999s14 -52.166 14 -83.499c0 -17.333 -4.33301 -35.333 -13 -54c10.667 -6.66699 22.334 -11 35.001 -13s28.667 -3 48 -3h10v-50h-10zM934.996 259.994c-7.33301 0 -16.832 -3.50098 -28.499 -10.501s-27 -17.667 -46 -32
s-41.667 -32.833 -68 -55.5l-93.5 -82c15.333 -9.33301 32 -16.666 50 -21.999s38.333 -8 61 -8h50c91.333 0 154.666 10 189.999 30c2.66699 24 0.5 46.833 -6.5 68.5s-16.5 40.667 -28.5 57s-25.167 29.5 -39.5 39.5s-27.833 15 -40.5 15z" />
    <glyph glyph-name="uniFD23" unicode="&#xfd23;" horiz-adv-x="1170" arabic-form="final" 
d="M1160 0c-17.333 0 -35.6699 1.99414 -55.0029 5.99414s-36.666 13.667 -51.999 29c-2.66699 -2 -6.66699 -4.33301 -12 -7c-40 -18.667 -105.333 -28 -196 -28h-45c-32 0 -60 5.16699 -84 15.5s-45.333 23.666 -64 39.999s-35.167 34.333 -49.5 54s-27.333 38.5 -39 56.5
l-32 48.5c-9.66699 14.333 -19.5 24.5 -29.5 30.5c-20 0 -40.667 -5.16699 -62 -15.5s-41 -24.166 -59 -41.499s-33.5 -37 -46.5 -59s-21.5 -45 -25.5 -69c4 -4 9.5 -7.33301 16.5 -10s17.333 -5.16699 31 -7.5s31.5 -4.66602 53.5 -6.99902s50 -4.83301 84 -7.5
c18.667 -1.33301 33.667 -3.83301 45 -7.5s20 -8.16699 26 -13.5s9.83301 -11.5 11.5 -18.5s2.5 -14.833 2.5 -23.5c0 -22.667 -2 -43.167 -6 -61.5s-8.33301 -31.166 -13 -38.499c-4 -6 -13 -14.667 -27 -26s-32.833 -22.5 -56.5 -33.5s-52 -20.5 -85 -28.5
s-70.167 -12 -111.5 -12c-38.667 0 -71.334 3.83301 -98.001 11.5s-48.334 17.834 -65.001 30.501s-28.667 27.5 -36 44.5s-11 34.833 -11 53.5c0 17.333 1 39 3 65s4.33301 51.333 7 76c2.66699 28.667 6 58.334 10 89.001l38 -3
c-2.66699 -34 -5.33398 -66.333 -8.00098 -97l-6 -80c-2 -27.333 -3.33301 -49 -4 -65c10 -20 28.833 -37.5 56.5 -52.5s65.5 -22.5 113.5 -22.5c52.667 0 100.834 6.66699 144.501 20s77.834 29.666 102.501 48.999c4 14.667 6.83301 28 8.5 40s1.83398 25.667 0.500977 41
c-4 2.66699 -10.833 4.66699 -20.5 6s-21 2.33301 -34 3s-27.167 1.5 -42.5 2.5s-30.333 2.16699 -45 3.5c-24 2.66699 -43.667 6 -59 10s-27.5 9 -36.5 15s-15.333 13.5 -19 22.5s-5.5 19.833 -5.5 32.5c0 26 6.66699 53 20 81s31 53.333 53 76s47 41.334 75 56.001
s56.333 22 85 22c12 0 23.333 -6.5 34 -19.5s22 -29.333 34 -49l40 -62.5c14.667 -22 32.334 -42 53.001 -60l136 116c34 28 60.333 49 79 63s32.167 22.833 40.5 26.5s15.5 5.5 21.5 5.5c14.667 0 30.5 -4.33301 47.5 -13s32.833 -21.167 47.5 -37.5
s26.667 -36.666 36 -60.999s14 -52.166 14 -83.499c0 -17.333 -4.33301 -35.333 -13 -54c10.667 -6.66699 22.334 -11 35.001 -13s28.667 -3 48 -3h10v-50h-10zM934.996 259.994c-7.33301 0 -16.832 -3.50098 -28.499 -10.501s-27 -17.667 -46 -32
s-41.667 -32.833 -68 -55.5l-93.5 -82c15.333 -9.33301 32 -16.666 50 -21.999s38.333 -8 61 -8h50c91.333 0 154.666 10 189.999 30c2.66699 24 0.5 46.833 -6.5 68.5s-16.5 40.667 -28.5 57s-25.167 29.5 -39.5 39.5s-27.833 15 -40.5 15zM884.997 444.993l30 50l65 -40
l-30 -50z" />
    <glyph glyph-name="uniFD29" unicode="&#xfd29;" horiz-adv-x="925" arabic-form="final" 
d="M925 0c-9.33301 0 -19.0049 0.668945 -29.0049 2.00195s-19.667 4.16602 -29 8.49902s-18 10.333 -26 18s-14.667 17.834 -20 30.501c-9.33301 -18 -22.333 -32.333 -39 -43s-42.334 -16 -77.001 -16c-8 0 -16.333 0.666992 -25 2s-17.5 4 -26.5 8s-17.333 9.5 -25 16.5
s-14.5 16.5 -20.5 28.5c-9.33301 -17.333 -22.666 -30.833 -39.999 -40.5s-45 -14.5 -83 -14.5c-22.667 0 -41.667 2.5 -57 7.5s-28.333 12.5 -39 22.5s-19 22.5 -25 37.5s-10.667 32.5 -14 52.5l-15 83c-26 -2.66699 -54.167 -7 -84.5 -13s-58.833 -12.667 -85.5 -20
c6 -21.333 11.667 -45.5 17 -72.5s8 -51.167 8 -72.5c0 -38.667 -6.83301 -73.667 -20.5 -105s-30.167 -58.166 -49.5 -80.499s-39.666 -39.5 -60.999 -51.5s-39.333 -18 -54 -18c-5.33301 0 -13.666 0.833008 -24.999 2.5s-24.666 4.16699 -39.999 7.5v30
c26 1.33301 51 7.5 75 18.5s45.5 25.667 64.5 44s35 39.333 48 63s22.167 48.5 27.5 74.5c-1.33301 12.667 -3.66602 27 -6.99902 43s-7.16602 31.667 -11.499 47s-8.83301 29.833 -13.5 43.5s-9 24.167 -13 31.5l18 35c14.667 4.66699 31.5 9.5 50.5 14.5
s38.333 9.5 58 13.5s39.167 7.5 58.5 10.5s37 5.16699 53 6.5l20 -10l17 -105c5.33301 -35.333 16.666 -59.166 33.999 -71.499s41 -18.5 71 -18.5c36 0 66 5.33301 90 16l25 154h35c-1.33301 -18.667 -2.33301 -34 -3 -46s-1.16699 -21.5 -1.5 -28.5s-0.5 -12.333 -0.5 -16
v-9.5c0 -14 2.33301 -25.5 7 -34.5s10.5 -16.167 17.5 -21.5s15 -9 24 -11s17.833 -3 26.5 -3c18 0 33.667 1.83301 47 5.5s24.333 7.5 33 11.5c3.33301 15.333 6.33301 33.166 9 53.499l8 58.5l8 66h35c-1.33301 -22.667 -2.16602 -41.334 -2.49902 -56.001
s-0.833008 -26.834 -1.5 -36.501s-1 -16.834 -1 -21.501v-11c0 -25.333 7.66699 -43.333 23 -54s34.333 -16 57 -16v-50zM629.995 360.002l30 50l65 -40l-30 -50zM579.995 520.002l65 -40l-30 -50l-65 40zM534.995 410.002l65 -40l-30 -50l-65 40zM134.995 310.002l-65 40
l30 50l65 -40z" />
    <glyph glyph-name="uniFD2A" unicode="&#xfd2a;" horiz-adv-x="925" arabic-form="final" 
d="M925 0c-9.33301 0 -19.0049 0.668945 -29.0049 2.00195s-19.667 4.16602 -29 8.49902s-18 10.333 -26 18s-14.667 17.834 -20 30.501c-9.33301 -18 -22.333 -32.333 -39 -43s-42.334 -16 -77.001 -16c-8 0 -16.333 0.666992 -25 2s-17.5 4 -26.5 8s-17.333 9.5 -25 16.5
s-14.5 16.5 -20.5 28.5c-9.33301 -17.333 -22.666 -30.833 -39.999 -40.5s-45 -14.5 -83 -14.5c-22.667 0 -41.667 2.5 -57 7.5s-28.333 12.5 -39 22.5s-19 22.5 -25 37.5s-10.667 32.5 -14 52.5l-15 83c-26 -2.66699 -54.167 -7 -84.5 -13s-58.833 -12.667 -85.5 -20
c6 -21.333 11.667 -45.5 17 -72.5s8 -51.167 8 -72.5c0 -38.667 -6.83301 -73.667 -20.5 -105s-30.167 -58.166 -49.5 -80.499s-39.666 -39.5 -60.999 -51.5s-39.333 -18 -54 -18c-5.33301 0 -13.666 0.833008 -24.999 2.5s-24.666 4.16699 -39.999 7.5v30
c26 1.33301 51 7.5 75 18.5s45.5 25.667 64.5 44s35 39.333 48 63s22.167 48.5 27.5 74.5c-1.33301 12.667 -3.66602 27 -6.99902 43s-7.16602 31.667 -11.499 47s-8.83301 29.833 -13.5 43.5s-9 24.167 -13 31.5l18 35c14.667 4.66699 31.5 9.5 50.5 14.5
s38.333 9.5 58 13.5s39.167 7.5 58.5 10.5s37 5.16699 53 6.5l20 -10l17 -105c5.33301 -35.333 16.666 -59.166 33.999 -71.499s41 -18.5 71 -18.5c36 0 66 5.33301 90 16l25 154h35c-1.33301 -18.667 -2.33301 -34 -3 -46s-1.16699 -21.5 -1.5 -28.5s-0.5 -12.333 -0.5 -16
v-9.5c0 -14 2.33301 -25.5 7 -34.5s10.5 -16.167 17.5 -21.5s15 -9 24 -11s17.833 -3 26.5 -3c18 0 33.667 1.83301 47 5.5s24.333 7.5 33 11.5c3.33301 15.333 6.33301 33.166 9 53.499l8 58.5l8 66h35c-1.33301 -22.667 -2.16602 -41.334 -2.49902 -56.001
s-0.833008 -26.834 -1.5 -36.501s-1 -16.834 -1 -21.501v-11c0 -25.333 7.66699 -43.333 23 -54s34.333 -16 57 -16v-50zM134.995 310.002l-65 40l30 50l65 -40z" />
    <glyph glyph-name="uniFD2B" unicode="&#xfd2b;" horiz-adv-x="910" arabic-form="final" 
d="M900 0c-17.333 0 -35.8398 1.99805 -55.5068 5.99805s-37.167 14 -52.5 30c-19.333 -14 -46.333 -23.5 -81 -28.5s-76.667 -7.5 -126 -7.5h-100c-22.667 0 -41.667 2.5 -57 7.5s-28.333 12.5 -39 22.5s-19 22.5 -25 37.5s-10.667 32.5 -14 52.5l-15 83
c-26 -2.66699 -54.167 -7 -84.5 -13s-58.833 -12.667 -85.5 -20c6 -21.333 11.667 -45.5 17 -72.5s8 -51.167 8 -72.5c0 -38.667 -6.83301 -73.667 -20.5 -105s-30.167 -58.166 -49.5 -80.499s-39.666 -39.5 -60.999 -51.5s-39.333 -18 -54 -18
c-5.33301 0 -13.666 0.833008 -24.999 2.5s-24.666 4.16699 -39.999 7.5v30c26 1.33301 51 7.5 75 18.5s45.5 25.667 64.5 44s35 39.333 48 63s22.167 48.5 27.5 74.5c-1.33301 12.667 -3.66602 27 -6.99902 43s-7.16602 31.667 -11.499 47s-8.83301 29.833 -13.5 43.5
s-9 24.167 -13 31.5l18 35c14.667 4.66699 31.5 9.5 50.5 14.5s38.333 9.5 58 13.5s39.167 7.5 58.5 10.5s37 5.16699 53 6.5l20 -10l17 -105c3.33301 -19.333 7.66602 -34.333 12.999 -45l102 87.5l72.5 61c19.667 16.333 35.834 29.166 48.501 38.499s23 16.5 31 21.5
s14.5 8.16699 19.5 9.5s9.5 2 13.5 2c14.667 0 30.5 -4.33301 47.5 -13s32.833 -21.167 47.5 -37.5s26.667 -36.666 36 -60.999s14 -52.166 14 -83.499c0 -22 -4 -40.333 -12 -55c10.667 -6 22.334 -10 35.001 -12s28.334 -3 47.001 -3h10v-50h-10zM674.993 259.998
c-7.33301 0 -17.3311 -3.66504 -29.998 -10.998s-29 -19 -49 -35l-72.5 -60.5l-100.5 -87.5c8.66699 -6 18.5 -10.167 29.5 -12.5s23.5 -3.5 37.5 -3.5h110c91.333 0 154.666 10 189.999 30c0 3.33301 0.166992 6.16602 0.5 8.49902s0.5 5.16602 0.5 8.49902
c0 22 -3.83301 42.833 -11.5 62.5s-17.334 37 -29.001 52s-24.167 26.833 -37.5 35.5s-26 13 -38 13zM134.995 310l-65 40l30 50l65 -40z" />
    <glyph glyph-name="uniFD2C" unicode="&#xfd2c;" horiz-adv-x="910" arabic-form="final" 
d="M900 0c-17.333 0 -35.8398 1.99805 -55.5068 5.99805s-37.167 14 -52.5 30c-19.333 -14 -46.333 -23.5 -81 -28.5s-76.667 -7.5 -126 -7.5h-100c-22.667 0 -41.667 2.5 -57 7.5s-28.333 12.5 -39 22.5s-19 22.5 -25 37.5s-10.667 32.5 -14 52.5l-15 83
c-26 -2.66699 -54.167 -7 -84.5 -13s-58.833 -12.667 -85.5 -20c6 -21.333 11.667 -45.5 17 -72.5s8 -51.167 8 -72.5c0 -38.667 -6.83301 -73.667 -20.5 -105s-30.167 -58.166 -49.5 -80.499s-39.666 -39.5 -60.999 -51.5s-39.333 -18 -54 -18
c-5.33301 0 -13.666 0.833008 -24.999 2.5s-24.666 4.16699 -39.999 7.5v30c26 1.33301 51 7.5 75 18.5s45.5 25.667 64.5 44s35 39.333 48 63s22.167 48.5 27.5 74.5c-1.33301 12.667 -3.66602 27 -6.99902 43s-7.16602 31.667 -11.499 47s-8.83301 29.833 -13.5 43.5
s-9 24.167 -13 31.5l18 35c14.667 4.66699 31.5 9.5 50.5 14.5s38.333 9.5 58 13.5s39.167 7.5 58.5 10.5s37 5.16699 53 6.5l20 -10l17 -105c3.33301 -19.333 7.66602 -34.333 12.999 -45l102 87.5l72.5 61c19.667 16.333 35.834 29.166 48.501 38.499s23 16.5 31 21.5
s14.5 8.16699 19.5 9.5s9.5 2 13.5 2c14.667 0 30.5 -4.33301 47.5 -13s32.833 -21.167 47.5 -37.5s26.667 -36.666 36 -60.999s14 -52.166 14 -83.499c0 -22 -4 -40.333 -12 -55c10.667 -6 22.334 -10 35.001 -12s28.334 -3 47.001 -3h10v-50h-10zM674.993 259.998
c-7.33301 0 -17.3311 -3.66504 -29.998 -10.998s-29 -19 -49 -35l-72.5 -60.5l-100.5 -87.5c8.66699 -6 18.5 -10.167 29.5 -12.5s23.5 -3.5 37.5 -3.5h110c91.333 0 154.666 10 189.999 30c0 3.33301 0.166992 6.16602 0.5 8.49902s0.5 5.16602 0.5 8.49902
c0 22 -3.83301 42.833 -11.5 62.5s-17.334 37 -29.001 52s-24.167 26.833 -37.5 35.5s-26 13 -38 13zM624.995 445l30 50l65 -40l-30 -50zM134.995 310l-65 40l30 50l65 -40z" />
    <glyph glyph-name="uniFDFC" unicode="&#xfdfc;" horiz-adv-x="1260" arabic-form="isolated" 
d="M128 242c-2.66699 -34 -5.33398 -66.335 -8.00098 -97.002l-6 -80c-2 -27.333 -3.33301 -49 -4 -65c10 -20 28.5 -37.5 55.5 -52.5s61.833 -22.5 104.5 -22.5c36.667 0 75.334 6.16699 116.001 18.5s76.334 31.166 107.001 56.499l-5 465
c-0.666992 24 -1.33398 45 -2.00098 63s-1.83398 34.833 -3.50098 50.5s-4.33398 30.834 -8.00098 45.501s-8.5 30 -14.5 46l40 30c14.667 -35.333 23.334 -70.833 26.001 -106.5s4 -73.5 4 -113.5v-420c0 -17.333 -1.5 -34.166 -4.5 -50.499s-8.16699 -29.5 -15.5 -39.5
c-6.66699 -8.66699 -17 -18.5 -31 -29.5s-31.333 -21.333 -52 -31s-44.167 -17.834 -70.5 -24.501s-55.166 -10 -86.499 -10c-36 0 -66.667 3.83301 -92 11.5s-46 17.834 -62 30.501s-27.667 27.5 -35 44.5s-11 34.833 -11 53.5c0 17.333 1 39 3 65s4.33301 51.333 7 76
c2.66699 28.667 6 58.334 10 89.001zM945 299.998l14.998 -5c4 -8.66699 8 -20.334 12 -35.001s7.66699 -30.334 11 -47.001s6.16602 -33.167 8.49902 -49.5s3.5 -30.833 3.5 -43.5c0 -26 -4 -46.833 -12 -62.5s-20.5 -27.667 -37.5 -36s-38.833 -14 -65.5 -17
s-58.334 -4.5 -95.001 -4.5c-26 0 -47.667 3 -65 9s-31.166 14.5 -41.499 25.5s-17.666 24.167 -21.999 39.5s-6.5 32.333 -6.5 51v280c0 24 -0.333008 45 -1 63s-2.16699 34.833 -4.5 50.5s-5.5 30.834 -9.5 45.501s-9 30 -15 46l40 30
c14.667 -35.333 23.334 -70.833 26.001 -106.5s4 -73.5 4 -113.5v-330c7.33301 -13.333 19.333 -23.333 36 -30s36.334 -10 59.001 -10c16 0 32.5 0.333008 49.5 1s33.333 2 49 4s30 4.5 43 7.5s23.5 7.16699 31.5 12.5c0 8.66699 -1 21 -3 37s-5 33.333 -9 52
s-8.66699 37.834 -14 57.501s-11 37.5 -17 53.5zM939.998 -140.002c26 1.33301 50.9971 7.5 74.9971 18.5s45.5 25.667 64.5 44s35 39.333 48 63s22.167 48.5 27.5 74.5c-1.33301 12.667 -3.83301 27 -7.5 43s-8 32.833 -13 50.5s-10.5 35.167 -16.5 52.5
s-12 33.666 -18 48.999l30 25l15 -5c6 -14 11.833 -29.667 17.5 -47s10.5 -35 14.5 -53s7.16699 -35.667 9.5 -53s3.5 -33 3.5 -47c0 -38.667 -6.83301 -73.667 -20.5 -105s-30.167 -58.166 -49.5 -80.499s-39.666 -39.5 -60.999 -51.5s-39.333 -18 -54 -18
c-5.33301 0 -13.666 0.833008 -24.999 2.5s-24.666 4.16699 -39.999 7.5v30zM829.995 -180.002l-65 40l30 50l65 -40zM669.995 -90.002l65 -40l-30 -50l-65 40z" />
    <glyph glyph-name="uniFE82" unicode="&#x622;" horiz-adv-x="230" arabic-form="final" 
d="M220 0c-26 0 -47.6709 3 -65.0039 9s-31.166 14.5 -41.499 25.5s-17.666 24.167 -21.999 39.5s-6.5 32.333 -6.5 51v220c0 24.667 -0.333008 46.667 -1 66s-2.16699 36.833 -4.5 52.5s-5.5 30 -9.5 43s-9 25.833 -15 38.5l40 35
c14.667 -27.333 23.334 -58.333 26.001 -93s4 -77 4 -127v-270c7.33301 -13.333 19.333 -23.333 36 -30s36.334 -10 59.001 -10h10v-50h-10zM89.9961 680c-17.333 0 -32.667 1.33496 -46 4.00195s-25.666 5.66699 -36.999 9l-22 -53h-10l-20 20
c7.33301 14.667 13.166 27 17.499 37s8 17.667 11 23s6 9.16602 9 11.499s7.16699 3.5 12.5 3.5c7.33301 0 17.333 -2.5 30 -7.5s32.667 -7.5 60 -7.5c17.333 0 35.833 1.33301 55.5 4s39.5 7 59.5 13l5 -7l-10 -32c-20 -6.66699 -39.833 -11.334 -59.5 -14.001
s-38.167 -4 -55.5 -4z" />
    <glyph glyph-name="uniFE84" unicode="&#x623;" horiz-adv-x="230" arabic-form="final" 
d="M220 0c-26 0 -47.6709 3 -65.0039 9s-31.166 14.5 -41.499 25.5s-17.666 24.167 -21.999 39.5s-6.5 32.333 -6.5 51v165c0 24.667 -0.333008 46.667 -1 66s-2.16699 36.833 -4.5 52.5s-5.5 30 -9.5 43s-9 25.833 -15 38.5l40 35
c14.667 -27.333 23.334 -58.333 26.001 -93s4 -77 4 -127v-215c7.33301 -13.333 19.333 -23.333 36 -30s36.334 -10 59.001 -10h10v-50h-10zM141.996 770l-7 -25.001h-96c-6 -12 -9 -24.333 -9 -37c0 -17.333 5.66699 -32.166 17 -44.499s27.333 -18.5 48 -18.5
c10 0 22.5 1.5 37.5 4.5s32.5 8.16699 52.5 15.5l5 -35l-195 -70l-5 30l66 27c-17.333 6.66699 -31 17.5 -41 32.5s-15 31.833 -15 50.5c0 10 1.66699 21.5 5 34.5s10 28.167 20 45.5h110z" />
    <glyph glyph-name="uniFE86" unicode="&#x624;" horiz-adv-x="435" arabic-form="final" 
d="M195 -10c-38 0 -66.667 6.83301 -86 20.5s-29 31.834 -29 54.501c0 10 2 24 6 42s8.66699 37.167 14 57.5s11.166 40.333 17.499 60s12.166 36.5 17.499 50.5l20 15c36 -3.33301 66.833 -11.333 92.5 -24s46.834 -29.5 63.501 -50.5s29.167 -45.5 37.5 -73.5
s13.5 -58.667 15.5 -92h71v-50h-71c-3.33301 -31.333 -12.833 -61 -28.5 -89s-34.167 -52.5 -55.5 -73.5s-44.166 -37.5 -68.499 -49.5s-46.5 -18 -66.5 -18c-5.33301 0 -14.5 0.833008 -27.5 2.5s-27.167 4.16699 -42.5 7.5v30c28.667 1.33301 56.5 6.5 83.5 15.5
s51.667 21.5 74 37.5s41.833 35.167 58.5 57.5s29.334 47.166 38.001 74.499v5c-23.333 -3.33301 -46.333 -5.83301 -69 -7.5s-44.334 -2.5 -65.001 -2.5zM205 40c22 0 43.6699 0.667969 65.0029 2.00098s39.666 2.66602 54.999 3.99902c-6 58.667 -21.667 104 -47 136
s-64 51.333 -116 58c-2.66699 -6 -6.33398 -17.167 -11.001 -33.5l-14.5 -52c-5 -18.333 -9.5 -36 -13.5 -53s-6.66699 -29.167 -8 -36.5c7.33301 -10 19.166 -16.667 35.499 -20s34.5 -5 54.5 -5zM262.003 570.001l-7 -24.999h-96c-6 -12 -9 -23.833 -9 -35.5
s2.5 -22.334 7.5 -32.001s12.333 -17.5 22 -23.5s21.5 -9 35.5 -9c10 0 22.5 1.5 37.5 4.5s32.5 8.16699 52.5 15.5l5 -35l-195 -70l-5 30l66 27c-17.333 6.66699 -31 17.5 -41 32.5s-15 31.833 -15 50.5c0 10 1.66699 21.5 5 34.5s10 28.167 20 45.5h110z" />
    <glyph glyph-name="uniFE88" unicode="&#x625;" horiz-adv-x="220" arabic-form="final" 
d="M220 0c-26 0 -47.6709 2.99902 -65.0039 8.99902s-31.166 14.5 -41.499 25.5s-17.666 24.167 -21.999 39.5s-6.5 32.333 -6.5 51v280c0 24 -0.333008 45 -1 63s-2.16699 34.833 -4.5 50.5s-5.5 30.834 -9.5 45.501s-9 30 -15 46l40 30
c14.667 -35.333 23.334 -70.833 26.001 -106.5s4 -73.5 4 -113.5v-330c7.33301 -13.333 19.333 -23.333 36 -30s36.334 -10 59.001 -10v-50zM196.996 -135.001l-7 -24.999h-96c-6 -12 -9 -23.833 -9 -35.5s2.5 -22.334 7.5 -32.001s12.333 -17.5 22 -23.5s21.5 -9 35.5 -9
c10 0 22.5 1.5 37.5 4.5s32.5 8.16699 52.5 15.5l5 -35l-195 -70l-5 30l66 28c-17.333 6 -31 16.5 -41 31.5s-15 31.833 -15 50.5c0 10 1.66699 21.5 5 34.5s10 28.167 20 45.5h110z" />
    <glyph glyph-name="uniFE8A" unicode="&#x626;" horiz-adv-x="610" arabic-form="final" 
d="M562 0c2 -6 2.99902 -14.334 2.99902 -25.001c0 -10 -0.666992 -20.667 -2 -32s-3 -22.166 -5 -32.499s-4.16699 -19.5 -6.5 -27.5s-4.5 -14 -6.5 -18c-4 -6 -13 -14.667 -27 -26s-32.333 -22.5 -55 -33.5s-49.5 -20.5 -80.5 -28.5s-65.167 -12 -102.5 -12
c-38.667 0 -71.334 3.83301 -98.001 11.5s-48.334 17.834 -65.001 30.501s-28.667 27.5 -36 44.5s-11 34.833 -11 53.5c0 17.333 1 39 3 65s4.33301 51.333 7 76c2.66699 28.667 6 58.334 10 89.001l38 -3c-2.66699 -34 -5.33398 -66.333 -8.00098 -97l-6 -80
c-2 -27.333 -3.33301 -49 -4 -65c10 -20 28.833 -37.5 56.5 -52.5s65.5 -22.5 113.5 -22.5c22 0 44 1.66699 66 5s43.333 8.16602 64 14.499s39.667 13.666 57 21.999s32.333 17.5 45 27.5c3.33301 16 5.83301 33.833 7.5 53.5s1.83398 37.167 0.500977 52.5
c-6 2.66699 -13.667 4.66699 -23 6s-22.666 2.5 -39.999 3.5s-39.666 1.83301 -66.999 2.5s-62.333 1.66699 -105 3l-5 10c1.33301 3.33301 2.5 6.5 3.5 9.5s2.16699 6.16699 3.5 9.5c2.66699 6.66699 5.83398 11 9.50098 13s8.16699 3 13.5 3h300v-50h-48zM401.999 369.999
l-7 -24.999h-96c-6 -12 -9 -23.833 -9 -35.5s2.5 -22.334 7.5 -32.001s12.333 -17.5 22 -23.5s21.5 -9 35.5 -9c10 0 22.5 1.5 37.5 4.5s32.5 8.16699 52.5 15.5l5 -35l-195 -70l-5 30l66 27c-17.333 6.66699 -31 17.5 -41 32.5s-15 31.833 -15 50.5
c0 10 1.66699 21.5 5 34.5s10 28.167 20 45.5h110z" />
    <glyph glyph-name="uniFE8B" unicode="&#x626;" horiz-adv-x="280" arabic-form="initial" 
d="M0 0c-5.33301 0 -9.99902 2.33496 -13.999 7.00195s-6 10.667 -6 18c0 8 2 14.167 6 18.5s8.66699 6.5 14 6.5c16 0 32.5 0.333008 49.5 1s33.333 2 49 4s30 4.5 43 7.5s23.5 7.16699 31.5 12.5c0 8.66699 -1 21 -3 37s-5 33.333 -9 52s-8.66699 37.834 -14 57.501
s-11 37.5 -17 53.5l30 25l15 -5c4 -8.66699 8 -20.334 12 -35.001s7.66699 -30.334 11 -47.001s6.16602 -33.167 8.49902 -49.5s3.5 -30.833 3.5 -43.5c0 -25.333 -5.16699 -46.333 -15.5 -63s-21.833 -28.334 -34.5 -35.001c-13.333 -7.33301 -34.5 -12.833 -63.5 -16.5
s-61.167 -5.5 -96.5 -5.5zM182.001 590.002l-7 -24.999h-96c-6 -12 -9 -23.833 -9 -35.5s2.5 -22.334 7.5 -32.001s12.333 -17.5 22 -23.5s21.5 -9 35.5 -9c10 0 22.5 1.5 37.5 4.5s32.5 8.16699 52.5 15.5l5 -35l-195 -70l-5 30l66 27c-17.333 6.66699 -31 17.5 -41 32.5
s-15 31.833 -15 50.5c0 10 1.66699 21.5 5 34.5s10 28.167 20 45.5h110z" />
    <glyph glyph-name="uniFE8C" unicode="&#x626;" horiz-adv-x="280" arabic-form="medial" 
d="M280 0c-9.33301 0 -18.835 0.665039 -28.502 1.99805s-19.167 4 -28.5 8s-18 9.83301 -26 17.5s-14.667 17.834 -20 30.501c-3.33301 -6 -7.33301 -12.167 -12 -18.5s-9.66699 -11.166 -15 -14.499c-10 -7.33301 -27.5 -13.333 -52.5 -18s-57.5 -7 -97.5 -7
c-5.33301 -0 -10 2.33301 -14 7s-6 10.667 -6 18c0 8 2 14.167 6 18.5s8.66699 6.5 14 6.5c40 0 71.667 1.5 95 4.5s40 6.5 50 10.5l25 155h35c-1.33301 -18.667 -2.33301 -34 -3 -46s-1.16699 -21.5 -1.5 -28.5s-0.5 -12.333 -0.5 -16v-9.5c0 -14 2.33301 -25.5 7 -34.5
s10.834 -16.167 18.501 -21.5s16.334 -9 26.001 -11s19.167 -3 28.5 -3v-50zM191.998 519.998l-7 -24.999h-96c-6 -12 -9 -23.833 -9 -35.5s2.5 -22.334 7.5 -32.001s12.333 -17.5 22 -23.5s21.5 -9 35.5 -9c10 0 22.5 1.5 37.5 4.5s32.5 8.16699 52.5 15.5l5 -35l-195 -70
l-5 30l66 27c-17.333 6.66699 -31 17.5 -41 32.5s-15 31.833 -15 50.5c0 10 1.66699 21.5 5 34.5s10 28.167 20 45.5h110z" />
    <glyph glyph-name="uniFE8E" unicode="&#x627;" horiz-adv-x="220" arabic-form="final" 
d="M220 0c-26 0 -47.6709 2.99902 -65.0039 8.99902s-31.166 14.5 -41.499 25.5s-17.666 24.167 -21.999 39.5s-6.5 32.333 -6.5 51v280c0 24 -0.333008 45 -1 63s-2.16699 34.833 -4.5 50.5s-5.5 30.834 -9.5 45.501s-9 30 -15 46l40 30
c14.667 -35.333 23.334 -70.833 26.001 -106.5s4 -73.5 4 -113.5v-330c7.33301 -13.333 19.333 -23.333 36 -30s36.334 -10 59.001 -10v-50v0z" />
    <glyph glyph-name="uniFE90" unicode="&#x628;" horiz-adv-x="720" arabic-form="final" 
d="M720 0c-9.33301 0 -19.001 0.667969 -29.001 2.00098s-19.667 4.16602 -29 8.49902s-18.166 10.5 -26.499 18.5s-15.166 18.667 -20.499 32c-4.66699 -7.33301 -9 -13 -13 -17s-8 -7 -12 -9c-19.333 -10 -51.333 -19.167 -96 -27.5s-101 -12.5 -169 -12.5
c-34 0 -66.333 1.33301 -97 4s-57.667 8 -81 16s-42 19.5 -56 34.5s-21 35.167 -21 60.5c0 15.333 0.666992 31.5 2 48.5s2.66602 33.167 3.99902 48.5l6 53l38 -3l-7 -83.5c-2 -24.333 -3.66699 -50.5 -5 -78.5c8 -8.66699 19.333 -16.167 34 -22.5s31.667 -11.5 51 -15.5
s40.166 -7 62.499 -9s45.5 -3 69.5 -3c25.333 0 50.666 0.833008 75.999 2.5s49.5 4 72.5 7s44.333 6.5 64 10.5s36.167 8.66699 49.5 14l23 141h35c-1.33301 -18.667 -2.33301 -34 -3 -46s-1.16699 -21.5 -1.5 -28.5s-0.5 -12.333 -0.5 -16v-9.5
c0 -14 2.33301 -25.5 7 -34.5s10.834 -16.167 18.501 -21.5s16.334 -9 26.001 -11s19.167 -3 28.5 -3v-50zM394.999 -139.999l-30 -50l-65 40l30 50z" />
    <glyph glyph-name="uniFE91" unicode="&#x628;" horiz-adv-x="280" arabic-form="initial" 
d="M0 0c-5.33301 0 -9.99902 2.33496 -13.999 7.00195s-6 10.667 -6 18c0 8 2 14.167 6 18.5s8.66699 6.5 14 6.5c16 0 32.5 0.333008 49.5 1s33.333 2 49 4s30 4.5 43 7.5s23.5 7.16699 31.5 12.5c0 8.66699 -1 21 -3 37s-5 33.333 -9 52s-8.66699 37.834 -14 57.501
s-11 37.5 -17 53.5l30 25l15 -5c4 -8.66699 8 -20.334 12 -35.001s7.66699 -30.334 11 -47.001s6.16602 -33.167 8.49902 -49.5s3.5 -30.833 3.5 -43.5c0 -25.333 -5.16699 -46.333 -15.5 -63s-21.833 -28.334 -34.5 -35.001c-13.333 -7.33301 -34.5 -12.833 -63.5 -16.5
s-61.167 -5.5 -96.5 -5.5zM104.001 -129.998l-30 -50l-65 40l30 50z" />
    <glyph glyph-name="uniFE92" unicode="&#x628;" horiz-adv-x="280" arabic-form="medial" 
d="M280 0c-9.33301 0 -18.835 0.665039 -28.502 1.99805s-19.167 4 -28.5 8s-18 9.83301 -26 17.5s-14.667 17.834 -20 30.501c-3.33301 -6 -7.33301 -12.167 -12 -18.5s-9.66699 -11.166 -15 -14.499c-10 -7.33301 -27.5 -13.333 -52.5 -18s-57.5 -7 -97.5 -7
c-5.33301 -0 -10 2.33301 -14 7s-6 10.667 -6 18c0 8 2 14.167 6 18.5s8.66699 6.5 14 6.5c40 0 71.667 1.5 95 4.5s40 6.5 50 10.5l25 155h35c-1.33301 -18.667 -2.33301 -34 -3 -46s-1.16699 -21.5 -1.5 -28.5s-0.5 -12.333 -0.5 -16v-9.5c0 -14 2.33301 -25.5 7 -34.5
s10.834 -16.167 18.501 -21.5s16.334 -9 26.001 -11s19.167 -3 28.5 -3v-50zM179.998 -130.002l-30 -50l-65 40l30 50z" />
    <glyph glyph-name="uniFE94" unicode="&#x629;" horiz-adv-x="445" arabic-form="final" 
d="M190 25c-42.667 0 -73.3311 7.83594 -91.998 23.5029s-28 41.167 -28 76.5c0 15.333 0.666992 28.666 2 39.999s4 24.333 8 39c4 6.66699 13 15.5 27 26.5s30 22.667 48 35l56.5 37l54.5 33.5l-12 69l30 15l15 -5l51 -330c7.33301 -12.667 20 -21.667 38 -27s37 -8 57 -8
v-50c-15.333 0 -30 1 -44 3s-27 5.66699 -39 11s-22.5 13.166 -31.5 23.499s-15.833 24.166 -20.5 41.499l-10 -23.5c-2.66699 -6.33301 -4.33398 -9.83301 -5.00098 -10.5c-2.66699 -5.33301 -13.834 -10 -33.501 -14s-43.5 -6 -71.5 -6zM273.003 290.003l-51.5029 -30.999
c-17.667 -10.667 -34 -21 -49 -31s-28.167 -19.167 -39.5 -27.5s-19 -15.5 -23 -21.5c-1.33301 -18.667 -1.66602 -34.5 -0.999023 -47.5s3.83398 -23.667 9.50098 -32s14.5 -14.5 26.5 -18.5s28.667 -6 50 -6c18.667 0 37.834 1 57.501 3s38.167 5.33301 55.5 10
c-0.666992 1.33301 -1 3.66602 -1 6.99902zM270 540.004l30 50l65 -40l-30 -50zM175 590.004l65 -40l-30 -50l-65 40z" />
    <glyph glyph-name="uniFE96" unicode="&#x62a;" horiz-adv-x="720" arabic-form="final" 
d="M720 0c-9.33301 0 -19.001 0.667969 -29.001 2.00098s-19.667 4.16602 -29 8.49902s-18.166 10.5 -26.499 18.5s-15.166 18.667 -20.499 32c-4.66699 -7.33301 -9 -13 -13 -17s-8 -7 -12 -9c-19.333 -10 -51.333 -19.167 -96 -27.5s-101 -12.5 -169 -12.5
c-34 0 -66.333 1.33301 -97 4s-57.667 8 -81 16s-42 19.5 -56 34.5s-21 35.167 -21 60.5c0 15.333 0.666992 31.5 2 48.5s2.66602 33.167 3.99902 48.5l6 53l38 -3l-7 -83.5c-2 -24.333 -3.66699 -50.5 -5 -78.5c8 -8.66699 19.333 -16.167 34 -22.5s31.667 -11.5 51 -15.5
s40.166 -7 62.499 -9s45.5 -3 69.5 -3c25.333 0 50.666 0.833008 75.999 2.5s49.5 4 72.5 7s44.333 6.5 64 10.5s36.167 8.66699 49.5 14l23 141h35c-1.33301 -18.667 -2.33301 -34 -3 -46s-1.16699 -21.5 -1.5 -28.5s-0.5 -12.333 -0.5 -16v-9.5
c0 -14 2.33301 -25.5 7 -34.5s10.834 -16.167 18.501 -21.5s16.334 -9 26.001 -11s19.167 -3 28.5 -3v-50zM279.999 430.001l65 -40l-30 -50l-65 40zM374.999 380.001l30 50l65 -40l-30 -50z" />
    <glyph glyph-name="uniFE97" unicode="&#x62a;" horiz-adv-x="280" arabic-form="initial" 
d="M0 0c-5.33301 0 -9.99902 2.33496 -13.999 7.00195s-6 10.667 -6 18c0 8 2 14.167 6 18.5s8.66699 6.5 14 6.5c16 0 32.5 0.333008 49.5 1s33.333 2 49 4s30 4.5 43 7.5s23.5 7.16699 31.5 12.5c0 8.66699 -1 21 -3 37s-5 33.333 -9 52s-8.66699 37.834 -14 57.501
s-11 37.5 -17 53.5l30 25l15 -5c4 -8.66699 8 -20.334 12 -35.001s7.66699 -30.334 11 -47.001s6.16602 -33.167 8.49902 -49.5s3.5 -30.833 3.5 -43.5c0 -25.333 -5.16699 -46.333 -15.5 -63s-21.833 -28.334 -34.5 -35.001c-13.333 -7.33301 -34.5 -12.833 -63.5 -16.5
s-61.167 -5.5 -96.5 -5.5zM145.001 430.002l30 50l65 -40l-30 -50zM50.001 480.002l65 -40l-30 -50l-65 40z" />
    <glyph glyph-name="uniFE98" unicode="&#x62a;" horiz-adv-x="280" arabic-form="medial" 
d="M280 0c-9.33301 0 -18.835 0.665039 -28.502 1.99805s-19.167 4 -28.5 8s-18 9.83301 -26 17.5s-14.667 17.834 -20 30.501c-3.33301 -6 -7.33301 -12.167 -12 -18.5s-9.66699 -11.166 -15 -14.499c-10 -7.33301 -27.5 -13.333 -52.5 -18s-57.5 -7 -97.5 -7
c-5.33301 -0 -10 2.33301 -14 7s-6 10.667 -6 18c0 8 2 14.167 6 18.5s8.66699 6.5 14 6.5c40 0 71.667 1.5 95 4.5s40 6.5 50 10.5l25 155h35c-1.33301 -18.667 -2.33301 -34 -3 -46s-1.16699 -21.5 -1.5 -28.5s-0.5 -12.333 -0.5 -16v-9.5c0 -14 2.33301 -25.5 7 -34.5
s10.834 -16.167 18.501 -21.5s16.334 -9 26.001 -11s19.167 -3 28.5 -3v-50zM154.998 359.998l30 50l65 -40l-30 -50zM59.998 409.998l65 -40l-30 -50l-65 40z" />
    <glyph glyph-name="uniFE9A" unicode="&#x62b;" horiz-adv-x="720" arabic-form="final" 
d="M720 0c-9.33301 0 -19.001 0.667969 -29.001 2.00098s-19.667 4.16602 -29 8.49902s-18.166 10.5 -26.499 18.5s-15.166 18.667 -20.499 32c-4.66699 -7.33301 -9 -13 -13 -17s-8 -7 -12 -9c-19.333 -10 -51.333 -19.167 -96 -27.5s-101 -12.5 -169 -12.5
c-34 0 -66.333 1.33301 -97 4s-57.667 8 -81 16s-42 19.5 -56 34.5s-21 35.167 -21 60.5c0 15.333 0.666992 31.5 2 48.5s2.66602 33.167 3.99902 48.5l6 53l38 -3l-7 -83.5c-2 -24.333 -3.66699 -50.5 -5 -78.5c8 -8.66699 19.333 -16.167 34 -22.5s31.667 -11.5 51 -15.5
s40.166 -7 62.499 -9s45.5 -3 69.5 -3c25.333 0 50.666 0.833008 75.999 2.5s49.5 4 72.5 7s44.333 6.5 64 10.5s36.167 8.66699 49.5 14l23 141h35c-1.33301 -18.667 -2.33301 -34 -3 -46s-1.16699 -21.5 -1.5 -28.5s-0.5 -12.333 -0.5 -16v-9.5
c0 -14 2.33301 -25.5 7 -34.5s10.834 -16.167 18.501 -21.5s16.334 -9 26.001 -11s19.167 -3 28.5 -3v-50zM374.999 380.001l30 50l65 -40l-30 -50zM324.999 540.001l65 -40l-30 -50l-65 40zM279.999 430.001l65 -40l-30 -50l-65 40z" />
    <glyph glyph-name="uniFE9B" unicode="&#x62b;" horiz-adv-x="280" arabic-form="initial" 
d="M0 0c-5.33301 0 -9.99902 2.33496 -13.999 7.00195s-6 10.667 -6 18c0 8 2 14.167 6 18.5s8.66699 6.5 14 6.5c16 0 32.5 0.333008 49.5 1s33.333 2 49 4s30 4.5 43 7.5s23.5 7.16699 31.5 12.5c0 8.66699 -1 21 -3 37s-5 33.333 -9 52s-8.66699 37.834 -14 57.501
s-11 37.5 -17 53.5l30 25l15 -5c4 -8.66699 8 -20.334 12 -35.001s7.66699 -30.334 11 -47.001s6.16602 -33.167 8.49902 -49.5s3.5 -30.833 3.5 -43.5c0 -25.333 -5.16699 -46.333 -15.5 -63s-21.833 -28.334 -34.5 -35.001c-13.333 -7.33301 -34.5 -12.833 -63.5 -16.5
s-61.167 -5.5 -96.5 -5.5zM145.001 430.002l30 50l65 -40l-30 -50zM95.001 590.002l65 -40l-30 -50l-65 40zM50.001 480.002l65 -40l-30 -50l-65 40z" />
    <glyph glyph-name="uniFE9C" unicode="&#x62b;" horiz-adv-x="280" arabic-form="medial" 
d="M280 0c-9.33301 0 -18.835 0.665039 -28.502 1.99805s-19.167 4 -28.5 8s-18 9.83301 -26 17.5s-14.667 17.834 -20 30.501c-3.33301 -6 -7.33301 -12.167 -12 -18.5s-9.66699 -11.166 -15 -14.499c-10 -7.33301 -27.5 -13.333 -52.5 -18s-57.5 -7 -97.5 -7
c-5.33301 -0 -10 2.33301 -14 7s-6 10.667 -6 18c0 8 2 14.167 6 18.5s8.66699 6.5 14 6.5c40 0 71.667 1.5 95 4.5s40 6.5 50 10.5l25 155h35c-1.33301 -18.667 -2.33301 -34 -3 -46s-1.16699 -21.5 -1.5 -28.5s-0.5 -12.333 -0.5 -16v-9.5c0 -14 2.33301 -25.5 7 -34.5
s10.834 -16.167 18.501 -21.5s16.334 -9 26.001 -11s19.167 -3 28.5 -3v-50zM154.998 359.998l30 50l65 -40l-30 -50zM104.998 519.998l65 -40l-30 -50l-65 40zM59.998 409.998l65 -40l-30 -50l-65 40z" />
    <glyph glyph-name="uniFE9E" unicode="&#x62c;" horiz-adv-x="590" arabic-form="final" 
d="M510 -240l-10.002 -35c-40 -5.33301 -77.333 -8.33301 -112 -9s-60.667 -1 -78 -1c-37.333 0 -70.833 3.66699 -100.5 11s-54.834 19.5 -75.501 36.5s-36.5 39.167 -47.5 66.5s-16.5 61 -16.5 101v5c0 32 8.33301 64.5 25 97.5s40.334 64.333 71.001 94
s68 56.334 112 80.001s93 42.5 147 56.5l-82.5 29.5c-25.667 9 -49 16.667 -70 23s-39 11.166 -54 14.499s-26.167 5 -33.5 5c-12.667 0 -26.5 -3.16699 -41.5 -9.5s-26.167 -13.166 -33.5 -20.499v-52c0 -14.667 0.333008 -30.667 1 -48l-11 -10l-23 10
c-1.33301 7.33301 -2 15 -2 23v27c0 28 0.833008 47.5 2.5 58.5s4.16699 18.167 7.5 21.5c1.33301 1.33301 5.33301 4.5 12 9.5s14.667 10.167 24 15.5s20 10 32 14s24.333 6 37 6s29.834 -2.66699 51.501 -8s46.834 -12.5 75.501 -21.5s59.834 -19.5 93.501 -31.5
l104.5 -39l5 -15l-15 -35c-16 0 -31.833 -1.33301 -47.5 -4s-31.5 -6.33398 -47.5 -11.001c1.33301 -30.667 4.83301 -56.5 10.5 -77.5s13.834 -38 24.501 -51s24.167 -22.333 40.5 -28s36.166 -8.5 59.499 -8.5h45v-50h-50c-18 -0 -36.333 1.83301 -55 5.5
s-35.834 12.5 -51.501 26.5s-28.834 34.5 -39.501 61.5s-17 63.5 -19 109.5l-10 -4l-10 -4c-69.333 -29.333 -124.5 -62.833 -165.5 -100.5s-69.167 -84.167 -84.5 -139.5v-5c0 -31.333 3.16699 -58.833 9.5 -82.5s17.5 -43.5 33.5 -59.5s37.333 -28 64 -36
s60.667 -12 102 -12h35.5c12.333 0 26 0.333008 41 1s31.333 1.66699 49 3s37.834 3.33301 60.501 6zM339.998 -50l-30 -50l-65 40l30 50z" />
    <glyph glyph-name="uniFE9F" unicode="&#x62c;" horiz-adv-x="580" arabic-form="initial" 
d="M0 0c-5.33301 0 -10 2.33008 -14 6.99707s-6 10.667 -6 18c0 8 2 14.167 6 18.5s8.66699 6.5 14 6.5h75c28 0 51.167 0.833008 69.5 2.5s33.5 3.83398 45.5 6.50098s21.833 5.83398 29.5 9.50098s14.5 7.5 20.5 11.5c22 14 41.167 26.833 57.5 38.5l46 34
c14.333 11 28.833 21.5 43.5 31.5s31.334 20 50.001 30c-64 24.667 -116.833 43.5 -158.5 56.5s-69.5 19.5 -83.5 19.5c-12.667 0 -26.5 -3.16699 -41.5 -9.5s-26.167 -13.166 -33.5 -20.499v-53c0 -15.333 0.333008 -29.333 1 -42l-26 -15l-8 10
c-1.33301 12.667 -2 22.334 -2 29.001v21c0 28 0.833008 47.5 2.5 58.5s4.16699 18.167 7.5 21.5c1.33301 1.33301 5.33301 4.5 12 9.5s14.667 10.167 24 15.5s20 10 32 14s24.333 6 37 6s29.334 -2.66699 50.001 -8s44.667 -12.5 72 -21.5s57.333 -19.5 90 -31.5l103 -39
l5 -15l-15 -35c-11.333 0 -21.5 -0.333008 -30.5 -1s-18.833 -3.33398 -29.5 -8.00098s-23.5 -12.167 -38.5 -22.5s-33.833 -24.833 -56.5 -43.5c-32.667 -26 -59.334 -46.5 -80.001 -61.5s-40.334 -26 -59.001 -33s-39 -11.333 -61 -13s-50.333 -2.5 -85 -2.5h-65z
M295 -130.003l-30 -50l-65 40l30 50z" />
    <glyph glyph-name="uniFEA0" unicode="&#x62c;" horiz-adv-x="590" arabic-form="medial" 
d="M0 0c-5.33301 0 -9.99805 2.32812 -13.998 6.99512s-6 10.667 -6 18c0 8 2 14.167 6 18.5s8.66699 6.5 14 6.5h75c28 0 51.167 0.833008 69.5 2.5s33.5 3.83398 45.5 6.50098s21.833 5.83398 29.5 9.50098s14.5 7.5 20.5 11.5c22 14 41.167 26.833 57.5 38.5l46 34
c14.333 11 28.833 21.5 43.5 31.5s31.334 20 50.001 30c-64 24.667 -116.833 43.5 -158.5 56.5s-69.5 19.5 -83.5 19.5c-12.667 0 -26.5 -3.16699 -41.5 -9.5s-26.167 -13.166 -33.5 -20.499v-53c0 -15.333 0.333008 -29.333 1 -42l-26 -15l-8 10
c-1.33301 12.667 -2 22.334 -2 29.001v21c0 28 0.833008 47.5 2.5 58.5s4.16699 18.167 7.5 21.5c1.33301 1.33301 5.33301 4.5 12 9.5s14.667 10.167 24 15.5s20 10 32 14s24.333 6 37 6s29.334 -2.66699 50.001 -8s44.667 -12.5 72 -21.5s57.333 -19.5 90 -31.5l103 -39
l5 -15l-15 -35c-9.33301 0 -17.666 -0.166992 -24.999 -0.5s-14.833 -1.66602 -22.5 -3.99902s-16.334 -6 -26.001 -11s-20.834 -12.167 -33.501 -21.5c7.33301 -33.333 20.666 -58 39.999 -74s48.333 -24 87 -24h65v-50h-70c-15.333 0 -30.833 1.16699 -46.5 3.5
s-30.5 7.83301 -44.5 16.5s-26.5 21 -37.5 37s-19.833 37.667 -26.5 65l-15 -12c-32.667 -26 -59.334 -46.5 -80.001 -61.5s-40.334 -26 -59.001 -33s-39 -11.333 -61 -13s-50.333 -2.5 -85 -2.5h-65zM295.002 -130.005l-30 -50l-65 40l30 50z" />
    <glyph glyph-name="uniFEA2" unicode="&#x62d;" horiz-adv-x="590" arabic-form="final" 
d="M510 -240l-10.002 -35c-40 -5.33301 -77.333 -8.33301 -112 -9s-60.667 -1 -78 -1c-37.333 0 -70.833 3.66699 -100.5 11s-54.834 19.5 -75.501 36.5s-36.5 39.167 -47.5 66.5s-16.5 61 -16.5 101v5c0 32 8.33301 64.5 25 97.5s40.334 64.333 71.001 94
s68 56.334 112 80.001s93 42.5 147 56.5l-82.5 29.5c-25.667 9 -49 16.667 -70 23s-39 11.166 -54 14.499s-26.167 5 -33.5 5c-12.667 0 -26.5 -3.16699 -41.5 -9.5s-26.167 -13.166 -33.5 -20.499v-52c0 -14.667 0.333008 -30.667 1 -48l-11 -10l-23 10
c-1.33301 7.33301 -2 15 -2 23v27c0 28 0.833008 47.5 2.5 58.5s4.16699 18.167 7.5 21.5c1.33301 1.33301 5.33301 4.5 12 9.5s14.667 10.167 24 15.5s20 10 32 14s24.333 6 37 6s29.834 -2.66699 51.501 -8s46.834 -12.5 75.501 -21.5s59.834 -19.5 93.501 -31.5
l104.5 -39l5 -15l-15 -35c-16 0 -31.833 -1.33301 -47.5 -4s-31.5 -6.33398 -47.5 -11.001c1.33301 -30.667 4.83301 -56.5 10.5 -77.5s13.834 -38 24.501 -51s24.167 -22.333 40.5 -28s36.166 -8.5 59.499 -8.5h45v-50h-50c-18 -0 -36.333 1.83301 -55 5.5
s-35.834 12.5 -51.501 26.5s-28.834 34.5 -39.501 61.5s-17 63.5 -19 109.5l-10 -4l-10 -4c-69.333 -29.333 -124.5 -62.833 -165.5 -100.5s-69.167 -84.167 -84.5 -139.5v-5c0 -31.333 3.16699 -58.833 9.5 -82.5s17.5 -43.5 33.5 -59.5s37.333 -28 64 -36
s60.667 -12 102 -12h35.5c12.333 0 26 0.333008 41 1s31.333 1.66699 49 3s37.834 3.33301 60.501 6z" />
    <glyph glyph-name="uniFEA3" unicode="&#x62d;" horiz-adv-x="580" arabic-form="initial" 
d="M0 0c-5.33301 0 -10 2.33008 -14 6.99707s-6 10.667 -6 18c0 8 2 14.167 6 18.5s8.66699 6.5 14 6.5h75c28 0 51.167 0.833008 69.5 2.5s33.5 3.83398 45.5 6.50098s21.833 5.83398 29.5 9.50098s14.5 7.5 20.5 11.5c22 14 41.167 26.833 57.5 38.5l46 34
c14.333 11 28.833 21.5 43.5 31.5s31.334 20 50.001 30c-64 24.667 -116.833 43.5 -158.5 56.5s-69.5 19.5 -83.5 19.5c-12.667 0 -26.5 -3.16699 -41.5 -9.5s-26.167 -13.166 -33.5 -20.499v-53c0 -15.333 0.333008 -29.333 1 -42l-26 -15l-8 10
c-1.33301 12.667 -2 22.334 -2 29.001v21c0 28 0.833008 47.5 2.5 58.5s4.16699 18.167 7.5 21.5c1.33301 1.33301 5.33301 4.5 12 9.5s14.667 10.167 24 15.5s20 10 32 14s24.333 6 37 6s29.334 -2.66699 50.001 -8s44.667 -12.5 72 -21.5s57.333 -19.5 90 -31.5l103 -39
l5 -15l-15 -35c-11.333 0 -21.5 -0.333008 -30.5 -1s-18.833 -3.33398 -29.5 -8.00098s-23.5 -12.167 -38.5 -22.5s-33.833 -24.833 -56.5 -43.5c-32.667 -26 -59.334 -46.5 -80.001 -61.5s-40.334 -26 -59.001 -33s-39 -11.333 -61 -13s-50.333 -2.5 -85 -2.5h-65z" />
    <glyph glyph-name="uniFEA4" unicode="&#x62d;" horiz-adv-x="590" arabic-form="medial" 
d="M0 0c-5.33301 0 -9.99805 2.32812 -13.998 6.99512s-6 10.667 -6 18c0 8 2 14.167 6 18.5s8.66699 6.5 14 6.5h75c28 0 51.167 0.833008 69.5 2.5s33.5 3.83398 45.5 6.50098s21.833 5.83398 29.5 9.50098s14.5 7.5 20.5 11.5c22 14 41.167 26.833 57.5 38.5l46 34
c14.333 11 28.833 21.5 43.5 31.5s31.334 20 50.001 30c-64 24.667 -116.833 43.5 -158.5 56.5s-69.5 19.5 -83.5 19.5c-12.667 0 -26.5 -3.16699 -41.5 -9.5s-26.167 -13.166 -33.5 -20.499v-53c0 -15.333 0.333008 -29.333 1 -42l-26 -15l-8 10
c-1.33301 12.667 -2 22.334 -2 29.001v21c0 28 0.833008 47.5 2.5 58.5s4.16699 18.167 7.5 21.5c1.33301 1.33301 5.33301 4.5 12 9.5s14.667 10.167 24 15.5s20 10 32 14s24.333 6 37 6s29.334 -2.66699 50.001 -8s44.667 -12.5 72 -21.5s57.333 -19.5 90 -31.5l103 -39
l5 -15l-15 -35c-9.33301 0 -17.666 -0.166992 -24.999 -0.5s-14.833 -1.66602 -22.5 -3.99902s-16.334 -6 -26.001 -11s-20.834 -12.167 -33.501 -21.5c7.33301 -33.333 20.666 -58 39.999 -74s48.333 -24 87 -24h65v-50h-70c-15.333 0 -30.833 1.16699 -46.5 3.5
s-30.5 7.83301 -44.5 16.5s-26.5 21 -37.5 37s-19.833 37.667 -26.5 65l-15 -12c-32.667 -26 -59.334 -46.5 -80.001 -61.5s-40.334 -26 -59.001 -33s-39 -11.333 -61 -13s-50.333 -2.5 -85 -2.5h-65v0z" />
    <glyph glyph-name="uniFEA6" unicode="&#x62e;" horiz-adv-x="590" arabic-form="final" 
d="M510 -240l-10.002 -35c-40 -5.33301 -77.333 -8.33301 -112 -9s-60.667 -1 -78 -1c-37.333 0 -70.833 3.66699 -100.5 11s-54.834 19.5 -75.501 36.5s-36.5 39.167 -47.5 66.5s-16.5 61 -16.5 101v5c0 32 8.33301 64.5 25 97.5s40.334 64.333 71.001 94
s68 56.334 112 80.001s93 42.5 147 56.5l-82.5 29.5c-25.667 9 -49 16.667 -70 23s-39 11.166 -54 14.499s-26.167 5 -33.5 5c-12.667 0 -26.5 -3.16699 -41.5 -9.5s-26.167 -13.166 -33.5 -20.499v-52c0 -14.667 0.333008 -30.667 1 -48l-11 -10l-23 10
c-1.33301 7.33301 -2 15 -2 23v27c0 28 0.833008 47.5 2.5 58.5s4.16699 18.167 7.5 21.5c1.33301 1.33301 5.33301 4.5 12 9.5s14.667 10.167 24 15.5s20 10 32 14s24.333 6 37 6s29.834 -2.66699 51.501 -8s46.834 -12.5 75.501 -21.5s59.834 -19.5 93.501 -31.5
l104.5 -39l5 -15l-15 -35c-16 0 -31.833 -1.33301 -47.5 -4s-31.5 -6.33398 -47.5 -11.001c1.33301 -30.667 4.83301 -56.5 10.5 -77.5s13.834 -38 24.501 -51s24.167 -22.333 40.5 -28s36.166 -8.5 59.499 -8.5h45v-50h-50c-18 -0 -36.333 1.83301 -55 5.5
s-35.834 12.5 -51.501 26.5s-28.834 34.5 -39.501 61.5s-17 63.5 -19 109.5l-10 -4l-10 -4c-69.333 -29.333 -124.5 -62.833 -165.5 -100.5s-69.167 -84.167 -84.5 -139.5v-5c0 -31.333 3.16699 -58.833 9.5 -82.5s17.5 -43.5 33.5 -59.5s37.333 -28 64 -36
s60.667 -12 102 -12h35.5c12.333 0 26 0.333008 41 1s31.333 1.66699 49 3s37.834 3.33301 60.501 6zM154.998 525l30 50l65 -40l-30 -50z" />
    <glyph glyph-name="uniFEA7" unicode="&#x62e;" horiz-adv-x="580" arabic-form="initial" 
d="M0 0c-5.33301 0 -10 2.33008 -14 6.99707s-6 10.667 -6 18c0 8 2 14.167 6 18.5s8.66699 6.5 14 6.5h75c28 0 51.167 0.833008 69.5 2.5s33.5 3.83398 45.5 6.50098s21.833 5.83398 29.5 9.50098s14.5 7.5 20.5 11.5c22 14 41.167 26.833 57.5 38.5l46 34
c14.333 11 28.833 21.5 43.5 31.5s31.334 20 50.001 30c-64 24.667 -116.833 43.5 -158.5 56.5s-69.5 19.5 -83.5 19.5c-12.667 0 -26.5 -3.16699 -41.5 -9.5s-26.167 -13.166 -33.5 -20.499v-53c0 -15.333 0.333008 -29.333 1 -42l-26 -15l-8 10
c-1.33301 12.667 -2 22.334 -2 29.001v21c0 28 0.833008 47.5 2.5 58.5s4.16699 18.167 7.5 21.5c1.33301 1.33301 5.33301 4.5 12 9.5s14.667 10.167 24 15.5s20 10 32 14s24.333 6 37 6s29.334 -2.66699 50.001 -8s44.667 -12.5 72 -21.5s57.333 -19.5 90 -31.5l103 -39
l5 -15l-15 -35c-11.333 0 -21.5 -0.333008 -30.5 -1s-18.833 -3.33398 -29.5 -8.00098s-23.5 -12.167 -38.5 -22.5s-33.833 -24.833 -56.5 -43.5c-32.667 -26 -59.334 -46.5 -80.001 -61.5s-40.334 -26 -59.001 -33s-39 -11.333 -61 -13s-50.333 -2.5 -85 -2.5h-65z
M155 479.997l30 50l65 -40l-30 -50z" />
    <glyph glyph-name="uniFEA8" unicode="&#x62e;" horiz-adv-x="590" arabic-form="medial" 
d="M0 0c-5.33301 0 -9.99805 2.32812 -13.998 6.99512s-6 10.667 -6 18c0 8 2 14.167 6 18.5s8.66699 6.5 14 6.5h75c28 0 51.167 0.833008 69.5 2.5s33.5 3.83398 45.5 6.50098s21.833 5.83398 29.5 9.50098s14.5 7.5 20.5 11.5c22 14 41.167 26.833 57.5 38.5l46 34
c14.333 11 28.833 21.5 43.5 31.5s31.334 20 50.001 30c-64 24.667 -116.833 43.5 -158.5 56.5s-69.5 19.5 -83.5 19.5c-12.667 0 -26.5 -3.16699 -41.5 -9.5s-26.167 -13.166 -33.5 -20.499v-53c0 -15.333 0.333008 -29.333 1 -42l-26 -15l-8 10
c-1.33301 12.667 -2 22.334 -2 29.001v21c0 28 0.833008 47.5 2.5 58.5s4.16699 18.167 7.5 21.5c1.33301 1.33301 5.33301 4.5 12 9.5s14.667 10.167 24 15.5s20 10 32 14s24.333 6 37 6s29.334 -2.66699 50.001 -8s44.667 -12.5 72 -21.5s57.333 -19.5 90 -31.5l103 -39
l5 -15l-15 -35c-9.33301 0 -17.666 -0.166992 -24.999 -0.5s-14.833 -1.66602 -22.5 -3.99902s-16.334 -6 -26.001 -11s-20.834 -12.167 -33.501 -21.5c7.33301 -33.333 20.666 -58 39.999 -74s48.333 -24 87 -24h65v-50h-70c-15.333 0 -30.833 1.16699 -46.5 3.5
s-30.5 7.83301 -44.5 16.5s-26.5 21 -37.5 37s-19.833 37.667 -26.5 65l-15 -12c-32.667 -26 -59.334 -46.5 -80.001 -61.5s-40.334 -26 -59.001 -33s-39 -11.333 -61 -13s-50.333 -2.5 -85 -2.5h-65zM155.002 479.995l30 50l65 -40l-30 -50z" />
    <glyph glyph-name="uniFEAA" unicode="&#x62f;" horiz-adv-x="480" arabic-form="final" 
d="M480 0c-34 0 -60.4971 3.83008 -79.4971 11.4971s-33.833 22.167 -44.5 43.5c-9.33301 -15.333 -29.166 -28.333 -59.499 -39s-65.833 -16 -106.5 -16c-50 0 -84.167 6.5 -102.5 19.5s-27.5 33.167 -27.5 60.5c0 4.66699 0.333008 11.667 1 21l2 29
c0.666992 10 1.5 19.5 2.5 28.5s1.83301 16.167 2.5 21.5l35 -2c-0.666992 -10.667 -1.33398 -22.167 -2.00098 -34.5s-1.33398 -23.666 -2.00098 -33.999s-1.16699 -19.166 -1.5 -26.499s-0.5 -11.666 -0.5 -12.999c4.66699 -4 11 -7.33301 19 -10s17 -4.66699 27 -6
s20.333 -2.33301 31 -3s21 -1 31 -1c23.333 0 47.166 2.33301 71.499 7s47.166 13.667 68.499 27c-1.33301 4 -2.5 8.33301 -3.5 13s-2.16699 9.66699 -3.5 15l-53 258l30 15l15 -5l55 -295c7.33301 -12.667 20 -21.667 38 -27s37 -8 57 -8v-50v0z" />
    <glyph glyph-name="uniFEAC" unicode="&#x630;" horiz-adv-x="480" arabic-form="final" 
d="M480 0c-34 0 -60.4971 3.83008 -79.4971 11.4971s-33.833 22.167 -44.5 43.5c-9.33301 -15.333 -29.166 -28.333 -59.499 -39s-65.833 -16 -106.5 -16c-50 0 -84.167 6.5 -102.5 19.5s-27.5 33.167 -27.5 60.5c0 4.66699 0.333008 11.667 1 21l2 29
c0.666992 10 1.5 19.5 2.5 28.5s1.83301 16.167 2.5 21.5l35 -2c-0.666992 -10.667 -1.33398 -22.167 -2.00098 -34.5s-1.33398 -23.666 -2.00098 -33.999s-1.16699 -19.166 -1.5 -26.499s-0.5 -11.666 -0.5 -12.999c4.66699 -4 11 -7.33301 19 -10s17 -4.66699 27 -6
s20.333 -2.33301 31 -3s21 -1 31 -1c23.333 0 47.166 2.33301 71.499 7s47.166 13.667 68.499 27c-1.33301 4 -2.5 8.33301 -3.5 13s-2.16699 9.66699 -3.5 15l-53 258l30 15l15 -5l55 -295c7.33301 -12.667 20 -21.667 38 -27s37 -8 57 -8v-50zM250.003 499.997l30 50
l65 -40l-30 -50z" />
    <glyph glyph-name="uniFEAE" unicode="&#x631;" horiz-adv-x="260" arabic-form="final" 
d="M260 0c-32 0 -55.3359 4.33301 -70.0029 13c-1.33301 -37.333 -9 -70.833 -23 -100.5s-30.667 -55.167 -50 -76.5s-39.166 -37.666 -59.499 -48.999s-37.833 -17 -52.5 -17c-5.33301 0 -13.666 0.833008 -24.999 2.5s-24.666 4.16699 -39.999 7.5v30
c26 1.33301 51 7.5 75 18.5s45.5 25.667 64.5 44s35 39.333 48 63s22.167 48.5 27.5 74.5c-1.33301 12.667 -3.83301 27 -7.5 43s-8 32.833 -13 50.5s-10.5 35.167 -16.5 52.5s-12 33.666 -18 48.999l30 25l15 -5c5.33301 -15.333 10.5 -31.333 15.5 -48l14 -47.5l11.5 -40
c3.33301 -11.667 6.33301 -19.834 9 -24.501c5.33301 -5.33301 12.5 -9.16602 21.5 -11.499s23.5 -3.5 43.5 -3.5v-50v0z" />
    <glyph glyph-name="uniFEB0" unicode="&#x632;" horiz-adv-x="260" arabic-form="final" 
d="M260 0c-32 0 -55.3359 4.33301 -70.0029 13c-1.33301 -37.333 -9 -70.833 -23 -100.5s-30.667 -55.167 -50 -76.5s-39.166 -37.666 -59.499 -48.999s-37.833 -17 -52.5 -17c-5.33301 0 -13.666 0.833008 -24.999 2.5s-24.666 4.16699 -39.999 7.5v30
c26 1.33301 51 7.5 75 18.5s45.5 25.667 64.5 44s35 39.333 48 63s22.167 48.5 27.5 74.5c-1.33301 12.667 -3.83301 27 -7.5 43s-8 32.833 -13 50.5s-10.5 35.167 -16.5 52.5s-12 33.666 -18 48.999l30 25l15 -5c5.33301 -15.333 10.5 -31.333 15.5 -48l14 -47.5l11.5 -40
c3.33301 -11.667 6.33301 -19.834 9 -24.501c5.33301 -5.33301 12.5 -9.16602 21.5 -11.499s23.5 -3.5 43.5 -3.5v-50zM69.9971 350l30 50l65 -40l-30 -50z" />
    <glyph glyph-name="uniFEB2" unicode="&#x633;" horiz-adv-x="1070" arabic-form="final" 
d="M1070 0c-9.33301 0 -18.9971 0.669922 -28.9971 2.00293s-19.667 4.16602 -29 8.49902s-18 10.333 -26 18s-14.667 18.167 -20 31.5c-7.33301 -15.333 -16 -27 -26 -35c-7.33301 -6 -19.166 -11.667 -35.499 -17s-34.5 -8 -54.5 -8c-8 0 -16.333 0.666992 -25 2
s-17.5 3.83301 -26.5 7.5s-17.333 9 -25 16s-14.5 16.5 -20.5 28.5c-6 -12 -13.667 -21.667 -23 -29c-8.66699 -6.66699 -21.834 -12.5 -39.501 -17.5s-37.834 -7.5 -60.501 -7.5c-12.667 0 -24.834 0.833008 -36.501 2.5s-22.167 5.83398 -31.5 12.501
c0.666992 -8 1.33398 -17.167 2.00098 -27.5s1 -21.166 1 -32.499c0 -17.333 -1.66699 -34 -5 -50s-8.33301 -29.333 -15 -40c-4 -6 -13 -14.667 -27 -26s-32.333 -22.5 -55 -33.5s-49.5 -20.5 -80.5 -28.5s-65.167 -12 -102.5 -12c-38.667 0 -71.334 3.83301 -98.001 11.5
s-48.334 17.834 -65.001 30.501s-28.667 27.5 -36 44.5s-11 34.833 -11 53.5c0 12.667 0.5 28 1.5 46s2.5 37.333 4.5 58s4.16699 41.834 6.5 63.501s4.83301 42.5 7.5 62.5l38 -3l-6 -72l-5.5 -70.5l-4.5 -60c-1.33301 -17.667 -2 -30.834 -2 -39.501
c10 -20 28.833 -37.5 56.5 -52.5s65.5 -22.5 113.5 -22.5c24 0 48 2 72 6s47 9.66699 69 17s42 15.833 60 25.5s32.667 20.167 44 31.5c0 24.667 -1.16699 50.667 -3.5 78s-5.5 54.5 -9.5 81.5s-8.83301 53.667 -14.5 80s-11.5 51.5 -17.5 75.5l30 20l15 -5l19 -94.5
c5.33301 -27.667 10.666 -47.834 15.999 -60.501c7.33301 -7.33301 17.833 -12.5 31.5 -15.5s28.167 -4.5 43.5 -4.5c36 0 66 5.33301 90 16l25 154h35c-1.33301 -18.667 -2.33301 -34 -3 -46s-1.16699 -21.5 -1.5 -28.5s-0.5 -12.333 -0.5 -16v-9.5
c0 -14 2.33301 -25.5 7 -34.5s10.5 -16.167 17.5 -21.5s15 -9 24 -11s17.833 -3 26.5 -3c18 0 33.667 1.83301 47 5.5s24.333 7.5 33 11.5c3.33301 15.333 6.33301 33.166 9 53.499l8 58.5l8 66h35c-1.33301 -22.667 -2.16602 -41.334 -2.49902 -56.001
s-0.833008 -26.834 -1.5 -36.501s-1 -16.834 -1 -21.501v-11c0 -25.333 7.66699 -43.333 23 -54s34.333 -16 57 -16v-50v0z" />
    <glyph glyph-name="uniFEB3" unicode="&#x633;" horiz-adv-x="705" arabic-form="initial" 
d="M490 0c-8 0 -16.3311 0.667969 -24.998 2.00098s-17.5 3.83301 -26.5 7.5s-17.333 9 -25 16s-14.5 16.5 -20.5 28.5c-6 -12 -13.667 -21.667 -23 -29c-8.66699 -6.66699 -21.834 -12.5 -39.501 -17.5s-37.834 -7.5 -60.501 -7.5c-8 0 -16.333 0.666992 -25 2
s-17.5 3.83301 -26.5 7.5s-17.333 9 -25 16s-14.5 16.5 -20.5 28.5c-6 -12 -13.667 -21.667 -23 -29c-10 -7.33301 -28.667 -13.333 -56 -18s-58.666 -7 -93.999 -7c-5.33301 0 -10 2.33301 -14 7s-6 10.667 -6 18c0 8 2 14.167 6 18.5s8.66699 6.5 14 6.5
c40 0 71.667 1.5 95 4.5s40 6.83301 50 11.5l25 154h35c-1.33301 -18.667 -2.33301 -34 -3 -46s-1.16699 -21.5 -1.5 -28.5s-0.5 -12.333 -0.5 -16v-9.5c0 -14 2.33301 -25.5 7 -34.5s10.5 -16.167 17.5 -21.5s15 -9 24 -11s17.833 -3 26.5 -3c36 0 66 5.33301 90 16l25 154
h35c-1.33301 -18.667 -2.33301 -34 -3 -46s-1.16699 -21.5 -1.5 -28.5s-0.5 -12.333 -0.5 -16v-9.5c0 -14 2.33301 -25.5 7 -34.5s10.5 -16.167 17.5 -21.5s15 -9 24 -11s17.833 -3 26.5 -3c20 0 39.333 2.33301 58 7s33.667 10.667 45 18c0 11.333 -1 25 -3 41
s-4.5 33 -7.5 51s-6.83301 36.167 -11.5 54.5s-10 36.166 -16 53.499l30 25l15 -5c7.33301 -22.667 14.166 -49.167 20.499 -79.5s9.5 -60.5 9.5 -90.5c0 -28 -5.16699 -51 -15.5 -69s-21.833 -30 -34.5 -36s-26 -10.833 -40 -14.5s-32.333 -5.5 -55 -5.5z" />
    <glyph glyph-name="uniFEB4" unicode="&#x633;" horiz-adv-x="710" arabic-form="medial" 
d="M710 0c-9.33301 0 -19.001 0.671875 -29.001 2.00488s-19.667 4.16602 -29 8.49902s-18 10.333 -26 18s-14.667 18.167 -20 31.5c-7.33301 -15.333 -16 -27 -26 -35c-7.33301 -6 -19.166 -11.667 -35.499 -17s-34.5 -8 -54.5 -8c-8 0 -16.333 0.666992 -25 2
s-17.5 3.83301 -26.5 7.5s-17.333 9 -25 16s-14.5 16.5 -20.5 28.5c-6 -12 -13.667 -21.667 -23 -29c-8.66699 -6.66699 -21.834 -12.5 -39.501 -17.5s-37.834 -7.5 -60.501 -7.5c-8 0 -16.333 0.666992 -25 2s-17.5 3.83301 -26.5 7.5s-17.333 9 -25 16
s-14.5 16.5 -20.5 28.5c-6 -12 -13.667 -21.667 -23 -29c-10 -7.33301 -28.667 -13.333 -56 -18s-58.666 -7 -93.999 -7c-5.33301 0 -10 2.33301 -14 7s-6 10.667 -6 18c0 8 2 14.167 6 18.5s8.66699 6.5 14 6.5c40 0 71.667 1.5 95 4.5s40 6.83301 50 11.5l25 154h35
c-1.33301 -18.667 -2.33301 -34 -3 -46s-1.16699 -21.5 -1.5 -28.5s-0.5 -12.333 -0.5 -16v-9.5c0 -14 2.33301 -25.5 7 -34.5s10.5 -16.167 17.5 -21.5s15 -9 24 -11s17.833 -3 26.5 -3c36 0 66 5.33301 90 16l25 154h35c-1.33301 -18.667 -2.33301 -34 -3 -46
s-1.16699 -21.5 -1.5 -28.5s-0.5 -12.333 -0.5 -16v-9.5c0 -14 2.33301 -25.5 7 -34.5s10.5 -16.167 17.5 -21.5s15 -9 24 -11s17.833 -3 26.5 -3c18 0 33.667 1.83301 47 5.5s24.333 7.5 33 11.5c3.33301 15.333 6.33301 33.166 9 53.499l8 58.5l8 66h35
c-1.33301 -22.667 -2.16602 -41.334 -2.49902 -56.001s-0.833008 -26.834 -1.5 -36.501s-1 -16.834 -1 -21.501v-11c0 -25.333 7.66699 -43.333 23 -54s34.333 -16 57 -16v-50v0z" />
    <glyph glyph-name="uniFEB6" unicode="&#x634;" horiz-adv-x="1070" arabic-form="final" 
d="M1070 0c-9.33301 0 -18.9971 0.669922 -28.9971 2.00293s-19.667 4.16602 -29 8.49902s-18 10.333 -26 18s-14.667 18.167 -20 31.5c-7.33301 -15.333 -16 -27 -26 -35c-7.33301 -6 -19.166 -11.667 -35.499 -17s-34.5 -8 -54.5 -8c-8 0 -16.333 0.666992 -25 2
s-17.5 3.83301 -26.5 7.5s-17.333 9 -25 16s-14.5 16.5 -20.5 28.5c-6 -12 -13.667 -21.667 -23 -29c-8.66699 -6.66699 -21.834 -12.5 -39.501 -17.5s-37.834 -7.5 -60.501 -7.5c-12.667 0 -24.834 0.833008 -36.501 2.5s-22.167 5.83398 -31.5 12.501
c0.666992 -8 1.33398 -17.167 2.00098 -27.5s1 -21.166 1 -32.499c0 -17.333 -1.66699 -34 -5 -50s-8.33301 -29.333 -15 -40c-4 -6 -13 -14.667 -27 -26s-32.333 -22.5 -55 -33.5s-49.5 -20.5 -80.5 -28.5s-65.167 -12 -102.5 -12c-38.667 0 -71.334 3.83301 -98.001 11.5
s-48.334 17.834 -65.001 30.501s-28.667 27.5 -36 44.5s-11 34.833 -11 53.5c0 12.667 0.5 28 1.5 46s2.5 37.333 4.5 58s4.16699 41.834 6.5 63.501s4.83301 42.5 7.5 62.5l38 -3l-6 -72l-5.5 -70.5l-4.5 -60c-1.33301 -17.667 -2 -30.834 -2 -39.501
c10 -20 28.833 -37.5 56.5 -52.5s65.5 -22.5 113.5 -22.5c24 0 48 2 72 6s47 9.66699 69 17s42 15.833 60 25.5s32.667 20.167 44 31.5c0 24.667 -1.16699 50.667 -3.5 78s-5.5 54.5 -9.5 81.5s-8.83301 53.667 -14.5 80s-11.5 51.5 -17.5 75.5l30 20l15 -5l19 -94.5
c5.33301 -27.667 10.666 -47.834 15.999 -60.501c7.33301 -7.33301 17.833 -12.5 31.5 -15.5s28.167 -4.5 43.5 -4.5c36 0 66 5.33301 90 16l25 154h35c-1.33301 -18.667 -2.33301 -34 -3 -46s-1.16699 -21.5 -1.5 -28.5s-0.5 -12.333 -0.5 -16v-9.5
c0 -14 2.33301 -25.5 7 -34.5s10.5 -16.167 17.5 -21.5s15 -9 24 -11s17.833 -3 26.5 -3c18 0 33.667 1.83301 47 5.5s24.333 7.5 33 11.5c3.33301 15.333 6.33301 33.166 9 53.499l8 58.5l8 66h35c-1.33301 -22.667 -2.16602 -41.334 -2.49902 -56.001
s-0.833008 -26.834 -1.5 -36.501s-1 -16.834 -1 -21.501v-11c0 -25.333 7.66699 -43.333 23 -54s34.333 -16 57 -16v-50zM680.003 410.003l65 -40l-30 -50l-65 40zM725.003 520.003l65 -40l-30 -50l-65 40zM775.003 360.003l30 50l65 -40l-30 -50z" />
    <glyph glyph-name="uniFEB7" unicode="&#x634;" horiz-adv-x="705" arabic-form="initial" 
d="M490 0c-8 0 -16.3311 0.667969 -24.998 2.00098s-17.5 3.83301 -26.5 7.5s-17.333 9 -25 16s-14.5 16.5 -20.5 28.5c-6 -12 -13.667 -21.667 -23 -29c-8.66699 -6.66699 -21.834 -12.5 -39.501 -17.5s-37.834 -7.5 -60.501 -7.5c-8 0 -16.333 0.666992 -25 2
s-17.5 3.83301 -26.5 7.5s-17.333 9 -25 16s-14.5 16.5 -20.5 28.5c-6 -12 -13.667 -21.667 -23 -29c-10 -7.33301 -28.667 -13.333 -56 -18s-58.666 -7 -93.999 -7c-5.33301 0 -10 2.33301 -14 7s-6 10.667 -6 18c0 8 2 14.167 6 18.5s8.66699 6.5 14 6.5
c40 0 71.667 1.5 95 4.5s40 6.83301 50 11.5l25 154h35c-1.33301 -18.667 -2.33301 -34 -3 -46s-1.16699 -21.5 -1.5 -28.5s-0.5 -12.333 -0.5 -16v-9.5c0 -14 2.33301 -25.5 7 -34.5s10.5 -16.167 17.5 -21.5s15 -9 24 -11s17.833 -3 26.5 -3c36 0 66 5.33301 90 16l25 154
h35c-1.33301 -18.667 -2.33301 -34 -3 -46s-1.16699 -21.5 -1.5 -28.5s-0.5 -12.333 -0.5 -16v-9.5c0 -14 2.33301 -25.5 7 -34.5s10.5 -16.167 17.5 -21.5s15 -9 24 -11s17.833 -3 26.5 -3c20 0 39.333 2.33301 58 7s33.667 10.667 45 18c0 11.333 -1 25 -3 41
s-4.5 33 -7.5 51s-6.83301 36.167 -11.5 54.5s-10 36.166 -16 53.499l30 25l15 -5c7.33301 -22.667 14.166 -49.167 20.499 -79.5s9.5 -60.5 9.5 -90.5c0 -28 -5.16699 -51 -15.5 -69s-21.833 -30 -34.5 -36s-26 -10.833 -40 -14.5s-32.333 -5.5 -55 -5.5zM300.002 410.001
l65 -40l-30 -50l-65 40zM395.002 360.001l30 50l65 -40l-30 -50zM345.002 520.001l65 -40l-30 -50l-65 40z" />
    <glyph glyph-name="uniFEB8" unicode="&#x634;" horiz-adv-x="710" arabic-form="medial" 
d="M710 0c-9.33301 0 -19.001 0.671875 -29.001 2.00488s-19.667 4.16602 -29 8.49902s-18 10.333 -26 18s-14.667 18.167 -20 31.5c-7.33301 -15.333 -16 -27 -26 -35c-7.33301 -6 -19.166 -11.667 -35.499 -17s-34.5 -8 -54.5 -8c-8 0 -16.333 0.666992 -25 2
s-17.5 3.83301 -26.5 7.5s-17.333 9 -25 16s-14.5 16.5 -20.5 28.5c-6 -12 -13.667 -21.667 -23 -29c-8.66699 -6.66699 -21.834 -12.5 -39.501 -17.5s-37.834 -7.5 -60.501 -7.5c-8 0 -16.333 0.666992 -25 2s-17.5 3.83301 -26.5 7.5s-17.333 9 -25 16
s-14.5 16.5 -20.5 28.5c-6 -12 -13.667 -21.667 -23 -29c-10 -7.33301 -28.667 -13.333 -56 -18s-58.666 -7 -93.999 -7c-5.33301 0 -10 2.33301 -14 7s-6 10.667 -6 18c0 8 2 14.167 6 18.5s8.66699 6.5 14 6.5c40 0 71.667 1.5 95 4.5s40 6.83301 50 11.5l25 154h35
c-1.33301 -18.667 -2.33301 -34 -3 -46s-1.16699 -21.5 -1.5 -28.5s-0.5 -12.333 -0.5 -16v-9.5c0 -14 2.33301 -25.5 7 -34.5s10.5 -16.167 17.5 -21.5s15 -9 24 -11s17.833 -3 26.5 -3c36 0 66 5.33301 90 16l25 154h35c-1.33301 -18.667 -2.33301 -34 -3 -46
s-1.16699 -21.5 -1.5 -28.5s-0.5 -12.333 -0.5 -16v-9.5c0 -14 2.33301 -25.5 7 -34.5s10.5 -16.167 17.5 -21.5s15 -9 24 -11s17.833 -3 26.5 -3c18 0 33.667 1.83301 47 5.5s24.333 7.5 33 11.5c3.33301 15.333 6.33301 33.166 9 53.499l8 58.5l8 66h35
c-1.33301 -22.667 -2.16602 -41.334 -2.49902 -56.001s-0.833008 -26.834 -1.5 -36.501s-1 -16.834 -1 -21.501v-11c0 -25.333 7.66699 -43.333 23 -54s34.333 -16 57 -16v-50zM309.999 410.005l65 -40l-30 -50l-65 40zM354.999 520.005l65 -40l-30 -50l-65 40z
M404.999 360.005l30 50l65 -40l-30 -50z" />
    <glyph glyph-name="uniFEBA" unicode="&#x635;" horiz-adv-x="1085" arabic-form="final" 
d="M860 315c14.667 0 30.502 -4.33789 47.502 -13.0049s32.833 -21.167 47.5 -37.5s26.667 -36.666 36 -60.999s14 -52.166 14 -83.499c0 -17.333 -4.33301 -35.333 -13 -54c10.667 -6.66699 22.334 -11 35.001 -13s28.667 -3 48 -3h10v-50h-10
c-17.333 0 -35.666 2 -54.999 6s-36.666 13.667 -51.999 29c-2.66699 -2 -6.66699 -4.33301 -12 -7c-40 -18.667 -105.333 -28 -196 -28h-80c-30 0 -54.333 1.83301 -73 5.5s-34 10.834 -46 21.501c1.33301 -10 2.33301 -20.833 3 -32.5s1 -24.834 1 -39.501
c0 -17.333 -1.66699 -34 -5 -50s-8.33301 -29.333 -15 -40c-4 -6 -13 -14.667 -27 -26s-32.333 -22.5 -55 -33.5s-49.5 -20.5 -80.5 -28.5s-65.167 -12 -102.5 -12c-38.667 0 -71.334 3.83301 -98.001 11.5s-48.334 17.834 -65.001 30.501s-28.667 27.5 -36 44.5
s-11 34.833 -11 53.5c0 17.333 1 39 3 65s4.33301 51.333 7 76c2.66699 28.667 6 58.334 10 89.001l38 -3c-2.66699 -34 -5.33398 -66.333 -8.00098 -97l-6 -80c-2 -27.333 -3.33301 -49 -4 -65c10 -20 28.833 -37.5 56.5 -52.5s65.5 -22.5 113.5 -22.5c24 0 48 2 72 6
s47 9.66699 69 17s42 15.833 60 25.5s32.667 20.167 44 31.5c0 24.667 -1.16699 50.667 -3.5 78s-5.5 54.5 -9.5 81.5s-8.83301 53.667 -14.5 80s-11.5 51.5 -17.5 75.5l30 20l15 -5l15 -75c3.33301 -14 6.66602 -26.167 9.99902 -36.5s7.66602 -19.166 12.999 -26.499
l106 90.5l75 63l50.5 40.5c13 10 23.667 17.5 32 22.5s15 8.16699 20 9.5s9.5 2 13.5 2zM850.002 259.995c-7.33301 0 -17.4971 -3.83203 -30.4971 -11.499s-29.667 -19.5 -50 -35.5s-44.833 -36.5 -73.5 -61.5l-103 -89.5
c9.33301 -4.66699 20.166 -7.83398 32.499 -9.50098s27.166 -2.5 44.499 -2.5h105c91.333 0 154.666 10 189.999 30c2.66699 24 0.5 46.833 -6.5 68.5s-16.5 40.667 -28.5 57s-25.167 29.5 -39.5 39.5s-27.833 15 -40.5 15z" />
    <glyph glyph-name="uniFEBB" unicode="&#x635;" horiz-adv-x="700" arabic-form="initial" 
d="M265 0c-26.667 0 -50.833 3.16797 -72.5 9.50098s-38.167 21.166 -49.5 44.499c-6 -12 -13.667 -21.667 -23 -29c-10 -7.33301 -26.167 -13.333 -48.5 -18s-46.166 -7 -71.499 -7c-5.33301 -0 -10 2.33301 -14 7s-6 10.667 -6 18c0 8 2 14.167 6 18.5s8.66699 6.5 14 6.5
c28 0 51 1.33301 69 4s33.333 6.66699 46 12l25 154h35c-1.33301 -18.667 -2.33301 -34 -3 -46s-1.16699 -21.5 -1.5 -28.5s-0.5 -12.333 -0.5 -16v-9.5c0 -18 3.33301 -31.667 10 -41l109.5 94l77.5 65.5c21.333 17.667 38.666 31.5 51.999 41.5s24.166 17.667 32.499 23
s15 8.66602 20 9.99902s9.5 2 13.5 2c14.667 0 30.5 -4.33301 47.5 -13s32.833 -21.167 47.5 -37.5s26.667 -36.666 36 -60.999s14 -52.166 14 -83.499c0 -8.66699 -1.16699 -17.834 -3.5 -27.501s-5.66602 -18.667 -9.99902 -27s-9.5 -15.833 -15.5 -22.5
s-12.667 -11.667 -20 -15c-40 -18.667 -105.333 -28 -196 -28h-120zM475.001 260.001c-7.33301 0 -17.498 -3.83301 -30.498 -11.5s-29.833 -19.667 -50.5 -36s-45.834 -37.333 -75.501 -63l-105.5 -92.5c7.33301 -2.66699 15.833 -4.5 25.5 -5.5s20.167 -1.5 31.5 -1.5h130
c91.333 0 154.666 10 189.999 30c2.66699 24 0.5 46.833 -6.5 68.5s-16.5 40.667 -28.5 57s-25.167 29.5 -39.5 39.5s-27.833 15 -40.5 15z" />
    <glyph glyph-name="uniFEBC" unicode="&#x635;" horiz-adv-x="710" arabic-form="medial" 
d="M0 0c-5.33301 0 -10.001 2.33301 -14.001 7s-6 10.667 -6 18c0 8 2 14.167 6 18.5s8.66699 6.5 14 6.5c28 0 51 1.33301 69 4s33.333 6.66699 46 12l25 154h35c-1.33301 -18.667 -2.33301 -34 -3 -46s-1.16699 -21.5 -1.5 -28.5s-0.5 -12.333 -0.5 -16v-9.5
c0 -18 3.33301 -31.667 10 -41l109.5 94l77.5 65.5c21.333 17.667 38.666 31.5 51.999 41.5s24.166 17.667 32.499 23s15 8.66602 20 9.99902s9.5 2 13.5 2c14.667 0 30.5 -4.33301 47.5 -13s32.833 -21.167 47.5 -37.5s26.667 -36.666 36 -60.999s14 -52.166 14 -83.499
c0 -17.333 -4.33301 -35.333 -13 -54c10.667 -6.66699 22.334 -11 35.001 -13s28.667 -3 48 -3h10v-50h-10c-17.333 0 -35.666 2 -54.999 6s-36.666 13.667 -51.999 29c-2.66699 -2 -6.66699 -4.33301 -12 -7c-40 -18.667 -105.333 -28 -196 -28h-120
c-26.667 0 -50.834 3.16699 -72.501 9.5s-38.167 21.166 -49.5 44.499c-6 -12 -13.667 -21.667 -23 -29c-10 -7.33301 -26.167 -13.333 -48.5 -18s-46.166 -7 -71.499 -7zM474.999 260c-7.33301 0 -17.498 -3.83301 -30.498 -11.5s-29.833 -19.667 -50.5 -36
s-45.834 -37.333 -75.501 -63l-105.5 -92.5c7.33301 -2.66699 15.833 -4.5 25.5 -5.5s20.167 -1.5 31.5 -1.5h130c91.333 0 154.666 10 189.999 30c2.66699 24 0.5 46.833 -6.5 68.5s-16.5 40.667 -28.5 57s-25.167 29.5 -39.5 39.5s-27.833 15 -40.5 15z" />
    <glyph glyph-name="uniFEBE" unicode="&#x636;" horiz-adv-x="1085" arabic-form="final" 
d="M860 315c14.667 0 30.502 -4.33789 47.502 -13.0049s32.833 -21.167 47.5 -37.5s26.667 -36.666 36 -60.999s14 -52.166 14 -83.499c0 -17.333 -4.33301 -35.333 -13 -54c10.667 -6.66699 22.334 -11 35.001 -13s28.667 -3 48 -3h10v-50h-10
c-17.333 0 -35.666 2 -54.999 6s-36.666 13.667 -51.999 29c-2.66699 -2 -6.66699 -4.33301 -12 -7c-40 -18.667 -105.333 -28 -196 -28h-80c-30 0 -54.333 1.83301 -73 5.5s-34 10.834 -46 21.501c1.33301 -10 2.33301 -20.833 3 -32.5s1 -24.834 1 -39.501
c0 -17.333 -1.66699 -34 -5 -50s-8.33301 -29.333 -15 -40c-4 -6 -13 -14.667 -27 -26s-32.333 -22.5 -55 -33.5s-49.5 -20.5 -80.5 -28.5s-65.167 -12 -102.5 -12c-38.667 0 -71.334 3.83301 -98.001 11.5s-48.334 17.834 -65.001 30.501s-28.667 27.5 -36 44.5
s-11 34.833 -11 53.5c0 17.333 1 39 3 65s4.33301 51.333 7 76c2.66699 28.667 6 58.334 10 89.001l38 -3c-2.66699 -34 -5.33398 -66.333 -8.00098 -97l-6 -80c-2 -27.333 -3.33301 -49 -4 -65c10 -20 28.833 -37.5 56.5 -52.5s65.5 -22.5 113.5 -22.5c24 0 48 2 72 6
s47 9.66699 69 17s42 15.833 60 25.5s32.667 20.167 44 31.5c0 24.667 -1.16699 50.667 -3.5 78s-5.5 54.5 -9.5 81.5s-8.83301 53.667 -14.5 80s-11.5 51.5 -17.5 75.5l30 20l15 -5l15 -75c3.33301 -14 6.66602 -26.167 9.99902 -36.5s7.66602 -19.166 12.999 -26.499
l106 90.5l75 63l50.5 40.5c13 10 23.667 17.5 32 22.5s15 8.16699 20 9.5s9.5 2 13.5 2zM850.002 259.995c-7.33301 0 -17.4971 -3.83203 -30.4971 -11.499s-29.667 -19.5 -50 -35.5s-44.833 -36.5 -73.5 -61.5l-103 -89.5
c9.33301 -4.66699 20.166 -7.83398 32.499 -9.50098s27.166 -2.5 44.499 -2.5h105c91.333 0 154.666 10 189.999 30c2.66699 24 0.5 46.833 -6.5 68.5s-16.5 40.667 -28.5 57s-25.167 29.5 -39.5 39.5s-27.833 15 -40.5 15zM800.005 444.996l30 50l65 -40l-30 -50z" />
    <glyph glyph-name="uniFEBF" unicode="&#x636;" horiz-adv-x="700" arabic-form="initial" 
d="M265 0c-26.667 0 -50.833 3.16797 -72.5 9.50098s-38.167 21.166 -49.5 44.499c-6 -12 -13.667 -21.667 -23 -29c-10 -7.33301 -26.167 -13.333 -48.5 -18s-46.166 -7 -71.499 -7c-5.33301 -0 -10 2.33301 -14 7s-6 10.667 -6 18c0 8 2 14.167 6 18.5s8.66699 6.5 14 6.5
c28 0 51 1.33301 69 4s33.333 6.66699 46 12l25 154h35c-1.33301 -18.667 -2.33301 -34 -3 -46s-1.16699 -21.5 -1.5 -28.5s-0.5 -12.333 -0.5 -16v-9.5c0 -18 3.33301 -31.667 10 -41l109.5 94l77.5 65.5c21.333 17.667 38.666 31.5 51.999 41.5s24.166 17.667 32.499 23
s15 8.66602 20 9.99902s9.5 2 13.5 2c14.667 0 30.5 -4.33301 47.5 -13s32.833 -21.167 47.5 -37.5s26.667 -36.666 36 -60.999s14 -52.166 14 -83.499c0 -8.66699 -1.16699 -17.834 -3.5 -27.501s-5.66602 -18.667 -9.99902 -27s-9.5 -15.833 -15.5 -22.5
s-12.667 -11.667 -20 -15c-40 -18.667 -105.333 -28 -196 -28h-120zM475.001 260.001c-7.33301 0 -17.498 -3.83301 -30.498 -11.5s-29.833 -19.667 -50.5 -36s-45.834 -37.333 -75.501 -63l-105.5 -92.5c7.33301 -2.66699 15.833 -4.5 25.5 -5.5s20.167 -1.5 31.5 -1.5h130
c91.333 0 154.666 10 189.999 30c2.66699 24 0.5 46.833 -6.5 68.5s-16.5 40.667 -28.5 57s-25.167 29.5 -39.5 39.5s-27.833 15 -40.5 15zM425.003 445.001l30 50l65 -40l-30 -50z" />
    <glyph glyph-name="uniFEC0" unicode="&#x636;" horiz-adv-x="710" arabic-form="medial" 
d="M0 0c-5.33301 0 -10.001 2.33301 -14.001 7s-6 10.667 -6 18c0 8 2 14.167 6 18.5s8.66699 6.5 14 6.5c28 0 51 1.33301 69 4s33.333 6.66699 46 12l25 154h35c-1.33301 -18.667 -2.33301 -34 -3 -46s-1.16699 -21.5 -1.5 -28.5s-0.5 -12.333 -0.5 -16v-9.5
c0 -18 3.33301 -31.667 10 -41l109.5 94l77.5 65.5c21.333 17.667 38.666 31.5 51.999 41.5s24.166 17.667 32.499 23s15 8.66602 20 9.99902s9.5 2 13.5 2c14.667 0 30.5 -4.33301 47.5 -13s32.833 -21.167 47.5 -37.5s26.667 -36.666 36 -60.999s14 -52.166 14 -83.499
c0 -17.333 -4.33301 -35.333 -13 -54c10.667 -6.66699 22.334 -11 35.001 -13s28.667 -3 48 -3h10v-50h-10c-17.333 0 -35.666 2 -54.999 6s-36.666 13.667 -51.999 29c-2.66699 -2 -6.66699 -4.33301 -12 -7c-40 -18.667 -105.333 -28 -196 -28h-120
c-26.667 0 -50.834 3.16699 -72.501 9.5s-38.167 21.166 -49.5 44.499c-6 -12 -13.667 -21.667 -23 -29c-10 -7.33301 -26.167 -13.333 -48.5 -18s-46.166 -7 -71.499 -7zM474.999 260c-7.33301 0 -17.498 -3.83301 -30.498 -11.5s-29.833 -19.667 -50.5 -36
s-45.834 -37.333 -75.501 -63l-105.5 -92.5c7.33301 -2.66699 15.833 -4.5 25.5 -5.5s20.167 -1.5 31.5 -1.5h130c91.333 0 154.666 10 189.999 30c2.66699 24 0.5 46.833 -6.5 68.5s-16.5 40.667 -28.5 57s-25.167 29.5 -39.5 39.5s-27.833 15 -40.5 15zM425.001 445l30 50
l65 -40l-30 -50z" />
    <glyph glyph-name="uniFEC2" unicode="&#x637;" horiz-adv-x="665" arabic-form="final" 
d="M340 0c-42.667 0 -85.001 0.662109 -127.001 1.99512s-88 5.66602 -138 12.999l-15 35l5 15c18 -3.33301 34.333 -5.33301 49 -6l66 61c7.33301 6.66699 13.666 13.5 18.999 20.5s9.5 15.167 12.5 24.5s5.16699 20.833 6.5 34.5s2 30.834 2 51.501v30.5
c0 13 -0.166992 26.833 -0.5 41.5l-1 44c-0.333008 14.667 -0.5 27.334 -0.5 38.001c-0.666992 24 -1.33398 45 -2.00098 63s-1.83398 34.833 -3.50098 50.5s-4.33398 30.834 -8.00098 45.501s-8.5 30 -14.5 46l40 30c14.667 -35.333 23.334 -70.833 26.001 -106.5
s4 -73.5 4 -113.5v-97.5c0 -26.333 -0.333008 -48.5 -1 -66.5s-1.66699 -32.667 -3 -44s-3 -21.666 -5 -30.999l82.5 68c21.667 17.333 39.334 31 53.001 41s24.5 16.667 32.5 20s15 5 21 5c14.667 0 30.5 -4.33301 47.5 -13s32.833 -21.167 47.5 -37.5
s26.667 -36.666 36 -60.999s14 -52.166 14 -83.499c0 -17.333 -4.33301 -35.333 -13 -54c10.667 -6.66699 22.334 -11 35.001 -13s28.667 -3 48 -3h10v-50h-10c-17.333 0 -35.666 2 -54.999 6s-36.666 13.667 -51.999 29c-2.66699 -2 -6.66699 -4.33301 -12 -7
c-40 -18.667 -105.333 -28 -196 -28zM429.999 259.995c-7.33301 0 -17.499 -3.83203 -30.499 -11.499s-30 -19.834 -51 -36.501s-46.5 -38 -76.5 -64l-107 -94c14 -1.33301 28 -2.33301 42 -3s28.5 -1 43.5 -1h48h56.5c91.333 0 154.666 10 189.999 30
c2.66699 24 0.5 46.833 -6.5 68.5s-16.5 40.667 -28.5 57s-25.167 29.5 -39.5 39.5s-27.833 15 -40.5 15z" />
    <glyph glyph-name="uniFEC3" unicode="&#x637;" horiz-adv-x="600" arabic-form="initial" 
d="M0 0c-5.33301 0 -9.99902 2.32812 -13.999 6.99512s-6 10.667 -6 18c0 8 2 14.167 6 18.5s8.66699 6.5 14 6.5h50l75 70c7.33301 6.66699 13.666 13.5 18.999 20.5s9.5 15.167 12.5 24.5s5.16699 20.833 6.5 34.5s2 30.834 2 51.501v30.5
c0 13 -0.166992 26.833 -0.5 41.5l-1 44c-0.333008 14.667 -0.5 27.334 -0.5 38.001c-0.666992 24 -1.33398 45 -2.00098 63s-1.83398 34.833 -3.50098 50.5s-4.33398 30.834 -8.00098 45.501s-8.5 30 -14.5 46l40 30c14.667 -35.333 23.334 -70.833 26.001 -106.5
s4 -73.5 4 -113.5v-97.5c0 -26.333 -0.333008 -48.5 -1 -66.5s-1.66699 -32.667 -3 -44s-3 -21.666 -5 -30.999l82.5 68c21.667 17.333 39.334 31 53.001 41s24.5 16.667 32.5 20s15 5 21 5c14.667 0 30.5 -4.33301 47.5 -13s32.833 -21.167 47.5 -37.5
s26.667 -36.666 36 -60.999s14 -52.166 14 -83.499c0 -8.66699 -1.16699 -17.834 -3.5 -27.501s-5.66602 -18.667 -9.99902 -27s-9.5 -15.833 -15.5 -22.5s-12.667 -11.667 -20 -15c-40 -18.667 -105.333 -28 -196 -28h-285zM375.001 259.995
c-7.33301 0 -17.666 -3.83301 -30.999 -11.5s-30.5 -20 -51.5 -37l-77.5 -65.5l-110 -96h195c91.333 0 154.666 10 189.999 30c2.66699 24 0.5 46.833 -6.5 68.5s-16.5 40.667 -28.5 57s-25.167 29.5 -39.5 39.5s-27.833 15 -40.5 15z" />
    <glyph glyph-name="uniFEC4" unicode="&#x637;" horiz-adv-x="610" arabic-form="medial" 
d="M0 0c-5.33301 0 -10.001 2.32715 -14.001 6.99414s-6 10.667 -6 18c0 8 2 14.167 6 18.5s8.66699 6.5 14 6.5h50l75 70c7.33301 6.66699 13.666 13.5 18.999 20.5s9.5 15.167 12.5 24.5s5.16699 20.833 6.5 34.5s2 30.834 2 51.501v30.5c0 13 -0.166992 26.833 -0.5 41.5
l-1 44c-0.333008 14.667 -0.5 27.334 -0.5 38.001c-0.666992 24 -1.33398 45 -2.00098 63s-1.83398 34.833 -3.50098 50.5s-4.33398 30.834 -8.00098 45.501s-8.5 30 -14.5 46l40 30c14.667 -35.333 23.334 -70.833 26.001 -106.5s4 -73.5 4 -113.5v-97.5
c0 -26.333 -0.333008 -48.5 -1 -66.5s-1.66699 -32.667 -3 -44s-3 -21.666 -5 -30.999l82.5 68c21.667 17.333 39.334 31 53.001 41s24.5 16.667 32.5 20s15 5 21 5c14.667 0 30.5 -4.33301 47.5 -13s32.833 -21.167 47.5 -37.5s26.667 -36.666 36 -60.999
s14 -52.166 14 -83.499c0 -17.333 -4.33301 -35.333 -13 -54c10.667 -6.66699 22.334 -11 35.001 -13s28.667 -3 48 -3h10v-50h-10c-17.333 0 -35.666 2 -54.999 6s-36.666 13.667 -51.999 29c-2.66699 -2 -6.66699 -4.33301 -12 -7c-40 -18.667 -105.333 -28 -196 -28h-285
zM374.999 259.994c-7.33301 0 -17.666 -3.83301 -30.999 -11.5s-30.5 -20 -51.5 -37l-77.5 -65.5l-110 -96h195c91.333 0 154.666 10 189.999 30c2.66699 24 0.5 46.833 -6.5 68.5s-16.5 40.667 -28.5 57s-25.167 29.5 -39.5 39.5s-27.833 15 -40.5 15z" />
    </font>
</defs>
</svg>
