<?xml version="1.0" standalone="no"?>
<!DOCTYPE svg PUBLIC "-//W3C//DTD SVG 1.1//EN" "http://www.w3.org/Graphics/SVG/1.1/DTD/svg11.dtd" >
<svg>
<metadata>
Created by FontForge 20090914 at Sun Sep 22 21:58:37 2019
 By www-data
Copyright (c) 2017 by MaryamSoft.com. All rights reserved.
</metadata>
<defs>
<font id="Ray-ExtraBold" horiz-adv-x="0" >
  <font-face 
    font-family="Ray ExtraBold"
    font-weight="800"
    font-stretch="normal"
    units-per-em="1000"
    panose-1="2 0 5 4 0 0 0 2 0 4"
    ascent="800"
    descent="-200"
    x-height="443"
    cap-height="611"
    bbox="-170.001 -565 1270 1023"
    underline-thickness="50"
    underline-position="-50"
    unicode-range="U+000A-U+FFFC"
  />
<missing-glyph horiz-adv-x="605" 
d="M173 103h259v509h-259v-509zM80 715h445v-715h-445v715z" />
    <glyph glyph-name="uni0671" unicode="&#x627;&#x64b;" horiz-adv-x="201" 
d="M53 303l-3.49902 57.999c-1 17.333 -2.83301 33.166 -5.5 47.499s-6.16699 28 -10.5 41s-9.83301 26.167 -16.5 39.5l85 84c10.667 -18 19.167 -35.667 25.5 -53s11.166 -35.166 14.499 -53.499s5.33301 -37.666 6 -57.999s1 -42.5 1 -66.5v-312l-67 -30l-17 8z
M184.001 712.999l9 -58l-240 -95l-8 58zM184.001 826.999l9 -58l-240 -96l-8 58z" />
    <glyph glyph-name="uniFB51" unicode="&#xfe8e;&#x64b;" horiz-adv-x="240" arabic-form="final" 
d="M223 0c-30.667 0 -56.499 3.16699 -77.499 9.5s-38 17 -51 32s-22.5 35 -28.5 60s-9 56.167 -9 93.5v108c0 21.333 -0.833008 40.666 -2.5 57.999s-4 33.166 -7 47.499s-7.16699 28 -12.5 41s-11.333 26.167 -18 39.5l85 84c10.667 -18 19.167 -35.667 25.5 -53
s11.166 -35.166 14.499 -53.499s5.33301 -37.666 6 -57.999s1 -42.5 1 -66.5v-179c7.33301 -10.667 18.5 -17.667 33.5 -21s28.5 -5 40.5 -5h17v-137h-17zM184.001 713l9 -58l-240 -95l-8 58zM184.001 827l9 -58l-240 -96l-8 58z" />
    <glyph glyph-name="uniFDF2" unicode="&#x627;&#xfedf;&#xfee0;&#xfeea;" horiz-adv-x="1104" arabic-form="isolated" 
d="M165 31c-25.333 0 -46 2.99805 -62 8.99805s-28.5 14.833 -37.5 26.5s-15.167 26.334 -18.5 44.001s-5 38.5 -5 62.5c0 20 1.66699 40 5 60s7.66602 36 12.999 48c6 6 14.5 13.333 25.5 22s23.667 18 38 28l47.5 32l54 34l-12 73l75 39l17 -10l48 -337
c4 -4.66699 9 -8.5 15 -11.5s12.333 -5.5 19 -7.5s13.5 -3.5 20.5 -4.5s13.167 -1.5 18.5 -1.5c19.333 0 37 1.33301 53 4s27.667 5.66699 35 9l-10 325l97 30v-272c0 -20 2 -36.333 6 -49s9.83301 -22.5 17.5 -29.5s17.334 -11.667 29.001 -14s25.167 -3.5 40.5 -3.5
c14.667 0 30.167 0.666992 46.5 2s29.166 4.33301 38.499 9l-8 139l-3.5 58.5c-1 17 -2.66699 32.5 -5 46.5s-6 27.667 -11 41s-11.5 27.666 -19.5 42.999l86 81c12 -22 21.167 -42.5 27.5 -61.5s11 -37.5 14 -55.5s4.83301 -36.333 5.5 -55s1 -38.667 1 -60v-141
c0 -20 -2.83301 -39 -8.5 -57s-12.167 -34 -19.5 -48s-14.333 -25.333 -21 -34s-11 -13.334 -13 -14.001c-11.333 -11.333 -26.833 -19.333 -46.5 -24s-42.167 -7 -67.5 -7c-36.667 0 -65.5 6.5 -86.5 19.5s-36.167 28.5 -45.5 46.5
c-12.667 -21.333 -30.334 -37.666 -53.001 -48.999s-49 -17 -79 -17c-15.333 0 -30 1 -44 3s-27.333 6.33301 -40 13s-24.167 15.667 -34.5 27s-19.166 26.666 -26.499 45.999c-3.33301 -9.33301 -6.16602 -16.666 -8.49902 -21.999s-3.83301 -8.66602 -4.5 -9.99902
c-2.66699 -5.33301 -7.66699 -9.66602 -15 -12.999s-15.833 -6 -25.5 -8s-20 -3.33301 -31 -4s-21.5 -1 -31.5 -1zM968 7.99805l-11.002 414c-0.666992 22.667 -1.66699 42.5 -3 59.5s-3.16602 32.5 -5.49902 46.5s-5.66602 27.667 -9.99902 41s-9.5 28 -15.5 44l85 79
c10 -21.333 18 -41 24 -59s10.5 -36 13.5 -54s4.83301 -36.5 5.5 -55.5s1 -39.833 1 -62.5v-431l-67 -30zM649.998 563.998c-31.333 0 -54.334 3.5 -69.001 10.5s-25.667 18.5 -33 34.5c-10 -18 -20.833 -30 -32.5 -36s-27.5 -9 -47.5 -9c-23.333 0 -40.333 6.5 -51 19.5
s-16 28.167 -16 45.5c0 12.667 1.33301 29.667 4 51s5.66699 44 9 68l46 -5l-8 -106c2 -1.33301 4.33301 -2.66602 7 -3.99902c4.66699 -2 11.334 -3 20.001 -3c17.333 0 29.666 3.66699 36.999 11s11.666 19 12.999 35l5 41h44v-42c0 -15.333 5.16699 -26.5 15.5 -33.5
s30.5 -10.833 60.5 -11.5c0.666992 15.333 -0.166016 32.166 -2.49902 50.499s-7.16602 38.166 -14.499 59.499l45 32l11 -4c5.33301 -19.333 9 -36.166 11 -50.499s3 -27.833 3 -40.5c0 -18 -2.5 -36 -7.5 -54s-13.833 -37.667 -26.5 -59h-23zM162.997 157.998
c13.333 0 28.666 0.166992 45.999 0.5s35.666 2.16602 54.999 5.49902l-24 141l-41.5 -25l-40.5 -25.5c-12.667 -8.33301 -23.667 -16.166 -33 -23.499s-15.666 -13 -18.999 -17c0 -11.333 0.5 -20.5 1.5 -27.5s3.5 -12.667 7.5 -17s9.83301 -7.33301 17.5 -9
s17.834 -2.5 30.501 -2.5zM530.997 1023c10.667 -12 19.1689 -23.167 25.502 -33.5s11.166 -21.166 14.499 -32.499s5.66602 -23.833 6.99902 -37.5s2 -29.834 2 -48.501v-83l-51 -24v85c0 23.333 -3.5 42.833 -10.5 58.5s-18.167 32.5 -33.5 50.5z" />
    <glyph glyph-name="uniFEF5" unicode="&#xfedf;&#xfe82;" horiz-adv-x="471" arabic-form="isolated" 
d="M101 622c25.333 -56 46 -106 62 -150s28.5 -83.333 37.5 -118s15 -65.5 18 -92.5s4.5 -51.833 4.5 -74.5v-16c0 -5.33301 -0.333008 -10.666 -1 -15.999c27.333 15.333 50.666 30.166 69.999 44.499s32 26.5 38 36.5l-6 186c-0.666992 22.667 -1.66699 42.5 -3 59.5
s-3.33301 32.5 -6 46.5s-6.16699 27.667 -10.5 41s-9.5 28 -15.5 44l86 79c10 -21.333 17.833 -41 23.5 -59s10 -36 13 -54s5 -36.5 6 -55.5s1.5 -39.833 1.5 -62.5v-185c0 -20.667 -1.66699 -38.834 -5 -54.501s-7.33301 -29.5 -12 -41.5s-9.66699 -22.167 -15 -30.5
s-10 -15.166 -14 -20.499c-9.33301 -11.333 -22.166 -23.833 -38.499 -37.5s-35.5 -27.5 -57.5 -41.5s-46.5 -27.833 -73.5 -41.5s-55.5 -26.167 -85.5 -37.5l-68 84l4 18l48 21.5l51 23.5c-2.66699 25.333 -6.66699 52 -12 80s-13 59 -23 93s-23.167 72 -39.5 114
s-36.5 89.667 -60.5 143zM-43 597l-51.002 41l28.5 58c7 14.667 12.833 26 17.5 34s9 13.5 13 16.5s9 4.5 15 4.5c9.33301 0 23.5 -2.5 42.5 -7.5s46.5 -7.5 82.5 -7.5c19.333 0 41 1.5 65 4.5s47.667 8.5 71 16.5l5 -7l-20 -88
c-23.333 -8.66699 -47.666 -14.5 -72.999 -17.5s-47.666 -4.5 -66.999 -4.5c-17.333 0 -34.333 1.33301 -51 4s-30.667 5.66699 -42 9l-26 -56h-10z" />
    <glyph glyph-name="uniFEF6" unicode="&#xfee0;&#xfe82;" horiz-adv-x="493" arabic-form="final" 
d="M101 622c25.333 -56 46 -106 62 -150s28.5 -83.333 37.5 -118s15 -65.5 18 -92.5s4.5 -51.833 4.5 -74.5v-16c0 -5.33301 -0.333008 -10.666 -1 -15.999c26 14.667 48.5 28.834 67.5 42.501s31.167 25.167 36.5 34.5v190c0 20 -0.5 38.167 -1.5 54.5s-3 32 -6 47
s-6.83301 29.667 -11.5 44s-10.667 29.5 -18 45.5l86 79c10 -21.333 17.833 -41 23.5 -59s10 -36 13 -54s5 -36.5 6 -55.5s1.5 -39.833 1.5 -62.5v-298c7.33301 -10.667 18.5 -17.667 33.5 -21s28.5 -5 40.5 -5v-137c-48 0 -84.667 8.16699 -110 24.5
s-42.333 45.166 -51 86.499c-24 -28.667 -54.667 -54.834 -92 -78.501s-78 -44.167 -122 -61.5l-68 84l4 18l48 21.5l51 23.5c-2.66699 25.333 -6.66699 52 -12 80s-13 59 -23 93s-23.167 72 -39.5 114s-36.5 89.667 -60.5 143zM-43 597l-51.002 41l28.5 58
c7 14.667 12.833 26 17.5 34s9 13.5 13 16.5s9 4.5 15 4.5c9.33301 0 23.5 -2.5 42.5 -7.5s46.5 -7.5 82.5 -7.5c19.333 0 41 1.5 65 4.5s47.667 8.5 71 16.5l5 -7l-20 -88c-23.333 -8.66699 -47.666 -14.5 -72.999 -17.5s-47.666 -4.5 -66.999 -4.5
c-17.333 0 -34.333 1.33301 -51 4s-30.667 5.66699 -42 9l-26 -56h-10z" />
    <glyph glyph-name="uniFEF7" unicode="&#xfedf;&#xfe84;" horiz-adv-x="471" arabic-form="isolated" 
d="M124 566c20 -45.333 36.3301 -86.666 48.9971 -123.999s22.834 -71.333 30.501 -102s12.834 -58.834 15.501 -84.501s4 -49.5 4 -71.5v-14.5c0 -4.33301 -0.333008 -9.16602 -1 -14.499c27.333 15.333 50.666 30.166 69.999 44.499s32 26.5 38 36.5l-6 186
c-0.666992 22.667 -1.66699 42.5 -3 59.5s-3.33301 32.5 -6 46.5s-6.16699 27.667 -10.5 41s-9.5 28 -15.5 44l86 79c10 -21.333 17.833 -41 23.5 -59s10 -36 13 -54s5 -36.5 6 -55.5s1.5 -39.833 1.5 -62.5v-185c0 -20.667 -1.66699 -38.834 -5 -54.501
s-7.33301 -29.5 -12 -41.5s-9.66699 -22.167 -15 -30.5s-10 -15.166 -14 -20.499c-9.33301 -11.333 -22.166 -23.833 -38.499 -37.5s-35.5 -27.5 -57.5 -41.5s-46.5 -27.833 -73.5 -41.5s-55.5 -26.167 -85.5 -37.5l-68 84l4 18l48 21.5l50 23.5c-2 24.667 -5.5 50 -10.5 76
s-11.667 54 -20 84s-19.166 62.5 -32.499 97.5s-29.333 74.167 -48 117.5zM156.997 826l-20 -60h-88c-0.666992 -2.66699 -1 -6.66699 -1 -12c0 -16 5.33301 -30.5 16 -43.5s25.334 -19.5 44.001 -19.5c8 0 20.167 2 36.5 6s35.166 9.66699 56.499 17l5 -70l-226 -84l-9 58
l64 32c-16 11.333 -27.833 25.5 -35.5 42.5s-11.5 33.5 -11.5 49.5c0 15.333 2.5 30.5 7.5 45.5s13.167 32.167 24.5 51.5h128z" />
    <glyph glyph-name="uniFEF8" unicode="&#xfee0;&#xfe84;" horiz-adv-x="493" arabic-form="final" 
d="M124 566c20 -45.333 36.3301 -86.6641 48.9971 -123.997s22.834 -71.333 30.501 -102s12.834 -58.834 15.501 -84.501s4 -49.5 4 -71.5v-15c0 -4.66699 -0.333008 -9.33398 -1 -14.001c26 14.667 48.5 28.834 67.5 42.501s31.167 25.167 36.5 34.5v190
c0 20 -0.5 38.167 -1.5 54.5s-3 32 -6 47s-6.83301 29.667 -11.5 44s-10.667 29.5 -18 45.5l86 79c10 -21.333 17.833 -41 23.5 -59s10 -36 13 -54s5 -36.5 6 -55.5s1.5 -39.833 1.5 -62.5v-298c7.33301 -10.667 18.5 -17.667 33.5 -21s28.5 -5 40.5 -5v-137
c-48 0 -84.667 8.16699 -110 24.5s-42.333 45.166 -51 86.499c-24 -28.667 -54.667 -54.834 -92 -78.501s-78 -44.167 -122 -61.5l-68 84l4 18l48 21.5l50 23.5c-2 24.667 -5.5 50 -10.5 76s-11.667 54 -20 84s-19.166 62.5 -32.499 97.5s-29.333 74.167 -48 117.5z
M156.997 826.002l-20 -60h-88c-0.666992 -2.66699 -1 -6.66699 -1 -12c0 -16 5.33301 -30.5 16 -43.5s25.334 -19.5 44.001 -19.5c8 0 20.167 2 36.5 6s35.166 9.66699 56.499 17l5 -70l-226 -84l-9 58l64 32c-16 11.333 -27.833 25.5 -35.5 42.5s-11.5 33.5 -11.5 49.5
c0 15.333 2.5 30.5 7.5 45.5s13.167 32.167 24.5 51.5h128z" />
    <glyph glyph-name="uniFEF9" unicode="&#xfedf;&#xfe88;" horiz-adv-x="471" arabic-form="isolated" 
d="M101 622c25.333 -56 46 -106 62 -150s28.5 -83.333 37.5 -118s15 -65.5 18 -92.5s4.5 -51.833 4.5 -74.5v-16c0 -5.33301 -0.333008 -10.666 -1 -15.999c27.333 15.333 50.666 30.166 69.999 44.499s32 26.5 38 36.5l-6 186c-0.666992 22.667 -1.66699 42.5 -3 59.5
s-3.33301 32.5 -6 46.5s-6.16699 27.667 -10.5 41s-9.5 28 -15.5 44l86 79c10 -21.333 17.833 -41 23.5 -59s10 -36 13 -54s5 -36.5 6 -55.5s1.5 -39.833 1.5 -62.5v-185c0 -20.667 -1.66699 -38.834 -5 -54.501s-7.33301 -29.5 -12 -41.5s-9.66699 -22.167 -15 -30.5
s-10 -15.166 -14 -20.499c-9.33301 -11.333 -22.166 -23.833 -38.499 -37.5s-35.5 -27.5 -57.5 -41.5s-46.5 -27.833 -73.5 -41.5s-55.5 -26.167 -85.5 -37.5l-68 84l4 18l48 21.5l51 23.5c-2.66699 25.333 -6.66699 52 -12 80s-13 59 -23 93s-23.167 72 -39.5 114
s-36.5 89.667 -60.5 143zM203 -135l-19.999 -60h-88c-2 -8.66699 -1.83301 -17.5 0.5 -26.5s6 -17 11 -24s11.667 -12.833 20 -17.5s17.5 -7 27.5 -7c8 0 20.167 2 36.5 6s35.166 9.66699 56.499 17l5 -70l-226 -84l-9 58l64 33c-16 11.333 -27.833 25.5 -35.5 42.5
s-11.5 33.167 -11.5 48.5s2.5 30.5 7.5 45.5s13.167 32.167 24.5 51.5h128z" />
    <glyph glyph-name="uniFEFA" unicode="&#xfee0;&#xfe88;" horiz-adv-x="493" arabic-form="final" 
d="M101 622c25.333 -56 46 -106 62 -150s28.5 -83.333 37.5 -118s15 -65.5 18 -92.5s4.5 -51.833 4.5 -74.5v-16c0 -5.33301 -0.333008 -10.666 -1 -15.999c26 14.667 48.5 28.834 67.5 42.501s31.167 25.167 36.5 34.5v190c0 20 -0.5 38.167 -1.5 54.5s-3 32 -6 47
s-6.83301 29.667 -11.5 44s-10.667 29.5 -18 45.5l86 79c10 -21.333 17.833 -41 23.5 -59s10 -36 13 -54s5 -36.5 6 -55.5s1.5 -39.833 1.5 -62.5v-298c7.33301 -10.667 18.5 -17.667 33.5 -21s28.5 -5 40.5 -5v-137c-48 0 -84.667 8.16699 -110 24.5
s-42.333 45.166 -51 86.499c-24 -28.667 -54.667 -54.834 -92 -78.501s-78 -44.167 -122 -61.5l-68 84l4 18l48 21.5l51 23.5c-2.66699 25.333 -6.66699 52 -12 80s-13 59 -23 93s-23.167 72 -39.5 114s-36.5 89.667 -60.5 143zM203 -135l-19.999 -60h-88
c-2 -8.66699 -1.83301 -17.5 0.5 -26.5s6 -17 11 -24s11.667 -12.833 20 -17.5s17.5 -7 27.5 -7c8 0 20.167 2 36.5 6s35.166 9.66699 56.499 17l5 -70l-226 -84l-9 58l64 33c-16 11.333 -27.833 25.5 -35.5 42.5s-11.5 33.167 -11.5 48.5s2.5 30.5 7.5 45.5
s13.167 32.167 24.5 51.5h128z" />
    <glyph glyph-name="uniFEFB" unicode="&#xfedf;&#xfe8e;" horiz-adv-x="471" arabic-form="isolated" 
d="M101 622c25.333 -56 46 -106 62 -150s28.5 -83.333 37.5 -118s15 -65.5 18 -92.5s4.5 -51.833 4.5 -74.5v-16c0 -5.33301 -0.333008 -10.666 -1 -15.999c27.333 15.333 50.666 30.166 69.999 44.499s32 26.5 38 36.5l-6 186c-0.666992 22.667 -1.66699 42.5 -3 59.5
s-3.33301 32.5 -6 46.5s-6.16699 27.667 -10.5 41s-9.5 28 -15.5 44l86 79c10 -21.333 17.833 -41 23.5 -59s10 -36 13 -54s5 -36.5 6 -55.5s1.5 -39.833 1.5 -62.5v-185c0 -20.667 -1.66699 -38.834 -5 -54.501s-7.33301 -29.5 -12 -41.5s-9.66699 -22.167 -15 -30.5
s-10 -15.166 -14 -20.499c-9.33301 -11.333 -22.166 -23.833 -38.499 -37.5s-35.5 -27.5 -57.5 -41.5s-46.5 -27.833 -73.5 -41.5s-55.5 -26.167 -85.5 -37.5l-68 84l4 18l48 21.5l51 23.5c-2.66699 25.333 -6.66699 52 -12 80s-13 59 -23 93s-23.167 72 -39.5 114
s-36.5 89.667 -60.5 143z" />
    <glyph glyph-name="uniFEFC" unicode="&#xfee0;&#xfe8e;" horiz-adv-x="493" arabic-form="final" 
d="M101 622c25.333 -56 46 -106 62 -150s28.5 -83.333 37.5 -118s15 -65.5 18 -92.5s4.5 -51.833 4.5 -74.5v-16c0 -5.33301 -0.333008 -10.666 -1 -15.999c26 14.667 48.5 28.834 67.5 42.501s31.167 25.167 36.5 34.5v190c0 20 -0.5 38.167 -1.5 54.5s-3 32 -6 47
s-6.83301 29.667 -11.5 44s-10.667 29.5 -18 45.5l86 79c10 -21.333 17.833 -41 23.5 -59s10 -36 13 -54s5 -36.5 6 -55.5s1.5 -39.833 1.5 -62.5v-298c7.33301 -10.667 18.5 -17.667 33.5 -21s28.5 -5 40.5 -5v-137c-48 0 -84.667 8.16699 -110 24.5
s-42.333 45.166 -51 86.499c-24 -28.667 -54.667 -54.834 -92 -78.501s-78 -44.167 -122 -61.5l-68 84l4 18l48 21.5l51 23.5c-2.66699 25.333 -6.66699 52 -12 80s-13 59 -23 93s-23.167 72 -39.5 114s-36.5 89.667 -60.5 143z" />
    <glyph glyph-name="la.an" unicode="&#xfedf;&#xfb51;" horiz-adv-x="471" 
d="M124 566c22 -50.667 39.666 -95.999 52.999 -135.999s23.5 -76.5 30.5 -109.5s11.333 -62.833 13 -89.5s2.16699 -52 1.5 -76c27.333 15.333 50.666 30.166 69.999 44.499s32 26.5 38 36.5l-6 186c-0.666992 22.667 -1.66699 42.5 -3 59.5s-3.33301 32.5 -6 46.5
s-6.16699 27.667 -10.5 41s-9.5 28 -15.5 44l86 79c10 -21.333 17.833 -41 23.5 -59s10 -36 13 -54s5 -36.5 6 -55.5s1.5 -39.833 1.5 -62.5v-185c0 -20.667 -1.66699 -38.834 -5 -54.501s-7.33301 -29.5 -12 -41.5s-9.66699 -22.167 -15 -30.5s-10 -15.166 -14 -20.499
c-9.33301 -11.333 -22.166 -23.833 -38.499 -37.5s-35.5 -27.5 -57.5 -41.5s-46.5 -27.833 -73.5 -41.5s-55.5 -26.167 -85.5 -37.5l-68 84l4 18l48 21.5l50 23.5c-2 24.667 -5.5 50 -10.5 76s-11.667 54 -20 84s-19.166 62.5 -32.499 97.5s-29.333 74.167 -48 117.5z
M200.999 827.001l9 -58l-240 -96l-8 58zM200.999 713.001l9 -58l-240 -95l-8 58z" />
    <glyph glyph-name="la.an.fina" unicode="&#xfee0;&#xfb51;" horiz-adv-x="493" 
d="M124 566c22 -50.667 39.666 -96.166 52.999 -136.499s23.5 -77 30.5 -110s11.333 -62.833 13 -89.5s2.16699 -51.667 1.5 -75c26 14.667 48.5 28.834 67.5 42.501s31.167 25.167 36.5 34.5v190c0 20 -0.5 38.167 -1.5 54.5s-3 32 -6 47s-6.83301 29.667 -11.5 44
s-10.667 29.5 -18 45.5l86 79c10 -21.333 17.833 -41 23.5 -59s10 -36 13 -54s5 -36.5 6 -55.5s1.5 -39.833 1.5 -62.5v-298c7.33301 -10.667 18.5 -17.667 33.5 -21s28.5 -5 40.5 -5v-137c-48 0 -84.667 8.16699 -110 24.5s-42.333 45.166 -51 86.499
c-24 -28.667 -54.667 -54.834 -92 -78.501s-78 -44.167 -122 -61.5l-68 84l4 18l48 21.5l50 23.5c-2 24.667 -5.5 50 -10.5 76s-11.667 54 -20 84s-19.166 62.5 -32.499 97.5s-29.333 74.167 -48 117.5zM200.999 827.001l9 -58l-240 -96l-8 58zM200.999 713.001l9 -58
l-240 -95l-8 58z" />
    <glyph glyph-name="lellah" unicode="&#xfedf;&#x650;&#xfee0;&#x654;&#xfeea;" horiz-adv-x="908" 
d="M165 31c-25.333 0 -46 2.99805 -62 8.99805s-28.5 14.833 -37.5 26.5s-15.167 26.334 -18.5 44.001s-5 38.5 -5 62.5c0 20 1.66699 40 5 60s7.66602 36 12.999 48c6 6 14.5 13.333 25.5 22s23.667 18 38 28l47.5 32l54 34l-12 73l75 39l17 -10l48 -337
c4 -4.66699 9 -8.5 15 -11.5s12.333 -5.5 19 -7.5s13.5 -3.5 20.5 -4.5s13.167 -1.5 18.5 -1.5c19.333 0 37 1.33301 53 4s27.667 5.66699 35 9l-10 325l97 30v-272c0 -20 2 -36.333 6 -49s9.83301 -22.5 17.5 -29.5s17.334 -11.667 29.001 -14s25.167 -3.5 40.5 -3.5
c14.667 0 30.167 0.666992 46.5 2s29.166 4.33301 38.499 9l-8 139l-3.5 58.5c-1 17 -2.66699 32.5 -5 46.5s-6 27.667 -11 41s-11.5 27.666 -19.5 42.999l86 81c12 -22 21.167 -42.5 27.5 -61.5s11 -37.5 14 -55.5s4.83301 -36.333 5.5 -55s1 -38.667 1 -60v-141
c0 -20 -2.83301 -39 -8.5 -57s-12.167 -34 -19.5 -48s-14.333 -25.333 -21 -34s-11 -13.334 -13 -14.001c-11.333 -11.333 -26.833 -19.333 -46.5 -24s-42.167 -7 -67.5 -7c-36.667 0 -65.5 6.5 -86.5 19.5s-36.167 28.5 -45.5 46.5
c-12.667 -21.333 -30.334 -37.666 -53.001 -48.999s-49 -17 -79 -17c-15.333 0 -30 1 -44 3s-27.333 6.33301 -40 13s-24.167 15.667 -34.5 27s-19.166 26.666 -26.499 45.999c-3.33301 -9.33301 -6.16602 -16.666 -8.49902 -21.999s-3.83301 -8.66602 -4.5 -9.99902
c-2.66699 -5.33301 -7.66699 -9.66602 -15 -12.999s-15.833 -6 -25.5 -8s-20 -3.33301 -31 -4s-21.5 -1 -31.5 -1zM650 563.998c-31.333 0 -54.334 3.5 -69.001 10.5s-25.667 18.5 -33 34.5c-10 -18 -20.833 -30 -32.5 -36s-27.5 -9 -47.5 -9
c-23.333 0 -40.333 6.5 -51 19.5s-16 28.167 -16 45.5c0 12.667 1.33301 29.667 4 51s5.66699 44 9 68l46 -5l-8 -106c2 -1.33301 4.33301 -2.66602 7 -3.99902c4.66699 -2 11.334 -3 20.001 -3c17.333 0 29.666 3.66699 36.999 11s11.666 19 12.999 35l5 41h44v-42
c0 -15.333 5.16699 -26.5 15.5 -33.5s30.5 -10.833 60.5 -11.5c0.666992 15.333 -0.166016 32.166 -2.49902 50.499s-7.16602 38.166 -14.499 59.499l45 32l11 -4c5.33301 -19.333 9 -36.166 11 -50.499s3 -27.833 3 -40.5c0 -18 -2.5 -36 -7.5 -54
s-13.833 -37.667 -26.5 -59h-23zM162.999 157.998c13.333 0 28.666 0.166992 45.999 0.5s35.666 2.16602 54.999 5.49902l-24 141l-41.5 -25l-40.5 -25.5c-12.667 -8.33301 -23.667 -16.166 -33 -23.499s-15.666 -13 -18.999 -17c0 -11.333 0.5 -20.5 1.5 -27.5
s3.5 -12.667 7.5 -17s9.83301 -7.33301 17.5 -9s17.834 -2.5 30.501 -2.5zM530.999 1023c10.667 -12 19.1689 -23.167 25.502 -33.5s11.166 -21.166 14.499 -32.499s5.66602 -23.833 6.99902 -37.5s2 -29.834 2 -48.501v-83l-51 -24v85c0 23.333 -3.5 42.833 -10.5 58.5
s-18.167 32.5 -33.5 50.5z" />
    <glyph glyph-name="uni0621" unicode="&#x621;" horiz-adv-x="416" arabic-form="isolated" 
d="M370 140c-54.667 -23.333 -107.669 -47.167 -159.002 -71.5s-103.333 -50.5 -156 -78.5l-9 8l-4 79l75 38c-22.667 13.333 -39.167 30.5 -49.5 51.5s-15.5 42.5 -15.5 64.5c0 26 5.83301 50.667 17.5 74s26 43.833 43 61.5s35 31.667 54 42s35.5 15.5 49.5 15.5
c11.333 0 26 -6.33301 44 -19s36.667 -26.667 56 -42l-46 -73l-37 20c-10 5.33301 -17.333 8 -22 8c-6 0 -13.333 -1.83301 -22 -5.5s-17.667 -8.83398 -27 -15.501s-18.166 -14.334 -26.499 -23.001s-14.833 -18 -19.5 -28c6 -18.667 18.333 -33.167 37 -43.5
s38.667 -15.5 60 -15.5c7.33301 0 15.333 0.833008 24 2.5s19 4.33398 31 8.00098s25.833 8.83398 41.5 15.501s33.834 15 54.501 25l10 -7z" />
    <glyph glyph-name="uni0622" unicode="&#x622;" horiz-adv-x="201" arabic-form="isolated" 
d="M65 8l-11.999 333c-0.666992 21.333 -1.66699 40.666 -3 57.999s-3.33301 33.166 -6 47.499s-6.16699 28 -10.5 41s-9.83301 26.167 -16.5 39.5l85 84c10.667 -18 19.167 -35.667 25.5 -53s11.166 -35.166 14.499 -53.499s5.33301 -37.666 6 -57.999s1 -42.5 1 -66.5
v-350l-67 -30zM86.001 683c-17.333 0 -34.335 1.33301 -51.002 4s-30.667 5.66699 -42 9l-26 -56h-10l-51 41l28.5 58c7 14.667 12.833 26 17.5 34s9 13.5 13 16.5s9 4.5 15 4.5c9.33301 0 23.5 -2.5 42.5 -7.5s46.5 -7.5 82.5 -7.5c19.333 0 41 1.5 65 4.5
s47.667 8.5 71 16.5l5 -7l-20 -88c-23.333 -8.66699 -47.666 -14.5 -72.999 -17.5s-47.666 -4.5 -66.999 -4.5z" />
    <glyph glyph-name="uni0623" unicode="&#x623;" horiz-adv-x="201" arabic-form="isolated" 
d="M65 8l-11.999 274.998l-3.5 57.5c-1 17 -2.83301 32.833 -5.5 47.5s-6.16699 28.5 -10.5 41.5s-9.83301 26.167 -16.5 39.5l85 84c10.667 -18 19.167 -35.667 25.5 -53s11.166 -35.166 14.499 -53.499s5.33301 -37.666 6 -57.999s1 -42.833 1 -67.5v-291l-67 -30z
M151.001 825.998l-20 -60h-88c-0.666992 -2.66699 -1 -6.66699 -1 -12c0 -16 5.33301 -30.5 16 -43.5s25.334 -19.5 44.001 -19.5c8 0 20.167 2 36.5 6s35.166 9.66699 56.499 17l5 -70l-226 -84l-9 58l64 32c-15.333 11.333 -27 25.5 -35 42.5s-12 33.5 -12 49.5
c0 15.333 2.5 30.5 7.5 45.5s13.167 32.167 24.5 51.5h128z" />
    <glyph glyph-name="uni0624" unicode="&#x624;" horiz-adv-x="410" arabic-form="isolated" 
d="M31 -159c28 7.33301 55.165 16.6689 81.498 28.002s50.833 24.166 73.5 38.499s43.167 29.833 61.5 46.5s33.5 34 45.5 52c0 2.66699 -0.166992 5.33398 -0.5 8.00098s-0.5 5.66699 -0.5 9c-18.667 -7.33301 -38.834 -13.5 -60.501 -18.5s-46.167 -7.5 -73.5 -7.5
c-16.667 0 -32.167 1.66699 -46.5 5s-26.833 8.83301 -37.5 16.5s-19 17.667 -25 30s-9 27.166 -9 44.499c0 13.333 2.33301 31.333 7 54s10.334 46.334 17.001 71.001s13.834 49 21.501 73s14.5 44 20.5 60l22 16c48.667 -2 88.667 -12.833 120 -32.5s56 -44.5 74 -74.5
s30.5 -63.167 37.5 -99.5s10.5 -71.833 10.5 -106.5c0 -47.333 -7.5 -88.833 -22.5 -124.5s-32.5 -65.334 -52.5 -89.001s-40.167 -41.334 -60.5 -53.001s-36.166 -17.5 -47.499 -17.5c-3.33301 0 -8 0.333008 -14 1s-15 2 -27 4s-27.167 4.66699 -45.5 8s-41.5 8 -69.5 14
v44zM250.998 678.003l-19.999 -60h-88c-2 -8.66699 -1.83301 -17.5 0.5 -26.5s6 -17 11 -24s11.667 -12.833 20 -17.5s17.5 -7 27.5 -7c8 0 20.167 2 36.5 6s35.166 9.66699 56.499 17l5 -70l-226 -84l-9 58l64 32c-16 11.333 -27.833 25.5 -35.5 42.5
s-11.5 33.5 -11.5 49.5c0 15.333 2.5 30.5 7.5 45.5s13.167 32.167 24.5 51.5h128zM185.999 124.003c15.333 0 30.666 0.831055 45.999 2.49805s29.666 3.83398 42.999 6.50098c-9.33301 32 -24.166 58.833 -44.499 80.5s-49.166 33.834 -86.499 36.501
c-2 -5.33301 -4.66699 -13 -8 -23s-6.66602 -20.667 -9.99902 -32l-9.5 -32.5c-3 -10.333 -4.83301 -18.5 -5.5 -24.5c6 -5.33301 15.167 -9 27.5 -11s28.166 -3 47.499 -3z" />
    <glyph glyph-name="uni0625" unicode="&#x625;" horiz-adv-x="201" arabic-form="isolated" 
d="M65 8l-10.998 414c-0.666992 22.667 -1.83398 42.5 -3.50098 59.5s-3.83398 32.5 -6.50098 46.5s-6 27.667 -10 41s-8.66699 28 -14 44l85 79c10 -21.333 18 -41 24 -59s10.5 -36 13.5 -54s4.83301 -36.5 5.5 -55.5s1 -39.833 1 -62.5v-431l-67 -30zM174.002 -132
l-19.999 -60h-88c-2 -8.66699 -1.83301 -17.5 0.5 -26.5s6 -17 11 -24s11.667 -12.833 20 -17.5s17.5 -7 27.5 -7c8 0 20.167 2 36.5 6s35.166 9.66699 56.499 17l5 -70l-226 -84l-9 58l64 33c-16 11.333 -27.833 25.5 -35.5 42.5s-11.5 33.167 -11.5 48.5
s2.5 30.5 7.5 45.5s13.167 32.167 24.5 51.5h128z" />
    <glyph glyph-name="uni0626" unicode="&#x626;" horiz-adv-x="629" arabic-form="isolated" 
d="M529 299l-42.499 26.502c-13 8.33301 -22.167 12.5 -27.5 12.5c-10.667 0 -22.667 -4 -36 -12s-26.5 -18.667 -39.5 -32s-24.833 -28.833 -35.5 -46.5s-18.667 -36.5 -24 -56.5c7.33301 -5.33301 24.333 -9.5 51 -12.5s58.667 -5.83301 96 -8.5c24 -2 43 -5.33301 57 -10
s24.833 -11.5 32.5 -20.5s12.667 -19.833 15 -32.5s3.5 -28 3.5 -46c0 -14 -1 -28.5 -3 -43.5s-4.33301 -29.167 -7 -42.5s-5.5 -25.166 -8.5 -35.499s-5.5 -17.5 -7.5 -21.5c-2.66699 -5.33301 -11 -13.666 -25 -24.999s-33.167 -22.833 -57.5 -34.5
s-54 -21.834 -89 -30.501s-74.833 -13 -119.5 -13c-46 0 -83.333 5 -112 15s-51 23.167 -67 39.5s-26.833 35.166 -32.5 56.499s-8.5 43.666 -8.5 66.999c0 14 0.833008 33.667 2.5 59s3.83398 50.666 6.50098 75.999c2.66699 29.333 5.66699 60 9 92l80 -4
c-1.33301 -31.333 -3 -61.333 -5 -90c-1.33301 -24.667 -2.83301 -49.5 -4.5 -74.5s-2.83398 -45.167 -3.50098 -60.5c13.333 -12.667 30.666 -22.334 51.999 -29.001s49 -10 83 -10c45.333 0 87.833 4.66699 127.5 14s74.5 21.333 104.5 36
c0 7.33301 -0.166992 14.333 -0.5 21s-0.833008 13.334 -1.5 20.001c-10 2 -26 3.83301 -48 5.5s-45.333 3.16699 -70 4.5c-45.333 2.66699 -77.833 11.5 -97.5 26.5s-29.5 39.5 -29.5 73.5c0 38.667 7.5 76.167 22.5 112.5s33.833 68.5 56.5 96.5s46.834 50.5 72.501 67.5
s49.167 25.5 70.5 25.5c6.66699 0 14.667 -2.33301 24 -7s19.166 -10.5 29.499 -17.5s21 -15 32 -24l31.5 -26.5zM247.001 595.002l-19.999 -60h-88c-2 -8.66699 -1.83301 -17.5 0.5 -26.5s6 -17 11 -24s11.667 -12.833 20 -17.5s17.5 -7 27.5 -7c8 0 20.167 2 36.5 6
s35.166 9.66699 56.499 17l5 -70l-226 -84l-9 58l64 32c-16 11.333 -27.833 25.5 -35.5 42.5s-11.5 33.5 -11.5 49.5c0 15.333 2.5 30.5 7.5 45.5s13.167 32.167 24.5 51.5h128z" />
    <glyph glyph-name="uni0627" unicode="&#x627;" horiz-adv-x="201" arabic-form="isolated" 
d="M65 8l-10.998 414c-0.666992 22.667 -1.83398 42.5 -3.50098 59.5s-3.83398 32.5 -6.50098 46.5s-6 27.667 -10 41s-8.66699 28 -14 44l85 79c10 -21.333 18 -41 24 -59s10.5 -36 13.5 -54s4.83301 -36.5 5.5 -55.5s1 -39.833 1 -62.5v-431l-67 -30z" />
    <glyph glyph-name="uni0628" unicode="&#x628;" horiz-adv-x="700" arabic-form="isolated" 
d="M314 132c58 0 109.167 1.50293 153.5 4.50293s79.833 9.16699 106.5 18.5c-2 13.333 -5.16699 27.5 -9.5 42.5s-9.16602 30.167 -14.499 45.5s-10.833 30.166 -16.5 44.499s-11.167 27.5 -16.5 39.5l87 62l17 -7c11.333 -30 20.333 -60.167 27 -90.5
s10 -61.166 10 -92.499c0 -20 -2.33301 -39.333 -7 -58s-10.834 -35.834 -18.501 -51.501s-16.167 -29 -25.5 -40s-18.666 -19.167 -27.999 -24.5c-15.333 -8 -45 -15 -89 -21s-102.667 -9 -176 -9c-38 0 -73.5 1.33301 -106.5 4s-61.833 9.16699 -86.5 19.5
s-44 25.666 -58 45.999s-21 48.166 -21 83.499c0 15.333 0.666992 33 2 53s2.66602 38.667 3.99902 56l6 62l80 -4c-2.66699 -39.333 -4.66699 -71 -6 -95s-2.33301 -44 -3 -60c16 -10 40.5 -17.167 73.5 -21.5s71.5 -6.5 115.5 -6.5zM415 -149.997l-58 -86l-96 61l54 89z
" />
    <glyph glyph-name="uni0629" unicode="&#x629;" horiz-adv-x="414" arabic-form="isolated" 
d="M180 0c-40 0 -72.998 8.00195 -98.998 24.002s-39 42.667 -39 80c0 30.667 7.16699 72.667 21.5 126s32.166 113.666 53.499 180.999l19 13c44.667 -13.333 82.167 -28.5 112.5 -45.5s54.666 -35.833 72.999 -56.5s31.333 -43.167 39 -67.5s11.5 -50.5 11.5 -78.5
c0 -26.667 -4 -51.334 -12 -74.001s-16.667 -40.667 -26 -54c-6 -8.66699 -14.5 -16 -25.5 -22s-23.5 -11 -37.5 -15s-28.833 -6.83301 -44.5 -8.5s-31.167 -2.5 -46.5 -2.5zM102.002 624.002l97 -61l42 61l97 -60l-54 -89l-98 62l-42 -62l-96 60zM150.002 293.002
c-2.66699 -8 -5.66504 -17.665 -8.99805 -28.998s-6.66602 -23.333 -9.99902 -36s-6.5 -25.334 -9.5 -38.001s-5.16699 -24 -6.5 -34c5.33301 -6.66699 16.166 -11.5 32.499 -14.5s32.166 -4.5 47.499 -4.5c13.333 0 28.166 0.666992 44.499 2
s33.166 4.66602 50.499 9.99902c-1.33301 15.333 -4.66602 29.833 -9.99902 43.5s-13.333 26.334 -24 38.001s-24.5 22.667 -41.5 33s-38.5 20.166 -64.5 29.499z" />
    <glyph glyph-name="uni062A" unicode="&#x62a;" horiz-adv-x="700" arabic-form="isolated" 
d="M314 132c58 0 109.167 1.50293 153.5 4.50293s79.833 9.16699 106.5 18.5c-2 13.333 -5.16699 27.5 -9.5 42.5s-9.16602 30.167 -14.499 45.5s-10.833 30.166 -16.5 44.499s-11.167 27.5 -16.5 39.5l87 62l17 -7c11.333 -30 20.333 -60.167 27 -90.5
s10 -61.166 10 -92.499c0 -20 -2.33301 -39.333 -7 -58s-10.834 -35.834 -18.501 -51.501s-16.167 -29 -25.5 -40s-18.666 -19.167 -27.999 -24.5c-15.333 -8 -45 -15 -89 -21s-102.667 -9 -176 -9c-38 0 -73.5 1.33301 -106.5 4s-61.833 9.16699 -86.5 19.5
s-44 25.666 -58 45.999s-21 48.166 -21 83.499c0 15.333 0.666992 33 2 53s2.66602 38.667 3.99902 56l6 62l80 -4c-2.66699 -39.333 -4.66699 -71 -6 -95s-2.33301 -44 -3 -60c16 -10 40.5 -17.167 73.5 -21.5s71.5 -6.5 115.5 -6.5zM241 495.003l97 -61l42 61l97 -60
l-54 -89l-98 62l-42 -62l-96 60z" />
    <glyph glyph-name="uni062B" unicode="&#x62b;" horiz-adv-x="700" arabic-form="isolated" 
d="M314 132c58 0 109.167 1.50293 153.5 4.50293s79.833 9.16699 106.5 18.5c-2 13.333 -5.16699 27.5 -9.5 42.5s-9.16602 30.167 -14.499 45.5s-10.833 30.166 -16.5 44.499s-11.167 27.5 -16.5 39.5l87 62l17 -7c11.333 -30 20.333 -60.167 27 -90.5
s10 -61.166 10 -92.499c0 -20 -2.33301 -39.333 -7 -58s-10.834 -35.834 -18.501 -51.501s-16.167 -29 -25.5 -40s-18.666 -19.167 -27.999 -24.5c-15.333 -8 -45 -15 -89 -21s-102.667 -9 -176 -9c-38 0 -73.5 1.33301 -106.5 4s-61.833 9.16699 -86.5 19.5
s-44 25.666 -58 45.999s-21 48.166 -21 83.499c0 15.333 0.666992 33 2 53s2.66602 38.667 3.99902 56l6 62l80 -4c-2.66699 -39.333 -4.66699 -71 -6 -95s-2.33301 -44 -3 -60c16 -10 40.5 -17.167 73.5 -21.5s71.5 -6.5 115.5 -6.5zM241 495.003l97 -61l42 61l97 -60
l-54 -89l-98 62l-42 -62l-96 60zM290 640.003l96 -60l-53 -89l-101 64z" />
    <glyph glyph-name="uni062C" unicode="&#x62c;" horiz-adv-x="572" arabic-form="isolated" 
d="M513 -174l-31.002 -101c-40 -5.33301 -77.167 -8.33301 -111.5 -9s-61.5 -1 -81.5 -1c-36.667 0 -70 3.5 -100 10.5s-55.667 19 -77 36s-37.833 39.667 -49.5 68s-17.5 63.833 -17.5 106.5v30c0 17.333 3.66699 37.666 11 60.999s21.5 48.833 42.5 76.5
s50.167 56.834 87.5 87.501s86.333 61.667 147 93c-44 14 -80.667 25.167 -110 33.5s-49.666 12.5 -60.999 12.5c-7.33301 0 -14.833 -1 -22.5 -3s-14.167 -5 -19.5 -9v-53c0 -16 0.666992 -33.333 2 -52l-13 -11l-59 31c-1.33301 14.667 -2.16602 27.834 -2.49902 39.501
s-0.5 23.167 -0.5 34.5c0 32 1.16699 54.333 3.5 67s5.16602 20.667 8.49902 24c1.33301 1.33301 5.33301 4.5 12 9.5s15 10.167 25 15.5s21.333 10.166 34 14.499s26 6.5 40 6.5s32.833 -3 56.5 -9s51 -14 82 -24s64.833 -21.5 101.5 -34.5l115 -40.5l5 -19l-39 -84
c-23.333 0 -45.166 -3.33301 -65.499 -10s-42.833 -16 -67.5 -28c-28 -14 -54.667 -29.333 -80 -46s-48.5 -34.167 -69.5 -52.5s-39 -37.166 -54 -56.499s-25.833 -38.333 -32.5 -57v-16c0 -46 14 -79.167 42 -99.5s74.667 -30.5 140 -30.5c25.333 0 53.5 0.166992 84.5 0.5
s69.167 2.16602 114.5 5.49902zM418.998 8l-58 -86l-96 61l54 89z" />
    <glyph glyph-name="uni062D" unicode="&#x62d;" horiz-adv-x="572" arabic-form="isolated" 
d="M513 -174l-31.002 -101c-40 -5.33301 -77.167 -8.33301 -111.5 -9s-61.5 -1 -81.5 -1c-36.667 0 -70 3.5 -100 10.5s-55.667 19 -77 36s-37.833 39.667 -49.5 68s-17.5 63.833 -17.5 106.5v30c0 17.333 3.66699 37.666 11 60.999s21.5 48.833 42.5 76.5
s50.167 56.834 87.5 87.501s86.333 61.667 147 93c-44 14 -80.667 25.167 -110 33.5s-49.666 12.5 -60.999 12.5c-7.33301 0 -14.833 -1 -22.5 -3s-14.167 -5 -19.5 -9v-53c0 -16 0.666992 -33.333 2 -52l-13 -11l-59 31c-1.33301 14.667 -2.16602 27.834 -2.49902 39.501
s-0.5 23.167 -0.5 34.5c0 32 1.16699 54.333 3.5 67s5.16602 20.667 8.49902 24c1.33301 1.33301 5.33301 4.5 12 9.5s15 10.167 25 15.5s21.333 10.166 34 14.499s26 6.5 40 6.5s32.833 -3 56.5 -9s51 -14 82 -24s64.833 -21.5 101.5 -34.5l115 -40.5l5 -19l-39 -84
c-23.333 0 -45.166 -3.33301 -65.499 -10s-42.833 -16 -67.5 -28c-28 -14 -54.667 -29.333 -80 -46s-48.5 -34.167 -69.5 -52.5s-39 -37.166 -54 -56.499s-25.833 -38.333 -32.5 -57v-16c0 -46 14 -79.167 42 -99.5s74.667 -30.5 140 -30.5c25.333 0 53.5 0.166992 84.5 0.5
s69.167 2.16602 114.5 5.49902z" />
    <glyph glyph-name="uni062E" unicode="&#x62e;" horiz-adv-x="572" arabic-form="isolated" 
d="M513 -174l-31.002 -101c-40 -5.33301 -77.167 -8.33301 -111.5 -9s-61.5 -1 -81.5 -1c-36.667 0 -70 3.5 -100 10.5s-55.667 19 -77 36s-37.833 39.667 -49.5 68s-17.5 63.833 -17.5 106.5v30c0 17.333 3.66699 37.666 11 60.999s21.5 48.833 42.5 76.5
s50.167 56.834 87.5 87.501s86.333 61.667 147 93c-44 14 -80.667 25.167 -110 33.5s-49.666 12.5 -60.999 12.5c-7.33301 0 -14.833 -1 -22.5 -3s-14.167 -5 -19.5 -9v-53c0 -16 0.666992 -33.333 2 -52l-13 -11l-59 31c-1.33301 14.667 -2.16602 27.834 -2.49902 39.501
s-0.5 23.167 -0.5 34.5c0 32 1.16699 54.333 3.5 67s5.16602 20.667 8.49902 24c1.33301 1.33301 5.33301 4.5 12 9.5s15 10.167 25 15.5s21.333 10.166 34 14.499s26 6.5 40 6.5s32.833 -3 56.5 -9s51 -14 82 -24s64.833 -21.5 101.5 -34.5l115 -40.5l5 -19l-39 -84
c-23.333 0 -45.166 -3.33301 -65.499 -10s-42.833 -16 -67.5 -28c-28 -14 -54.667 -29.333 -80 -46s-48.5 -34.167 -69.5 -52.5s-39 -37.166 -54 -56.499s-25.833 -38.333 -32.5 -57v-16c0 -46 14 -79.167 42 -99.5s74.667 -30.5 140 -30.5c25.333 0 53.5 0.166992 84.5 0.5
s69.167 2.16602 114.5 5.49902zM126.998 583l54 89l100 -63l-58 -86z" />
    <glyph glyph-name="uni062F" unicode="&#x62f;" horiz-adv-x="453" arabic-form="isolated" 
d="M177 0c-52.667 0 -89.4971 9.16895 -110.497 27.502s-31.5 47.5 -31.5 87.5c0 11.333 0.5 24 1.5 38s2.16699 26.667 3.5 38c1.33301 13.333 3 26.666 5 39.999l73 -4c-0.666992 -11.333 -1.33398 -22 -2.00098 -32c-0.666992 -8.66699 -1.16699 -17.5 -1.5 -26.5
s-0.5 -16.167 -0.5 -21.5c7.33301 -4 19.5 -6.66699 36.5 -8s33.167 -2 48.5 -2s34.833 0.833008 58.5 2.5s48.167 5.16699 73.5 10.5c-2 21.333 -6 41.833 -12 61.5s-15.667 38.167 -29 55.5s-31 33.833 -53 49.5s-49.667 30.167 -83 43.5l27 98l19 15
c36.667 -9.33301 68.167 -24 94.5 -44s48.166 -43.5 65.499 -70.5s30.166 -56.5 38.499 -88.5s12.5 -64.667 12.5 -98c0 -26.667 -4.16699 -50.834 -12.5 -72.501s-16.833 -38.167 -25.5 -49.5c-14 -18.667 -38.333 -31.667 -73 -39s-75.667 -11 -123 -11z" />
    <glyph glyph-name="uni0630" unicode="&#x630;" horiz-adv-x="453" arabic-form="isolated" 
d="M177 0c-52.667 0 -89.4971 9.16895 -110.497 27.502s-31.5 47.5 -31.5 87.5c0 11.333 0.5 24 1.5 38s2.16699 26.667 3.5 38c1.33301 13.333 3 26.666 5 39.999l73 -4c-0.666992 -11.333 -1.33398 -22 -2.00098 -32c-0.666992 -8.66699 -1.16699 -17.5 -1.5 -26.5
s-0.5 -16.167 -0.5 -21.5c7.33301 -4 19.5 -6.66699 36.5 -8s33.167 -2 48.5 -2s34.833 0.833008 58.5 2.5s48.167 5.16699 73.5 10.5c-2 21.333 -6 41.833 -12 61.5s-15.667 38.167 -29 55.5s-31 33.833 -53 49.5s-49.667 30.167 -83 43.5l27 98l19 15
c36.667 -9.33301 68.167 -24 94.5 -44s48.166 -43.5 65.499 -70.5s30.166 -56.5 38.499 -88.5s12.5 -64.667 12.5 -98c0 -26.667 -4.16699 -50.834 -12.5 -72.501s-16.833 -38.167 -25.5 -49.5c-14 -18.667 -38.333 -31.667 -73 -39s-75.667 -11 -123 -11zM145.003 602.002
l54 89l100 -63l-58 -86z" />
    <glyph glyph-name="uni0631" unicode="&#x631;" horiz-adv-x="258" arabic-form="isolated" 
d="M-88 -159c28 10 53.998 22.002 77.998 36.002s45.5 29.167 64.5 45.5s35.333 33.166 49 50.499s23.834 34.333 30.501 51c-3.33301 13.333 -7.5 28.333 -12.5 45s-11 34.167 -18 52.5l-22 56l-23.5 55.5l91 58l18 -7c8 -20 15 -40.5 21 -61.5s11.333 -41.667 16 -62
s8.16699 -39.833 10.5 -58.5s3.5 -35.334 3.5 -50.001c0 -46.667 -6.33301 -87.5 -19 -122.5s-27.667 -64.333 -45 -88s-35 -41.5 -53 -53.5s-32 -18 -42 -18c-3.33301 0 -7.66602 0.333008 -12.999 1s-13.333 2 -24 4l-42.5 8c-17.667 3.33301 -40.167 8 -67.5 14v44z" />
    <glyph glyph-name="uni0632" unicode="&#x632;" horiz-adv-x="258" arabic-form="isolated" 
d="M-88 -159c28 10 53.998 22.002 77.998 36.002s45.5 29.167 64.5 45.5s35.333 33.166 49 50.499s23.834 34.333 30.501 51c-3.33301 13.333 -7.5 28.333 -12.5 45s-11 34.167 -18 52.5l-22 56l-23.5 55.5l91 58l18 -7c8 -20 15 -40.5 21 -61.5s11.333 -41.667 16 -62
s8.16699 -39.833 10.5 -58.5s3.5 -35.334 3.5 -50.001c0 -46.667 -6.33301 -87.5 -19 -122.5s-27.667 -64.333 -45 -88s-35 -41.5 -53 -53.5s-32 -18 -42 -18c-3.33301 0 -7.66602 0.333008 -12.999 1s-13.333 2 -24 4l-42.5 8c-17.667 3.33301 -40.167 8 -67.5 14v44z
M27.998 411.002l54 89l100 -63l-58 -86z" />
    <glyph glyph-name="uni0633" unicode="&#x633;" horiz-adv-x="1065" arabic-form="isolated" 
d="M845 0c-24 0 -44.9971 5.00293 -62.9971 15.0029s-33.667 30 -47 60c-10.667 -20 -19.167 -33.833 -25.5 -41.5s-13.166 -13.167 -20.499 -16.5c-19.333 -11.333 -45 -17 -77 -17c-10 0 -19.5 0.666992 -28.5 2s-17.5 4.33301 -25.5 9v-10
c-0.666992 -33.333 -3.5 -61.5 -8.5 -84.5s-10.167 -39.167 -15.5 -48.5c-2.66699 -5.33301 -10.834 -13.666 -24.501 -24.999s-32.334 -22.833 -56.001 -34.5s-52 -21.834 -85 -30.501s-70.5 -13 -112.5 -13c-44 0 -79.833 5 -107.5 15s-49.334 23.167 -65.001 39.5
s-26.5 35.166 -32.5 56.499s-9 43.666 -9 66.999c0 12.667 0.833008 30.5 2.5 53.5s3.5 46.333 5.5 70s4 45.334 6 65.001s3.33301 32.5 4 38.5l80 -4l-4 -67c-1.33301 -23.333 -2.66602 -45.333 -3.99902 -66l-3.5 -55.5c-1 -16.333 -1.5 -28.5 -1.5 -36.5
c28 -26 71 -39 129 -39c19.333 0 39.333 1.16699 60 3.5s40.5 5.83301 59.5 10.5s37 10.167 54 16.5s31.5 13.166 43.5 20.499c-5.33301 52 -13.5 103.167 -24.5 153.5s-22.167 93.166 -33.5 128.499l89 56l17 -4l19 -82c5.33301 -23.333 10.666 -40.333 15.999 -51
c6.66699 -6 15.167 -10.333 25.5 -13s21.166 -4 32.499 -4c12 0 24.167 0.833008 36.5 2.5s23.833 4.5 34.5 8.5l29 142h77c-0.666992 -16 -1.16699 -29 -1.5 -39s-0.5 -18.167 -0.5 -24.5v-14.5v-8c0 -21.333 5.66699 -37.833 17 -49.5s26.333 -17.5 45 -17.5
c12.667 0 27.167 1.16699 43.5 3.5s31.166 6.16602 44.499 11.499c-4 26.667 -11.5 55.834 -22.5 87.501s-21.833 59.5 -32.5 83.5l85 66l18 -7c13.333 -34.667 22.666 -66.834 27.999 -96.501s8 -60.167 8 -91.5c0 -18.667 -2.66699 -37 -8 -55
s-11.666 -34.5 -18.999 -49.5s-14.833 -27.667 -22.5 -38s-13.834 -17.5 -18.501 -21.5c-13.333 -11.333 -30.166 -19.166 -50.499 -23.499s-40.166 -6.5 -59.499 -6.5z" />
    <glyph glyph-name="uni0634" unicode="&#x634;" horiz-adv-x="1065" arabic-form="isolated" 
d="M845 0c-24 0 -44.9971 5.00293 -62.9971 15.0029s-33.667 30 -47 60c-10.667 -20 -19.167 -33.833 -25.5 -41.5s-13.166 -13.167 -20.499 -16.5c-19.333 -11.333 -45 -17 -77 -17c-10 0 -19.5 0.666992 -28.5 2s-17.5 4.33301 -25.5 9v-10
c-0.666992 -33.333 -3.5 -61.5 -8.5 -84.5s-10.167 -39.167 -15.5 -48.5c-2.66699 -5.33301 -10.834 -13.666 -24.501 -24.999s-32.334 -22.833 -56.001 -34.5s-52 -21.834 -85 -30.501s-70.5 -13 -112.5 -13c-44 0 -79.833 5 -107.5 15s-49.334 23.167 -65.001 39.5
s-26.5 35.166 -32.5 56.499s-9 43.666 -9 66.999c0 12.667 0.833008 30.5 2.5 53.5s3.5 46.333 5.5 70s4 45.334 6 65.001s3.33301 32.5 4 38.5l80 -4l-4 -67c-1.33301 -23.333 -2.66602 -45.333 -3.99902 -66l-3.5 -55.5c-1 -16.333 -1.5 -28.5 -1.5 -36.5
c28 -26 71 -39 129 -39c19.333 0 39.333 1.16699 60 3.5s40.5 5.83301 59.5 10.5s37 10.167 54 16.5s31.5 13.166 43.5 20.499c-5.33301 52 -13.5 103.167 -24.5 153.5s-22.167 93.166 -33.5 128.499l89 56l17 -4l19 -82c5.33301 -23.333 10.666 -40.333 15.999 -51
c6.66699 -6 15.167 -10.333 25.5 -13s21.166 -4 32.499 -4c12 0 24.167 0.833008 36.5 2.5s23.833 4.5 34.5 8.5l29 142h77c-0.666992 -16 -1.16699 -29 -1.5 -39s-0.5 -18.167 -0.5 -24.5v-14.5v-8c0 -21.333 5.66699 -37.833 17 -49.5s26.333 -17.5 45 -17.5
c12.667 0 27.167 1.16699 43.5 3.5s31.166 6.16602 44.499 11.499c-4 26.667 -11.5 55.834 -22.5 87.501s-21.833 59.5 -32.5 83.5l85 66l18 -7c13.333 -34.667 22.666 -66.834 27.999 -96.501s8 -60.167 8 -91.5c0 -18.667 -2.66699 -37 -8 -55
s-11.666 -34.5 -18.999 -49.5s-14.833 -27.667 -22.5 -38s-13.834 -17.5 -18.501 -21.5c-13.333 -11.333 -30.166 -19.166 -50.499 -23.499s-40.166 -6.5 -59.499 -6.5zM641.003 503.003l97 -61l42 61l97 -60l-54 -89l-98 62l-42 -62l-96 60zM690.003 648.003l96 -60
l-53 -89l-101 64z" />
    <glyph glyph-name="uni0635" unicode="&#x635;" horiz-adv-x="1064" arabic-form="isolated" 
d="M681 0c-28.667 0 -52.998 1.50293 -72.998 4.50293s-37 8.16699 -51 15.5c0.666992 -3.33301 1 -6.5 1 -9.5v-9.5c-0.666992 -33.333 -3.5 -61.5 -8.5 -84.5s-10.167 -39.167 -15.5 -48.5c-2.66699 -5.33301 -10.834 -13.666 -24.501 -24.999
s-32.334 -22.833 -56.001 -34.5s-52 -21.834 -85 -30.501s-70.5 -13 -112.5 -13c-44 0 -79.833 5 -107.5 15s-49.334 23.167 -65.001 39.5s-26.5 35.166 -32.5 56.499s-9 43.666 -9 66.999c0 14 0.833008 33.667 2.5 59s3.83398 50.666 6.50098 75.999
c2.66699 29.333 5.66699 60 9 92l80 -4c-1.33301 -31.333 -3 -61.333 -5 -90c-1.33301 -24.667 -2.83301 -49.5 -4.5 -74.5s-2.83398 -45.167 -3.50098 -60.5c28 -26 71 -39 129 -39c19.333 0 39.333 1.16699 60 3.5s40.5 5.83301 59.5 10.5s37 10.167 54 16.5
s31.5 13.166 43.5 20.499c-5.33301 52 -13.5 103.167 -24.5 153.5s-22.167 93.166 -33.5 128.499l89 56l17 -4l15 -63c2.66699 -11.333 5.33398 -21.166 8.00098 -29.499s5.66699 -15.5 9 -21.5l111.5 94l79 65.5c21.667 17.667 39.5 31.5 53.5 41.5s25.333 17.667 34 23
s15.5 8.83301 20.5 10.5s9.83301 2.5 14.5 2.5c18 0 36.333 -5.5 55 -16.5s35.5 -26 50.5 -45s27.167 -41.167 36.5 -66.5s14 -52.666 14 -81.999c0 -12.667 -1.66699 -27.667 -5 -45s-8.5 -34.5 -15.5 -51.5s-15.5 -32.333 -25.5 -46s-21.333 -23.5 -34 -29.5
c-20.667 -9.33301 -47.167 -16.333 -79.5 -21s-72.833 -7 -121.5 -7h-60zM832.002 288.003c-4.66699 0 -11.167 -2.16699 -19.5 -6.5s-20.333 -12 -36 -23s-36 -26.167 -61 -45.5l-94.5 -75c3.33301 -0.666992 7 -1 11 -1h13h147c20 0 37.5 0.333008 52.5 1
s28.167 1.66699 39.5 3s21.333 3 30 5s16.667 4.33301 24 7c-2 18 -7.16699 35 -15.5 51s-17.833 30.333 -28.5 43s-21.667 22.667 -33 30s-21 11 -29 11z" />
    <glyph glyph-name="uni0636" unicode="&#x636;" horiz-adv-x="1064" arabic-form="isolated" 
d="M681 0c-28.667 0 -52.998 1.50293 -72.998 4.50293s-37 8.16699 -51 15.5c0.666992 -3.33301 1 -6.5 1 -9.5v-9.5c-0.666992 -33.333 -3.5 -61.5 -8.5 -84.5s-10.167 -39.167 -15.5 -48.5c-2.66699 -5.33301 -10.834 -13.666 -24.501 -24.999
s-32.334 -22.833 -56.001 -34.5s-52 -21.834 -85 -30.501s-70.5 -13 -112.5 -13c-44 0 -79.833 5 -107.5 15s-49.334 23.167 -65.001 39.5s-26.5 35.166 -32.5 56.499s-9 43.666 -9 66.999c0 14 0.833008 33.667 2.5 59s3.83398 50.666 6.50098 75.999
c2.66699 29.333 5.66699 60 9 92l80 -4c-1.33301 -31.333 -3 -61.333 -5 -90c-1.33301 -24.667 -2.83301 -49.5 -4.5 -74.5s-2.83398 -45.167 -3.50098 -60.5c28 -26 71 -39 129 -39c19.333 0 39.333 1.16699 60 3.5s40.5 5.83301 59.5 10.5s37 10.167 54 16.5
s31.5 13.166 43.5 20.499c-5.33301 52 -13.5 103.167 -24.5 153.5s-22.167 93.166 -33.5 128.499l89 56l17 -4l15 -63c2.66699 -11.333 5.33398 -21.166 8.00098 -29.499s5.66699 -15.5 9 -21.5l111.5 94l79 65.5c21.667 17.667 39.5 31.5 53.5 41.5s25.333 17.667 34 23
s15.5 8.83301 20.5 10.5s9.83301 2.5 14.5 2.5c18 0 36.333 -5.5 55 -16.5s35.5 -26 50.5 -45s27.167 -41.167 36.5 -66.5s14 -52.666 14 -81.999c0 -12.667 -1.66699 -27.667 -5 -45s-8.5 -34.5 -15.5 -51.5s-15.5 -32.333 -25.5 -46s-21.333 -23.5 -34 -29.5
c-20.667 -9.33301 -47.167 -16.333 -79.5 -21s-72.833 -7 -121.5 -7h-60zM832.002 288.003c-4.66699 0 -11.167 -2.16699 -19.5 -6.5s-20.333 -12 -36 -23s-36 -26.167 -61 -45.5l-94.5 -75c3.33301 -0.666992 7 -1 11 -1h13h147c20 0 37.5 0.333008 52.5 1
s28.167 1.66699 39.5 3s21.333 3 30 5s16.667 4.33301 24 7c-2 18 -7.16699 35 -15.5 51s-17.833 30.333 -28.5 43s-21.667 22.667 -33 30s-21 11 -29 11zM775.002 538.003l54 89l100 -63l-58 -86z" />
    <glyph glyph-name="uni0637" unicode="&#x637;" horiz-adv-x="662" arabic-form="isolated" 
d="M336 0c-36 0 -75.667 0.499023 -119 1.49902s-87.333 4.16699 -132 9.5l-56 119l8 19c14.667 -1.33301 28.167 -2.5 40.5 -3.5s24.5 -2.16699 36.5 -3.5l76 66c10 8.66699 17.667 17.834 23 27.501s8 25.167 8 46.5c0 4 -0.166992 11.5 -0.5 22.5
s-0.666016 23.333 -0.999023 37s-0.833008 27.667 -1.5 42s-1 27.166 -1 38.499l-3.5 59.5c-1 17 -2.83301 32.5 -5.5 46.5s-6 27.667 -10 41s-9 28 -15 44l85 79c10 -21.333 18 -41 24 -59s10.5 -36 13.5 -54s4.83301 -36.5 5.5 -55.5s1 -39.833 1 -62.5
c0 -44 -0.666992 -77.667 -2 -101s-3.33301 -42.333 -6 -57l70 56c18 14 32.667 24.833 44 32.5s20.166 12.667 26.499 15s12.166 3.5 17.499 3.5c18 0 36.5 -5.5 55.5 -16.5s36 -26 51 -45s27.333 -41.167 37 -66.5s14.5 -52.666 14.5 -81.999
c0 -12.667 -1.83301 -27.667 -5.5 -45s-9 -34.5 -16 -51.5s-15.667 -32.333 -26 -46s-21.833 -23.5 -34.5 -29.5c-20.667 -9.33301 -47.167 -16.333 -79.5 -21s-73.166 -7 -122.499 -7zM429 287.999c-4.66699 0 -11.335 -2.16699 -20.002 -6.5s-21 -12 -37 -23
s-36.667 -26.167 -62 -45.5l-95 -75c22 -0.666992 46.833 -1 74.5 -1h99.5c20 0 37.333 0.333008 52 1s27.667 1.66699 39 3s21.333 3 30 5s16.667 4.33301 24 7c-2 18 -7.16699 35 -15.5 51s-17.666 30.333 -27.999 43s-21.166 22.667 -32.499 30s-21 11 -29 11z" />
    <glyph glyph-name="uni0638" unicode="&#x638;" horiz-adv-x="662" arabic-form="isolated" 
d="M336 0c-36 0 -75.667 0.499023 -119 1.49902s-87.333 4.16699 -132 9.5l-56 119l8 19c14.667 -1.33301 28.167 -2.5 40.5 -3.5s24.5 -2.16699 36.5 -3.5l76 66c10 8.66699 17.667 17.834 23 27.501s8 25.167 8 46.5c0 4 -0.166992 11.5 -0.5 22.5
s-0.666016 23.333 -0.999023 37s-0.833008 27.667 -1.5 42s-1 27.166 -1 38.499l-3.5 59.5c-1 17 -2.83301 32.5 -5.5 46.5s-6 27.667 -10 41s-9 28 -15 44l85 79c10 -21.333 18 -41 24 -59s10.5 -36 13.5 -54s4.83301 -36.5 5.5 -55.5s1 -39.833 1 -62.5
c0 -44 -0.666992 -77.667 -2 -101s-3.33301 -42.333 -6 -57l70 56c18 14 32.667 24.833 44 32.5s20.166 12.667 26.499 15s12.166 3.5 17.499 3.5c18 0 36.5 -5.5 55.5 -16.5s36 -26 51 -45s27.333 -41.167 37 -66.5s14.5 -52.666 14.5 -81.999
c0 -12.667 -1.83301 -27.667 -5.5 -45s-9 -34.5 -16 -51.5s-15.667 -32.333 -26 -46s-21.833 -23.5 -34.5 -29.5c-20.667 -9.33301 -47.167 -16.333 -79.5 -21s-73.166 -7 -122.499 -7zM429 287.999c-4.66699 0 -11.335 -2.16699 -20.002 -6.5s-21 -12 -37 -23
s-36.667 -26.167 -62 -45.5l-95 -75c22 -0.666992 46.833 -1 74.5 -1h99.5c20 0 37.333 0.333008 52 1s27.667 1.66699 39 3s21.333 3 30 5s16.667 4.33301 24 7c-2 18 -7.16699 35 -15.5 51s-17.666 30.333 -27.999 43s-21.166 22.667 -32.499 30s-21 11 -29 11z
M384.999 526.999l54 89l100 -63l-58 -86z" />
    <glyph glyph-name="uni0639" unicode="&#x639;" horiz-adv-x="473" arabic-form="isolated" 
d="M38 -32c0 10 1.00098 21.335 3.00098 34.002s6.66699 26.667 14 42s17.833 31.833 31.5 49.5s32.167 36.5 55.5 56.5c-34.667 17.333 -59.5 40.333 -74.5 69s-22.5 57 -22.5 85c0 32 7.5 61.333 22.5 88s33 49.667 54 69s43.167 34.5 66.5 45.5s43.333 16.5 60 16.5
c6.66699 0 14.667 -2.16699 24 -6.5s19 -10 29 -17s20.333 -15.167 31 -24.5l32 -28l-55 -84c-39.333 24 -63.666 36 -72.999 36c-8 0 -17.5 -2.16699 -28.5 -6.5s-21.833 -10.333 -32.5 -18s-20.667 -16.667 -30 -27s-17 -21.5 -23 -33.5
c2.66699 -10.667 7.66699 -20.834 15 -30.501s16.166 -18.334 26.499 -26.001s22.166 -13.834 35.499 -18.501s27.333 -7 42 -7c18.667 0 41.5 5.5 68.5 16.5l106.5 45.5l14 -13l-5 -103c-49.333 -18 -91.5 -35.167 -126.5 -51.5s-64.5 -32.333 -88.5 -48
s-43.5 -31.5 -58.5 -47.5s-27.167 -33.333 -36.5 -52v-13c0 -45.333 13.833 -78.166 41.5 -98.499s71.5 -30.5 131.5 -30.5h38.5c13 0 27 0.166992 42 0.5s31.5 1 49.5 2l60 3.5l10 -17l-31 -101c-40 -5.33301 -75.667 -8.33301 -107 -9s-57 -1 -77 -1
c-34 0 -65.333 3.5 -94 10.5s-53.5 18.833 -74.5 35.5s-37.333 39.167 -49 67.5s-17.5 63.5 -17.5 105.5v34v0z" />
    <glyph glyph-name="uni063A" unicode="&#x63a;" horiz-adv-x="473" arabic-form="isolated" 
d="M38 -32c0 10 1.00098 21.335 3.00098 34.002s6.66699 26.667 14 42s17.833 31.833 31.5 49.5s32.167 36.5 55.5 56.5c-34.667 17.333 -59.5 40.333 -74.5 69s-22.5 57 -22.5 85c0 32 7.5 61.333 22.5 88s33 49.667 54 69s43.167 34.5 66.5 45.5s43.333 16.5 60 16.5
c6.66699 0 14.667 -2.16699 24 -6.5s19 -10 29 -17s20.333 -15.167 31 -24.5l32 -28l-55 -84c-39.333 24 -63.666 36 -72.999 36c-8 0 -17.5 -2.16699 -28.5 -6.5s-21.833 -10.333 -32.5 -18s-20.667 -16.667 -30 -27s-17 -21.5 -23 -33.5
c2.66699 -10.667 7.66699 -20.834 15 -30.501s16.166 -18.334 26.499 -26.001s22.166 -13.834 35.499 -18.501s27.333 -7 42 -7c18.667 0 41.5 5.5 68.5 16.5l106.5 45.5l14 -13l-5 -103c-49.333 -18 -91.5 -35.167 -126.5 -51.5s-64.5 -32.333 -88.5 -48
s-43.5 -31.5 -58.5 -47.5s-27.167 -33.333 -36.5 -52v-13c0 -45.333 13.833 -78.166 41.5 -98.499s71.5 -30.5 131.5 -30.5h38.5c13 0 27 0.166992 42 0.5s31.5 1 49.5 2l60 3.5l10 -17l-31 -101c-40 -5.33301 -75.667 -8.33301 -107 -9s-57 -1 -77 -1
c-34 0 -65.333 3.5 -94 10.5s-53.5 18.833 -74.5 35.5s-37.333 39.167 -49 67.5s-17.5 63.5 -17.5 105.5v34zM161.001 635.002l54 89l100 -63l-58 -86z" />
    <glyph glyph-name="uni0641" unicode="&#x641;" horiz-adv-x="728" arabic-form="isolated" 
d="M314 -5c-38 0 -73.4971 1.33301 -106.497 4s-61.833 9.16699 -86.5 19.5s-44 25.666 -58 45.999s-21 48.166 -21 83.499c0 15.333 0.666992 33 2 53s2.66602 38.667 3.99902 56l6 62l80 -4c-2.66699 -39.333 -4.66699 -71 -6 -95s-2.33301 -44 -3 -60
c16 -10 40.5 -17.167 73.5 -21.5s71.5 -6.5 115.5 -6.5c72.667 0 133.167 1.66699 181.5 5s86.5 9 114.5 17c0 23.333 -1 46 -3 68c-19.333 -6 -39.166 -10.333 -59.499 -13s-45.833 -4 -76.5 -4c-36 0 -63.167 7.83301 -81.5 23.5s-27.5 36.834 -27.5 63.501
c0 12.667 2 29 6 49s9 41 15 63s12.5 43.833 19.5 65.5s13.5 40.834 19.5 57.501c4 2 7.66699 4.33301 11 7l7.5 5.5c2.33301 1.66699 3.5 2.83398 3.5 3.50098c50 0 90.667 -9.83301 122 -29.5s55.833 -45 73.5 -76s29.834 -65.833 36.501 -104.5s10 -77.667 10 -117
c0 -24.667 -2.33301 -47.334 -7 -68.001s-10.834 -39 -18.501 -55s-16.334 -29.5 -26.001 -40.5s-19.167 -19.167 -28.5 -24.5c-18.667 -10 -51.834 -18 -99.501 -24s-111.834 -9 -192.501 -9zM504.003 314c16 0 31.3311 0.832031 45.998 2.49902s28 3.83398 40 6.50098
c-10 32 -25.5 57.5 -46.5 76.5s-50.167 29.167 -87.5 30.5l-7.5 -22.5c-3 -9 -5.83301 -18.5 -8.5 -28.5l-7.5 -28.5c-2.33301 -9 -4.16602 -16.5 -5.49902 -22.5c8.66699 -5.33301 18.834 -9 30.501 -11s27.167 -3 46.5 -3zM420.001 661.999l54 89l100 -63l-58 -86z" />
    <glyph glyph-name="uni0642" unicode="&#x642;" horiz-adv-x="614" arabic-form="isolated" 
d="M328 415c50.667 -1.33301 91.8301 -11.9932 123.497 -31.9932s56.5 -45.667 74.5 -77s30.167 -66.833 36.5 -106.5s9.5 -79.834 9.5 -120.501c0 -44 -2.66699 -79.5 -8 -106.5s-10.666 -45.167 -15.999 -54.5c-2.66699 -5.33301 -10.834 -13.666 -24.501 -24.999
s-32.5 -22.833 -56.5 -34.5s-53.167 -21.834 -87.5 -30.501s-73.5 -13 -117.5 -13c-46 0 -83.333 5 -112 15s-51 23.167 -67 39.5s-26.833 35.166 -32.5 56.499s-8.5 43.666 -8.5 66.999c0 14 0.833008 33.667 2.5 59s3.83398 50.666 6.50098 75.999
c2.66699 29.333 5.66699 60 9 92l80 -4c-1.33301 -31.333 -3 -61.333 -5 -90c-1.33301 -24.667 -2.83301 -49.5 -4.5 -74.5s-2.83398 -45.167 -3.50098 -60.5c13.333 -12.667 30.666 -22.334 51.999 -29.001s49 -10 83 -10c42.667 0 84.334 4.83301 125.001 14.5
s76 22.167 106 37.5c0 12 -0.166992 23.667 -0.5 35s-0.833008 22.333 -1.5 33c-18.667 -7.33301 -38.667 -13.333 -60 -18s-45.666 -7 -72.999 -7c-16.667 0 -32.167 1.66699 -46.5 5s-26.833 8.83301 -37.5 16.5s-19 17.667 -25 30s-9 27.166 -9 44.499
c0 13.333 2.33301 31.166 7 53.499s10.334 45.833 17.001 70.5s13.834 49 21.501 73s14.5 44 20.5 60zM297.996 626.007l97 -61l42 61l97 -60l-54 -89l-98 62l-42 -62l-96 60zM385.996 174.007c16 0 31.502 0.999023 46.502 2.99902s29.167 4.33301 42.5 7
c-9.33301 34 -24.333 61 -45 81s-49.667 31.333 -87 34c-2 -5.33301 -4.66699 -13.166 -8 -23.499l-10 -32c-3.33301 -11 -6.33301 -21.5 -9 -31.5s-4.33398 -18 -5.00098 -24c6 -5.33301 15.167 -9 27.5 -11s28.166 -3 47.499 -3z" />
    <glyph glyph-name="uni0643" unicode="&#x643;" horiz-adv-x="703" arabic-form="isolated" 
d="M607 692c10 -21.333 18 -40.998 24 -58.998s10.5 -36 13.5 -54s4.83301 -36.5 5.5 -55.5s1 -39.833 1 -62.5v-270c0 -18.667 -2.33301 -37 -7 -55s-10.834 -34.5 -18.501 -49.5s-16.167 -28.167 -25.5 -39.5s-18.666 -19.333 -27.999 -24
c-14 -7.33301 -42.667 -13.833 -86 -19.5s-99.333 -8.5 -168 -8.5c-39.333 0 -75.833 1.33301 -109.5 4s-63 9.16699 -88 19.5s-44.5 25.666 -58.5 45.999s-21 48.166 -21 83.499c0 15.333 0.666992 33 2 53s2.66602 38.667 3.99902 56l6 62l80 -4
c-2.66699 -39.333 -4.66699 -71 -6 -95s-2 -44 -2 -60c16 -10 40.5 -17.167 73.5 -21.5s72.833 -6.5 119.5 -6.5c58 0 107.167 1.5 147.5 4.5s73.166 8.16699 98.499 15.5l-8 270c-0.666992 22.667 -1.66699 42.5 -3 59.5s-3.16602 32.5 -5.49902 46.5
s-5.66602 27.667 -9.99902 41s-9.5 28 -15.5 44zM439 451.002l-106.999 -28.001c38 -16 62.833 -31.167 74.5 -45.5s17.5 -28.5 17.5 -42.5s-2.5 -26.333 -7.5 -37s-13.333 -20.167 -25 -28.5s-27.334 -16.166 -47.001 -23.499s-44.167 -14.333 -73.5 -21l-45 56l9 11
c27.333 4 52.333 8.83301 75 14.5s40.667 12.167 54 19.5c-7.33301 6 -18.833 13.5 -34.5 22.5s-35.167 18.167 -58.5 27.5l-8 11c2.66699 18 5.5 33 8.5 45s6.5 21.833 10.5 29.5s8.83301 13.5 14.5 17.5s12.5 7.33301 20.5 10l133 41z" />
    <glyph glyph-name="uni0644" unicode="&#x644;" horiz-adv-x="561" arabic-form="isolated" 
d="M140 216c-1.33301 -31.333 -2.99902 -61.3359 -4.99902 -90.0029c-1.33301 -24.667 -2.83301 -49.667 -4.5 -75s-2.83398 -45.666 -3.50098 -60.999c8.66699 -10 23.167 -18.667 43.5 -26s44.166 -11 71.499 -11c32 0 63.333 3 94 9s60.667 16.333 90 31l-12 429
c-0.666992 22.667 -1.66699 42.5 -3 59.5s-3.33301 32.5 -6 46.5s-6.16699 27.667 -10.5 41s-9.5 28 -15.5 44l86 79c10 -21.333 17.833 -41 23.5 -59s10 -36 13 -54s5 -36.5 6 -55.5s1.5 -39.833 1.5 -62.5v-427c0 -28 -1.83301 -54 -5.5 -78s-8.16699 -40.333 -13.5 -49
c-3.33301 -5.33301 -11 -13.166 -23 -23.499s-28.167 -20.5 -48.5 -30.5s-45.333 -18.833 -75 -26.5s-63.5 -11.5 -101.5 -11.5c-40 0 -73 5 -99 15s-46.5 23.167 -61.5 39.5s-25.333 35.333 -31 57s-8.5 44.167 -8.5 67.5c0 14 0.833008 33.5 2.5 58.5
s3.83398 50.167 6.50098 75.5c2.66699 28.667 5.66699 59.334 9 92.001l80 -4v0z" />
    <glyph glyph-name="uni0645" unicode="&#x645;" horiz-adv-x="503" arabic-form="isolated" 
d="M367 0c-16 0 -34.334 2.83301 -55.001 8.5s-41.5 12.5 -62.5 20.5s-40.833 16.5 -59.5 25.5s-33.667 17.167 -45 24.5c-3.33301 -4.66699 -5.33301 -11.334 -6 -20.001s-1 -21.667 -1 -39v-36.5c0 -15.667 0.333008 -33.5 1 -53.5l2 -63
c0.666992 -22 1.66699 -43.333 3 -64l-84 -40l-14 8c-1.33301 30.667 -2.16602 61.667 -2.49902 93s-0.666016 60.666 -0.999023 87.999s-0.5 52.166 -0.5 74.499v52.5c0 28 7.5 53.333 22.5 76s41.5 37.334 79.5 44.001l51 81c12 19.333 24.5 35.5 37.5 48.5
s27.5 23.5 43.5 31.5s34 14 54 18s43.667 7 71 9l21 -18c13.333 -48 23.166 -91.667 29.499 -131s9.5 -70.666 9.5 -93.999c0 -19.333 -3 -37.666 -9 -54.999s-13.667 -32.5 -23 -45.5s-19.5 -23.5 -30.5 -31.5s-21.5 -12 -31.5 -12zM350.999 265
c-17.333 -1.33301 -31.668 -3.16602 -43.001 -5.49902s-21.666 -6.5 -30.999 -12.5s-18.666 -15 -27.999 -27s-20.666 -28.333 -33.999 -49c27.333 -14.667 55 -25.5 83 -32.5s54 -11.167 78 -12.5c-0.666992 10 -1.83398 20.833 -3.50098 32.5s-3.66699 23.667 -6 36
s-4.83301 24.666 -7.5 36.999s-5.33398 23.5 -8.00098 33.5z" />
    <glyph glyph-name="uni0646" unicode="&#x646;" horiz-adv-x="600" arabic-form="isolated" 
d="M558 58c0 -35.333 -2.66504 -65.1621 -7.99805 -89.4951s-10.666 -41.166 -15.999 -50.499c-2.66699 -5.33301 -10.834 -13.666 -24.501 -24.999s-32.334 -22.833 -56.001 -34.5s-52 -21.834 -85 -30.501s-70.5 -13 -112.5 -13c-44 0 -79.833 5 -107.5 15
s-49.334 23.167 -65.001 39.5s-26.5 35.166 -32.5 56.499s-9 43.666 -9 66.999c0 14 0.833008 33.667 2.5 59s3.83398 50.666 6.50098 75.999c2.66699 29.333 5.66699 60 9 92l80 -4c-1.33301 -31.333 -3 -61.333 -5 -90c-1.33301 -24.667 -2.83301 -49.5 -4.5 -74.5
s-2.83398 -45.167 -3.50098 -60.5c28 -26 71 -39 129 -39c19.333 0 39.333 1.16699 60 3.5s40.5 5.83301 59.5 10.5s37 10.167 54 16.5s31.5 13.166 43.5 20.499c-5.33301 52 -13.5 103.167 -24.5 153.5s-22.167 93.166 -33.5 128.499l89 56l17 -4
c11.333 -44 20.333 -88.833 27 -134.5s10 -93.834 10 -144.501zM193.002 340.004l54 89l100 -63l-58 -86z" />
    <glyph glyph-name="uni0647" unicode="&#x647;" horiz-adv-x="414" arabic-form="isolated" 
d="M180 0c-40 0 -72.998 8.00195 -98.998 24.002s-39 42.667 -39 80c0 30.667 7.16699 72.667 21.5 126s32.166 113.666 53.499 180.999l19 13c44.667 -13.333 82.167 -28.5 112.5 -45.5s54.666 -35.833 72.999 -56.5s31.333 -43.167 39 -67.5s11.5 -50.5 11.5 -78.5
c0 -26.667 -4 -51.334 -12 -74.001s-16.667 -40.667 -26 -54c-6 -8.66699 -14.5 -16 -25.5 -22s-23.5 -11 -37.5 -15s-28.833 -6.83301 -44.5 -8.5s-31.167 -2.5 -46.5 -2.5zM150.002 293.002c-2.66699 -8 -5.66504 -17.665 -8.99805 -28.998s-6.66602 -23.333 -9.99902 -36
s-6.5 -25.334 -9.5 -38.001s-5.16699 -24 -6.5 -34c5.33301 -6.66699 16.166 -11.5 32.499 -14.5s32.166 -4.5 47.499 -4.5c13.333 0 28.166 0.666992 44.499 2s33.166 4.66602 50.499 9.99902c-1.33301 15.333 -4.66602 29.833 -9.99902 43.5s-13.333 26.334 -24 38.001
s-24.5 22.667 -41.5 33s-38.5 20.166 -64.5 29.499z" />
    <glyph glyph-name="uni0648" unicode="&#x648;" horiz-adv-x="410" arabic-form="isolated" 
d="M31 -159c28 7.33301 55.165 16.6689 81.498 28.002s50.833 24.166 73.5 38.499s43.167 29.833 61.5 46.5s33.5 34 45.5 52c0 2.66699 -0.166992 5.33398 -0.5 8.00098s-0.5 5.66699 -0.5 9c-18.667 -7.33301 -38.834 -13.5 -60.501 -18.5s-46.167 -7.5 -73.5 -7.5
c-16.667 0 -32.167 1.66699 -46.5 5s-26.833 8.83301 -37.5 16.5s-19 17.667 -25 30s-9 27.166 -9 44.499c0 13.333 2.33301 31.333 7 54s10.334 46.334 17.001 71.001s13.834 49 21.501 73s14.5 44 20.5 60l22 16c48.667 -2 88.667 -12.833 120 -32.5s56 -44.5 74 -74.5
s30.5 -63.167 37.5 -99.5s10.5 -71.833 10.5 -106.5c0 -47.333 -7.5 -88.833 -22.5 -124.5s-32.5 -65.334 -52.5 -89.001s-40.167 -41.334 -60.5 -53.001s-36.166 -17.5 -47.499 -17.5c-3.33301 0 -8 0.333008 -14 1s-15 2 -27 4s-27.167 4.66699 -45.5 8s-41.5 8 -69.5 14
v44zM185.998 124.003c15.333 0 30.666 0.831055 45.999 2.49805s29.666 3.83398 42.999 6.50098c-9.33301 32 -24.166 58.833 -44.499 80.5s-49.166 33.834 -86.499 36.501c-2 -5.33301 -4.66699 -13 -8 -23s-6.66602 -20.667 -9.99902 -32l-9.5 -32.5
c-3 -10.333 -4.83301 -18.5 -5.5 -24.5c6 -5.33301 15.167 -9 27.5 -11s28.166 -3 47.499 -3z" />
    <glyph glyph-name="uni0649" unicode="&#x649;" horiz-adv-x="629" arabic-form="isolated" 
d="M529 299l-42.499 26.502c-13 8.33301 -22.167 12.5 -27.5 12.5c-10.667 0 -22.667 -4 -36 -12s-26.5 -18.667 -39.5 -32s-24.833 -28.833 -35.5 -46.5s-18.667 -36.5 -24 -56.5c7.33301 -5.33301 24.333 -9.5 51 -12.5s58.667 -5.83301 96 -8.5c24 -2 43 -5.33301 57 -10
s24.833 -11.5 32.5 -20.5s12.667 -19.833 15 -32.5s3.5 -28 3.5 -46c0 -14 -1 -28.5 -3 -43.5s-4.33301 -29.167 -7 -42.5s-5.5 -25.166 -8.5 -35.499s-5.5 -17.5 -7.5 -21.5c-2.66699 -5.33301 -11 -13.666 -25 -24.999s-33.167 -22.833 -57.5 -34.5
s-54 -21.834 -89 -30.501s-74.833 -13 -119.5 -13c-46 0 -83.333 5 -112 15s-51 23.167 -67 39.5s-26.833 35.166 -32.5 56.499s-8.5 43.666 -8.5 66.999c0 14 0.833008 33.667 2.5 59s3.83398 50.666 6.50098 75.999c2.66699 29.333 5.66699 60 9 92l80 -4
c-1.33301 -31.333 -3 -61.333 -5 -90c-1.33301 -24.667 -2.83301 -49.5 -4.5 -74.5s-2.83398 -45.167 -3.50098 -60.5c13.333 -12.667 30.666 -22.334 51.999 -29.001s49 -10 83 -10c45.333 0 87.833 4.66699 127.5 14s74.5 21.333 104.5 36
c0 7.33301 -0.166992 14.333 -0.5 21s-0.833008 13.334 -1.5 20.001c-10 2 -26 3.83301 -48 5.5s-45.333 3.16699 -70 4.5c-45.333 2.66699 -77.833 11.5 -97.5 26.5s-29.5 39.5 -29.5 73.5c0 38.667 7.5 76.167 22.5 112.5s33.833 68.5 56.5 96.5s46.834 50.5 72.501 67.5
s49.167 25.5 70.5 25.5c6.66699 0 14.667 -2.33301 24 -7s19.166 -10.5 29.499 -17.5s21 -15 32 -24l31.5 -26.5z" />
    <glyph glyph-name="uni064A" unicode="&#x64a;" horiz-adv-x="629" arabic-form="isolated" 
d="M529 299l-42.499 26.502c-13 8.33301 -22.167 12.5 -27.5 12.5c-10.667 0 -22.667 -4 -36 -12s-26.5 -18.667 -39.5 -32s-24.833 -28.833 -35.5 -46.5s-18.667 -36.5 -24 -56.5c7.33301 -5.33301 24.333 -9.5 51 -12.5s58.667 -5.83301 96 -8.5c24 -2 43 -5.33301 57 -10
s24.833 -11.5 32.5 -20.5s12.667 -19.833 15 -32.5s3.5 -28 3.5 -46c0 -14 -1 -28.5 -3 -43.5s-4.33301 -29.167 -7 -42.5s-5.5 -25.166 -8.5 -35.499s-5.5 -17.5 -7.5 -21.5c-2.66699 -5.33301 -11 -13.666 -25 -24.999s-33.167 -22.833 -57.5 -34.5
s-54 -21.834 -89 -30.501s-74.833 -13 -119.5 -13c-46 0 -83.333 5 -112 15s-51 23.167 -67 39.5s-26.833 35.166 -32.5 56.499s-8.5 43.666 -8.5 66.999c0 14 0.833008 33.667 2.5 59s3.83398 50.666 6.50098 75.999c2.66699 29.333 5.66699 60 9 92l80 -4
c-1.33301 -31.333 -3 -61.333 -5 -90c-1.33301 -24.667 -2.83301 -49.5 -4.5 -74.5s-2.83398 -45.167 -3.50098 -60.5c13.333 -12.667 30.666 -22.334 51.999 -29.001s49 -10 83 -10c45.333 0 87.833 4.66699 127.5 14s74.5 21.333 104.5 36
c0 7.33301 -0.166992 14.333 -0.5 21s-0.833008 13.334 -1.5 20.001c-10 2 -26 3.83301 -48 5.5s-45.333 3.16699 -70 4.5c-45.333 2.66699 -77.833 11.5 -97.5 26.5s-29.5 39.5 -29.5 73.5c0 38.667 7.5 76.167 22.5 112.5s33.833 68.5 56.5 96.5s46.834 50.5 72.501 67.5
s49.167 25.5 70.5 25.5c6.66699 0 14.667 -2.33301 24 -7s19.166 -10.5 29.499 -17.5s21 -15 32 -24l31.5 -26.5zM204.001 -249.998l97 -62l42 62l97 -60l-54 -90l-98 62l-42 -62l-96 61z" />
    <glyph glyph-name="uni067E" unicode="&#x67e;" horiz-adv-x="700" arabic-form="isolated" 
d="M314 132c58 0 109.167 1.50293 153.5 4.50293s79.833 9.16699 106.5 18.5c-2 13.333 -5.16699 27.5 -9.5 42.5s-9.16602 30.167 -14.499 45.5s-10.833 30.166 -16.5 44.499s-11.167 27.5 -16.5 39.5l87 62l17 -7c11.333 -30 20.333 -60.167 27 -90.5
s10 -61.166 10 -92.499c0 -20 -2.33301 -39.333 -7 -58s-10.834 -35.834 -18.501 -51.501s-16.167 -29 -25.5 -40s-18.666 -19.167 -27.999 -24.5c-15.333 -8 -45 -15 -89 -21s-102.667 -9 -176 -9c-38 0 -73.5 1.33301 -106.5 4s-61.833 9.16699 -86.5 19.5
s-44 25.666 -58 45.999s-21 48.166 -21 83.499c0 15.333 0.666992 33 2 53s2.66602 38.667 3.99902 56l6 62l80 -4c-2.66699 -39.333 -4.66699 -71 -6 -95s-2.33301 -44 -3 -60c16 -10 40.5 -17.167 73.5 -21.5s71.5 -6.5 115.5 -6.5zM248 -85.9971l97 -62l42 62l97 -60
l-54 -90l-98 62l-42 -62l-96 61zM381 -380.997l-97 61l54 89l101 -64z" />
    <glyph glyph-name="uni0686" unicode="&#x686;" horiz-adv-x="572" arabic-form="isolated" 
d="M513 -174l-31.002 -101c-40 -5.33301 -77.167 -8.33301 -111.5 -9s-61.5 -1 -81.5 -1c-36.667 0 -70 3.5 -100 10.5s-55.667 19 -77 36s-37.833 39.667 -49.5 68s-17.5 63.833 -17.5 106.5v30c0 17.333 3.66699 37.666 11 60.999s21.5 48.833 42.5 76.5
s50.167 56.834 87.5 87.501s86.333 61.667 147 93c-44 14 -80.667 25.167 -110 33.5s-49.666 12.5 -60.999 12.5c-7.33301 0 -14.833 -1 -22.5 -3s-14.167 -5 -19.5 -9v-53c0 -16 0.666992 -33.333 2 -52l-13 -11l-59 31c-1.33301 14.667 -2.16602 27.834 -2.49902 39.501
s-0.5 23.167 -0.5 34.5c0 32 1.16699 54.333 3.5 67s5.16602 20.667 8.49902 24c1.33301 1.33301 5.33301 4.5 12 9.5s15 10.167 25 15.5s21.333 10.166 34 14.499s26 6.5 40 6.5s32.833 -3 56.5 -9s51 -14 82 -24s64.833 -21.5 101.5 -34.5l115 -40.5l5 -19l-39 -84
c-23.333 0 -45.166 -3.33301 -65.499 -10s-42.833 -16 -67.5 -28c-28 -14 -54.667 -29.333 -80 -46s-48.5 -34.167 -69.5 -52.5s-39 -37.166 -54 -56.499s-25.833 -38.333 -32.5 -57v-16c0 -46 14 -79.167 42 -99.5s74.667 -30.5 140 -30.5c25.333 0 53.5 0.166992 84.5 0.5
s69.167 2.16602 114.5 5.49902zM280.998 94l73 -47l32 47l73 -45l-40 -68l-75 46l-31 -46l-72 46zM381.998 -129l-74 46l41 68l76 -49z" />
    <glyph glyph-name="uni0698" unicode="&#x698;" horiz-adv-x="258" arabic-form="isolated" 
d="M-88 -159c28 10 53.998 22.002 77.998 36.002s45.5 29.167 64.5 45.5s35.333 33.166 49 50.499s23.834 34.333 30.501 51c-3.33301 13.333 -7.5 28.333 -12.5 45s-11 34.167 -18 52.5l-22 56l-23.5 55.5l91 58l18 -7c8 -20 15 -40.5 21 -61.5s11.333 -41.667 16 -62
s8.16699 -39.833 10.5 -58.5s3.5 -35.334 3.5 -50.001c0 -46.667 -6.33301 -87.5 -19 -122.5s-27.667 -64.333 -45 -88s-35 -41.5 -53 -53.5s-32 -18 -42 -18c-3.33301 0 -7.66602 0.333008 -12.999 1s-13.333 2 -24 4l-42.5 8c-17.667 3.33301 -40.167 8 -67.5 14v44z
M14.998 500.002l97 -61l42 61l97 -60l-54 -89l-98 62l-42 -62l-96 60zM63.998 645.002l96 -60l-53 -89l-101 64z" />
    <glyph glyph-name="uni06A9" unicode="&#x6a9;" horiz-adv-x="690" arabic-form="isolated" 
d="M314 132c58 0 107.666 1.66992 148.999 5.00293s75 9 101 17c-9.33301 36.667 -33.5 76.667 -72.5 120s-94.5 92.333 -166.5 147l15 76c2.66699 12 5.33398 22 8.00098 30s6.33398 14.5 11.001 19.5s11 9.16699 19 12.5s18.333 6.33301 31 9l285 67l11 -13l-16 -101
l-248 -55c42.667 -32 77 -62 103 -90s46 -53.833 60 -77.5s23.333 -45.334 28 -65.001s7 -37.167 7 -52.5c0 -16 -2.33301 -32.333 -7 -49s-10.5 -32.167 -17.5 -46.5s-14.833 -26.833 -23.5 -37.5s-17.334 -18 -26.001 -22c-19.333 -10 -51.5 -17.667 -96.5 -23
s-96.5 -8 -154.5 -8c-38 0 -73.667 1.33301 -107 4s-62.333 9.16699 -87 19.5s-44 25.666 -58 45.999s-21 48.166 -21 83.499c0 15.333 0.666992 33 2 53s2.66602 38.667 3.99902 56l6 62l80 -4c-2.66699 -39.333 -4.66699 -71 -6 -95s-2 -44 -2 -60
c16 -10 40.333 -17.167 73 -21.5s71.334 -6.5 116.001 -6.5z" />
    <glyph glyph-name="uni06AF" unicode="&#x6af;" horiz-adv-x="693" arabic-form="isolated" 
d="M314 132c58 0 107.832 1.66699 149.499 5s75.167 9 100.5 17c-8.66699 36 -31 73.167 -67 111.5s-85.333 82.5 -148 132.5l14 76c2.66699 12 5.33398 22 8.00098 30s6.33398 14.5 11.001 19.5s11 9 19 12s18.333 6.16699 31 9.5l265 62l11 -14l-16 -100l-228 -51
c36.667 -29.333 66.5 -56.5 89.5 -81.5s40.833 -48.167 53.5 -69.5s21.167 -41.166 25.5 -59.499s6.5 -35.166 6.5 -50.499c0 -16 -2.33301 -32.333 -7 -49s-10.5 -32.167 -17.5 -46.5s-14.833 -26.833 -23.5 -37.5s-17.334 -18 -26.001 -22
c-19.333 -10 -51.5 -17.667 -96.5 -23s-96.5 -8 -154.5 -8c-38 0 -73.667 1.33301 -107 4s-62.333 9.16699 -87 19.5s-44 25.666 -58 45.999s-21 48.166 -21 83.499c0 15.333 0.666992 33 2 53s2.66602 38.667 3.99902 56l6 62l80 -4c-2.66699 -39.333 -4.66699 -71 -6 -95
s-2 -44 -2 -60c16 -10 40.333 -17.167 73 -21.5s71.334 -6.5 116.001 -6.5zM417.999 657l224 53l-12 -73l-220 -52z" />
    <glyph glyph-name="uni06C0" unicode="&#x6c0;" horiz-adv-x="414" arabic-form="isolated" 
d="M180 0c-40 0 -72.998 8.00195 -98.998 24.002s-39 42.667 -39 80c0 30.667 7.16699 72.667 21.5 126s32.166 113.666 53.499 180.999l19 13c44.667 -13.333 82.167 -28.5 112.5 -45.5s54.666 -35.833 72.999 -56.5s31.333 -43.167 39 -67.5s11.5 -50.5 11.5 -78.5
c0 -26.667 -4 -51.334 -12 -74.001s-16.667 -40.667 -26 -54c-6 -8.66699 -14.5 -16 -25.5 -22s-23.5 -11 -37.5 -15s-28.833 -6.83301 -44.5 -8.5s-31.167 -2.5 -46.5 -2.5zM150.002 293.002c-2.66699 -8 -5.66504 -17.665 -8.99805 -28.998s-6.66602 -23.333 -9.99902 -36
s-6.5 -25.334 -9.5 -38.001s-5.16699 -24 -6.5 -34c5.33301 -6.66699 16.166 -11.5 32.499 -14.5s32.166 -4.5 47.499 -4.5c13.333 0 28.166 0.666992 44.499 2s33.166 4.66602 50.499 9.99902c-1.33301 15.333 -4.66602 29.833 -9.99902 43.5s-13.333 26.334 -24 38.001
s-24.5 22.667 -41.5 33s-38.5 20.166 -64.5 29.499zM200.004 475.004c-38 0 -66.999 5.83301 -86.999 17.5s-30 31.5 -30 59.5c0 18.667 3.83301 36.667 11.5 54s17.334 32.666 29.001 45.999s24.167 24 37.5 32s25.666 12 36.999 12c5.33301 0 13.666 -3.66699 24.999 -11
s23.666 -16.333 36.999 -27l-21 -37l-46 22c-5.33301 0 -11.666 -2.33301 -18.999 -7s-15 -11 -23 -19s-15.333 -17.167 -22 -27.5s-11.667 -21.166 -15 -32.499c5.33301 -11.333 14.5 -19.5 27.5 -24.5s34.5 -7.5 64.5 -7.5h138l-15 -50h-129z" />
    <glyph glyph-name="uni06CC" unicode="&#x6cc;" horiz-adv-x="629" arabic-form="isolated" 
d="M529 299l-42.499 26.502c-13 8.33301 -22.167 12.5 -27.5 12.5c-10.667 0 -22.667 -4 -36 -12s-26.5 -18.667 -39.5 -32s-24.833 -28.833 -35.5 -46.5s-18.667 -36.5 -24 -56.5c7.33301 -5.33301 24.333 -9.5 51 -12.5s58.667 -5.83301 96 -8.5c24 -2 43 -5.33301 57 -10
s24.833 -11.5 32.5 -20.5s12.667 -19.833 15 -32.5s3.5 -28 3.5 -46c0 -14 -1 -28.5 -3 -43.5s-4.33301 -29.167 -7 -42.5s-5.5 -25.166 -8.5 -35.499s-5.5 -17.5 -7.5 -21.5c-2.66699 -5.33301 -11 -13.666 -25 -24.999s-33.167 -22.833 -57.5 -34.5
s-54 -21.834 -89 -30.501s-74.833 -13 -119.5 -13c-46 0 -83.333 5 -112 15s-51 23.167 -67 39.5s-26.833 35.166 -32.5 56.499s-8.5 43.666 -8.5 66.999c0 14 0.833008 33.667 2.5 59s3.83398 50.666 6.50098 75.999c2.66699 29.333 5.66699 60 9 92l80 -4
c-1.33301 -31.333 -3 -61.333 -5 -90c-1.33301 -24.667 -2.83301 -49.5 -4.5 -74.5s-2.83398 -45.167 -3.50098 -60.5c13.333 -12.667 30.666 -22.334 51.999 -29.001s49 -10 83 -10c45.333 0 87.833 4.66699 127.5 14s74.5 21.333 104.5 36
c0 7.33301 -0.166992 14.333 -0.5 21s-0.833008 13.334 -1.5 20.001c-10 2 -26 3.83301 -48 5.5s-45.333 3.16699 -70 4.5c-45.333 2.66699 -77.833 11.5 -97.5 26.5s-29.5 39.5 -29.5 73.5c0 38.667 7.5 76.167 22.5 112.5s33.833 68.5 56.5 96.5s46.834 50.5 72.501 67.5
s49.167 25.5 70.5 25.5c6.66699 0 14.667 -2.33301 24 -7s19.166 -10.5 29.499 -17.5s21 -15 32 -24l31.5 -26.5z" />
    <glyph glyph-name="uniFB57" unicode="&#x67e;" horiz-adv-x="741" arabic-form="final" 
d="M741 0c-12 0 -24.498 0.50293 -37.498 1.50293s-25.667 4.16699 -38 9.5s-23.833 13.333 -34.5 24s-20 25.667 -28 45c-14.667 -27.333 -28.334 -44.666 -41.001 -51.999c-14.667 -8.66699 -42.667 -16.334 -84 -23.001s-96 -10 -164 -10c-38 0 -73.5 1.33301 -106.5 4
s-61.833 9.16699 -86.5 19.5s-44 25.666 -58 45.999s-21 48.166 -21 83.499c0 15.333 0.666992 33 2 53s2.66602 38.667 3.99902 56l6 62l80 -4c-2.66699 -39.333 -4.66699 -71 -6 -95s-2.33301 -44 -3 -60c16 -10 40.5 -17.167 73.5 -21.5s71.5 -6.5 115.5 -6.5
c47.333 0 92 1.66699 134 5s74.667 8.66602 98 15.999l30 144h89c-0.666992 -17.333 -1.16699 -31.5 -1.5 -42.5s-0.5 -19.833 -0.5 -26.5v-15.5v-8.5c0 -22.667 7.5 -39.5 22.5 -50.5s33.5 -16.5 55.5 -16.5v-137zM248.002 -85.9971l97 -62l42 62l97 -60l-54 -90l-98 62
l-42 -62l-96 61zM381.002 -380.997l-97 61l54 89l101 -64z" />
    <glyph glyph-name="uniFB58" unicode="&#x67e;" horiz-adv-x="304" arabic-form="initial" 
d="M0 0c-10.667 0 -17.8359 6.66211 -21.5029 19.9951s-5.5 29.333 -5.5 48c0 19.333 1.83301 35.666 5.5 48.999s10.834 20 21.501 20c42.667 0 78.334 1 107.001 3s51.667 6.33301 69 13c-2 12 -5 25.667 -9 41s-8.66699 30.833 -14 46.5s-11 31 -17 46
s-11.667 28.5 -17 40.5l87 62l18 -7c11.333 -28 20.5 -58.667 27.5 -92s10.5 -65.666 10.5 -96.999c0 -19.333 -2.16699 -38.166 -6.5 -56.499s-10.166 -35.166 -17.499 -50.499s-15.5 -28.666 -24.5 -39.999s-18.167 -19.666 -27.5 -24.999
c-12.667 -7.33301 -35 -12.666 -67 -15.999s-71.667 -5 -119 -5zM-19.002 -83.0049l97 -62l42 62l97 -60l-54 -90l-98 62l-42 -62l-96 61zM113.998 -378.005l-97 61l54 89l101 -64z" />
    <glyph glyph-name="uniFB59" unicode="&#x67e;" horiz-adv-x="339" arabic-form="medial" 
d="M339 0c-13.333 0 -26.834 0.666016 -40.501 1.99902s-26.667 4.83301 -39 10.5s-23.833 14.334 -34.5 26.001s-20 27.834 -28 48.501c-10.667 -23.333 -19.167 -39.333 -25.5 -48s-13.833 -15 -22.5 -19c-29.333 -13.333 -79 -20 -149 -20
c-10.667 0 -17.834 6.66699 -21.501 20s-5.5 29.333 -5.5 48c0 19.333 1.83301 35.666 5.5 48.999s10.834 20 21.501 20c30 0 57.333 1 82 3s45.334 6 62.001 12l29 145h89c-0.666992 -17.333 -1.16699 -31.5 -1.5 -42.5s-0.5 -19.833 -0.5 -26.5v-15.5v-8.5
c0 -22.667 7.33301 -39.5 22 -50.5s33.667 -16.5 57 -16.5v-137zM45.999 -83.001l97 -62l42 62l97 -60l-54 -90l-98 62l-42 -62l-96 61zM178.999 -378.001l-97 61l54 89l101 -64z" />
    <glyph glyph-name="uniFB7B" unicode="&#x686;" horiz-adv-x="576" arabic-form="final" 
d="M513 -174l-31.0039 -100.999c-40 -5.33301 -77.167 -8.33301 -111.5 -9s-61.5 -1 -81.5 -1c-36.667 0 -70 3.5 -100 10.5s-55.667 19 -77 36s-37.833 39.667 -49.5 68s-17.5 63.833 -17.5 106.5v30c0 17.333 3.66699 37.666 11 60.999s21.5 48.833 42.5 76.5
s50.167 56.834 87.5 87.501s86.333 61.667 147 93c-44 14 -80.667 25.167 -110 33.5s-49.666 12.5 -60.999 12.5c-7.33301 0 -14.833 -1 -22.5 -3s-14.167 -5 -19.5 -9v-53c0 -16 0.666992 -33.333 2 -52l-13 -11l-59 31c-1.33301 14.667 -2.16602 27.834 -2.49902 39.501
s-0.5 23.167 -0.5 34.5c0 32 1.16699 54.333 3.5 67s5.16602 20.667 8.49902 24c1.33301 1.33301 5.33301 4.5 12 9.5s15 10.167 25 15.5s21.333 10.166 34 14.499s26 6.5 40 6.5s32.833 -3 56.5 -9s51 -14 82 -24s64.833 -21.5 101.5 -34.5l115 -40.5l5 -19l-39 -84
c-15.333 0 -29.666 -1.33301 -42.999 -4s-26.666 -6.66699 -39.999 -12c4 -31.333 14.167 -52.5 30.5 -63.5s43.5 -16.5 81.5 -16.5h56v-137h-57c-17.333 0 -35.5 2 -54.5 6s-36.667 12.667 -53 26s-30.166 32.5 -41.499 57.5s-18 58.833 -20 101.5
c-27.333 -14 -53.333 -29.333 -78 -46s-47 -34 -67 -52s-37.167 -36.333 -51.5 -55s-24.833 -37 -31.5 -55v-16c0 -46 14 -79.167 42 -99.5s74.667 -30.5 140 -30.5c25.333 0 53.5 0.166992 84.5 0.5s69.167 2.16602 114.5 5.49902zM214.996 59.001l70 -45l31 45l69 -43
l-38 -65l-72 45l-29 -45l-69 44zM310.996 -152.999l-70 44l39 64l73 -46z" />
    <glyph glyph-name="uniFB7C" unicode="&#x686;" horiz-adv-x="587" arabic-form="initial" 
d="M0 0c-10.667 0 -17.835 6.66406 -21.502 19.9971s-5.5 29.333 -5.5 48c0 19.333 1.83301 35.666 5.5 48.999s10.834 20 21.501 20h67c26 0 48.667 0.333008 68 1s36 1.83398 50 3.50098s25.833 4 35.5 7s18.167 6.5 25.5 10.5c21.333 13.333 41.5 27.333 60.5 42
s42.167 31.667 69.5 51l-64.5 21c-21 6.66699 -40.167 12.5 -57.5 17.5s-32.333 8.83301 -45 11.5s-22 4 -28 4c-7.33301 0 -15 -1.16699 -23 -3.5s-15 -5.16602 -21 -8.49902v-40c0 -11.333 0.333008 -23.666 1 -36.999l-58 -32l-13 10
c-1.33301 19.333 -2.16602 34.5 -2.49902 45.5s-0.5 22.833 -0.5 35.5c0 18 0.333008 33 1 45s1.5 21.667 2.5 29s2.33301 12.833 4 16.5s3.16699 6.16699 4.5 7.5s5.16602 4.5 11.499 9.5s14.333 10.167 24 15.5s20.834 10.166 33.501 14.499s26 6.5 40 6.5
c13.333 0 31.833 -2.66699 55.5 -8s51 -12.833 82 -22.5l103.5 -33.5l121 -41l4 -18l-46 -84c-13.333 -1.33301 -24.5 -2.66602 -33.5 -3.99902s-18.833 -5 -29.5 -11s-23 -15.333 -37 -28s-32.333 -30.334 -55 -53.001c-25.333 -25.333 -48 -45.666 -68 -60.999
s-40.167 -27.166 -60.5 -35.499s-42 -13.833 -65 -16.5s-50.167 -4 -81.5 -4h-75zM158.999 -83.0029l97 -62l42 62l97 -60l-54 -90l-98 62l-42 -62l-96 61zM291.999 -378.003l-97 61l54 89l101 -64z" />
    <glyph glyph-name="uniFB7D" unicode="&#x686;" horiz-adv-x="590" arabic-form="medial" 
d="M0 0c-10.667 0 -17.8369 6.66309 -21.5039 19.9961s-5.5 29.333 -5.5 48c0 19.333 1.83301 35.666 5.5 48.999s10.834 20 21.501 20h67c26 0 48.667 0.333008 68 1s36 1.83398 50 3.50098s25.833 4 35.5 7s18.167 6.5 25.5 10.5c21.333 13.333 41.5 27.333 60.5 42
s42.167 31.667 69.5 51l-64.5 21c-21 6.66699 -40.167 12.5 -57.5 17.5s-32.333 8.83301 -45 11.5s-22 4 -28 4c-7.33301 0 -15 -1.16699 -23 -3.5s-15 -5.16602 -21 -8.49902v-40c0 -11.333 0.333008 -23.666 1 -36.999l-58 -32l-13 10
c-1.33301 19.333 -2.16602 34.5 -2.49902 45.5s-0.5 22.833 -0.5 35.5c0 18 0.333008 33 1 45s1.5 21.667 2.5 29s2.33301 12.833 4 16.5s3.16699 6.16699 4.5 7.5s5.16602 4.5 11.499 9.5s14.333 10.167 24 15.5s20.834 10.166 33.501 14.499s26 6.5 40 6.5
c13.333 0 31.833 -2.66699 55.5 -8s51 -12.833 82 -22.5l103.5 -33.5l121 -41l4 -18l-46 -84c-9.33301 -0.666992 -17.5 -1.5 -24.5 -2.5s-14 -2.66699 -21 -5s-14.167 -5.83301 -21.5 -10.5s-16 -11 -26 -19c6.66699 -13.333 17.334 -23.166 32.001 -29.499
s38 -9.5 70 -9.5h76v-137h-77c-13.333 0 -27.666 1.33301 -42.999 4s-30 8.5 -44 17.5s-27 21.833 -39 38.5s-21 39 -27 67l-10 -10c-25.333 -25.333 -48 -45.666 -68 -60.999s-40.167 -27.166 -60.5 -35.499s-42 -13.833 -65 -16.5s-50.167 -4 -81.5 -4h-75z
M158.997 -83.0039l97 -62l42 62l97 -60l-54 -90l-98 62l-42 -62l-96 61zM291.997 -378.004l-97 61l54 89l101 -64z" />
    <glyph glyph-name="uniFB8B" unicode="&#x698;" horiz-adv-x="284" arabic-form="final" 
d="M284 0c-29.333 0 -52.0039 4 -68.0039 12c-4 -40 -12.5 -75 -25.5 -105s-27.667 -55.167 -44 -75.5s-32.666 -35.666 -48.999 -45.999s-29.166 -15.5 -38.499 -15.5c-3.33301 0 -7.66602 0.333008 -12.999 1s-13.333 2 -24 4l-42.5 8c-17.667 3.33301 -40.167 8 -67.5 14
v44c28 10 54 22 78 36s45.5 29.167 64.5 45.5s35.333 33.166 49 50.499s23.834 34.333 30.501 51c-3.33301 13.333 -7.5 28.333 -12.5 45s-11 34.167 -18 52.5l-22 56l-23.5 55.5l91 58l18 -7c9.33301 -29.333 16.166 -53.5 20.499 -72.5s9.83301 -34 16.5 -45
s15.834 -18.667 27.501 -23s29.167 -6.5 52.5 -6.5v-137zM14.9961 500l97 -61l42 61l97 -60l-54 -89l-98 62l-42 -62l-96 60zM63.9961 645l96 -60l-53 -89l-101 64z" />
    <glyph glyph-name="uniFB8F" unicode="&#x6a9;" horiz-adv-x="771" arabic-form="final" 
d="M753 0c-28 0 -53.1709 4.83496 -75.5039 14.502s-43.166 30.167 -62.499 61.5c-6.66699 -11.333 -13.667 -21.333 -21 -30s-14.666 -14.667 -21.999 -18c-20.667 -11.333 -53.667 -19.666 -99 -24.999s-98.333 -8 -159 -8c-38 0 -73.667 1.33301 -107 4
s-62.333 9.16699 -87 19.5s-44 25.666 -58 45.999s-21 48.166 -21 83.499c0 15.333 0.666992 33 2 53s2.66602 38.667 3.99902 56l6 62l80 -4c-2.66699 -39.333 -4.66699 -71 -6 -95s-2 -44 -2 -60c16 -10 40.333 -17.167 73 -21.5s71.334 -6.5 116.001 -6.5
c62.667 0 115 2 157 6s76.333 10.667 103 20c-10.667 21.333 -23.167 42.166 -37.5 62.499s-31.333 41 -51 62s-42.667 42.833 -69 65.5s-56.833 47 -91.5 73l15 76c2.66699 12 5.33398 22 8.00098 30s6.33398 14.5 11.001 19.5s11 9.16699 19 12.5s18.333 6.33301 31 9
l285 67l11 -13l-16 -101l-248 -55c33.333 -25.333 62 -49.833 86 -73.5s45.5 -47.667 64.5 -72s36.167 -50 51.5 -77s31.333 -56.833 48 -89.5c11.333 -11.333 38 -17 80 -17v-137h-18z" />
    <glyph glyph-name="uniFB90" unicode="&#x6a9;" horiz-adv-x="395" arabic-form="initial" 
d="M0 0c-10.667 0 -17.8369 6.66797 -21.5039 20.001s-5.5 29.333 -5.5 48c0 19.333 1.83301 35.666 5.5 48.999s10.834 20 21.501 20h76c41.333 0 78.333 1.33301 111 4s60 7.33398 82 14.001c-9.33301 36 -33.666 75.667 -72.999 119s-94.666 92.333 -165.999 147l15 76
c2.66699 12 5.33398 22 8.00098 30s6.33398 14.5 11.001 19.5s11 9.16699 19 12.5s18.333 6.33301 31 9l285 67l11 -13l-16 -101l-248 -55c42.667 -32 77 -62 103 -90s46 -53.833 60 -77.5s23.333 -45.334 28 -65.001s7 -37.167 7 -52.5c0 -16 -2.33301 -32.333 -7 -49
s-10.5 -32.167 -17.5 -46.5s-14.833 -26.833 -23.5 -37.5s-17.334 -18 -26.001 -22c-17.333 -8.66699 -44 -15.167 -80 -19.5s-79.667 -6.5 -131 -6.5h-59z" />
    <glyph glyph-name="uniFB91" unicode="&#x6a9;" horiz-adv-x="476" arabic-form="medial" 
d="M458 0c-28 0 -53.1709 4.83594 -75.5039 14.5029s-43.166 30.167 -62.499 61.5c-6.66699 -11.333 -13.667 -21.333 -21 -30s-14.666 -14.667 -21.999 -18c-18 -9.33301 -45.333 -16.333 -82 -21s-82 -7 -136 -7h-59c-10.667 0 -17.834 6.66699 -21.501 20
s-5.5 29.333 -5.5 48c0 19.333 1.83301 35.666 5.5 48.999s10.834 20 21.501 20h76c46 0 85.667 1.66699 119 5s61.333 8.66602 84 15.999c-10.667 21.333 -23.167 42.166 -37.5 62.499s-31.333 41 -51 62s-42.667 42.833 -69 65.5s-56.833 47 -91.5 73l15 76
c2.66699 12 5.33398 22 8.00098 30s6.33398 14.5 11.001 19.5s11 9.16699 19 12.5s18.333 6.33301 31 9l285 67l11 -13l-16 -101l-248 -55c33.333 -25.333 62 -49.833 86 -73.5s45.5 -47.667 64.5 -72s36.167 -50 51.5 -77s31.333 -56.833 48 -89.5
c11.333 -11.333 38 -17 80 -17v-137h-18z" />
    <glyph glyph-name="uniFB93" unicode="&#x6af;" horiz-adv-x="774" arabic-form="final" 
d="M757 0c-29.333 0 -55.0029 5.00195 -77.0029 15.002s-43 31.333 -63 64c-6.66699 -12.667 -14 -23.5 -22 -32.5s-15.667 -15.167 -23 -18.5c-20.667 -11.333 -53.667 -19.666 -99 -24.999s-98.333 -8 -159 -8c-38 0 -73.667 1.33301 -107 4s-62.333 9.16699 -87 19.5
s-44 25.666 -58 45.999s-21 48.166 -21 83.499c0 15.333 0.666992 33 2 53s2.66602 38.667 3.99902 56l6 62l80 -4c-2.66699 -39.333 -4.66699 -71 -6 -95s-2 -44 -2 -60c16 -10 40.333 -17.167 73 -21.5s71.334 -6.5 116.001 -6.5c64.667 0 118.167 2.16699 160.5 6.5
s76.5 11.166 102.5 20.499c-11.333 20.667 -24.166 40.5 -38.499 59.5s-30.833 38 -49.5 57s-39.5 38.5 -62.5 58.5s-48.833 41.333 -77.5 64l14 76c2.66699 12 5.33398 22 8.00098 30s6.33398 14.5 11.001 19.5s11 9 19 12s18.333 6.16699 31 9.5l265 62l11 -14l-16 -100
l-228 -51c29.333 -23.333 54.833 -45.5 76.5 -66.5s41.167 -42.5 58.5 -64.5s33.5 -45.5 48.5 -70.5s30.833 -53.833 47.5 -86.5c10.667 -11.333 37 -17 79 -17v-137h-17zM417.997 657.002l224 53l-12 -73l-220 -52z" />
    <glyph glyph-name="uniFB94" unicode="&#x6af;" horiz-adv-x="395" arabic-form="initial" 
d="M0 0c-10.667 0 -17.834 6.66602 -21.501 19.999s-5.5 29.333 -5.5 48c0 19.333 1.83301 35.666 5.5 48.999s10.834 20 21.501 20h73c41.333 0 78.333 1.5 111 4.5s60 7.5 82 13.5c-9.33301 35.333 -31.833 72.333 -67.5 111s-84.834 82.667 -147.501 132l14 76
c2.66699 12 5.33398 22 8.00098 30s6.33398 14.5 11.001 19.5s11 9 19 12s18.333 6.16699 31 9.5l265 62l11 -14l-16 -100l-228 -51c36.667 -29.333 66.5 -56.5 89.5 -81.5s40.833 -48.167 53.5 -69.5s21.167 -41.166 25.5 -59.499s6.5 -35.166 6.5 -50.499
c0 -16 -2.33301 -32.333 -7 -49s-10.5 -32.167 -17.5 -46.5s-14.833 -26.833 -23.5 -37.5s-17.334 -18 -26.001 -22c-17.333 -8.66699 -44 -15.167 -80 -19.5s-79.667 -6.5 -131 -6.5h-56zM120 656.999l224 53l-12 -73l-220 -52z" />
    <glyph glyph-name="uniFB95" unicode="&#x6af;" horiz-adv-x="476" arabic-form="medial" 
d="M459 0c-29.333 0 -55.0029 5.00098 -77.0029 15.001s-43 31.333 -63 64c-6.66699 -12.667 -14 -23.5 -22 -32.5s-15.667 -15.167 -23 -18.5c-18 -9.33301 -45.333 -16.333 -82 -21s-82 -7 -136 -7h-56c-10.667 0 -17.834 6.66699 -21.501 20s-5.5 29.333 -5.5 48
c0 19.333 1.83301 35.666 5.5 48.999s10.834 20 21.501 20h73c47.333 0 88 1.66699 122 5s62 9 84 17c-11.333 20.667 -24.166 40.667 -38.499 60s-30.833 38.5 -49.5 57.5s-39.5 38.333 -62.5 58l-77.5 63.5l14 76c2.66699 12 5.33398 22 8.00098 30
s6.33398 14.5 11.001 19.5s11 9 19 12s18.333 6.16699 31 9.5l265 62l11 -14l-16 -100l-228 -51c29.333 -23.333 54.833 -45.5 76.5 -66.5s41.167 -42.5 58.5 -64.5s33.5 -45.5 48.5 -70.5s30.833 -53.833 47.5 -86.5c10.667 -11.333 37 -17 79 -17v-137h-17z
M119.997 657.001l224 53l-12 -73l-220 -52z" />
    <glyph glyph-name="uniFBA5" unicode="&#x6c0;" horiz-adv-x="445" arabic-form="final" 
d="M165 25c-25.333 0 -45.9971 2.99805 -61.9971 8.99805s-28.5 14.833 -37.5 26.5s-15.167 26.334 -18.5 44.001s-5 38.5 -5 62.5c0 20.667 1.66699 40.834 5 60.501s7.66602 35.5 12.999 47.5c6 6 14.5 13.333 25.5 22s23.833 18 38.5 28l48 32l54 34l-12 73l76 39l16 -10
l47 -331c5.33301 -6.66699 15.333 -12.5 30 -17.5s35.334 -7.5 62.001 -7.5v-137c-19.333 0 -37.333 1 -54 3s-31.834 6.16699 -45.501 12.5s-25.834 15.166 -36.501 26.499s-19.667 26 -27 44c-3.33301 -10 -6.33301 -18 -9 -24s-4.33398 -9.66699 -5.00098 -11
c-2.66699 -5.33301 -7.66699 -9.66602 -15 -12.999s-15.833 -6 -25.5 -8s-20 -3.33301 -31 -4s-21.5 -1 -31.5 -1zM255.003 537.998c-38 0 -66.999 5.83301 -86.999 17.5s-30 31.5 -30 59.5c0 18.667 3.83301 36.667 11.5 54s17.334 32.666 29.001 45.999s24.167 24 37.5 32
s25.666 12 36.999 12c5.33301 0 13.666 -3.66699 24.999 -11s23.666 -16.333 36.999 -27l-21 -37l-46 22c-5.33301 0 -11.666 -2.33301 -18.999 -7s-15 -11 -23 -19s-15.333 -17.167 -22 -27.5s-11.667 -21.166 -15 -32.499c5.33301 -11.333 14.5 -19.5 27.5 -24.5
s34.5 -7.5 64.5 -7.5h138l-15 -50h-129zM163.004 151.998c13.333 0 28.832 0.332031 46.499 0.999023s36.167 2.66699 55.5 6l-24 141l-42 -25.5c-14.667 -9 -28.167 -17.667 -40.5 -26s-23.333 -16.166 -33 -23.499s-16.167 -13 -19.5 -17c0 -11.333 0.5 -20.5 1.5 -27.5
s3.5 -12.667 7.5 -17s9.83301 -7.33301 17.5 -9s17.834 -2.5 30.501 -2.5z" />
    <glyph glyph-name="uniFBAF" unicode="&#x6d2;" horiz-adv-x="358" arabic-form="final" 
d="M254 0c-11.333 0 -23.6709 -1.33203 -37.0039 -3.99902s-26.5 -7.16699 -39.5 -13.5s-25.167 -14.833 -36.5 -25.5s-20.666 -24 -27.999 -40c9.33301 -12.667 25 -22.834 47 -30.501s57 -11.5 105 -11.5s100.333 0.333008 157 1s110 2.66699 160 6l9 -18l-40 -105
c-21.333 -1.33301 -45.666 -2.5 -72.999 -3.5s-55 -1.83301 -83 -2.5s-54.333 -1.16699 -79 -1.5s-45 -0.5 -61 -0.5c-35.333 0 -66.166 2.33301 -92.499 7s-48.5 12.5 -66.5 23.5s-31.5 25.833 -40.5 44.5s-13.5 41.667 -13.5 69c0 36 6.83301 68.833 20.5 98.5
s31.167 55.167 52.5 76.5s44.833 37.833 70.5 49.5s50.834 17.5 75.501 17.5h97v-137h-104z" />
    <glyph glyph-name="uniFBE8" unicode="&#x649;" horiz-adv-x="304" arabic-form="initial" 
d="M0 0c-10.667 0 -17.8359 6.66211 -21.5029 19.9951s-5.5 29.333 -5.5 48c0 19.333 1.83301 35.666 5.5 48.999s10.834 20 21.501 20c42.667 0 78.334 1 107.001 3s51.667 6.33301 69 13c-2 12 -5 25.667 -9 41s-8.66699 30.833 -14 46.5s-11 31 -17 46
s-11.667 28.5 -17 40.5l87 62l18 -7c11.333 -28 20.5 -58.667 27.5 -92s10.5 -65.666 10.5 -96.999c0 -19.333 -2.16699 -38.166 -6.5 -56.499s-10.166 -35.166 -17.499 -50.499s-15.5 -28.666 -24.5 -39.999s-18.167 -19.666 -27.5 -24.999
c-12.667 -7.33301 -35 -12.666 -67 -15.999s-71.667 -5 -119 -5z" />
    <glyph glyph-name="uniFBE9" unicode="&#x649;" horiz-adv-x="339" arabic-form="medial" 
d="M339 0c-13.333 0 -26.834 0.666016 -40.501 1.99902s-26.667 4.83301 -39 10.5s-23.833 14.334 -34.5 26.001s-20 27.834 -28 48.501c-10.667 -23.333 -19.167 -39.333 -25.5 -48s-13.833 -15 -22.5 -19c-29.333 -13.333 -79 -20 -149 -20
c-10.667 0 -17.834 6.66699 -21.501 20s-5.5 29.333 -5.5 48c0 19.333 1.83301 35.666 5.5 48.999s10.834 20 21.501 20c30 0 57.333 1 82 3s45.334 6 62.001 12l29 145h89c-0.666992 -17.333 -1.16699 -31.5 -1.5 -42.5s-0.5 -19.833 -0.5 -26.5v-15.5v-8.5
c0 -22.667 7.33301 -39.5 22 -50.5s33.667 -16.5 57 -16.5v-137v0z" />
    <glyph glyph-name="uniFBFD" unicode="&#x6cc;" horiz-adv-x="585" arabic-form="final" 
d="M552 0c0.666992 -3.33301 1.16992 -7.16016 1.50293 -11.4932s0.5 -8.83301 0.5 -13.5c0 -11.333 -0.666992 -22.5 -2 -33.5s-3 -21.333 -5 -31s-4.16699 -18.167 -6.5 -25.5s-4.5 -12.666 -6.5 -15.999c-4 -5.33301 -13.167 -13.833 -27.5 -25.5
s-33.5 -23.334 -57.5 -35.001s-52.333 -21.834 -85 -30.501s-69 -13 -109 -13c-44 0 -79.833 5 -107.5 15s-49.334 23.167 -65.001 39.5s-26.334 35.166 -32.001 56.499s-8.5 43.666 -8.5 66.999c0 14 0.833008 33.667 2.5 59s3.83398 50.666 6.50098 75.999
c2.66699 29.333 5.66699 60 9 92l80 -4c-1.33301 -31.333 -3 -61.333 -5 -90c-1.33301 -24.667 -2.83301 -49.5 -4.5 -74.5s-2.83398 -45.167 -3.50098 -60.5c13.333 -12.667 29.666 -22.334 48.999 -29.001s45.666 -10 78.999 -10c18.667 0 38.167 1.16699 58.5 3.5
s40.166 5.66602 59.499 9.99902s37.666 9.5 54.999 15.5s32.333 12.667 45 20c0.666992 6.66699 1 14 1 22s-0.333008 14.667 -1 20c-15.333 7.33301 -40.166 11.666 -74.499 12.999l-133.5 5l-5 12l15.5 51.5c5 16.333 9.5 27.5 13.5 33.5
c2.66699 5.33301 6 9.83301 10 13.5s9.83301 6.66699 17.5 9s17.834 4 30.501 5s29.334 1.5 50.001 1.5h188v-137h-33z" />
    <glyph glyph-name="uniFBFE" unicode="&#x6cc;" horiz-adv-x="304" arabic-form="initial" 
d="M0 0c-10.667 0 -17.8359 6.66211 -21.5029 19.9951s-5.5 29.333 -5.5 48c0 19.333 1.83301 35.666 5.5 48.999s10.834 20 21.501 20c42.667 0 78.334 1 107.001 3s51.667 6.33301 69 13c-2 12 -5 25.667 -9 41s-8.66699 30.833 -14 46.5s-11 31 -17 46
s-11.667 28.5 -17 40.5l87 62l18 -7c11.333 -28 20.5 -58.667 27.5 -92s10.5 -65.666 10.5 -96.999c0 -19.333 -2.16699 -38.166 -6.5 -56.499s-10.166 -35.166 -17.499 -50.499s-15.5 -28.666 -24.5 -39.999s-18.167 -19.666 -27.5 -24.999
c-12.667 -7.33301 -35 -12.666 -67 -15.999s-71.667 -5 -119 -5zM-19.002 -83.0049l97 -62l42 62l97 -60l-54 -90l-98 62l-42 -62l-96 61z" />
    <glyph glyph-name="uniFBFF" unicode="&#x6cc;" horiz-adv-x="339" arabic-form="medial" 
d="M339 0c-13.333 0 -26.834 0.666016 -40.501 1.99902s-26.667 4.83301 -39 10.5s-23.833 14.334 -34.5 26.001s-20 27.834 -28 48.501c-10.667 -23.333 -19.167 -39.333 -25.5 -48s-13.833 -15 -22.5 -19c-29.333 -13.333 -79 -20 -149 -20
c-10.667 0 -17.834 6.66699 -21.501 20s-5.5 29.333 -5.5 48c0 19.333 1.83301 35.666 5.5 48.999s10.834 20 21.501 20c30 0 57.333 1 82 3s45.334 6 62.001 12l29 145h89c-0.666992 -17.333 -1.16699 -31.5 -1.5 -42.5s-0.5 -19.833 -0.5 -26.5v-15.5v-8.5
c0 -22.667 7.33301 -39.5 22 -50.5s33.667 -16.5 57 -16.5v-137zM45.999 -83.001l97 -62l42 62l97 -60l-54 -90l-98 62l-42 -62l-96 61z" />
    <glyph glyph-name="uniFC5E" unicode="&#xfc5e;" arabic-form="isolated" 
d="M95 0c-31.333 0 -54.334 3.5 -69.001 10.5s-25.667 18.5 -33 34.5c-10 -18 -20.833 -30 -32.5 -36s-27.5 -9 -47.5 -9c-23.333 0 -40.333 6.5 -51 19.5s-16 28.167 -16 45.5c0 12.667 1.33301 29.667 4 51s5.66699 44 9 68l46 -5l-8 -106
c2 -1.33301 4.33301 -2.66602 7 -3.99902c4.66699 -2 11.334 -3 20.001 -3c17.333 0 29.666 3.66699 36.999 11s11.666 19 12.999 35l5 41h44v-42c0 -15.333 5.16699 -26.5 15.5 -33.5s30.5 -10.833 60.5 -11.5c0.666992 15.333 -0.166016 32.166 -2.49902 50.499
s-7.16602 38.166 -14.499 59.499l45 32l11 -4c5.33301 -19.333 9 -36.166 11 -50.499s3 -27.833 3 -40.5c0 -18 -2.5 -36 -7.5 -54s-13.833 -37.667 -26.5 -59h-23zM-69.001 356c0 -19.333 -4.33203 -42.335 -12.999 -69.002l99 48c-15.333 10 -29.166 22.333 -41.499 37
s-18.5 29.667 -18.5 45c0 6.66699 1.16699 13.334 3.5 20.001s7.66602 14.834 15.999 24.501s20.666 22 36.999 37l66.5 58.5c26 -16.667 46 -36 60 -58s21 -44 21 -66c0 -10.667 -1.66699 -22.167 -5 -34.5s-9.16602 -24.833 -17.499 -37.5s-19.5 -25.167 -33.5 -37.5
s-32 -23.833 -54 -34.5l-150 -72l-36 27c7.33301 17.333 13.166 35 17.499 53s6.5 31.333 6.5 40c0 6 -4.5 14.667 -13.5 26s-24.167 25.333 -45.5 42l29 58c15.333 -11.333 27.833 -21.833 37.5 -31.5s17 -19 22 -28s8.33301 -17.333 10 -25s2.5 -15.167 2.5 -22.5z
M5 435.998c3.33301 -11.333 11.167 -22.999 23.5 -34.999s27.833 -23.667 46.5 -35c11.333 9.33301 19.333 18.666 24 27.999s7 18.333 7 27c0 13.333 -3.5 25.5 -10.5 36.5s-17.167 21.5 -30.5 31.5z" />
    <glyph glyph-name="uniFC5F" unicode="&#xfc5f;" arabic-form="isolated" 
d="M115 143l9 -58l-240 -95l-8 58zM115 257l9 -58l-240 -96l-8 58zM95 290c-31.333 0 -54.334 3.5 -69.001 10.5s-25.667 18.5 -33 34.5c-10 -18 -20.833 -30 -32.5 -36s-27.5 -9 -47.5 -9c-23.333 0 -40.333 6.5 -51 19.5s-16 28.167 -16 45.5
c0 12.667 1.33301 29.667 4 51s5.66699 44 9 68l46 -5l-8 -106c2 -1.33301 4.33301 -2.66602 7 -3.99902c4.66699 -2 11.334 -3 20.001 -3c17.333 0 29.666 3.66699 36.999 11s11.666 19 12.999 35l5 41h44v-42c0 -15.333 5.16699 -26.5 15.5 -33.5s30.5 -10.833 60.5 -11.5
c0.666992 15.333 -0.166016 32.166 -2.49902 50.499s-7.16602 38.166 -14.499 59.499l45 32l11 -4c5.33301 -19.333 9 -36.166 11 -50.499s3 -27.833 3 -40.5c0 -18 -2.5 -36 -7.5 -54s-13.833 -37.667 -26.5 -59h-23z" />
    <glyph glyph-name="uniFC60" unicode="&#xfc60;" arabic-form="isolated" 
d="M95 0c-31.333 0 -54.334 3.5 -69.001 10.5s-25.667 18.5 -33 34.5c-10 -18 -20.833 -30 -32.5 -36s-27.5 -9 -47.5 -9c-23.333 0 -40.333 6.5 -51 19.5s-16 28.167 -16 45.5c0 12.667 1.33301 29.667 4 51s5.66699 44 9 68l46 -5l-8 -106
c2 -1.33301 4.33301 -2.66602 7 -3.99902c4.66699 -2 11.334 -3 20.001 -3c17.333 0 29.666 3.66699 36.999 11s11.666 19 12.999 35l5 41h44v-42c0 -15.333 5.16699 -26.5 15.5 -33.5s30.5 -10.833 60.5 -11.5c0.666992 15.333 -0.166016 32.166 -2.49902 50.499
s-7.16602 38.166 -14.499 59.499l45 32l11 -4c5.33301 -19.333 9 -36.166 11 -50.499s3 -27.833 3 -40.5c0 -18 -2.5 -36 -7.5 -54s-13.833 -37.667 -26.5 -59h-23zM114.999 393l9 -58l-240 -95l-8 58z" />
    <glyph glyph-name="uniFC61" unicode="&#xfc61;" arabic-form="isolated" 
d="M95 0c-31.333 0 -54.334 3.5 -69.001 10.5s-25.667 18.5 -33 34.5c-10 -18 -20.833 -30 -32.5 -36s-27.5 -9 -47.5 -9c-23.333 0 -40.333 6.5 -51 19.5s-16 28.167 -16 45.5c0 12.667 1.33301 29.667 4 51s5.66699 44 9 68l46 -5l-8 -106
c2 -1.33301 4.33301 -2.66602 7 -3.99902c4.66699 -2 11.334 -3 20.001 -3c17.333 0 29.666 3.66699 36.999 11s11.666 19 12.999 35l5 41h44v-42c0 -15.333 5.16699 -26.5 15.5 -33.5s30.5 -10.833 60.5 -11.5c0.666992 15.333 -0.166016 32.166 -2.49902 50.499
s-7.16602 38.166 -14.499 59.499l45 32l11 -4c5.33301 -19.333 9 -36.166 11 -50.499s3 -27.833 3 -40.5c0 -18 -2.5 -36 -7.5 -54s-13.833 -37.667 -26.5 -59h-23zM-131.001 288l115.998 54.998c-16 10 -30.167 22.333 -42.5 37s-18.5 29.667 -18.5 45
c0 6.66699 1.16699 13.334 3.5 20.001s7.5 14.834 15.5 24.501s20.167 22 36.5 37l66.5 58.5c26.667 -16.667 46.834 -36 60.501 -58s20.5 -44 20.5 -66c0 -10.667 -1.66699 -22.167 -5 -34.5s-9.16602 -24.833 -17.499 -37.5s-19.5 -25.167 -33.5 -37.5
s-32 -23.833 -54 -34.5l-140 -67zM72.9971 428.998c0 13.333 -3.66797 25.501 -11.001 36.501s-17.666 21.5 -30.999 31.5l-59 -53c3.33301 -11.333 11 -23 23 -35s27.333 -23.667 46 -35c11.333 9.33301 19.5 18.666 24.5 27.999s7.5 18.333 7.5 27z" />
    <glyph glyph-name="uniFC62" unicode="&#xfc62;" arabic-form="isolated" 
d="M115 143l9 -58l-240 -95l-8 58zM95 180c-31.333 0 -54.334 3.5 -69.001 10.5s-25.667 18.5 -33 34.5c-10 -18 -20.833 -30 -32.5 -36s-27.5 -9 -47.5 -9c-23.333 0 -40.333 6.5 -51 19.5s-16 28.167 -16 45.5c0 12.667 1.33301 29.667 4 51s5.66699 44 9 68l46 -5
l-8 -106c2 -1.33301 4.33301 -2.66602 7 -3.99902c4.66699 -2 11.334 -3 20.001 -3c17.333 0 29.666 3.66699 36.999 11s11.666 19 12.999 35l5 41h44v-42c0 -15.333 5.16699 -26.5 15.5 -33.5s30.5 -10.833 60.5 -11.5c0.666992 15.333 -0.166016 32.166 -2.49902 50.499
s-7.16602 38.166 -14.499 59.499l45 32l11 -4c5.33301 -19.333 9 -36.166 11 -50.499s3 -27.833 3 -40.5c0 -18 -2.5 -36 -7.5 -54s-13.833 -37.667 -26.5 -59h-23z" />
    <glyph glyph-name="uniFC63" unicode="&#xfc63;" arabic-form="isolated" 
d="M95 0c-31.333 0 -54.334 3.5 -69.001 10.5s-25.667 18.5 -33 34.5c-10 -18 -20.833 -30 -32.5 -36s-27.5 -9 -47.5 -9c-23.333 0 -40.333 6.5 -51 19.5s-16 28.167 -16 45.5c0 12.667 1.33301 29.667 4 51s5.66699 44 9 68l46 -5l-8 -106
c2 -1.33301 4.33301 -2.66602 7 -3.99902c4.66699 -2 11.334 -3 20.001 -3c17.333 0 29.666 3.66699 36.999 11s11.666 19 12.999 35l5 41h44v-42c0 -15.333 5.16699 -26.5 15.5 -33.5s30.5 -10.833 60.5 -11.5c0.666992 15.333 -0.166016 32.166 -2.49902 50.499
s-7.16602 38.166 -14.499 59.499l45 32l11 -4c5.33301 -19.333 9 -36.166 11 -50.499s3 -27.833 3 -40.5c0 -18 -2.5 -36 -7.5 -54s-13.833 -37.667 -26.5 -59h-23zM-12.001 478c10.667 -12 19.1689 -23.167 25.502 -33.5s11.166 -21 14.499 -32
s5.66602 -23.5 6.99902 -37.5s2 -30.333 2 -49v-82l-51 -24v84c0 24 -3.5 43.667 -10.5 59s-18.167 32 -33.5 50z" />
    <glyph glyph-name="uniFC64" unicode="&#xfc64;" horiz-adv-x="502" arabic-form="final" 
d="M502 0c-25.333 0 -46.6709 2.83105 -64.0039 8.49805s-31.833 14.834 -43.5 27.501s-21 29 -28 49s-12.5 44.333 -16.5 73l-4 26c-22.667 -7.33301 -46 -13.5 -70 -18.5s-47.667 -9.16699 -71 -12.5c4 -17.333 7.16699 -34.666 9.5 -51.999s3.5 -33.666 3.5 -48.999
c0 -46.667 -6.33301 -87.5 -19 -122.5s-27.667 -64.333 -45 -88s-35 -41.5 -53 -53.5s-32 -18 -42 -18c-3.33301 0 -7.66602 0.333008 -12.999 1s-13.333 2 -24 4l-42.5 8c-17.667 3.33301 -40.167 8 -67.5 14v44c28 10 54 22 78 36s45.5 29.167 64.5 45.5
s35.333 33.166 49 50.499s23.834 34.333 30.501 51c-3.33301 12.667 -7.16602 26.167 -11.499 40.5s-9 28.666 -14 42.999l-15 41c-5 13 -9.5 24.167 -13.5 33.5l42 77c46 4.66699 92.667 12.334 140 23.001s90.333 22.667 129 36l20 -14l16 -94
c4.66699 -26.667 12.834 -45.5 24.501 -56.5s28.5 -16.5 50.5 -16.5v-137zM373.995 653.998l-19.999 -60h-88c-2 -8.66699 -1.83301 -17.5 0.5 -26.5s6 -17 11 -24s11.667 -12.833 20 -17.5s17.5 -7 27.5 -7c8 0 20.167 2 36.5 6s35.166 9.66699 56.499 17l5 -70l-226 -84
l-9 58l64 32c-16 11.333 -27.833 25.5 -35.5 42.5s-11.5 33.5 -11.5 49.5c0 15.333 2.5 30.5 7.5 45.5s13.167 32.167 24.5 51.5h128z" />
    <glyph glyph-name="uniFC65" unicode="&#xfc65;" horiz-adv-x="502" arabic-form="final" 
d="M502 0c-25.333 0 -46.6709 2.83105 -64.0039 8.49805s-31.833 14.834 -43.5 27.501s-21 29 -28 49s-12.5 44.333 -16.5 73l-4 26c-22.667 -7.33301 -46 -13.5 -70 -18.5s-47.667 -9.16699 -71 -12.5c4 -17.333 7.16699 -34.666 9.5 -51.999s3.5 -33.666 3.5 -48.999
c0 -46.667 -6.33301 -87.5 -19 -122.5s-27.667 -64.333 -45 -88s-35 -41.5 -53 -53.5s-32 -18 -42 -18c-3.33301 0 -7.66602 0.333008 -12.999 1s-13.333 2 -24 4l-42.5 8c-17.667 3.33301 -40.167 8 -67.5 14v44c28 10 54 22 78 36s45.5 29.167 64.5 45.5
s35.333 33.166 49 50.499s23.834 34.333 30.501 51c-3.33301 12.667 -7.16602 26.167 -11.499 40.5s-9 28.666 -14 42.999l-15 41c-5 13 -9.5 24.167 -13.5 33.5l42 77c46 4.66699 92.667 12.334 140 23.001s90.333 22.667 129 36l20 -14l16 -94
c4.66699 -26.667 12.834 -45.5 24.501 -56.5s28.5 -16.5 50.5 -16.5v-137zM423.995 653.998l-19.999 -60h-88c-2 -8.66699 -1.83301 -17.5 0.5 -26.5s6 -17 11 -24s11.667 -12.833 20 -17.5s17.5 -7 27.5 -7c8 0 20.167 2 36.5 6s35.166 9.66699 56.499 17l5 -70l-226 -84
l-9 58l64 32c-16 11.333 -27.833 25.5 -35.5 42.5s-11.5 33.5 -11.5 49.5c0 15.333 2.5 30.5 7.5 45.5s13.167 32.167 24.5 51.5h128zM123.996 351.998l-96 60l54 89l100 -63z" />
    <glyph glyph-name="uniFC67" unicode="&#xfc67;" horiz-adv-x="843" arabic-form="final" 
d="M843 0c-25.333 0 -46.4961 2.83008 -63.4961 8.49707s-31.333 14.834 -43 27.501s-21 29 -28 49s-12.833 44.333 -17.5 73l-4 26c-24 -7.33301 -48.667 -13.666 -74 -18.999s-50.666 -9.66602 -75.999 -12.999c3.33301 -22 5.83301 -44.667 7.5 -68
s2.5 -48.666 2.5 -75.999c0 -35.333 -2.66699 -65.166 -8 -89.499s-10.333 -41.166 -15 -50.499c-2.66699 -5.33301 -10.834 -13.666 -24.501 -24.999s-32.334 -22.833 -56.001 -34.5s-52.167 -21.834 -85.5 -30.501s-70.666 -13 -111.999 -13c-44 0 -79.833 5 -107.5 15
s-49.5 23.167 -65.5 39.5s-26.833 35.166 -32.5 56.499s-8.5 43.666 -8.5 66.999c0 14 0.833008 33.667 2.5 59s3.5 50.666 5.5 75.999c2.66699 29.333 5.66699 60 9 92l80 -4c-1.33301 -31.333 -3 -61.333 -5 -90l-4 -74.5c-1.33301 -25 -2.33301 -45.167 -3 -60.5
c28 -26 71 -39 129 -39c19.333 0 39.166 1.16699 59.499 3.5s40 5.83301 59 10.5s37 10.167 54 16.5s31.833 13.166 44.5 20.499c-2 22 -4.83301 44.5 -8.5 67.5s-7.5 44.833 -11.5 65.5s-8 39.5 -12 56.5s-7.33301 30.5 -10 40.5l43 76
c45.333 4.66699 91.666 12.334 138.999 23.001s90.666 22.667 129.999 36l20 -14l15 -94c5.33301 -26.667 13.666 -45.5 24.999 -56.5s28 -16.5 50 -16.5v-137zM722.004 653.997l-19.999 -60h-88c-2 -8.66699 -1.83301 -17.5 0.5 -26.5s6 -17 11 -24
s11.667 -12.833 20 -17.5s17.5 -7 27.5 -7c8 0 20.167 2 36.5 6s35.166 9.66699 56.499 17l5 -70l-226 -84l-9 58l64 32c-16 11.333 -27.833 25.5 -35.5 42.5s-11.5 33.5 -11.5 49.5c0 15.333 2.5 30.5 7.5 45.5s13.167 32.167 24.5 51.5h128zM289.005 229.997l-96 60l54 89
l100 -63z" />
    <glyph glyph-name="uniFC68" unicode="&#xfc68;" horiz-adv-x="818" arabic-form="final" 
d="M795 0c-41.333 0 -76.167 9.17383 -104.5 27.5068s-53.166 40.5 -74.499 66.5s-40.833 53.167 -58.5 81.5s-36.5 52.5 -56.5 72.5c-17.333 0 -35.333 -3.66699 -54 -11s-36.167 -17 -52.5 -29s-30.833 -25.667 -43.5 -41s-21.667 -31 -27 -47
c5.33301 -4 19 -8.33301 41 -13s57 -10.667 105 -18c23.333 -4 42 -8.5 56 -13.5s24.833 -11.333 32.5 -19s12.834 -16.834 15.501 -27.501s4 -23 4 -37s-1 -28.167 -3 -42.5s-4.16699 -28 -6.5 -41s-5 -24.333 -8 -34s-5.5 -16.5 -7.5 -20.5
c-2.66699 -5.33301 -11 -13.666 -25 -24.999s-33.167 -22.833 -57.5 -34.5s-54 -21.834 -89 -30.501s-74.833 -13 -119.5 -13c-46 0 -83.333 5 -112 15s-51 23.167 -67 39.5s-26.833 35.166 -32.5 56.499s-8.5 43.666 -8.5 66.999c0 14 0.833008 33.5 2.5 58.5
s3.83398 50.167 6.50098 75.5c2.66699 29.333 5.66699 60.333 9 93l80 -4c-1.33301 -31.333 -3 -61.333 -5 -90c-1.33301 -24.667 -2.83301 -49.5 -4.5 -74.5s-2.83398 -45.167 -3.50098 -60.5c13.333 -12.667 30.666 -22.334 51.999 -29.001s49 -10 83 -10
c41.333 0 82.5 4.16699 123.5 12.5s77.167 19.166 108.5 32.499c0.666992 4.66699 0.833984 9.16699 0.500977 13.5s-0.833008 9.16602 -1.5 14.499c-15.333 4.66699 -34 8.16699 -56 10.5s-44.333 5.16602 -67 8.49902c-45.333 7.33301 -77.166 18.166 -95.499 32.499
s-27.5 38.166 -27.5 71.499c0 32.667 7.5 65.834 22.5 99.501s35.167 64.167 60.5 91.5s54.666 49.666 87.999 66.999s68.333 26 105 26c11.333 0 22.166 -5.66699 32.499 -17s21.333 -25.666 33 -42.999l38 -55.5c13.667 -19.667 29.167 -38.167 46.5 -55.5
s36.666 -31.666 57.999 -42.999s46 -17 74 -17h13v-137h-23zM561.999 694.007l-19.999 -60h-88c-2 -8.66699 -1.83301 -17.5 0.5 -26.5s6 -17 11 -24s11.667 -12.833 20 -17.5s17.5 -7 27.5 -7c8 0 20.167 2 36.5 6s35.166 9.66699 56.499 17l5 -70l-226 -84l-9 58l64 32
c-16 11.333 -27.833 25.5 -35.5 42.5s-11.5 33.5 -11.5 49.5c0 15.333 2.5 30.5 7.5 45.5s13.167 32.167 24.5 51.5h128z" />
    <glyph glyph-name="uniFC6A" unicode="&#xfc6a;" horiz-adv-x="502" arabic-form="final" 
d="M502 0c-25.333 0 -46.6709 2.83105 -64.0039 8.49805s-31.833 14.834 -43.5 27.501s-21 29 -28 49s-12.5 44.333 -16.5 73l-4 26c-22.667 -7.33301 -46 -13.5 -70 -18.5s-47.667 -9.16699 -71 -12.5c4 -17.333 7.16699 -34.666 9.5 -51.999s3.5 -33.666 3.5 -48.999
c0 -46.667 -6.33301 -87.5 -19 -122.5s-27.667 -64.333 -45 -88s-35 -41.5 -53 -53.5s-32 -18 -42 -18c-3.33301 0 -7.66602 0.333008 -12.999 1s-13.333 2 -24 4l-42.5 8c-17.667 3.33301 -40.167 8 -67.5 14v44c28 10 54 22 78 36s45.5 29.167 64.5 45.5
s35.333 33.166 49 50.499s23.834 34.333 30.501 51c-3.33301 12.667 -7.16602 26.167 -11.499 40.5s-9 28.666 -14 42.999l-15 41c-5 13 -9.5 24.167 -13.5 33.5l42 77c46 4.66699 92.667 12.334 140 23.001s90.333 22.667 129 36l20 -14l16 -94
c4.66699 -26.667 12.834 -45.5 24.501 -56.5s28.5 -16.5 50.5 -16.5v-137zM446.995 -147.002l-58 -86l-96 61l54 89z" />
    <glyph glyph-name="uniFC6B" unicode="&#xfc6b;" horiz-adv-x="502" arabic-form="final" 
d="M502 0c-25.333 0 -46.6709 2.83105 -64.0039 8.49805s-31.833 14.834 -43.5 27.501s-21 29 -28 49s-12.5 44.333 -16.5 73l-4 26c-22.667 -7.33301 -46 -13.5 -70 -18.5s-47.667 -9.16699 -71 -12.5c4 -17.333 7.16699 -34.666 9.5 -51.999s3.5 -33.666 3.5 -48.999
c0 -46.667 -6.33301 -87.5 -19 -122.5s-27.667 -64.333 -45 -88s-35 -41.5 -53 -53.5s-32 -18 -42 -18c-3.33301 0 -7.66602 0.333008 -12.999 1s-13.333 2 -24 4l-42.5 8c-17.667 3.33301 -40.167 8 -67.5 14v44c28 10 54 22 78 36s45.5 29.167 64.5 45.5
s35.333 33.166 49 50.499s23.834 34.333 30.501 51c-3.33301 12.667 -7.16602 26.167 -11.499 40.5s-9 28.666 -14 42.999l-15 41c-5 13 -9.5 24.167 -13.5 33.5l42 77c46 4.66699 92.667 12.334 140 23.001s90.333 22.667 129 36l20 -14l16 -94
c4.66699 -26.667 12.834 -45.5 24.501 -56.5s28.5 -16.5 50.5 -16.5v-137zM446.995 -147.002l-58 -86l-96 61l54 89zM123.995 351.998l-96 60l54 89l100 -63z" />
    <glyph glyph-name="uniFC6D" unicode="&#xfc6d;" horiz-adv-x="843" arabic-form="final" 
d="M843 0c-25.333 0 -46.4961 2.83008 -63.4961 8.49707s-31.333 14.834 -43 27.501s-21 29 -28 49s-12.833 44.333 -17.5 73l-4 26c-24 -7.33301 -48.667 -13.666 -74 -18.999s-50.666 -9.66602 -75.999 -12.999c3.33301 -22 5.83301 -44.667 7.5 -68
s2.5 -48.666 2.5 -75.999c0 -35.333 -2.66699 -65.166 -8 -89.499s-10.333 -41.166 -15 -50.499c-2.66699 -5.33301 -10.834 -13.666 -24.501 -24.999s-32.334 -22.833 -56.001 -34.5s-52.167 -21.834 -85.5 -30.501s-70.666 -13 -111.999 -13c-44 0 -79.833 5 -107.5 15
s-49.5 23.167 -65.5 39.5s-26.833 35.166 -32.5 56.499s-8.5 43.666 -8.5 66.999c0 14 0.833008 33.667 2.5 59s3.5 50.666 5.5 75.999c2.66699 29.333 5.66699 60 9 92l80 -4c-1.33301 -31.333 -3 -61.333 -5 -90l-4 -74.5c-1.33301 -25 -2.33301 -45.167 -3 -60.5
c28 -26 71 -39 129 -39c19.333 0 39.166 1.16699 59.499 3.5s40 5.83301 59 10.5s37 10.167 54 16.5s31.833 13.166 44.5 20.499c-2 22 -4.83301 44.5 -8.5 67.5s-7.5 44.833 -11.5 65.5s-8 39.5 -12 56.5s-7.33301 30.5 -10 40.5l43 76
c45.333 4.66699 91.666 12.334 138.999 23.001s90.666 22.667 129.999 36l20 -14l15 -94c5.33301 -26.667 13.666 -45.5 24.999 -56.5s28 -16.5 50 -16.5v-137zM831.004 -147.003l-58 -86l-96 61l54 89zM289.004 229.997l-96 60l54 89l100 -63z" />
    <glyph glyph-name="uniFC70" unicode="&#xfc70;" horiz-adv-x="502" arabic-form="final" 
d="M502 0c-25.333 0 -46.6709 2.83105 -64.0039 8.49805s-31.833 14.834 -43.5 27.501s-21 29 -28 49s-12.5 44.333 -16.5 73l-4 26c-22.667 -7.33301 -46 -13.5 -70 -18.5s-47.667 -9.16699 -71 -12.5c4 -17.333 7.16699 -34.666 9.5 -51.999s3.5 -33.666 3.5 -48.999
c0 -46.667 -6.33301 -87.5 -19 -122.5s-27.667 -64.333 -45 -88s-35 -41.5 -53 -53.5s-32 -18 -42 -18c-3.33301 0 -7.66602 0.333008 -12.999 1s-13.333 2 -24 4l-42.5 8c-17.667 3.33301 -40.167 8 -67.5 14v44c28 10 54 22 78 36s45.5 29.167 64.5 45.5
s35.333 33.166 49 50.499s23.834 34.333 30.501 51c-3.33301 12.667 -7.16602 26.167 -11.499 40.5s-9 28.666 -14 42.999l-15 41c-5 13 -9.5 24.167 -13.5 33.5l42 77c46 4.66699 92.667 12.334 140 23.001s90.333 22.667 129 36l20 -14l16 -94
c4.66699 -26.667 12.834 -45.5 24.501 -56.5s28.5 -16.5 50.5 -16.5v-137zM214.995 546.998l97 -61l42 61l97 -60l-54 -89l-98 62l-42 -62l-96 60z" />
    <glyph glyph-name="uniFC71" unicode="&#xfc71;" horiz-adv-x="502" arabic-form="final" 
d="M502 0c-25.333 0 -46.6709 2.83105 -64.0039 8.49805s-31.833 14.834 -43.5 27.501s-21 29 -28 49s-12.5 44.333 -16.5 73l-4 26c-22.667 -7.33301 -46 -13.5 -70 -18.5s-47.667 -9.16699 -71 -12.5c4 -17.333 7.16699 -34.666 9.5 -51.999s3.5 -33.666 3.5 -48.999
c0 -46.667 -6.33301 -87.5 -19 -122.5s-27.667 -64.333 -45 -88s-35 -41.5 -53 -53.5s-32 -18 -42 -18c-3.33301 0 -7.66602 0.333008 -12.999 1s-13.333 2 -24 4l-42.5 8c-17.667 3.33301 -40.167 8 -67.5 14v44c28 10 54 22 78 36s45.5 29.167 64.5 45.5
s35.333 33.166 49 50.499s23.834 34.333 30.501 51c-3.33301 12.667 -7.16602 26.167 -11.499 40.5s-9 28.666 -14 42.999l-15 41c-5 13 -9.5 24.167 -13.5 33.5l42 77c46 4.66699 92.667 12.334 140 23.001s90.333 22.667 129 36l20 -14l16 -94
c4.66699 -26.667 12.834 -45.5 24.501 -56.5s28.5 -16.5 50.5 -16.5v-137zM264.995 546.998l97 -61l42 61l97 -60l-54 -89l-98 62l-42 -62l-96 60zM123.995 351.998l-96 60l54 89l100 -63z" />
    <glyph glyph-name="uniFC73" unicode="&#xfc73;" horiz-adv-x="843" arabic-form="final" 
d="M843 0c-25.333 0 -46.4961 2.83008 -63.4961 8.49707s-31.333 14.834 -43 27.501s-21 29 -28 49s-12.833 44.333 -17.5 73l-4 26c-24 -7.33301 -48.667 -13.666 -74 -18.999s-50.666 -9.66602 -75.999 -12.999c3.33301 -22 5.83301 -44.667 7.5 -68
s2.5 -48.666 2.5 -75.999c0 -35.333 -2.66699 -65.166 -8 -89.499s-10.333 -41.166 -15 -50.499c-2.66699 -5.33301 -10.834 -13.666 -24.501 -24.999s-32.334 -22.833 -56.001 -34.5s-52.167 -21.834 -85.5 -30.501s-70.666 -13 -111.999 -13c-44 0 -79.833 5 -107.5 15
s-49.5 23.167 -65.5 39.5s-26.833 35.166 -32.5 56.499s-8.5 43.666 -8.5 66.999c0 14 0.833008 33.667 2.5 59s3.5 50.666 5.5 75.999c2.66699 29.333 5.66699 60 9 92l80 -4c-1.33301 -31.333 -3 -61.333 -5 -90l-4 -74.5c-1.33301 -25 -2.33301 -45.167 -3 -60.5
c28 -26 71 -39 129 -39c19.333 0 39.166 1.16699 59.499 3.5s40 5.83301 59 10.5s37 10.167 54 16.5s31.833 13.166 44.5 20.499c-2 22 -4.83301 44.5 -8.5 67.5s-7.5 44.833 -11.5 65.5s-8 39.5 -12 56.5s-7.33301 30.5 -10 40.5l43 76
c45.333 4.66699 91.666 12.334 138.999 23.001s90.666 22.667 129.999 36l20 -14l15 -94c5.33301 -26.667 13.666 -45.5 24.999 -56.5s28 -16.5 50 -16.5v-137zM563.004 546.997l97 -61l42 61l97 -60l-54 -89l-98 62l-42 -62l-96 60zM289.004 229.997l-96 60l54 89l100 -63z
" />
    <glyph glyph-name="uniFC74" unicode="&#xfc74;" horiz-adv-x="818" arabic-form="final" 
d="M795 0c-41.333 0 -76.167 9.17383 -104.5 27.5068s-53.166 40.5 -74.499 66.5s-40.833 53.167 -58.5 81.5s-36.5 52.5 -56.5 72.5c-17.333 0 -35.333 -3.66699 -54 -11s-36.167 -17 -52.5 -29s-30.833 -25.667 -43.5 -41s-21.667 -31 -27 -47
c5.33301 -4 19 -8.33301 41 -13s57 -10.667 105 -18c23.333 -4 42 -8.5 56 -13.5s24.833 -11.333 32.5 -19s12.834 -16.834 15.501 -27.501s4 -23 4 -37s-1 -28.167 -3 -42.5s-4.16699 -28 -6.5 -41s-5 -24.333 -8 -34s-5.5 -16.5 -7.5 -20.5
c-2.66699 -5.33301 -11 -13.666 -25 -24.999s-33.167 -22.833 -57.5 -34.5s-54 -21.834 -89 -30.501s-74.833 -13 -119.5 -13c-46 0 -83.333 5 -112 15s-51 23.167 -67 39.5s-26.833 35.166 -32.5 56.499s-8.5 43.666 -8.5 66.999c0 14 0.833008 33.5 2.5 58.5
s3.83398 50.167 6.50098 75.5c2.66699 29.333 5.66699 60.333 9 93l80 -4c-1.33301 -31.333 -3 -61.333 -5 -90c-1.33301 -24.667 -2.83301 -49.5 -4.5 -74.5s-2.83398 -45.167 -3.50098 -60.5c13.333 -12.667 30.666 -22.334 51.999 -29.001s49 -10 83 -10
c41.333 0 82.5 4.16699 123.5 12.5s77.167 19.166 108.5 32.499c0.666992 4.66699 0.833984 9.16699 0.500977 13.5s-0.833008 9.16602 -1.5 14.499c-15.333 4.66699 -34 8.16699 -56 10.5s-44.333 5.16602 -67 8.49902c-45.333 7.33301 -77.166 18.166 -95.499 32.499
s-27.5 38.166 -27.5 71.499c0 32.667 7.5 65.834 22.5 99.501s35.167 64.167 60.5 91.5s54.666 49.666 87.999 66.999s68.333 26 105 26c11.333 0 22.166 -5.66699 32.499 -17s21.333 -25.666 33 -42.999l38 -55.5c13.667 -19.667 29.167 -38.167 46.5 -55.5
s36.666 -31.666 57.999 -42.999s46 -17 74 -17h13v-137h-23zM402.999 587.007l97 -61l42 61l97 -60l-54 -89l-98 62l-42 -62l-96 60z" />
    <glyph glyph-name="uniFC76" unicode="&#xfc76;" horiz-adv-x="502" arabic-form="final" 
d="M502 0c-25.333 0 -46.6709 2.83105 -64.0039 8.49805s-31.833 14.834 -43.5 27.501s-21 29 -28 49s-12.5 44.333 -16.5 73l-4 26c-22.667 -7.33301 -46 -13.5 -70 -18.5s-47.667 -9.16699 -71 -12.5c4 -17.333 7.16699 -34.666 9.5 -51.999s3.5 -33.666 3.5 -48.999
c0 -46.667 -6.33301 -87.5 -19 -122.5s-27.667 -64.333 -45 -88s-35 -41.5 -53 -53.5s-32 -18 -42 -18c-3.33301 0 -7.66602 0.333008 -12.999 1s-13.333 2 -24 4l-42.5 8c-17.667 3.33301 -40.167 8 -67.5 14v44c28 10 54 22 78 36s45.5 29.167 64.5 45.5
s35.333 33.166 49 50.499s23.834 34.333 30.501 51c-3.33301 12.667 -7.16602 26.167 -11.499 40.5s-9 28.666 -14 42.999l-15 41c-5 13 -9.5 24.167 -13.5 33.5l42 77c46 4.66699 92.667 12.334 140 23.001s90.333 22.667 129 36l20 -14l16 -94
c4.66699 -26.667 12.834 -45.5 24.501 -56.5s28.5 -16.5 50.5 -16.5v-137zM214.995 546.998l97 -61l42 61l97 -60l-54 -89l-98 62l-42 -62l-96 60zM263.995 691.998l96 -60l-53 -89l-101 64z" />
    <glyph glyph-name="uniFC77" unicode="&#xfc77;" horiz-adv-x="843" arabic-form="final" 
d="M843 0c-25.333 0 -46.4961 2.83008 -63.4961 8.49707s-31.333 14.834 -43 27.501s-21 29 -28 49s-12.833 44.333 -17.5 73l-4 26c-24 -7.33301 -48.667 -13.666 -74 -18.999s-50.666 -9.66602 -75.999 -12.999c3.33301 -22 5.83301 -44.667 7.5 -68
s2.5 -48.666 2.5 -75.999c0 -35.333 -2.66699 -65.166 -8 -89.499s-10.333 -41.166 -15 -50.499c-2.66699 -5.33301 -10.834 -13.666 -24.501 -24.999s-32.334 -22.833 -56.001 -34.5s-52.167 -21.834 -85.5 -30.501s-70.666 -13 -111.999 -13c-44 0 -79.833 5 -107.5 15
s-49.5 23.167 -65.5 39.5s-26.833 35.166 -32.5 56.499s-8.5 43.666 -8.5 66.999c0 14 0.833008 33.667 2.5 59s3.5 50.666 5.5 75.999c2.66699 29.333 5.66699 60 9 92l80 -4c-1.33301 -31.333 -3 -61.333 -5 -90l-4 -74.5c-1.33301 -25 -2.33301 -45.167 -3 -60.5
c28 -26 71 -39 129 -39c19.333 0 39.166 1.16699 59.499 3.5s40 5.83301 59 10.5s37 10.167 54 16.5s31.833 13.166 44.5 20.499c-2 22 -4.83301 44.5 -8.5 67.5s-7.5 44.833 -11.5 65.5s-8 39.5 -12 56.5s-7.33301 30.5 -10 40.5l43 76
c45.333 4.66699 91.666 12.334 138.999 23.001s90.666 22.667 129.999 36l20 -14l15 -94c5.33301 -26.667 13.666 -45.5 24.999 -56.5s28 -16.5 50 -16.5v-137zM563.004 546.997l97 -61l42 61l97 -60l-54 -89l-98 62l-42 -62l-96 60zM289.004 229.997l-96 60l54 89l100 -63z
M612.004 691.997l96 -60l-53 -89l-101 64z" />
    <glyph glyph-name="uniFC7A" unicode="&#xfc7a;" horiz-adv-x="818" arabic-form="final" 
d="M795 0c-41.333 0 -76.167 9.17383 -104.5 27.5068s-53.166 40.5 -74.499 66.5s-40.833 53.167 -58.5 81.5s-36.5 52.5 -56.5 72.5c-17.333 0 -35.333 -3.66699 -54 -11s-36.167 -17 -52.5 -29s-30.833 -25.667 -43.5 -41s-21.667 -31 -27 -47
c5.33301 -4 19 -8.33301 41 -13s57 -10.667 105 -18c23.333 -4 42 -8.5 56 -13.5s24.833 -11.333 32.5 -19s12.834 -16.834 15.501 -27.501s4 -23 4 -37s-1 -28.167 -3 -42.5s-4.16699 -28 -6.5 -41s-5 -24.333 -8 -34s-5.5 -16.5 -7.5 -20.5
c-2.66699 -5.33301 -11 -13.666 -25 -24.999s-33.167 -22.833 -57.5 -34.5s-54 -21.834 -89 -30.501s-74.833 -13 -119.5 -13c-46 0 -83.333 5 -112 15s-51 23.167 -67 39.5s-26.833 35.166 -32.5 56.499s-8.5 43.666 -8.5 66.999c0 14 0.833008 33.5 2.5 58.5
s3.83398 50.167 6.50098 75.5c2.66699 29.333 5.66699 60.333 9 93l80 -4c-1.33301 -31.333 -3 -61.333 -5 -90c-1.33301 -24.667 -2.83301 -49.5 -4.5 -74.5s-2.83398 -45.167 -3.50098 -60.5c13.333 -12.667 30.666 -22.334 51.999 -29.001s49 -10 83 -10
c41.333 0 82.5 4.16699 123.5 12.5s77.167 19.166 108.5 32.499c0.666992 4.66699 0.833984 9.16699 0.500977 13.5s-0.833008 9.16602 -1.5 14.499c-15.333 4.66699 -34 8.16699 -56 10.5s-44.333 5.16602 -67 8.49902c-45.333 7.33301 -77.166 18.166 -95.499 32.499
s-27.5 38.166 -27.5 71.499c0 32.667 7.5 65.834 22.5 99.501s35.167 64.167 60.5 91.5s54.666 49.666 87.999 66.999s68.333 26 105 26c11.333 0 22.166 -5.66699 32.499 -17s21.333 -25.666 33 -42.999l38 -55.5c13.667 -19.667 29.167 -38.167 46.5 -55.5
s36.666 -31.666 57.999 -42.999s46 -17 74 -17h13v-137h-23zM402.999 587.007l97 -61l42 61l97 -60l-54 -89l-98 62l-42 -62l-96 60zM451.999 732.007l96 -60l-53 -89l-101 64z" />
    <glyph glyph-name="uniFC8A" unicode="&#xfc8a;" horiz-adv-x="502" arabic-form="final" 
d="M502 0c-25.333 0 -46.6709 2.83105 -64.0039 8.49805s-31.833 14.834 -43.5 27.501s-21 29 -28 49s-12.5 44.333 -16.5 73l-4 26c-22.667 -7.33301 -46 -13.5 -70 -18.5s-47.667 -9.16699 -71 -12.5c4 -17.333 7.16699 -34.666 9.5 -51.999s3.5 -33.666 3.5 -48.999
c0 -46.667 -6.33301 -87.5 -19 -122.5s-27.667 -64.333 -45 -88s-35 -41.5 -53 -53.5s-32 -18 -42 -18c-3.33301 0 -7.66602 0.333008 -12.999 1s-13.333 2 -24 4l-42.5 8c-17.667 3.33301 -40.167 8 -67.5 14v44c28 10 54 22 78 36s45.5 29.167 64.5 45.5
s35.333 33.166 49 50.499s23.834 34.333 30.501 51c-3.33301 12.667 -7.16602 26.167 -11.499 40.5s-9 28.666 -14 42.999l-15 41c-5 13 -9.5 24.167 -13.5 33.5l42 77c46 4.66699 92.667 12.334 140 23.001s90.333 22.667 129 36l20 -14l16 -94
c4.66699 -26.667 12.834 -45.5 24.501 -56.5s28.5 -16.5 50.5 -16.5v-137zM227.995 457.998l54 89l100 -63l-58 -86z" />
    <glyph glyph-name="uniFC8B" unicode="&#xfc8b;" horiz-adv-x="502" arabic-form="final" 
d="M502 0c-25.333 0 -46.6709 2.83105 -64.0039 8.49805s-31.833 14.834 -43.5 27.501s-21 29 -28 49s-12.5 44.333 -16.5 73l-4 26c-22.667 -7.33301 -46 -13.5 -70 -18.5s-47.667 -9.16699 -71 -12.5c4 -17.333 7.16699 -34.666 9.5 -51.999s3.5 -33.666 3.5 -48.999
c0 -46.667 -6.33301 -87.5 -19 -122.5s-27.667 -64.333 -45 -88s-35 -41.5 -53 -53.5s-32 -18 -42 -18c-3.33301 0 -7.66602 0.333008 -12.999 1s-13.333 2 -24 4l-42.5 8c-17.667 3.33301 -40.167 8 -67.5 14v44c28 10 54 22 78 36s45.5 29.167 64.5 45.5
s35.333 33.166 49 50.499s23.834 34.333 30.501 51c-3.33301 12.667 -7.16602 26.167 -11.499 40.5s-9 28.666 -14 42.999l-15 41c-5 13 -9.5 24.167 -13.5 33.5l42 77c46 4.66699 92.667 12.334 140 23.001s90.333 22.667 129 36l20 -14l16 -94
c4.66699 -26.667 12.834 -45.5 24.501 -56.5s28.5 -16.5 50.5 -16.5v-137zM277.995 457.998l54 89l100 -63l-58 -86zM123.995 351.998l-96 60l54 89l100 -63z" />
    <glyph glyph-name="uniFC8D" unicode="&#xfc8d;" horiz-adv-x="843" arabic-form="final" 
d="M843 0c-25.333 0 -46.4961 2.83008 -63.4961 8.49707s-31.333 14.834 -43 27.501s-21 29 -28 49s-12.833 44.333 -17.5 73l-4 26c-24 -7.33301 -48.667 -13.666 -74 -18.999s-50.666 -9.66602 -75.999 -12.999c3.33301 -22 5.83301 -44.667 7.5 -68
s2.5 -48.666 2.5 -75.999c0 -35.333 -2.66699 -65.166 -8 -89.499s-10.333 -41.166 -15 -50.499c-2.66699 -5.33301 -10.834 -13.666 -24.501 -24.999s-32.334 -22.833 -56.001 -34.5s-52.167 -21.834 -85.5 -30.501s-70.666 -13 -111.999 -13c-44 0 -79.833 5 -107.5 15
s-49.5 23.167 -65.5 39.5s-26.833 35.166 -32.5 56.499s-8.5 43.666 -8.5 66.999c0 14 0.833008 33.667 2.5 59s3.5 50.666 5.5 75.999c2.66699 29.333 5.66699 60 9 92l80 -4c-1.33301 -31.333 -3 -61.333 -5 -90l-4 -74.5c-1.33301 -25 -2.33301 -45.167 -3 -60.5
c28 -26 71 -39 129 -39c19.333 0 39.166 1.16699 59.499 3.5s40 5.83301 59 10.5s37 10.167 54 16.5s31.833 13.166 44.5 20.499c-2 22 -4.83301 44.5 -8.5 67.5s-7.5 44.833 -11.5 65.5s-8 39.5 -12 56.5s-7.33301 30.5 -10 40.5l43 76
c45.333 4.66699 91.666 12.334 138.999 23.001s90.666 22.667 129.999 36l20 -14l15 -94c5.33301 -26.667 13.666 -45.5 24.999 -56.5s28 -16.5 50 -16.5v-137zM576.004 457.997l54 89l100 -63l-58 -86zM289.004 229.997l-96 60l54 89l100 -63z" />
    <glyph glyph-name="uniFC8E" unicode="&#xfc8e;" horiz-adv-x="818" arabic-form="final" 
d="M795 0c-41.333 0 -76.167 9.17383 -104.5 27.5068s-53.166 40.5 -74.499 66.5s-40.833 53.167 -58.5 81.5s-36.5 52.5 -56.5 72.5c-17.333 0 -35.333 -3.66699 -54 -11s-36.167 -17 -52.5 -29s-30.833 -25.667 -43.5 -41s-21.667 -31 -27 -47
c5.33301 -4 19 -8.33301 41 -13s57 -10.667 105 -18c23.333 -4 42 -8.5 56 -13.5s24.833 -11.333 32.5 -19s12.834 -16.834 15.501 -27.501s4 -23 4 -37s-1 -28.167 -3 -42.5s-4.16699 -28 -6.5 -41s-5 -24.333 -8 -34s-5.5 -16.5 -7.5 -20.5
c-2.66699 -5.33301 -11 -13.666 -25 -24.999s-33.167 -22.833 -57.5 -34.5s-54 -21.834 -89 -30.501s-74.833 -13 -119.5 -13c-46 0 -83.333 5 -112 15s-51 23.167 -67 39.5s-26.833 35.166 -32.5 56.499s-8.5 43.666 -8.5 66.999c0 14 0.833008 33.5 2.5 58.5
s3.83398 50.167 6.50098 75.5c2.66699 29.333 5.66699 60.333 9 93l80 -4c-1.33301 -31.333 -3 -61.333 -5 -90c-1.33301 -24.667 -2.83301 -49.5 -4.5 -74.5s-2.83398 -45.167 -3.50098 -60.5c13.333 -12.667 30.666 -22.334 51.999 -29.001s49 -10 83 -10
c41.333 0 82.5 4.16699 123.5 12.5s77.167 19.166 108.5 32.499c0.666992 4.66699 0.833984 9.16699 0.500977 13.5s-0.833008 9.16602 -1.5 14.499c-15.333 4.66699 -34 8.16699 -56 10.5s-44.333 5.16602 -67 8.49902c-45.333 7.33301 -77.166 18.166 -95.499 32.499
s-27.5 38.166 -27.5 71.499c0 32.667 7.5 65.834 22.5 99.501s35.167 64.167 60.5 91.5s54.666 49.666 87.999 66.999s68.333 26 105 26c11.333 0 22.166 -5.66699 32.499 -17s21.333 -25.666 33 -42.999l38 -55.5c13.667 -19.667 29.167 -38.167 46.5 -55.5
s36.666 -31.666 57.999 -42.999s46 -17 74 -17h13v-137h-23zM415.999 498.007l54 89l100 -63l-58 -86z" />
    <glyph glyph-name="uniFC91" unicode="&#xfc91;" horiz-adv-x="502" arabic-form="final" 
d="M502 0c-25.333 0 -46.6709 2.83105 -64.0039 8.49805s-31.833 14.834 -43.5 27.501s-21 29 -28 49s-12.5 44.333 -16.5 73l-4 26c-22.667 -7.33301 -46 -13.5 -70 -18.5s-47.667 -9.16699 -71 -12.5c4 -17.333 7.16699 -34.666 9.5 -51.999s3.5 -33.666 3.5 -48.999
c0 -46.667 -6.33301 -87.5 -19 -122.5s-27.667 -64.333 -45 -88s-35 -41.5 -53 -53.5s-32 -18 -42 -18c-3.33301 0 -7.66602 0.333008 -12.999 1s-13.333 2 -24 4l-42.5 8c-17.667 3.33301 -40.167 8 -67.5 14v44c28 10 54 22 78 36s45.5 29.167 64.5 45.5
s35.333 33.166 49 50.499s23.834 34.333 30.501 51c-3.33301 12.667 -7.16602 26.167 -11.499 40.5s-9 28.666 -14 42.999l-15 41c-5 13 -9.5 24.167 -13.5 33.5l42 77c46 4.66699 92.667 12.334 140 23.001s90.333 22.667 129 36l20 -14l16 -94
c4.66699 -26.667 12.834 -45.5 24.501 -56.5s28.5 -16.5 50.5 -16.5v-137zM279.995 -83.002l97 -62l42 62l97 -60l-54 -90l-98 62l-42 -62l-96 61z" />
    <glyph glyph-name="uniFC92" unicode="&#xfc92;" horiz-adv-x="502" arabic-form="final" 
d="M502 0c-25.333 0 -46.6709 2.83105 -64.0039 8.49805s-31.833 14.834 -43.5 27.501s-21 29 -28 49s-12.5 44.333 -16.5 73l-4 26c-22.667 -7.33301 -46 -13.5 -70 -18.5s-47.667 -9.16699 -71 -12.5c4 -17.333 7.16699 -34.666 9.5 -51.999s3.5 -33.666 3.5 -48.999
c0 -46.667 -6.33301 -87.5 -19 -122.5s-27.667 -64.333 -45 -88s-35 -41.5 -53 -53.5s-32 -18 -42 -18c-3.33301 0 -7.66602 0.333008 -12.999 1s-13.333 2 -24 4l-42.5 8c-17.667 3.33301 -40.167 8 -67.5 14v44c28 10 54 22 78 36s45.5 29.167 64.5 45.5
s35.333 33.166 49 50.499s23.834 34.333 30.501 51c-3.33301 12.667 -7.16602 26.167 -11.499 40.5s-9 28.666 -14 42.999l-15 41c-5 13 -9.5 24.167 -13.5 33.5l42 77c46 4.66699 92.667 12.334 140 23.001s90.333 22.667 129 36l20 -14l16 -94
c4.66699 -26.667 12.834 -45.5 24.501 -56.5s28.5 -16.5 50.5 -16.5v-137zM279.995 -83.002l97 -62l42 62l97 -60l-54 -90l-98 62l-42 -62l-96 61zM123.995 351.998l-96 60l54 89l100 -63z" />
    <glyph glyph-name="uniFC94" unicode="&#xfc94;" horiz-adv-x="843" arabic-form="final" 
d="M843 0c-25.333 0 -46.4961 2.83008 -63.4961 8.49707s-31.333 14.834 -43 27.501s-21 29 -28 49s-12.833 44.333 -17.5 73l-4 26c-24 -7.33301 -48.667 -13.666 -74 -18.999s-50.666 -9.66602 -75.999 -12.999c3.33301 -22 5.83301 -44.667 7.5 -68
s2.5 -48.666 2.5 -75.999c0 -35.333 -2.66699 -65.166 -8 -89.499s-10.333 -41.166 -15 -50.499c-2.66699 -5.33301 -10.834 -13.666 -24.501 -24.999s-32.334 -22.833 -56.001 -34.5s-52.167 -21.834 -85.5 -30.501s-70.666 -13 -111.999 -13c-44 0 -79.833 5 -107.5 15
s-49.5 23.167 -65.5 39.5s-26.833 35.166 -32.5 56.499s-8.5 43.666 -8.5 66.999c0 14 0.833008 33.667 2.5 59s3.5 50.666 5.5 75.999c2.66699 29.333 5.66699 60 9 92l80 -4c-1.33301 -31.333 -3 -61.333 -5 -90l-4 -74.5c-1.33301 -25 -2.33301 -45.167 -3 -60.5
c28 -26 71 -39 129 -39c19.333 0 39.166 1.16699 59.499 3.5s40 5.83301 59 10.5s37 10.167 54 16.5s31.833 13.166 44.5 20.499c-2 22 -4.83301 44.5 -8.5 67.5s-7.5 44.833 -11.5 65.5s-8 39.5 -12 56.5s-7.33301 30.5 -10 40.5l43 76
c45.333 4.66699 91.666 12.334 138.999 23.001s90.666 22.667 129.999 36l20 -14l15 -94c5.33301 -26.667 13.666 -45.5 24.999 -56.5s28 -16.5 50 -16.5v-137zM664.004 -83.0029l97 -62l42 62l97 -60l-54 -90l-98 62l-42 -62l-96 61zM289.004 229.997l-96 60l54 89l100 -63
z" />
    <glyph glyph-name="uniFCFB" unicode="&#xfcfb;" horiz-adv-x="1220" arabic-form="isolated" 
d="M1001 0c-24 0 -45.1729 5.00781 -63.5059 15.0078s-34.166 30.333 -47.499 61c-10 -20.667 -18.167 -34.834 -24.5 -42.501s-13.166 -13.167 -20.499 -16.5c-19.333 -11.333 -45 -17 -77 -17c-33.333 0 -62.166 9.16699 -86.499 27.5s-46.5 40.5 -66.5 66.5
s-39 53.167 -57 81.5s-37 52.5 -57 72.5c-17.333 0 -35.333 -3.66699 -54 -11s-36.167 -17 -52.5 -29s-30.833 -25.667 -43.5 -41s-21.667 -31 -27 -47c5.33301 -4 19 -8.33301 41 -13s57 -10.667 105 -18c23.333 -4 42 -8.5 56 -13.5s24.833 -11.333 32.5 -19
s12.834 -16.834 15.501 -27.501s4 -23 4 -37s-1 -28.167 -3 -42.5s-4.16699 -28 -6.5 -41s-5 -24.333 -8 -34s-5.5 -16.5 -7.5 -20.5c-2.66699 -5.33301 -11 -13.666 -25 -24.999s-33.167 -22.833 -57.5 -34.5s-54 -21.834 -89 -30.501s-74.833 -13 -119.5 -13
c-46 0 -83.333 5 -112 15s-51 23.167 -67 39.5s-26.833 35.166 -32.5 56.499s-8.5 43.666 -8.5 66.999c0 14 0.833008 33.5 2.5 58.5s3.83398 50.167 6.50098 75.5c2.66699 29.333 5.66699 60.333 9 93l80 -4c-1.33301 -31.333 -3 -61.333 -5 -90
c-1.33301 -24.667 -2.83301 -49.5 -4.5 -74.5s-2.83398 -45.167 -3.50098 -60.5c13.333 -12.667 30.666 -22.334 51.999 -29.001s49 -10 83 -10c41.333 0 82.5 4.16699 123.5 12.5s77.167 19.166 108.5 32.499c0.666992 4.66699 0.833984 9.16699 0.500977 13.5
s-0.833008 9.16602 -1.5 14.499c-15.333 4.66699 -34 8.16699 -56 10.5s-44.333 5.16602 -67 8.49902c-45.333 7.33301 -77.166 18.166 -95.499 32.499s-27.5 38.166 -27.5 71.499c0 32.667 7.5 65.834 22.5 99.501s35.167 64.167 60.5 91.5s54.666 49.666 87.999 66.999
s68.333 26 105 26c11.333 0 22.333 -5.66699 33 -17s21.834 -25.666 33.501 -42.999l36.5 -55.5c12.667 -19.667 26.5 -38.167 41.5 -55.5s31.167 -31.666 48.5 -42.999s36.333 -17 57 -17c12 0 23.667 0.833008 35 2.5s22.333 4.5 33 8.5l28 142h77
c0 -16 -0.166992 -29 -0.5 -39s-0.5 -18.167 -0.5 -24.5v-14.5v-8c0 -21.333 5.66699 -37.833 17 -49.5s26.333 -17.5 45 -17.5c12 0 26.333 1.16699 43 3.5s31.667 6.16602 45 11.499c-4 26.667 -11.5 55.834 -22.5 87.501s-21.833 59.5 -32.5 83.5l84 66l18 -7
c13.333 -34.667 22.666 -66.834 27.999 -96.501s8 -60.167 8 -91.5c0 -18.667 -2.66699 -37 -8 -55s-11.666 -34.5 -18.999 -49.5s-14.666 -27.667 -21.999 -38s-13.333 -17.5 -18 -21.5c-14 -11.333 -31 -19.166 -51 -23.499s-39.667 -6.5 -59 -6.5z" />
    <glyph glyph-name="uniFCFD" unicode="&#xfcfd;" horiz-adv-x="1220" arabic-form="isolated" 
d="M1001 0c-24 0 -45.1729 5.00781 -63.5059 15.0078s-34.166 30.333 -47.499 61c-10 -20.667 -18.167 -34.834 -24.5 -42.501s-13.166 -13.167 -20.499 -16.5c-19.333 -11.333 -45 -17 -77 -17c-33.333 0 -62.166 9.16699 -86.499 27.5s-46.5 40.5 -66.5 66.5
s-39 53.167 -57 81.5s-37 52.5 -57 72.5c-17.333 0 -35.333 -3.66699 -54 -11s-36.167 -17 -52.5 -29s-30.833 -25.667 -43.5 -41s-21.667 -31 -27 -47c5.33301 -4 19 -8.33301 41 -13s57 -10.667 105 -18c23.333 -4 42 -8.5 56 -13.5s24.833 -11.333 32.5 -19
s12.834 -16.834 15.501 -27.501s4 -23 4 -37s-1 -28.167 -3 -42.5s-4.16699 -28 -6.5 -41s-5 -24.333 -8 -34s-5.5 -16.5 -7.5 -20.5c-2.66699 -5.33301 -11 -13.666 -25 -24.999s-33.167 -22.833 -57.5 -34.5s-54 -21.834 -89 -30.501s-74.833 -13 -119.5 -13
c-46 0 -83.333 5 -112 15s-51 23.167 -67 39.5s-26.833 35.166 -32.5 56.499s-8.5 43.666 -8.5 66.999c0 14 0.833008 33.5 2.5 58.5s3.83398 50.167 6.50098 75.5c2.66699 29.333 5.66699 60.333 9 93l80 -4c-1.33301 -31.333 -3 -61.333 -5 -90
c-1.33301 -24.667 -2.83301 -49.5 -4.5 -74.5s-2.83398 -45.167 -3.50098 -60.5c13.333 -12.667 30.666 -22.334 51.999 -29.001s49 -10 83 -10c41.333 0 82.5 4.16699 123.5 12.5s77.167 19.166 108.5 32.499c0.666992 4.66699 0.833984 9.16699 0.500977 13.5
s-0.833008 9.16602 -1.5 14.499c-15.333 4.66699 -34 8.16699 -56 10.5s-44.333 5.16602 -67 8.49902c-45.333 7.33301 -77.166 18.166 -95.499 32.499s-27.5 38.166 -27.5 71.499c0 32.667 7.5 65.834 22.5 99.501s35.167 64.167 60.5 91.5s54.666 49.666 87.999 66.999
s68.333 26 105 26c11.333 0 22.333 -5.66699 33 -17s21.834 -25.666 33.501 -42.999l36.5 -55.5c12.667 -19.667 26.5 -38.167 41.5 -55.5s31.167 -31.666 48.5 -42.999s36.333 -17 57 -17c12 0 23.667 0.833008 35 2.5s22.333 4.5 33 8.5l28 142h77
c0 -16 -0.166992 -29 -0.5 -39s-0.5 -18.167 -0.5 -24.5v-14.5v-8c0 -21.333 5.66699 -37.833 17 -49.5s26.333 -17.5 45 -17.5c12 0 26.333 1.16699 43 3.5s31.667 6.16602 45 11.499c-4 26.667 -11.5 55.834 -22.5 87.501s-21.833 59.5 -32.5 83.5l84 66l18 -7
c13.333 -34.667 22.666 -66.834 27.999 -96.501s8 -60.167 8 -91.5c0 -18.667 -2.66699 -37 -8 -55s-11.666 -34.5 -18.999 -49.5s-14.666 -27.667 -21.999 -38s-13.333 -17.5 -18 -21.5c-14 -11.333 -31 -19.166 -51 -23.499s-39.667 -6.5 -59 -6.5zM796.994 503.008
l97 -61l42 61l97 -60l-54 -89l-98 62l-42 -62l-96 60zM845.994 648.008l96 -60l-53 -89l-101 64z" />
    <glyph glyph-name="uniFD05" unicode="&#xfd05;" horiz-adv-x="1163" arabic-form="isolated" 
d="M796 0c-42 0 -77.334 9.17578 -106.001 27.5088s-53.5 40.5 -74.5 66.5s-40.333 53.167 -58 81.5s-36.5 52.5 -56.5 72.5c-17.333 0 -35.333 -3.66699 -54 -11s-36.167 -17 -52.5 -29s-30.833 -25.667 -43.5 -41s-21.667 -31 -27 -47c5.33301 -4 19 -8.33301 41 -13
s57 -10.667 105 -18c23.333 -4 42 -8.5 56 -13.5s24.833 -11.333 32.5 -19s12.834 -16.834 15.501 -27.501s4 -23 4 -37s-1 -28.167 -3 -42.5s-4.16699 -28 -6.5 -41s-5 -24.333 -8 -34s-5.5 -16.5 -7.5 -20.5c-2.66699 -5.33301 -11 -13.666 -25 -24.999
s-33.167 -22.833 -57.5 -34.5s-54 -21.834 -89 -30.501s-74.833 -13 -119.5 -13c-46 0 -83.333 5 -112 15s-51 23.167 -67 39.5s-26.833 35.166 -32.5 56.499s-8.5 43.666 -8.5 66.999c0 14 0.833008 33.5 2.5 58.5s3.83398 50.167 6.50098 75.5
c2.66699 29.333 5.66699 60.333 9 93l80 -4c-1.33301 -31.333 -3 -61.333 -5 -90c-1.33301 -24.667 -2.83301 -49.5 -4.5 -74.5s-2.83398 -45.167 -3.50098 -60.5c13.333 -12.667 30.666 -22.334 51.999 -29.001s49 -10 83 -10c41.333 0 82.5 4.16699 123.5 12.5
s77.167 19.166 108.5 32.499c0.666992 4.66699 0.833984 9.16699 0.500977 13.5s-0.833008 9.16602 -1.5 14.499c-15.333 4.66699 -34 8.16699 -56 10.5s-44.333 5.16602 -67 8.49902c-45.333 7.33301 -77.166 18.166 -95.499 32.499s-27.5 38.166 -27.5 71.499
c0 32.667 7.5 65.834 22.5 99.501s35.167 64.167 60.5 91.5s54.666 49.666 87.999 66.999s68.333 26 105 26c11.333 0 22.333 -5.83301 33 -17.5s22 -26.334 34 -44.001l38.5 -57c13.667 -20.333 29.5 -38.833 47.5 -55.5l101.5 85.5l72.5 59.5l49 38
c12.667 9.33301 23.167 16.5 31.5 21.5s14.833 8.16699 19.5 9.5s9.33398 2 14.001 2c18 0 36.333 -5.5 55 -16.5s35.5 -26 50.5 -45s27.333 -41.167 37 -66.5s14.5 -52.666 14.5 -81.999c0 -12.667 -1.83301 -27.667 -5.5 -45s-8.83398 -34.5 -15.501 -51.5
s-15.167 -32.333 -25.5 -46s-21.833 -23.5 -34.5 -29.5c-20.667 -9.33301 -47.167 -16.333 -79.5 -21s-72.833 -7 -121.5 -7h-43zM929.999 288.009c-4 0 -10 -2 -18 -6s-19.333 -11 -34 -21s-33.5 -23.833 -56.5 -41.5l-85.5 -67.5c20.667 -10 44 -15 70 -15h84
c20 0 37.333 0.333008 52 1s27.667 1.66699 39 3s21.333 3 30 5s16.667 4.33301 24 7c-2 18 -7 35 -15 51s-17.333 30.333 -28 43s-21.667 22.667 -33 30s-21 11 -29 11z" />
    <glyph glyph-name="uniFD07" unicode="&#xfd07;" horiz-adv-x="1163" arabic-form="isolated" 
d="M796 0c-42 0 -77.334 9.17578 -106.001 27.5088s-53.5 40.5 -74.5 66.5s-40.333 53.167 -58 81.5s-36.5 52.5 -56.5 72.5c-17.333 0 -35.333 -3.66699 -54 -11s-36.167 -17 -52.5 -29s-30.833 -25.667 -43.5 -41s-21.667 -31 -27 -47c5.33301 -4 19 -8.33301 41 -13
s57 -10.667 105 -18c23.333 -4 42 -8.5 56 -13.5s24.833 -11.333 32.5 -19s12.834 -16.834 15.501 -27.501s4 -23 4 -37s-1 -28.167 -3 -42.5s-4.16699 -28 -6.5 -41s-5 -24.333 -8 -34s-5.5 -16.5 -7.5 -20.5c-2.66699 -5.33301 -11 -13.666 -25 -24.999
s-33.167 -22.833 -57.5 -34.5s-54 -21.834 -89 -30.501s-74.833 -13 -119.5 -13c-46 0 -83.333 5 -112 15s-51 23.167 -67 39.5s-26.833 35.166 -32.5 56.499s-8.5 43.666 -8.5 66.999c0 14 0.833008 33.5 2.5 58.5s3.83398 50.167 6.50098 75.5
c2.66699 29.333 5.66699 60.333 9 93l80 -4c-1.33301 -31.333 -3 -61.333 -5 -90c-1.33301 -24.667 -2.83301 -49.5 -4.5 -74.5s-2.83398 -45.167 -3.50098 -60.5c13.333 -12.667 30.666 -22.334 51.999 -29.001s49 -10 83 -10c41.333 0 82.5 4.16699 123.5 12.5
s77.167 19.166 108.5 32.499c0.666992 4.66699 0.833984 9.16699 0.500977 13.5s-0.833008 9.16602 -1.5 14.499c-15.333 4.66699 -34 8.16699 -56 10.5s-44.333 5.16602 -67 8.49902c-45.333 7.33301 -77.166 18.166 -95.499 32.499s-27.5 38.166 -27.5 71.499
c0 32.667 7.5 65.834 22.5 99.501s35.167 64.167 60.5 91.5s54.666 49.666 87.999 66.999s68.333 26 105 26c11.333 0 22.333 -5.83301 33 -17.5s22 -26.334 34 -44.001l38.5 -57c13.667 -20.333 29.5 -38.833 47.5 -55.5l101.5 85.5l72.5 59.5l49 38
c12.667 9.33301 23.167 16.5 31.5 21.5s14.833 8.16699 19.5 9.5s9.33398 2 14.001 2c18 0 36.333 -5.5 55 -16.5s35.5 -26 50.5 -45s27.333 -41.167 37 -66.5s14.5 -52.666 14.5 -81.999c0 -12.667 -1.83301 -27.667 -5.5 -45s-8.83398 -34.5 -15.501 -51.5
s-15.167 -32.333 -25.5 -46s-21.833 -23.5 -34.5 -29.5c-20.667 -9.33301 -47.167 -16.333 -79.5 -21s-72.833 -7 -121.5 -7h-43zM929.999 288.009c-4 0 -10 -2 -18 -6s-19.333 -11 -34 -21s-33.5 -23.833 -56.5 -41.5l-85.5 -67.5c20.667 -10 44 -15 70 -15h84
c20 0 37.333 0.333008 52 1s27.667 1.66699 39 3s21.333 3 30 5s16.667 4.33301 24 7c-2 18 -7 35 -15 51s-17.333 30.333 -28 43s-21.667 22.667 -33 30s-21 11 -29 11zM873.999 538.009l54 89l100 -63l-58 -86z" />
    <glyph glyph-name="uniFD0D" unicode="&#xfd0d;" horiz-adv-x="951" arabic-form="isolated" 
d="M732 0c-24 0 -45.1699 5 -63.5029 15s-34.166 30.333 -47.499 61c-5.33301 -10.667 -9.83301 -19.334 -13.5 -26.001s-7.33398 -12.167 -11.001 -16.5s-7 -7.66602 -10 -9.99902s-6.5 -4.5 -10.5 -6.5c-20.667 -11.333 -46.334 -17 -77.001 -17
c-24 -0 -44.5 2.83301 -61.5 8.5s-31.333 14.834 -43 27.501s-21 29 -28 49s-12.5 44.333 -16.5 73l-6 38c-48 -6.66699 -95 -17.334 -141 -32.001c4.66699 -19.333 8.33398 -38.666 11.001 -57.999s4 -37.333 4 -54c0 -46.667 -6.33301 -87.5 -19 -122.5
s-27.667 -64.333 -45 -88s-35 -41.5 -53 -53.5s-32 -18 -42 -18c-3.33301 0 -7.66602 0.333008 -12.999 1s-13.333 2 -24 4l-42.5 8c-17.667 3.33301 -40.167 8 -67.5 14v44c28 10 54 22 78 36s45.5 29.167 64.5 45.5s35.333 33.166 49 50.499s23.834 34.333 30.501 51
c-3.33301 12.667 -7.16602 26.167 -11.499 40.5s-9 28.666 -14 42.999l-15 41c-5 13 -9.5 24.167 -13.5 33.5l42 77c39.333 13.333 82.666 25.333 129.999 36s93.666 18.334 138.999 23.001l20 -14l16 -94c4.66699 -26.667 12.834 -45.5 24.501 -56.5
s29.167 -16.5 52.5 -16.5c12 0 23.667 0.833008 35 2.5s22.333 4.5 33 8.5l28 142h77c0 -16 -0.166992 -29 -0.5 -39s-0.5 -18.167 -0.5 -24.5v-14.5v-8c0 -21.333 5.66699 -37.833 17 -49.5s26.333 -17.5 45 -17.5c12 0 26.333 1.16699 43 3.5s31.667 6.16602 45 11.499
c-4 26.667 -11.5 55.834 -22.5 87.501s-21.833 59.5 -32.5 83.5l84 66l18 -7c13.333 -34.667 22.666 -66.834 27.999 -96.501s8 -60.167 8 -91.5c0 -18.667 -2.66699 -37 -8 -55s-11.666 -34.5 -18.999 -49.5s-14.666 -27.667 -21.999 -38s-13.333 -17.5 -18 -21.5
c-14 -11.333 -31 -19.166 -51 -23.499s-39.667 -6.5 -59 -6.5zM526.997 503l97 -61l42 61l97 -60l-54 -89l-98 62l-42 -62l-96 60zM123.997 352l-96 60l54 89l100 -63zM575.997 648l96 -60l-53 -89l-101 64z" />
    <glyph glyph-name="uniFD0E" unicode="&#xfd0e;" horiz-adv-x="951" arabic-form="isolated" 
d="M732 0c-24 0 -45.1699 5 -63.5029 15s-34.166 30.333 -47.499 61c-5.33301 -10.667 -9.83301 -19.334 -13.5 -26.001s-7.33398 -12.167 -11.001 -16.5s-7 -7.66602 -10 -9.99902s-6.5 -4.5 -10.5 -6.5c-20.667 -11.333 -46.334 -17 -77.001 -17
c-24 -0 -44.5 2.83301 -61.5 8.5s-31.333 14.834 -43 27.501s-21 29 -28 49s-12.5 44.333 -16.5 73l-6 38c-48 -6.66699 -95 -17.334 -141 -32.001c4.66699 -19.333 8.33398 -38.666 11.001 -57.999s4 -37.333 4 -54c0 -46.667 -6.33301 -87.5 -19 -122.5
s-27.667 -64.333 -45 -88s-35 -41.5 -53 -53.5s-32 -18 -42 -18c-3.33301 0 -7.66602 0.333008 -12.999 1s-13.333 2 -24 4l-42.5 8c-17.667 3.33301 -40.167 8 -67.5 14v44c28 10 54 22 78 36s45.5 29.167 64.5 45.5s35.333 33.166 49 50.499s23.834 34.333 30.501 51
c-3.33301 12.667 -7.16602 26.167 -11.499 40.5s-9 28.666 -14 42.999l-15 41c-5 13 -9.5 24.167 -13.5 33.5l42 77c39.333 13.333 82.666 25.333 129.999 36s93.666 18.334 138.999 23.001l20 -14l16 -94c4.66699 -26.667 12.834 -45.5 24.501 -56.5
s29.167 -16.5 52.5 -16.5c12 0 23.667 0.833008 35 2.5s22.333 4.5 33 8.5l28 142h77c0 -16 -0.166992 -29 -0.5 -39s-0.5 -18.167 -0.5 -24.5v-14.5v-8c0 -21.333 5.66699 -37.833 17 -49.5s26.333 -17.5 45 -17.5c12 0 26.333 1.16699 43 3.5s31.667 6.16602 45 11.499
c-4 26.667 -11.5 55.834 -22.5 87.501s-21.833 59.5 -32.5 83.5l84 66l18 -7c13.333 -34.667 22.666 -66.834 27.999 -96.501s8 -60.167 8 -91.5c0 -18.667 -2.66699 -37 -8 -55s-11.666 -34.5 -18.999 -49.5s-14.666 -27.667 -21.999 -38s-13.333 -17.5 -18 -21.5
c-14 -11.333 -31 -19.166 -51 -23.499s-39.667 -6.5 -59 -6.5zM123.997 352l-96 60l54 89l100 -63z" />
    <glyph glyph-name="uniFD0F" unicode="&#xfd0f;" horiz-adv-x="942" arabic-form="isolated" 
d="M499 0c-24 0 -44.501 2.83105 -61.501 8.49805s-31.333 14.834 -43 27.501s-21 29 -28 49s-12.5 44.333 -16.5 73l-6 38c-48 -6.66699 -95 -17.334 -141 -32.001c4.66699 -19.333 8.33398 -38.666 11.001 -57.999s4 -37.333 4 -54c0 -46.667 -6.33301 -87.5 -19 -122.5
s-27.667 -64.333 -45 -88s-35 -41.5 -53 -53.5s-32 -18 -42 -18c-3.33301 0 -7.66602 0.333008 -12.999 1s-13.333 2 -24 4l-42.5 8c-17.667 3.33301 -40.167 8 -67.5 14v44c28 10 54 22 78 36s45.5 29.167 64.5 45.5s35.333 33.166 49 50.499s23.834 34.333 30.501 51
c-3.33301 12.667 -7.16602 26.167 -11.499 40.5s-9 28.666 -14 42.999l-15 41c-5 13 -9.5 24.167 -13.5 33.5l42 77c39.333 13.333 82.666 25.333 129.999 36s93.666 18.334 138.999 23.001l20 -14l16 -94c1.33301 -6.66699 2.66602 -12.5 3.99902 -17.5l4 -14.5l151.5 127
c37.667 30.667 67 53.834 88 69.501s36 25.5 45 29.5s16.5 6 22.5 6c18 0 36.5 -5.5 55.5 -16.5s36 -26 51 -45s27.333 -41.167 37 -66.5s14.5 -52.666 14.5 -81.999c0 -12.667 -1.83301 -27.667 -5.5 -45s-9 -34.5 -16 -51.5s-15.667 -32.333 -26 -46
s-21.833 -23.5 -34.5 -29.5c-21.333 -9.33301 -48 -16.333 -80 -21s-72.333 -7 -121 -7h-118zM708.999 287.998c-4.66699 0 -11.1689 -2.16699 -19.502 -6.5s-20.5 -12 -36.5 -23s-36.5 -26.333 -61.5 -46l-94.5 -75.5h172c20 0 37.333 0.333008 52 1s27.667 1.66699 39 3
s21.333 3 30 5s16.667 4.33301 24 7c-2 18 -7.16699 35 -15.5 51s-17.666 30.333 -27.999 43s-21.166 22.667 -32.499 30s-21 11 -29 11zM123.997 351.998l-96 60l54 89l100 -63z" />
    <glyph glyph-name="uniFD10" unicode="&#xfd10;" horiz-adv-x="942" arabic-form="isolated" 
d="M499 0c-24 0 -44.501 2.83105 -61.501 8.49805s-31.333 14.834 -43 27.501s-21 29 -28 49s-12.5 44.333 -16.5 73l-6 38c-48 -6.66699 -95 -17.334 -141 -32.001c4.66699 -19.333 8.33398 -38.666 11.001 -57.999s4 -37.333 4 -54c0 -46.667 -6.33301 -87.5 -19 -122.5
s-27.667 -64.333 -45 -88s-35 -41.5 -53 -53.5s-32 -18 -42 -18c-3.33301 0 -7.66602 0.333008 -12.999 1s-13.333 2 -24 4l-42.5 8c-17.667 3.33301 -40.167 8 -67.5 14v44c28 10 54 22 78 36s45.5 29.167 64.5 45.5s35.333 33.166 49 50.499s23.834 34.333 30.501 51
c-3.33301 12.667 -7.16602 26.167 -11.499 40.5s-9 28.666 -14 42.999l-15 41c-5 13 -9.5 24.167 -13.5 33.5l42 77c39.333 13.333 82.666 25.333 129.999 36s93.666 18.334 138.999 23.001l20 -14l16 -94c1.33301 -6.66699 2.66602 -12.5 3.99902 -17.5l4 -14.5l151.5 127
c37.667 30.667 67 53.834 88 69.501s36 25.5 45 29.5s16.5 6 22.5 6c18 0 36.5 -5.5 55.5 -16.5s36 -26 51 -45s27.333 -41.167 37 -66.5s14.5 -52.666 14.5 -81.999c0 -12.667 -1.83301 -27.667 -5.5 -45s-9 -34.5 -16 -51.5s-15.667 -32.333 -26 -46
s-21.833 -23.5 -34.5 -29.5c-21.333 -9.33301 -48 -16.333 -80 -21s-72.333 -7 -121 -7h-118zM708.999 287.998c-4.66699 0 -11.1689 -2.16699 -19.502 -6.5s-20.5 -12 -36.5 -23s-36.5 -26.333 -61.5 -46l-94.5 -75.5h172c20 0 37.333 0.333008 52 1s27.667 1.66699 39 3
s21.333 3 30 5s16.667 4.33301 24 7c-2 18 -7.16699 35 -15.5 51s-17.666 30.333 -27.999 43s-21.166 22.667 -32.499 30s-21 11 -29 11zM123.997 351.998l-96 60l54 89l100 -63zM651.997 537.998l54 89l100 -63l-58 -86z" />
    <glyph glyph-name="uniFD17" unicode="&#xfd17;" horiz-adv-x="1239" arabic-form="final" 
d="M1239 0c-29.333 0 -53.8369 5.00977 -73.5039 15.0098s-35.834 30.667 -48.501 62c-5.33301 -10.667 -10 -19.334 -14 -26.001s-7.83301 -12.334 -11.5 -17.001s-7.16699 -8.16699 -10.5 -10.5s-7 -4.5 -11 -6.5c-18.667 -11.333 -41.667 -17 -69 -17
c-24 0 -45.167 5 -63.5 15s-34.166 30.333 -47.499 61c-10 -20.667 -18.167 -34.834 -24.5 -42.501s-13.166 -13.167 -20.499 -16.5c-19.333 -11.333 -45 -17 -77 -17c-33.333 0 -62.166 9.16699 -86.499 27.5s-46.5 40.5 -66.5 66.5s-39 53.167 -57 81.5s-37 52.5 -57 72.5
c-17.333 0 -35.333 -3.66699 -54 -11s-36.167 -17 -52.5 -29s-30.833 -25.667 -43.5 -41s-21.667 -31 -27 -47c5.33301 -4 19 -8.33301 41 -13s57 -10.667 105 -18c23.333 -4 42 -8.5 56 -13.5s24.833 -11.333 32.5 -19s12.834 -16.834 15.501 -27.501s4 -23 4 -37
s-1 -28.167 -3 -42.5s-4.16699 -28 -6.5 -41s-5 -24.333 -8 -34s-5.5 -16.5 -7.5 -20.5c-2.66699 -5.33301 -11 -13.666 -25 -24.999s-33.167 -22.833 -57.5 -34.5s-54 -21.834 -89 -30.501s-74.833 -13 -119.5 -13c-46 0 -83.333 5 -112 15s-51 23.167 -67 39.5
s-26.833 35.166 -32.5 56.499s-8.5 43.666 -8.5 66.999c0 14 0.833008 33.5 2.5 58.5s3.83398 50.167 6.50098 75.5c2.66699 29.333 5.66699 60.333 9 93l80 -4c-1.33301 -31.333 -3 -61.333 -5 -90c-1.33301 -24.667 -2.83301 -49.5 -4.5 -74.5
s-2.83398 -45.167 -3.50098 -60.5c13.333 -12.667 30.666 -22.334 51.999 -29.001s49 -10 83 -10c41.333 0 82.5 4.16699 123.5 12.5s77.167 19.166 108.5 32.499c0.666992 4.66699 0.833984 9.16699 0.500977 13.5s-0.833008 9.16602 -1.5 14.499
c-15.333 4.66699 -34 8.16699 -56 10.5s-44.333 5.16602 -67 8.49902c-45.333 7.33301 -77.166 18.166 -95.499 32.499s-27.5 38.166 -27.5 71.499c0 32.667 7.5 65.834 22.5 99.501s35.167 64.167 60.5 91.5s54.666 49.666 87.999 66.999s68.333 26 105 26
c11.333 0 22.333 -5.66699 33 -17s21.834 -25.666 33.501 -42.999l36.5 -55.5c12.667 -19.667 26.5 -38.167 41.5 -55.5s31.167 -31.666 48.5 -42.999s36.333 -17 57 -17c12 0 23.667 0.833008 35 2.5s22.333 4.5 33 8.5l28 142h77c0 -16 -0.166992 -29 -0.5 -39
s-0.5 -18.167 -0.5 -24.5v-14.5v-8c0 -21.333 5.66699 -37.833 17 -49.5s26.333 -17.5 45 -17.5c16.667 0 34.334 3.33301 53.001 10c3.33301 14 6.66602 30.667 9.99902 50s6.66602 37.666 9.99902 54.999c3.33301 20.667 7 41.667 11 63h80
c0 -20 -0.166992 -36.667 -0.5 -50s-0.5 -24.166 -0.5 -32.499v-19v-9.5c0 -20 5.83301 -36.167 17.5 -48.5s28.834 -18.5 51.501 -18.5v-137v0z" />
    <glyph glyph-name="uniFD21" unicode="&#xfd21;" horiz-adv-x="1205" arabic-form="final" 
d="M1194 0c-10 0 -20.3359 0.674805 -31.0029 2.00781s-21.167 4 -31.5 8s-20.333 9.83301 -30 17.5s-18.5 17.834 -26.5 30.501c-10 -14 -21.667 -24 -35 -30c-20.667 -9.33301 -47.167 -16.333 -79.5 -21s-72.833 -7 -121.5 -7h-43c-42 0 -77.333 9.16699 -106 27.5
s-53.5 40.5 -74.5 66.5s-40.333 53.167 -58 81.5s-36.5 52.5 -56.5 72.5c-17.333 0 -35.333 -3.66699 -54 -11s-36.167 -17 -52.5 -29s-30.833 -25.667 -43.5 -41s-21.667 -31 -27 -47c5.33301 -4 19 -8.33301 41 -13s57 -10.667 105 -18c23.333 -4 42 -8.5 56 -13.5
s24.833 -11.333 32.5 -19s12.834 -16.834 15.501 -27.501s4 -23 4 -37s-1 -28.167 -3 -42.5s-4.16699 -28 -6.5 -41s-5 -24.333 -8 -34s-5.5 -16.5 -7.5 -20.5c-2.66699 -5.33301 -11 -13.666 -25 -24.999s-33.167 -22.833 -57.5 -34.5s-54 -21.834 -89 -30.501
s-74.833 -13 -119.5 -13c-46 0 -83.333 5 -112 15s-51 23.167 -67 39.5s-26.833 35.166 -32.5 56.499s-8.5 43.666 -8.5 66.999c0 14 0.833008 33.5 2.5 58.5s3.83398 50.167 6.50098 75.5c2.66699 29.333 5.66699 60.333 9 93l80 -4c-1.33301 -31.333 -3 -61.333 -5 -90
c-1.33301 -24.667 -2.83301 -49.5 -4.5 -74.5s-2.83398 -45.167 -3.50098 -60.5c13.333 -12.667 30.666 -22.334 51.999 -29.001s49 -10 83 -10c41.333 0 82.5 4.16699 123.5 12.5s77.167 19.166 108.5 32.499c0.666992 4.66699 0.833984 9.16699 0.500977 13.5
s-0.833008 9.16602 -1.5 14.499c-15.333 4.66699 -34 8.16699 -56 10.5s-44.333 5.16602 -67 8.49902c-45.333 7.33301 -77.166 18.166 -95.499 32.499s-27.5 38.166 -27.5 71.499c0 32.667 7.5 65.834 22.5 99.501s35.167 64.167 60.5 91.5s54.666 49.666 87.999 66.999
s68.333 26 105 26c11.333 0 22.333 -5.83301 33 -17.5s22 -26.334 34 -44.001l38.5 -57c13.667 -20.333 29.5 -38.833 47.5 -55.5l101.5 85.5l72.5 59.5l49 38c12.667 9.33301 23.167 16.5 31.5 21.5s14.833 8.16699 19.5 9.5s9.33398 2 14.001 2c18 0 36.333 -5.5 55 -16.5
s35.5 -26 50.5 -45s27.333 -41.167 37 -66.5s14.5 -52.666 14.5 -81.999c0 -7.33301 -0.666992 -15.5 -2 -24.5s-3 -18.167 -5 -27.5c9.33301 -4.66699 20.333 -7.66699 33 -9s28.334 -2 47.001 -2h11v-137h-11zM929.997 288.008c-4 0 -10 -2 -18 -6s-19.333 -11 -34 -21
s-33.5 -23.833 -56.5 -41.5l-85.5 -67.5c20.667 -10 44 -15 70 -15h84c20 0 37.333 0.333008 52 1s27.667 1.66699 39 3s21.333 3 30 5s16.667 4.33301 24 7c-2 18 -7 35 -15 51s-17.333 30.333 -28 43s-21.667 22.667 -33 30s-21 11 -29 11z" />
    <glyph glyph-name="uniFD23" unicode="&#xfd23;" horiz-adv-x="1205" arabic-form="final" 
d="M1194 0c-10 0 -20.3359 0.674805 -31.0029 2.00781s-21.167 4 -31.5 8s-20.333 9.83301 -30 17.5s-18.5 17.834 -26.5 30.501c-10 -14 -21.667 -24 -35 -30c-20.667 -9.33301 -47.167 -16.333 -79.5 -21s-72.833 -7 -121.5 -7h-43c-42 0 -77.333 9.16699 -106 27.5
s-53.5 40.5 -74.5 66.5s-40.333 53.167 -58 81.5s-36.5 52.5 -56.5 72.5c-17.333 0 -35.333 -3.66699 -54 -11s-36.167 -17 -52.5 -29s-30.833 -25.667 -43.5 -41s-21.667 -31 -27 -47c5.33301 -4 19 -8.33301 41 -13s57 -10.667 105 -18c23.333 -4 42 -8.5 56 -13.5
s24.833 -11.333 32.5 -19s12.834 -16.834 15.501 -27.501s4 -23 4 -37s-1 -28.167 -3 -42.5s-4.16699 -28 -6.5 -41s-5 -24.333 -8 -34s-5.5 -16.5 -7.5 -20.5c-2.66699 -5.33301 -11 -13.666 -25 -24.999s-33.167 -22.833 -57.5 -34.5s-54 -21.834 -89 -30.501
s-74.833 -13 -119.5 -13c-46 0 -83.333 5 -112 15s-51 23.167 -67 39.5s-26.833 35.166 -32.5 56.499s-8.5 43.666 -8.5 66.999c0 14 0.833008 33.5 2.5 58.5s3.83398 50.167 6.50098 75.5c2.66699 29.333 5.66699 60.333 9 93l80 -4c-1.33301 -31.333 -3 -61.333 -5 -90
c-1.33301 -24.667 -2.83301 -49.5 -4.5 -74.5s-2.83398 -45.167 -3.50098 -60.5c13.333 -12.667 30.666 -22.334 51.999 -29.001s49 -10 83 -10c41.333 0 82.5 4.16699 123.5 12.5s77.167 19.166 108.5 32.499c0.666992 4.66699 0.833984 9.16699 0.500977 13.5
s-0.833008 9.16602 -1.5 14.499c-15.333 4.66699 -34 8.16699 -56 10.5s-44.333 5.16602 -67 8.49902c-45.333 7.33301 -77.166 18.166 -95.499 32.499s-27.5 38.166 -27.5 71.499c0 32.667 7.5 65.834 22.5 99.501s35.167 64.167 60.5 91.5s54.666 49.666 87.999 66.999
s68.333 26 105 26c11.333 0 22.333 -5.83301 33 -17.5s22 -26.334 34 -44.001l38.5 -57c13.667 -20.333 29.5 -38.833 47.5 -55.5l101.5 85.5l72.5 59.5l49 38c12.667 9.33301 23.167 16.5 31.5 21.5s14.833 8.16699 19.5 9.5s9.33398 2 14.001 2c18 0 36.333 -5.5 55 -16.5
s35.5 -26 50.5 -45s27.333 -41.167 37 -66.5s14.5 -52.666 14.5 -81.999c0 -7.33301 -0.666992 -15.5 -2 -24.5s-3 -18.167 -5 -27.5c9.33301 -4.66699 20.333 -7.66699 33 -9s28.334 -2 47.001 -2h11v-137h-11zM929.997 288.008c-4 0 -10 -2 -18 -6s-19.333 -11 -34 -21
s-33.5 -23.833 -56.5 -41.5l-85.5 -67.5c20.667 -10 44 -15 70 -15h84c20 0 37.333 0.333008 52 1s27.667 1.66699 39 3s21.333 3 30 5s16.667 4.33301 24 7c-2 18 -7 35 -15 51s-17.333 30.333 -28 43s-21.667 22.667 -33 30s-21 11 -29 11zM873.997 538.008l54 89l100 -63
l-58 -86z" />
    <glyph glyph-name="uniFD29" unicode="&#xfd29;" horiz-adv-x="970" arabic-form="final" 
d="M970 0c-29.333 0 -53.8359 5.00098 -73.5029 15.001s-35.834 30.667 -48.501 62c-5.33301 -10.667 -10.166 -19.334 -14.499 -26.001s-8.33301 -12.167 -12 -16.5s-7.16699 -7.83301 -10.5 -10.5s-6.66602 -5 -9.99902 -7c-19.333 -11.333 -42.333 -17 -69 -17
c-24 0 -45.167 5 -63.5 15s-34.166 30.333 -47.499 61c-5.33301 -10.667 -9.83301 -19.334 -13.5 -26.001s-7.33398 -12.167 -11.001 -16.5s-7 -7.66602 -10 -9.99902s-6.5 -4.5 -10.5 -6.5c-20.667 -11.333 -46.334 -17 -77.001 -17c-24 -0 -44.5 2.83301 -61.5 8.5
s-31.333 14.834 -43 27.501s-21 29 -28 49s-12.5 44.333 -16.5 73l-6 38c-48 -6.66699 -95 -17.334 -141 -32.001c4.66699 -19.333 8.33398 -38.666 11.001 -57.999s4 -37.333 4 -54c0 -46.667 -6.33301 -87.5 -19 -122.5s-27.667 -64.333 -45 -88s-35 -41.5 -53 -53.5
s-32 -18 -42 -18c-3.33301 0 -7.66602 0.333008 -12.999 1s-13.333 2 -24 4l-42.5 8c-17.667 3.33301 -40.167 8 -67.5 14v44c28 10 54 22 78 36s45.5 29.167 64.5 45.5s35.333 33.166 49 50.499s23.834 34.333 30.501 51c-3.33301 12.667 -7.16602 26.167 -11.499 40.5
s-9 28.666 -14 42.999l-15 41c-5 13 -9.5 24.167 -13.5 33.5l42 77c39.333 13.333 82.666 25.333 129.999 36s93.666 18.334 138.999 23.001l20 -14l16 -94c4.66699 -26.667 12.834 -45.5 24.501 -56.5s29.167 -16.5 52.5 -16.5c12 0 23.667 0.833008 35 2.5
s22.333 4.5 33 8.5l28 142h77c0 -16 -0.166992 -29 -0.5 -39s-0.5 -18.167 -0.5 -24.5v-14.5v-8c0 -21.333 5.66699 -37.833 17 -49.5s26.333 -17.5 45 -17.5c16.667 0 34.334 3.33301 53.001 10c3.33301 14 6.66602 30.667 9.99902 50s6.66602 37.666 9.99902 54.999
c3.33301 20.667 7 41.667 11 63h80c0 -20 -0.166992 -36.667 -0.5 -50s-0.5 -24.166 -0.5 -32.499v-19v-9.5c0 -20 5.83301 -36.167 17.5 -48.5s28.834 -18.5 51.501 -18.5v-137zM536.997 503.001l97 -61l42 61l97 -60l-54 -89l-98 62l-42 -62l-96 60zM123.997 352.001
l-96 60l54 89l100 -63zM585.997 648.001l96 -60l-53 -89l-101 64z" />
    <glyph glyph-name="uniFD2A" unicode="&#xfd2a;" horiz-adv-x="970" arabic-form="final" 
d="M970 0c-29.333 0 -53.8359 5.00098 -73.5029 15.001s-35.834 30.667 -48.501 62c-5.33301 -10.667 -10.166 -19.334 -14.499 -26.001s-8.33301 -12.167 -12 -16.5s-7.16699 -7.83301 -10.5 -10.5s-6.66602 -5 -9.99902 -7c-19.333 -11.333 -42.333 -17 -69 -17
c-24 0 -45.167 5 -63.5 15s-34.166 30.333 -47.499 61c-5.33301 -10.667 -9.83301 -19.334 -13.5 -26.001s-7.33398 -12.167 -11.001 -16.5s-7 -7.66602 -10 -9.99902s-6.5 -4.5 -10.5 -6.5c-20.667 -11.333 -46.334 -17 -77.001 -17c-24 -0 -44.5 2.83301 -61.5 8.5
s-31.333 14.834 -43 27.501s-21 29 -28 49s-12.5 44.333 -16.5 73l-6 38c-48 -6.66699 -95 -17.334 -141 -32.001c4.66699 -19.333 8.33398 -38.666 11.001 -57.999s4 -37.333 4 -54c0 -46.667 -6.33301 -87.5 -19 -122.5s-27.667 -64.333 -45 -88s-35 -41.5 -53 -53.5
s-32 -18 -42 -18c-3.33301 0 -7.66602 0.333008 -12.999 1s-13.333 2 -24 4l-42.5 8c-17.667 3.33301 -40.167 8 -67.5 14v44c28 10 54 22 78 36s45.5 29.167 64.5 45.5s35.333 33.166 49 50.499s23.834 34.333 30.501 51c-3.33301 12.667 -7.16602 26.167 -11.499 40.5
s-9 28.666 -14 42.999l-15 41c-5 13 -9.5 24.167 -13.5 33.5l42 77c39.333 13.333 82.666 25.333 129.999 36s93.666 18.334 138.999 23.001l20 -14l16 -94c4.66699 -26.667 12.834 -45.5 24.501 -56.5s29.167 -16.5 52.5 -16.5c12 0 23.667 0.833008 35 2.5
s22.333 4.5 33 8.5l28 142h77c0 -16 -0.166992 -29 -0.5 -39s-0.5 -18.167 -0.5 -24.5v-14.5v-8c0 -21.333 5.66699 -37.833 17 -49.5s26.333 -17.5 45 -17.5c16.667 0 34.334 3.33301 53.001 10c3.33301 14 6.66602 30.667 9.99902 50s6.66602 37.666 9.99902 54.999
c3.33301 20.667 7 41.667 11 63h80c0 -20 -0.166992 -36.667 -0.5 -50s-0.5 -24.166 -0.5 -32.499v-19v-9.5c0 -20 5.83301 -36.167 17.5 -48.5s28.834 -18.5 51.501 -18.5v-137zM123.997 352.001l-96 60l54 89l100 -63z" />
    <glyph glyph-name="uniFD2B" unicode="&#xfd2b;" horiz-adv-x="983" arabic-form="final" 
d="M972 0c-9.33301 0 -19.332 0.664062 -29.999 1.99707s-21.334 4 -32.001 8s-20.834 9.83301 -30.501 17.5s-18.5 17.834 -26.5 30.501c-10 -14 -21.667 -24 -35 -30c-21.333 -9.33301 -48 -16.333 -80 -21s-72.333 -7 -121 -7h-118c-24 0 -44.5 2.83301 -61.5 8.5
s-31.333 14.834 -43 27.501s-21 29 -28 49s-12.5 44.333 -16.5 73l-6 38c-48 -6.66699 -95 -17.334 -141 -32.001c4.66699 -19.333 8.33398 -38.666 11.001 -57.999s4 -37.333 4 -54c0 -46.667 -6.33301 -87.5 -19 -122.5s-27.667 -64.333 -45 -88s-35 -41.5 -53 -53.5
s-32 -18 -42 -18c-3.33301 0 -7.66602 0.333008 -12.999 1s-13.333 2 -24 4l-42.5 8c-17.667 3.33301 -40.167 8 -67.5 14v44c28 10 54 22 78 36s45.5 29.167 64.5 45.5s35.333 33.166 49 50.499s23.834 34.333 30.501 51c-3.33301 12.667 -7.16602 26.167 -11.499 40.5
s-9 28.666 -14 42.999l-15 41c-5 13 -9.5 24.167 -13.5 33.5l42 77c39.333 13.333 82.666 25.333 129.999 36s93.666 18.334 138.999 23.001l20 -14l16 -94c1.33301 -6.66699 2.66602 -12.5 3.99902 -17.5l4 -14.5l151.5 127c37.667 30.667 67 53.834 88 69.501
s36 25.5 45 29.5s16.5 6 22.5 6c18 0 36.5 -5.5 55.5 -16.5s36 -26 51 -45s27.333 -41.167 37 -66.5s14.5 -52.666 14.5 -81.999c0 -7.33301 -0.666992 -15.5 -2 -24.5s-3 -18.167 -5 -27.5c9.33301 -4.66699 20.333 -7.66699 33 -9s28 -2 46 -2h11v-137h-11z
M709.001 287.997c-4.66699 0 -11.1689 -2.16699 -19.502 -6.5s-20.5 -12 -36.5 -23s-36.5 -26.333 -61.5 -46l-94.5 -75.5h172c20 0 37.333 0.333008 52 1s27.667 1.66699 39 3s21.333 3 30 5s16.667 4.33301 24 7c-2 18 -7.16699 35 -15.5 51s-17.666 30.333 -27.999 43
s-21.166 22.667 -32.499 30s-21 11 -29 11zM123.999 351.997l-96 60l54 89l100 -63z" />
    <glyph glyph-name="uniFD2C" unicode="&#xfd2c;" horiz-adv-x="983" arabic-form="final" 
d="M972 0c-9.33301 0 -19.332 0.664062 -29.999 1.99707s-21.334 4 -32.001 8s-20.834 9.83301 -30.501 17.5s-18.5 17.834 -26.5 30.501c-10 -14 -21.667 -24 -35 -30c-21.333 -9.33301 -48 -16.333 -80 -21s-72.333 -7 -121 -7h-118c-24 0 -44.5 2.83301 -61.5 8.5
s-31.333 14.834 -43 27.501s-21 29 -28 49s-12.5 44.333 -16.5 73l-6 38c-48 -6.66699 -95 -17.334 -141 -32.001c4.66699 -19.333 8.33398 -38.666 11.001 -57.999s4 -37.333 4 -54c0 -46.667 -6.33301 -87.5 -19 -122.5s-27.667 -64.333 -45 -88s-35 -41.5 -53 -53.5
s-32 -18 -42 -18c-3.33301 0 -7.66602 0.333008 -12.999 1s-13.333 2 -24 4l-42.5 8c-17.667 3.33301 -40.167 8 -67.5 14v44c28 10 54 22 78 36s45.5 29.167 64.5 45.5s35.333 33.166 49 50.499s23.834 34.333 30.501 51c-3.33301 12.667 -7.16602 26.167 -11.499 40.5
s-9 28.666 -14 42.999l-15 41c-5 13 -9.5 24.167 -13.5 33.5l42 77c39.333 13.333 82.666 25.333 129.999 36s93.666 18.334 138.999 23.001l20 -14l16 -94c1.33301 -6.66699 2.66602 -12.5 3.99902 -17.5l4 -14.5l151.5 127c37.667 30.667 67 53.834 88 69.501
s36 25.5 45 29.5s16.5 6 22.5 6c18 0 36.5 -5.5 55.5 -16.5s36 -26 51 -45s27.333 -41.167 37 -66.5s14.5 -52.666 14.5 -81.999c0 -7.33301 -0.666992 -15.5 -2 -24.5s-3 -18.167 -5 -27.5c9.33301 -4.66699 20.333 -7.66699 33 -9s28 -2 46 -2h11v-137h-11z
M709.001 287.997c-4.66699 0 -11.1689 -2.16699 -19.502 -6.5s-20.5 -12 -36.5 -23s-36.5 -26.333 -61.5 -46l-94.5 -75.5h172c20 0 37.333 0.333008 52 1s27.667 1.66699 39 3s21.333 3 30 5s16.667 4.33301 24 7c-2 18 -7.16699 35 -15.5 51s-17.666 30.333 -27.999 43
s-21.166 22.667 -32.499 30s-21 11 -29 11zM651.999 537.997l54 89l100 -63l-58 -86zM123.999 351.997l-96 60l54 89l100 -63z" />
    <glyph glyph-name="uniFDFC" unicode="&#xfdfc;" horiz-adv-x="1312" arabic-form="isolated" 
d="M140 276c-1.33301 -31.333 -2.99902 -61.3359 -4.99902 -90.0029c-1.33301 -24.667 -2.83301 -49.667 -4.5 -75s-2.83398 -45.666 -3.50098 -60.999c8.66699 -10 23.167 -18.667 43.5 -26s44.166 -11 71.499 -11c32 0 63.333 3 94 9s60.667 16.333 90 31l-12 429
c-0.666992 22.667 -1.66699 42.5 -3 59.5s-3.33301 32.5 -6 46.5s-6.16699 27.667 -10.5 41s-9.5 28 -15.5 44l86 79c10 -21.333 17.833 -41 23.5 -59s10 -36 13 -54s5 -36.5 6 -55.5s1.5 -39.833 1.5 -62.5v-427c0 -28 -1.83301 -54 -5.5 -78s-8.16699 -40.333 -13.5 -49
c-3.33301 -5.33301 -11 -13.166 -23 -23.499s-28.167 -20.5 -48.5 -30.5s-45.333 -18.833 -75 -26.5s-63.5 -11.5 -101.5 -11.5c-40 0 -73 5 -99 15s-46.5 23.167 -61.5 39.5s-25.333 35.333 -31 57s-8.5 44.167 -8.5 67.5c0 14 0.833008 33.5 2.5 58.5
s3.83398 50.167 6.50098 75.5c2.66699 28.667 5.66699 59.334 9 92.001zM622.001 421.997c0 20 -0.667969 38.1611 -2.00098 54.4941s-3.33301 32 -6 47s-6.5 29.667 -11.5 44s-10.833 29.5 -17.5 45.5l85 79c10 -21.333 18 -41 24 -59s10.5 -36 13.5 -54
s4.83301 -36.5 5.5 -55.5s1 -39.833 1 -62.5v-298c7.33301 -10.667 18.5 -17.667 33.5 -21s28.5 -5 40.5 -5v-4c4 2.66699 7.66699 4 11 4c42.667 0 78.334 1 107.001 3s51.667 6.33301 69 13c-2 12 -5 25.667 -9 41s-8.66699 30.833 -14 46.5s-11 31 -17 46
s-11.667 28.5 -17 40.5l87 62l18 -7c11.333 -28 20.5 -58.667 27.5 -92s10.5 -65.666 10.5 -96.999c0 -19.333 -2.16699 -38.166 -6.5 -56.499s-10.166 -35.166 -17.499 -50.499s-15.5 -28.666 -24.5 -39.999s-18.167 -19.666 -27.5 -24.999
c-12.667 -7.33301 -35 -12.666 -67 -15.999s-71.667 -5 -119 -5c-4.66699 0 -8.33398 1 -11.001 3v-3c-30.667 0 -56.5 3.16699 -77.5 9.5s-38 17 -51 32s-22.5 35 -28.5 60s-9 56.167 -9 93.5v227zM964 -109.009c28 10 53.998 22.002 77.998 36.002s45.5 29.167 64.5 45.5
s35.333 33.166 49 50.499s23.834 34.333 30.501 51c-3.33301 13.333 -7.5 28.333 -12.5 45s-11 34.167 -18 52.5l-22 56l-23.5 55.5l91 58l18 -7c8 -20 15 -40.5 21 -61.5s11.333 -41.667 16 -62s8.16699 -39.833 10.5 -58.5s3.5 -35.334 3.5 -50.001
c0 -46.667 -6.33301 -87.5 -19 -122.5s-27.667 -64.333 -45 -88s-35 -41.5 -53 -53.5s-32 -18 -42 -18c-3.33301 0 -7.66602 0.333008 -12.999 1s-13.333 2 -24 4l-42.5 8c-17.667 3.33301 -40.167 8 -67.5 14v44zM665.998 -80.0068l97 -62l42 62l97 -60l-54 -90l-98 62
l-42 -62l-96 61z" />
    <glyph glyph-name="uniFE82" unicode="&#x622;" horiz-adv-x="240" arabic-form="final" 
d="M223 0c-30.667 0 -56.499 3.16699 -77.499 9.5s-38 17 -51 32s-22.5 35 -28.5 60s-9 56.167 -9 93.5v146c0 21.333 -0.833008 40.666 -2.5 57.999s-4 33.166 -7 47.499s-7.16699 28 -12.5 41s-11.333 26.167 -18 39.5l85 84c10.667 -18 19.167 -35.667 25.5 -53
s11.166 -35.166 14.499 -53.499s5.33301 -37.666 6 -57.999s1 -42.5 1 -66.5v-217c7.33301 -10.667 18.5 -17.667 33.5 -21s28.5 -5 40.5 -5h17v-137h-17zM86.001 683c-17.333 0 -34.335 1.33301 -51.002 4s-30.667 5.66699 -42 9l-26 -56h-10l-51 41l28.5 58
c7 14.667 12.833 26 17.5 34s9 13.5 13 16.5s9 4.5 15 4.5c9.33301 0 23.5 -2.5 42.5 -7.5s46.5 -7.5 82.5 -7.5c19.333 0 41 1.5 65 4.5s47.667 8.5 71 16.5l5 -7l-20 -88c-23.333 -8.66699 -47.666 -14.5 -72.999 -17.5s-47.666 -4.5 -66.999 -4.5z" />
    <glyph glyph-name="uniFE84" unicode="&#x623;" horiz-adv-x="240" arabic-form="final" 
d="M223 0c-30.667 0 -56.499 3.16504 -77.499 9.49805s-38 17 -51 32s-22.5 35 -28.5 60s-9 56.167 -9 93.5v88c0 21.333 -0.833008 40.5 -2.5 57.5s-4 32.833 -7 47.5s-7.16699 28.5 -12.5 41.5s-11.333 26.167 -18 39.5l85 84c10.667 -18 19.167 -35.667 25.5 -53
s11.166 -35.166 14.499 -53.499s5.33301 -37.666 6 -57.999s1 -42.833 1 -67.5v-158c7.33301 -10.667 18.5 -17.667 33.5 -21s28.5 -5 40.5 -5h17v-137h-17zM151.001 825.998l-20 -60h-88c-0.666992 -2.66699 -1 -6.66699 -1 -12c0 -16 5.33301 -30.5 16 -43.5
s25.334 -19.5 44.001 -19.5c8 0 20.167 2 36.5 6s35.166 9.66699 56.499 17l5 -70l-226 -84l-9 58l64 32c-15.333 11.333 -27 25.5 -35 42.5s-12 33.5 -12 49.5c0 15.333 2.5 30.5 7.5 45.5s13.167 32.167 24.5 51.5h128z" />
    <glyph glyph-name="uniFE86" unicode="&#x624;" horiz-adv-x="435" arabic-form="final" 
d="M163 -3c-16.667 0 -32.1709 1.66797 -46.5039 5.00098s-26.833 8.83301 -37.5 16.5s-19 17.667 -25 30s-9 27.166 -9 44.499c0 13.333 2.33301 31.333 7 54s10.334 46.334 17.001 71.001s13.834 49 21.501 73s14.5 44 20.5 60l22 16c39.333 -2 72.833 -9.66699 100.5 -23
s50.834 -30.5 69.501 -51.5s33.167 -45 43.5 -72s17.833 -54.833 22.5 -83.5h66v-137h-64c-6 -38 -16.667 -71.5 -32 -100.5s-32.333 -53 -51 -72s-36.834 -33.333 -54.501 -43s-31.5 -14.5 -41.5 -14.5c-3.33301 0 -8 0.333008 -14 1s-15 2 -27 4s-27.167 4.66699 -45.5 8
s-41.5 8 -69.5 14v44c28 7.33301 55.167 16.666 81.5 27.999s50.833 24.166 73.5 38.499s43.167 29.833 61.5 46.5s33.5 34 45.5 52c0 1.33301 -0.166992 2.83301 -0.5 4.5s-0.5 3.16699 -0.5 4.5c-19.333 -5.33301 -40.166 -9.66602 -62.499 -12.999s-46.166 -5 -71.499 -5
zM256.996 678.001l-19.999 -60h-88c-2 -8.66699 -1.83301 -17.5 0.5 -26.5s6 -17 11 -24s11.667 -12.833 20 -17.5s17.5 -7 27.5 -7c8 0 20.167 2 36.5 6s35.166 9.66699 56.499 17l5 -70l-226 -84l-9 58l64 32c-16 11.333 -27.833 25.5 -35.5 42.5s-11.5 33.5 -11.5 49.5
c0 15.333 2.5 30.5 7.5 45.5s13.167 32.167 24.5 51.5h128zM190.997 124.001c15.333 0 30.666 0.666992 45.999 2s29.666 3 42.999 5c-9.33301 32 -24.166 59.167 -44.499 81.5s-49.166 34.833 -86.499 37.5c-2 -5.33301 -4.66699 -13 -8 -23s-6.66602 -20.667 -9.99902 -32
l-9.5 -32.5c-3 -10.333 -4.83301 -18.5 -5.5 -24.5c6 -5.33301 15.167 -9 27.5 -11s28.166 -3 47.499 -3z" />
    <glyph glyph-name="uniFE88" unicode="&#x625;" horiz-adv-x="223" arabic-form="final" 
d="M223 0c-30.667 0 -56.5 3.16699 -77.5 9.5s-38 17 -51 32s-22.5 35 -28.5 60s-9 56.167 -9 93.5v227c0 20 -0.666992 38.167 -2 54.5s-3.33301 32 -6 47s-6.5 29.667 -11.5 44s-10.833 29.5 -17.5 45.5l85 79c10 -21.333 18 -41 24 -59s10.5 -36 13.5 -54
s4.83301 -36.5 5.5 -55.5s1 -39.833 1 -62.5v-298c7.33301 -10.667 18.5 -17.667 33.5 -21s28.5 -5 40.5 -5v-137zM202 -132l-19.999 -60h-88c-2 -8.66699 -1.83301 -17.5 0.5 -26.5s6 -17 11 -24s11.667 -12.833 20 -17.5s17.5 -7 27.5 -7c8 0 20.167 2 36.5 6
s35.166 9.66699 56.499 17l5 -70l-226 -84l-9 58l64 33c-16 11.333 -27.833 25.5 -35.5 42.5s-11.5 33.167 -11.5 48.5s2.5 30.5 7.5 45.5s13.167 32.167 24.5 51.5h128z" />
    <glyph glyph-name="uniFE8A" unicode="&#x626;" horiz-adv-x="585" arabic-form="final" 
d="M552 0c0.666992 -3.33301 1.16992 -7.16016 1.50293 -11.4932s0.5 -8.83301 0.5 -13.5c0 -11.333 -0.666992 -22.5 -2 -33.5s-3 -21.333 -5 -31s-4.16699 -18.167 -6.5 -25.5s-4.5 -12.666 -6.5 -15.999c-4 -5.33301 -13.167 -13.833 -27.5 -25.5
s-33.5 -23.334 -57.5 -35.001s-52.333 -21.834 -85 -30.501s-69 -13 -109 -13c-44 0 -79.833 5 -107.5 15s-49.334 23.167 -65.001 39.5s-26.334 35.166 -32.001 56.499s-8.5 43.666 -8.5 66.999c0 14 0.833008 33.667 2.5 59s3.83398 50.666 6.50098 75.999
c2.66699 29.333 5.66699 60 9 92l80 -4c-1.33301 -31.333 -3 -61.333 -5 -90c-1.33301 -24.667 -2.83301 -49.5 -4.5 -74.5s-2.83398 -45.167 -3.50098 -60.5c13.333 -12.667 29.666 -22.334 48.999 -29.001s45.666 -10 78.999 -10c18.667 0 38.167 1.16699 58.5 3.5
s40.166 5.66602 59.499 9.99902s37.666 9.5 54.999 15.5s32.333 12.667 45 20c0.666992 6.66699 1 14 1 22s-0.333008 14.667 -1 20c-15.333 7.33301 -40.166 11.666 -74.499 12.999l-133.5 5l-5 12l15.5 51.5c5 16.333 9.5 27.5 13.5 33.5
c2.66699 5.33301 6 9.83301 10 13.5s9.83301 6.66699 17.5 9s17.834 4 30.501 5s29.334 1.5 50.001 1.5h188v-137h-33zM404.003 453.006l-19.999 -60h-88c-2 -8.66699 -1.83301 -17.5 0.5 -26.5s6 -17 11 -24s11.667 -12.833 20 -17.5s17.5 -7 27.5 -7c8 0 20.167 2 36.5 6
s35.166 9.66699 56.499 17l5 -70l-226 -84l-9 58l64 32c-16 11.333 -27.833 25.5 -35.5 42.5s-11.5 33.5 -11.5 49.5c0 15.333 2.5 30.5 7.5 45.5s13.167 32.167 24.5 51.5h128z" />
    <glyph glyph-name="uniFE8B" unicode="&#x626;" horiz-adv-x="304" arabic-form="initial" 
d="M0 0c-10.667 0 -17.8359 6.66211 -21.5029 19.9951s-5.5 29.333 -5.5 48c0 19.333 1.83301 35.666 5.5 48.999s10.834 20 21.501 20c42.667 0 78.334 1 107.001 3s51.667 6.33301 69 13c-2 12 -5 25.667 -9 41s-8.66699 30.833 -14 46.5s-11 31 -17 46
s-11.667 28.5 -17 40.5l87 62l18 -7c11.333 -28 20.5 -58.667 27.5 -92s10.5 -65.666 10.5 -96.999c0 -19.333 -2.16699 -38.166 -6.5 -56.499s-10.166 -35.166 -17.499 -50.499s-15.5 -28.666 -24.5 -39.999s-18.167 -19.666 -27.5 -24.999
c-12.667 -7.33301 -35 -12.666 -67 -15.999s-71.667 -5 -119 -5zM210.998 704.995l-19.999 -60h-88c-2 -8.66699 -1.83301 -17.5 0.5 -26.5s6 -17 11 -24s11.667 -12.833 20 -17.5s17.5 -7 27.5 -7c8 0 20.167 2 36.5 6s35.166 9.66699 56.499 17l5 -70l-226 -84l-9 58
l64 32c-16 11.333 -27.833 25.5 -35.5 42.5s-11.5 33.5 -11.5 49.5c0 15.333 2.5 30.5 7.5 45.5s13.167 32.167 24.5 51.5h128z" />
    <glyph glyph-name="uniFE8C" unicode="&#x626;" horiz-adv-x="339" arabic-form="medial" 
d="M339 0c-13.333 0 -26.834 0.666016 -40.501 1.99902s-26.667 4.83301 -39 10.5s-23.833 14.334 -34.5 26.001s-20 27.834 -28 48.501c-10.667 -23.333 -19.167 -39.333 -25.5 -48s-13.833 -15 -22.5 -19c-29.333 -13.333 -79 -20 -149 -20
c-10.667 0 -17.834 6.66699 -21.501 20s-5.5 29.333 -5.5 48c0 19.333 1.83301 35.666 5.5 48.999s10.834 20 21.501 20c30 0 57.333 1 82 3s45.334 6 62.001 12l29 145h89c-0.666992 -17.333 -1.16699 -31.5 -1.5 -42.5s-0.5 -19.833 -0.5 -26.5v-15.5v-8.5
c0 -22.667 7.33301 -39.5 22 -50.5s33.667 -16.5 57 -16.5v-137zM248.999 616.999l-19.999 -60h-88c-2 -8.66699 -1.83301 -17.5 0.5 -26.5s6 -17 11 -24s11.667 -12.833 20 -17.5s17.5 -7 27.5 -7c8 0 20.167 2 36.5 6s35.166 9.66699 56.499 17l5 -70l-226 -84l-9 58
l64 32c-16 11.333 -27.833 25.5 -35.5 42.5s-11.5 33.5 -11.5 49.5c0 15.333 2.5 30.5 7.5 45.5s13.167 32.167 24.5 51.5h128z" />
    <glyph glyph-name="uniFE8E" unicode="&#x627;" horiz-adv-x="223" arabic-form="final" 
d="M223 0c-30.667 0 -56.5 3.16699 -77.5 9.5s-38 17 -51 32s-22.5 35 -28.5 60s-9 56.167 -9 93.5v227c0 20 -0.666992 38.167 -2 54.5s-3.33301 32 -6 47s-6.5 29.667 -11.5 44s-10.833 29.5 -17.5 45.5l85 79c10 -21.333 18 -41 24 -59s10.5 -36 13.5 -54
s4.83301 -36.5 5.5 -55.5s1 -39.833 1 -62.5v-298c7.33301 -10.667 18.5 -17.667 33.5 -21s28.5 -5 40.5 -5v-137v0z" />
    <glyph glyph-name="uniFE90" unicode="&#x628;" horiz-adv-x="741" arabic-form="final" 
d="M741 0c-12 0 -24.498 0.50293 -37.498 1.50293s-25.667 4.16699 -38 9.5s-23.833 13.333 -34.5 24s-20 25.667 -28 45c-14.667 -27.333 -28.334 -44.666 -41.001 -51.999c-14.667 -8.66699 -42.667 -16.334 -84 -23.001s-96 -10 -164 -10c-38 0 -73.5 1.33301 -106.5 4
s-61.833 9.16699 -86.5 19.5s-44 25.666 -58 45.999s-21 48.166 -21 83.499c0 15.333 0.666992 33 2 53s2.66602 38.667 3.99902 56l6 62l80 -4c-2.66699 -39.333 -4.66699 -71 -6 -95s-2.33301 -44 -3 -60c16 -10 40.5 -17.167 73.5 -21.5s71.5 -6.5 115.5 -6.5
c47.333 0 92 1.66699 134 5s74.667 8.66602 98 15.999l30 144h89c-0.666992 -17.333 -1.16699 -31.5 -1.5 -42.5s-0.5 -19.833 -0.5 -26.5v-15.5v-8.5c0 -22.667 7.5 -39.5 22.5 -50.5s33.5 -16.5 55.5 -16.5v-137zM415.002 -149.997l-58 -86l-96 61l54 89z" />
    <glyph glyph-name="uniFE91" unicode="&#x628;" horiz-adv-x="304" arabic-form="initial" 
d="M0 0c-10.667 0 -17.8359 6.66211 -21.5029 19.9951s-5.5 29.333 -5.5 48c0 19.333 1.83301 35.666 5.5 48.999s10.834 20 21.501 20c42.667 0 78.334 1 107.001 3s51.667 6.33301 69 13c-2 12 -5 25.667 -9 41s-8.66699 30.833 -14 46.5s-11 31 -17 46
s-11.667 28.5 -17 40.5l87 62l18 -7c11.333 -28 20.5 -58.667 27.5 -92s10.5 -65.666 10.5 -96.999c0 -19.333 -2.16699 -38.166 -6.5 -56.499s-10.166 -35.166 -17.499 -50.499s-15.5 -28.666 -24.5 -39.999s-18.167 -19.666 -27.5 -24.999
c-12.667 -7.33301 -35 -12.666 -67 -15.999s-71.667 -5 -119 -5zM147.998 -147.005l-58 -86l-96 61l54 89z" />
    <glyph glyph-name="uniFE92" unicode="&#x628;" horiz-adv-x="339" arabic-form="medial" 
d="M339 0c-13.333 0 -26.834 0.666016 -40.501 1.99902s-26.667 4.83301 -39 10.5s-23.833 14.334 -34.5 26.001s-20 27.834 -28 48.501c-10.667 -23.333 -19.167 -39.333 -25.5 -48s-13.833 -15 -22.5 -19c-29.333 -13.333 -79 -20 -149 -20
c-10.667 0 -17.834 6.66699 -21.501 20s-5.5 29.333 -5.5 48c0 19.333 1.83301 35.666 5.5 48.999s10.834 20 21.501 20c30 0 57.333 1 82 3s45.334 6 62.001 12l29 145h89c-0.666992 -17.333 -1.16699 -31.5 -1.5 -42.5s-0.5 -19.833 -0.5 -26.5v-15.5v-8.5
c0 -22.667 7.33301 -39.5 22 -50.5s33.667 -16.5 57 -16.5v-137zM212.999 -147.001l-58 -86l-96 61l54 89z" />
    <glyph glyph-name="uniFE94" unicode="&#x629;" horiz-adv-x="445" arabic-form="final" 
d="M165 25c-25.333 0 -45.9971 2.99805 -61.9971 8.99805s-28.5 14.833 -37.5 26.5s-15.167 26.334 -18.5 44.001s-5 38.5 -5 62.5c0 20.667 1.66699 40.834 5 60.501s7.66602 35.5 12.999 47.5c6 6 14.5 13.333 25.5 22s23.833 18 38.5 28l48 32l54 34l-12 73l76 39l16 -10
l47 -331c5.33301 -6.66699 15.333 -12.5 30 -17.5s35.334 -7.5 62.001 -7.5v-137c-19.333 0 -37.333 1 -54 3s-31.834 6.16699 -45.501 12.5s-25.834 15.166 -36.501 26.499s-19.667 26 -27 44c-3.33301 -10 -6.33301 -18 -9 -24s-4.33398 -9.66699 -5.00098 -11
c-2.66699 -5.33301 -7.66699 -9.66602 -15 -12.999s-15.833 -6 -25.5 -8s-20 -3.33301 -31 -4s-21.5 -1 -31.5 -1zM157.003 686.998l97 -61l42 61l97 -60l-54 -89l-98 62l-42 -62l-96 60zM163.003 151.998c13.333 0 28.832 0.332031 46.499 0.999023s36.167 2.66699 55.5 6
l-24 141l-42 -25.5c-14.667 -9 -28.167 -17.667 -40.5 -26s-23.333 -16.166 -33 -23.499s-16.167 -13 -19.5 -17c0 -11.333 0.5 -20.5 1.5 -27.5s3.5 -12.667 7.5 -17s9.83301 -7.33301 17.5 -9s17.834 -2.5 30.501 -2.5z" />
    <glyph glyph-name="uniFE96" unicode="&#x62a;" horiz-adv-x="741" arabic-form="final" 
d="M741 0c-12 0 -24.498 0.50293 -37.498 1.50293s-25.667 4.16699 -38 9.5s-23.833 13.333 -34.5 24s-20 25.667 -28 45c-14.667 -27.333 -28.334 -44.666 -41.001 -51.999c-14.667 -8.66699 -42.667 -16.334 -84 -23.001s-96 -10 -164 -10c-38 0 -73.5 1.33301 -106.5 4
s-61.833 9.16699 -86.5 19.5s-44 25.666 -58 45.999s-21 48.166 -21 83.499c0 15.333 0.666992 33 2 53s2.66602 38.667 3.99902 56l6 62l80 -4c-2.66699 -39.333 -4.66699 -71 -6 -95s-2.33301 -44 -3 -60c16 -10 40.5 -17.167 73.5 -21.5s71.5 -6.5 115.5 -6.5
c47.333 0 92 1.66699 134 5s74.667 8.66602 98 15.999l30 144h89c-0.666992 -17.333 -1.16699 -31.5 -1.5 -42.5s-0.5 -19.833 -0.5 -26.5v-15.5v-8.5c0 -22.667 7.5 -39.5 22.5 -50.5s33.5 -16.5 55.5 -16.5v-137zM254.002 495.003l97 -61l42 61l97 -60l-54 -89l-98 62
l-42 -62l-96 60z" />
    <glyph glyph-name="uniFE97" unicode="&#x62a;" horiz-adv-x="304" arabic-form="initial" 
d="M0 0c-10.667 0 -17.8359 6.66211 -21.5029 19.9951s-5.5 29.333 -5.5 48c0 19.333 1.83301 35.666 5.5 48.999s10.834 20 21.501 20c42.667 0 78.334 1 107.001 3s51.667 6.33301 69 13c-2 12 -5 25.667 -9 41s-8.66699 30.833 -14 46.5s-11 31 -17 46
s-11.667 28.5 -17 40.5l87 62l18 -7c11.333 -28 20.5 -58.667 27.5 -92s10.5 -65.666 10.5 -96.999c0 -19.333 -2.16699 -38.166 -6.5 -56.499s-10.166 -35.166 -17.499 -50.499s-15.5 -28.666 -24.5 -39.999s-18.167 -19.666 -27.5 -24.999
c-12.667 -7.33301 -35 -12.666 -67 -15.999s-71.667 -5 -119 -5zM51.998 597.995l97 -61l42 61l97 -60l-54 -89l-98 62l-42 -62l-96 60z" />
    <glyph glyph-name="uniFE98" unicode="&#x62a;" horiz-adv-x="339" arabic-form="medial" 
d="M339 0c-13.333 0 -26.834 0.666016 -40.501 1.99902s-26.667 4.83301 -39 10.5s-23.833 14.334 -34.5 26.001s-20 27.834 -28 48.501c-10.667 -23.333 -19.167 -39.333 -25.5 -48s-13.833 -15 -22.5 -19c-29.333 -13.333 -79 -20 -149 -20
c-10.667 0 -17.834 6.66699 -21.501 20s-5.5 29.333 -5.5 48c0 19.333 1.83301 35.666 5.5 48.999s10.834 20 21.501 20c30 0 57.333 1 82 3s45.334 6 62.001 12l29 145h89c-0.666992 -17.333 -1.16699 -31.5 -1.5 -42.5s-0.5 -19.833 -0.5 -26.5v-15.5v-8.5
c0 -22.667 7.33301 -39.5 22 -50.5s33.667 -16.5 57 -16.5v-137zM89.999 509.999l97 -61l42 61l97 -60l-54 -89l-98 62l-42 -62l-96 60z" />
    <glyph glyph-name="uniFE9A" unicode="&#x62b;" horiz-adv-x="741" arabic-form="final" 
d="M741 0c-12 0 -24.498 0.50293 -37.498 1.50293s-25.667 4.16699 -38 9.5s-23.833 13.333 -34.5 24s-20 25.667 -28 45c-14.667 -27.333 -28.334 -44.666 -41.001 -51.999c-14.667 -8.66699 -42.667 -16.334 -84 -23.001s-96 -10 -164 -10c-38 0 -73.5 1.33301 -106.5 4
s-61.833 9.16699 -86.5 19.5s-44 25.666 -58 45.999s-21 48.166 -21 83.499c0 15.333 0.666992 33 2 53s2.66602 38.667 3.99902 56l6 62l80 -4c-2.66699 -39.333 -4.66699 -71 -6 -95s-2.33301 -44 -3 -60c16 -10 40.5 -17.167 73.5 -21.5s71.5 -6.5 115.5 -6.5
c47.333 0 92 1.66699 134 5s74.667 8.66602 98 15.999l30 144h89c-0.666992 -17.333 -1.16699 -31.5 -1.5 -42.5s-0.5 -19.833 -0.5 -26.5v-15.5v-8.5c0 -22.667 7.5 -39.5 22.5 -50.5s33.5 -16.5 55.5 -16.5v-137zM254.002 495.003l97 -61l42 61l97 -60l-54 -89l-98 62
l-42 -62l-96 60zM303.002 640.003l96 -60l-53 -89l-101 64z" />
    <glyph glyph-name="uniFE9B" unicode="&#x62b;" horiz-adv-x="304" arabic-form="initial" 
d="M0 0c-10.667 0 -17.8359 6.66211 -21.5029 19.9951s-5.5 29.333 -5.5 48c0 19.333 1.83301 35.666 5.5 48.999s10.834 20 21.501 20c42.667 0 78.334 1 107.001 3s51.667 6.33301 69 13c-2 12 -5 25.667 -9 41s-8.66699 30.833 -14 46.5s-11 31 -17 46
s-11.667 28.5 -17 40.5l87 62l18 -7c11.333 -28 20.5 -58.667 27.5 -92s10.5 -65.666 10.5 -96.999c0 -19.333 -2.16699 -38.166 -6.5 -56.499s-10.166 -35.166 -17.499 -50.499s-15.5 -28.666 -24.5 -39.999s-18.167 -19.666 -27.5 -24.999
c-12.667 -7.33301 -35 -12.666 -67 -15.999s-71.667 -5 -119 -5zM51.998 597.995l97 -61l42 61l97 -60l-54 -89l-98 62l-42 -62l-96 60zM100.998 742.995l96 -60l-53 -89l-101 64z" />
    <glyph glyph-name="uniFE9C" unicode="&#x62b;" horiz-adv-x="339" arabic-form="medial" 
d="M339 0c-13.333 0 -26.834 0.666016 -40.501 1.99902s-26.667 4.83301 -39 10.5s-23.833 14.334 -34.5 26.001s-20 27.834 -28 48.501c-10.667 -23.333 -19.167 -39.333 -25.5 -48s-13.833 -15 -22.5 -19c-29.333 -13.333 -79 -20 -149 -20
c-10.667 0 -17.834 6.66699 -21.501 20s-5.5 29.333 -5.5 48c0 19.333 1.83301 35.666 5.5 48.999s10.834 20 21.501 20c30 0 57.333 1 82 3s45.334 6 62.001 12l29 145h89c-0.666992 -17.333 -1.16699 -31.5 -1.5 -42.5s-0.5 -19.833 -0.5 -26.5v-15.5v-8.5
c0 -22.667 7.33301 -39.5 22 -50.5s33.667 -16.5 57 -16.5v-137zM89.999 509.999l97 -61l42 61l97 -60l-54 -89l-98 62l-42 -62l-96 60zM138.999 654.999l96 -60l-53 -89l-101 64z" />
    <glyph glyph-name="uniFE9E" unicode="&#x62c;" horiz-adv-x="576" arabic-form="final" 
d="M513 -174l-31.0039 -100.999c-40 -5.33301 -77.167 -8.33301 -111.5 -9s-61.5 -1 -81.5 -1c-36.667 0 -70 3.5 -100 10.5s-55.667 19 -77 36s-37.833 39.667 -49.5 68s-17.5 63.833 -17.5 106.5v30c0 17.333 3.66699 37.666 11 60.999s21.5 48.833 42.5 76.5
s50.167 56.834 87.5 87.501s86.333 61.667 147 93c-44 14 -80.667 25.167 -110 33.5s-49.666 12.5 -60.999 12.5c-7.33301 0 -14.833 -1 -22.5 -3s-14.167 -5 -19.5 -9v-53c0 -16 0.666992 -33.333 2 -52l-13 -11l-59 31c-1.33301 14.667 -2.16602 27.834 -2.49902 39.501
s-0.5 23.167 -0.5 34.5c0 32 1.16699 54.333 3.5 67s5.16602 20.667 8.49902 24c1.33301 1.33301 5.33301 4.5 12 9.5s15 10.167 25 15.5s21.333 10.166 34 14.499s26 6.5 40 6.5s32.833 -3 56.5 -9s51 -14 82 -24s64.833 -21.5 101.5 -34.5l115 -40.5l5 -19l-39 -84
c-15.333 0 -29.666 -1.33301 -42.999 -4s-26.666 -6.66699 -39.999 -12c4 -31.333 14.167 -52.5 30.5 -63.5s43.5 -16.5 81.5 -16.5h56v-137h-57c-17.333 0 -35.5 2 -54.5 6s-36.667 12.667 -53 26s-30.166 32.5 -41.499 57.5s-18 58.833 -20 101.5
c-27.333 -14 -53.333 -29.333 -78 -46s-47 -34 -67 -52s-37.167 -36.333 -51.5 -55s-24.833 -37 -31.5 -55v-16c0 -46 14 -79.167 42 -99.5s74.667 -30.5 140 -30.5c25.333 0 53.5 0.166992 84.5 0.5s69.167 2.16602 114.5 5.49902zM359.996 -14.999l-58 -86l-96 61l54 89z
" />
    <glyph glyph-name="uniFE9F" unicode="&#x62c;" horiz-adv-x="587" arabic-form="initial" 
d="M0 0c-10.667 0 -17.835 6.66406 -21.502 19.9971s-5.5 29.333 -5.5 48c0 19.333 1.83301 35.666 5.5 48.999s10.834 20 21.501 20h67c26 0 48.667 0.333008 68 1s36 1.83398 50 3.50098s25.833 4 35.5 7s18.167 6.5 25.5 10.5c21.333 13.333 41.5 27.333 60.5 42
s42.167 31.667 69.5 51l-64.5 21c-21 6.66699 -40.167 12.5 -57.5 17.5s-32.333 8.83301 -45 11.5s-22 4 -28 4c-7.33301 0 -15 -1.16699 -23 -3.5s-15 -5.16602 -21 -8.49902v-40c0 -11.333 0.333008 -23.666 1 -36.999l-58 -32l-13 10
c-1.33301 19.333 -2.16602 34.5 -2.49902 45.5s-0.5 22.833 -0.5 35.5c0 18 0.333008 33 1 45s1.5 21.667 2.5 29s2.33301 12.833 4 16.5s3.16699 6.16699 4.5 7.5s5.16602 4.5 11.499 9.5s14.333 10.167 24 15.5s20.834 10.166 33.501 14.499s26 6.5 40 6.5
c13.333 0 31.833 -2.66699 55.5 -8s51 -12.833 82 -22.5l103.5 -33.5l121 -41l4 -18l-46 -84c-13.333 -1.33301 -24.5 -2.66602 -33.5 -3.99902s-18.833 -5 -29.5 -11s-23 -15.333 -37 -28s-32.333 -30.334 -55 -53.001c-25.333 -25.333 -48 -45.666 -68 -60.999
s-40.167 -27.166 -60.5 -35.499s-42 -13.833 -65 -16.5s-50.167 -4 -81.5 -4h-75zM325.999 -147.003l-58 -86l-96 61l54 89z" />
    <glyph glyph-name="uniFEA0" unicode="&#x62c;" horiz-adv-x="590" arabic-form="medial" 
d="M0 0c-10.667 0 -17.8369 6.66309 -21.5039 19.9961s-5.5 29.333 -5.5 48c0 19.333 1.83301 35.666 5.5 48.999s10.834 20 21.501 20h67c26 0 48.667 0.333008 68 1s36 1.83398 50 3.50098s25.833 4 35.5 7s18.167 6.5 25.5 10.5c21.333 13.333 41.5 27.333 60.5 42
s42.167 31.667 69.5 51l-64.5 21c-21 6.66699 -40.167 12.5 -57.5 17.5s-32.333 8.83301 -45 11.5s-22 4 -28 4c-7.33301 0 -15 -1.16699 -23 -3.5s-15 -5.16602 -21 -8.49902v-40c0 -11.333 0.333008 -23.666 1 -36.999l-58 -32l-13 10
c-1.33301 19.333 -2.16602 34.5 -2.49902 45.5s-0.5 22.833 -0.5 35.5c0 18 0.333008 33 1 45s1.5 21.667 2.5 29s2.33301 12.833 4 16.5s3.16699 6.16699 4.5 7.5s5.16602 4.5 11.499 9.5s14.333 10.167 24 15.5s20.834 10.166 33.501 14.499s26 6.5 40 6.5
c13.333 0 31.833 -2.66699 55.5 -8s51 -12.833 82 -22.5l103.5 -33.5l121 -41l4 -18l-46 -84c-9.33301 -0.666992 -17.5 -1.5 -24.5 -2.5s-14 -2.66699 -21 -5s-14.167 -5.83301 -21.5 -10.5s-16 -11 -26 -19c6.66699 -13.333 17.334 -23.166 32.001 -29.499
s38 -9.5 70 -9.5h76v-137h-77c-13.333 0 -27.666 1.33301 -42.999 4s-30 8.5 -44 17.5s-27 21.833 -39 38.5s-21 39 -27 67l-10 -10c-25.333 -25.333 -48 -45.666 -68 -60.999s-40.167 -27.166 -60.5 -35.499s-42 -13.833 -65 -16.5s-50.167 -4 -81.5 -4h-75z
M325.997 -147.004l-58 -86l-96 61l54 89z" />
    <glyph glyph-name="uniFEA2" unicode="&#x62d;" horiz-adv-x="576" arabic-form="final" 
d="M513 -174l-31.0039 -100.999c-40 -5.33301 -77.167 -8.33301 -111.5 -9s-61.5 -1 -81.5 -1c-36.667 0 -70 3.5 -100 10.5s-55.667 19 -77 36s-37.833 39.667 -49.5 68s-17.5 63.833 -17.5 106.5v30c0 17.333 3.66699 37.666 11 60.999s21.5 48.833 42.5 76.5
s50.167 56.834 87.5 87.501s86.333 61.667 147 93c-44 14 -80.667 25.167 -110 33.5s-49.666 12.5 -60.999 12.5c-7.33301 0 -14.833 -1 -22.5 -3s-14.167 -5 -19.5 -9v-53c0 -16 0.666992 -33.333 2 -52l-13 -11l-59 31c-1.33301 14.667 -2.16602 27.834 -2.49902 39.501
s-0.5 23.167 -0.5 34.5c0 32 1.16699 54.333 3.5 67s5.16602 20.667 8.49902 24c1.33301 1.33301 5.33301 4.5 12 9.5s15 10.167 25 15.5s21.333 10.166 34 14.499s26 6.5 40 6.5s32.833 -3 56.5 -9s51 -14 82 -24s64.833 -21.5 101.5 -34.5l115 -40.5l5 -19l-39 -84
c-15.333 0 -29.666 -1.33301 -42.999 -4s-26.666 -6.66699 -39.999 -12c4 -31.333 14.167 -52.5 30.5 -63.5s43.5 -16.5 81.5 -16.5h56v-137h-57c-17.333 0 -35.5 2 -54.5 6s-36.667 12.667 -53 26s-30.166 32.5 -41.499 57.5s-18 58.833 -20 101.5
c-27.333 -14 -53.333 -29.333 -78 -46s-47 -34 -67 -52s-37.167 -36.333 -51.5 -55s-24.833 -37 -31.5 -55v-16c0 -46 14 -79.167 42 -99.5s74.667 -30.5 140 -30.5c25.333 0 53.5 0.166992 84.5 0.5s69.167 2.16602 114.5 5.49902z" />
    <glyph glyph-name="uniFEA3" unicode="&#x62d;" horiz-adv-x="587" arabic-form="initial" 
d="M0 0c-10.667 0 -17.835 6.66406 -21.502 19.9971s-5.5 29.333 -5.5 48c0 19.333 1.83301 35.666 5.5 48.999s10.834 20 21.501 20h67c26 0 48.667 0.333008 68 1s36 1.83398 50 3.50098s25.833 4 35.5 7s18.167 6.5 25.5 10.5c21.333 13.333 41.5 27.333 60.5 42
s42.167 31.667 69.5 51l-64.5 21c-21 6.66699 -40.167 12.5 -57.5 17.5s-32.333 8.83301 -45 11.5s-22 4 -28 4c-7.33301 0 -15 -1.16699 -23 -3.5s-15 -5.16602 -21 -8.49902v-40c0 -11.333 0.333008 -23.666 1 -36.999l-58 -32l-13 10
c-1.33301 19.333 -2.16602 34.5 -2.49902 45.5s-0.5 22.833 -0.5 35.5c0 18 0.333008 33 1 45s1.5 21.667 2.5 29s2.33301 12.833 4 16.5s3.16699 6.16699 4.5 7.5s5.16602 4.5 11.499 9.5s14.333 10.167 24 15.5s20.834 10.166 33.501 14.499s26 6.5 40 6.5
c13.333 0 31.833 -2.66699 55.5 -8s51 -12.833 82 -22.5l103.5 -33.5l121 -41l4 -18l-46 -84c-13.333 -1.33301 -24.5 -2.66602 -33.5 -3.99902s-18.833 -5 -29.5 -11s-23 -15.333 -37 -28s-32.333 -30.334 -55 -53.001c-25.333 -25.333 -48 -45.666 -68 -60.999
s-40.167 -27.166 -60.5 -35.499s-42 -13.833 -65 -16.5s-50.167 -4 -81.5 -4h-75z" />
    <glyph glyph-name="uniFEA4" unicode="&#x62d;" horiz-adv-x="590" arabic-form="medial" 
d="M0 0c-10.667 0 -17.8369 6.66309 -21.5039 19.9961s-5.5 29.333 -5.5 48c0 19.333 1.83301 35.666 5.5 48.999s10.834 20 21.501 20h67c26 0 48.667 0.333008 68 1s36 1.83398 50 3.50098s25.833 4 35.5 7s18.167 6.5 25.5 10.5c21.333 13.333 41.5 27.333 60.5 42
s42.167 31.667 69.5 51l-64.5 21c-21 6.66699 -40.167 12.5 -57.5 17.5s-32.333 8.83301 -45 11.5s-22 4 -28 4c-7.33301 0 -15 -1.16699 -23 -3.5s-15 -5.16602 -21 -8.49902v-40c0 -11.333 0.333008 -23.666 1 -36.999l-58 -32l-13 10
c-1.33301 19.333 -2.16602 34.5 -2.49902 45.5s-0.5 22.833 -0.5 35.5c0 18 0.333008 33 1 45s1.5 21.667 2.5 29s2.33301 12.833 4 16.5s3.16699 6.16699 4.5 7.5s5.16602 4.5 11.499 9.5s14.333 10.167 24 15.5s20.834 10.166 33.501 14.499s26 6.5 40 6.5
c13.333 0 31.833 -2.66699 55.5 -8s51 -12.833 82 -22.5l103.5 -33.5l121 -41l4 -18l-46 -84c-9.33301 -0.666992 -17.5 -1.5 -24.5 -2.5s-14 -2.66699 -21 -5s-14.167 -5.83301 -21.5 -10.5s-16 -11 -26 -19c6.66699 -13.333 17.334 -23.166 32.001 -29.499
s38 -9.5 70 -9.5h76v-137h-77c-13.333 0 -27.666 1.33301 -42.999 4s-30 8.5 -44 17.5s-27 21.833 -39 38.5s-21 39 -27 67l-10 -10c-25.333 -25.333 -48 -45.666 -68 -60.999s-40.167 -27.166 -60.5 -35.499s-42 -13.833 -65 -16.5s-50.167 -4 -81.5 -4h-75v0z" />
    <glyph glyph-name="uniFEA6" unicode="&#x62e;" horiz-adv-x="576" arabic-form="final" 
d="M513 -174l-31.0039 -100.999c-40 -5.33301 -77.167 -8.33301 -111.5 -9s-61.5 -1 -81.5 -1c-36.667 0 -70 3.5 -100 10.5s-55.667 19 -77 36s-37.833 39.667 -49.5 68s-17.5 63.833 -17.5 106.5v30c0 17.333 3.66699 37.666 11 60.999s21.5 48.833 42.5 76.5
s50.167 56.834 87.5 87.501s86.333 61.667 147 93c-44 14 -80.667 25.167 -110 33.5s-49.666 12.5 -60.999 12.5c-7.33301 0 -14.833 -1 -22.5 -3s-14.167 -5 -19.5 -9v-53c0 -16 0.666992 -33.333 2 -52l-13 -11l-59 31c-1.33301 14.667 -2.16602 27.834 -2.49902 39.501
s-0.5 23.167 -0.5 34.5c0 32 1.16699 54.333 3.5 67s5.16602 20.667 8.49902 24c1.33301 1.33301 5.33301 4.5 12 9.5s15 10.167 25 15.5s21.333 10.166 34 14.499s26 6.5 40 6.5s32.833 -3 56.5 -9s51 -14 82 -24s64.833 -21.5 101.5 -34.5l115 -40.5l5 -19l-39 -84
c-15.333 0 -29.666 -1.33301 -42.999 -4s-26.666 -6.66699 -39.999 -12c4 -31.333 14.167 -52.5 30.5 -63.5s43.5 -16.5 81.5 -16.5h56v-137h-57c-17.333 0 -35.5 2 -54.5 6s-36.667 12.667 -53 26s-30.166 32.5 -41.499 57.5s-18 58.833 -20 101.5
c-27.333 -14 -53.333 -29.333 -78 -46s-47 -34 -67 -52s-37.167 -36.333 -51.5 -55s-24.833 -37 -31.5 -55v-16c0 -46 14 -79.167 42 -99.5s74.667 -30.5 140 -30.5c25.333 0 53.5 0.166992 84.5 0.5s69.167 2.16602 114.5 5.49902zM126.996 583.001l54 89l100 -63l-58 -86z
" />
    <glyph glyph-name="uniFEA7" unicode="&#x62e;" horiz-adv-x="587" arabic-form="initial" 
d="M0 0c-10.667 0 -17.835 6.66406 -21.502 19.9971s-5.5 29.333 -5.5 48c0 19.333 1.83301 35.666 5.5 48.999s10.834 20 21.501 20h67c26 0 48.667 0.333008 68 1s36 1.83398 50 3.50098s25.833 4 35.5 7s18.167 6.5 25.5 10.5c21.333 13.333 41.5 27.333 60.5 42
s42.167 31.667 69.5 51l-64.5 21c-21 6.66699 -40.167 12.5 -57.5 17.5s-32.333 8.83301 -45 11.5s-22 4 -28 4c-7.33301 0 -15 -1.16699 -23 -3.5s-15 -5.16602 -21 -8.49902v-40c0 -11.333 0.333008 -23.666 1 -36.999l-58 -32l-13 10
c-1.33301 19.333 -2.16602 34.5 -2.49902 45.5s-0.5 22.833 -0.5 35.5c0 18 0.333008 33 1 45s1.5 21.667 2.5 29s2.33301 12.833 4 16.5s3.16699 6.16699 4.5 7.5s5.16602 4.5 11.499 9.5s14.333 10.167 24 15.5s20.834 10.166 33.501 14.499s26 6.5 40 6.5
c13.333 0 31.833 -2.66699 55.5 -8s51 -12.833 82 -22.5l103.5 -33.5l121 -41l4 -18l-46 -84c-13.333 -1.33301 -24.5 -2.66602 -33.5 -3.99902s-18.833 -5 -29.5 -11s-23 -15.333 -37 -28s-32.333 -30.334 -55 -53.001c-25.333 -25.333 -48 -45.666 -68 -60.999
s-40.167 -27.166 -60.5 -35.499s-42 -13.833 -65 -16.5s-50.167 -4 -81.5 -4h-75zM139.999 565.997l54 89l100 -63l-58 -86z" />
    <glyph glyph-name="uniFEA8" unicode="&#x62e;" horiz-adv-x="590" arabic-form="medial" 
d="M0 0c-10.667 0 -17.8369 6.66309 -21.5039 19.9961s-5.5 29.333 -5.5 48c0 19.333 1.83301 35.666 5.5 48.999s10.834 20 21.501 20h67c26 0 48.667 0.333008 68 1s36 1.83398 50 3.50098s25.833 4 35.5 7s18.167 6.5 25.5 10.5c21.333 13.333 41.5 27.333 60.5 42
s42.167 31.667 69.5 51l-64.5 21c-21 6.66699 -40.167 12.5 -57.5 17.5s-32.333 8.83301 -45 11.5s-22 4 -28 4c-7.33301 0 -15 -1.16699 -23 -3.5s-15 -5.16602 -21 -8.49902v-40c0 -11.333 0.333008 -23.666 1 -36.999l-58 -32l-13 10
c-1.33301 19.333 -2.16602 34.5 -2.49902 45.5s-0.5 22.833 -0.5 35.5c0 18 0.333008 33 1 45s1.5 21.667 2.5 29s2.33301 12.833 4 16.5s3.16699 6.16699 4.5 7.5s5.16602 4.5 11.499 9.5s14.333 10.167 24 15.5s20.834 10.166 33.501 14.499s26 6.5 40 6.5
c13.333 0 31.833 -2.66699 55.5 -8s51 -12.833 82 -22.5l103.5 -33.5l121 -41l4 -18l-46 -84c-9.33301 -0.666992 -17.5 -1.5 -24.5 -2.5s-14 -2.66699 -21 -5s-14.167 -5.83301 -21.5 -10.5s-16 -11 -26 -19c6.66699 -13.333 17.334 -23.166 32.001 -29.499
s38 -9.5 70 -9.5h76v-137h-77c-13.333 0 -27.666 1.33301 -42.999 4s-30 8.5 -44 17.5s-27 21.833 -39 38.5s-21 39 -27 67l-10 -10c-25.333 -25.333 -48 -45.666 -68 -60.999s-40.167 -27.166 -60.5 -35.499s-42 -13.833 -65 -16.5s-50.167 -4 -81.5 -4h-75z
M139.997 565.996l54 89l100 -63l-58 -86z" />
    <glyph glyph-name="uniFEAA" unicode="&#x62f;" horiz-adv-x="497" arabic-form="final" 
d="M497 0c-39.333 0 -71.8301 4.67285 -97.4971 14.0059s-46.5 28.666 -62.5 57.999c-6 -16.667 -12 -28.334 -18 -35.001s-12.667 -11.667 -20 -15c-16.667 -7.33301 -36.334 -12.833 -59.001 -16.5s-44 -5.5 -64 -5.5c-52 0 -88.5 9.16699 -109.5 27.5
s-31.5 47.5 -31.5 87.5c0 10.667 0.5 22.5 1.5 35.5s2 25.167 3 36.5s2.16699 21.166 3.5 29.499s2 13.166 2 14.499l73 -4c0 -8 -0.333008 -16.5 -1 -25.5s-1.16699 -17.333 -1.5 -25s-0.666016 -14.334 -0.999023 -20.001s-0.5 -8.83398 -0.5 -9.50098
c7.33301 -4 19.333 -6.66699 36 -8s32.667 -2 48 -2s32.666 0.666992 51.999 2s39.666 4.33301 60.999 9v1l-61 277l82 44l16 -10l56 -298c5.33301 -6.66699 15.666 -12.5 30.999 -17.5s36 -7.5 62 -7.5v-137v0z" />
    <glyph glyph-name="uniFEAC" unicode="&#x630;" horiz-adv-x="497" arabic-form="final" 
d="M497 0c-39.333 0 -71.8301 4.67285 -97.4971 14.0059s-46.5 28.666 -62.5 57.999c-6 -16.667 -12 -28.334 -18 -35.001s-12.667 -11.667 -20 -15c-16.667 -7.33301 -36.334 -12.833 -59.001 -16.5s-44 -5.5 -64 -5.5c-52 0 -88.5 9.16699 -109.5 27.5
s-31.5 47.5 -31.5 87.5c0 10.667 0.5 22.5 1.5 35.5s2 25.167 3 36.5s2.16699 21.166 3.5 29.499s2 13.166 2 14.499l73 -4c0 -8 -0.333008 -16.5 -1 -25.5s-1.16699 -17.333 -1.5 -25s-0.666016 -14.334 -0.999023 -20.001s-0.5 -8.83398 -0.5 -9.50098
c7.33301 -4 19.333 -6.66699 36 -8s32.667 -2 48 -2s32.666 0.666992 51.999 2s39.666 4.33301 60.999 9v1l-61 277l82 44l16 -10l56 -298c5.33301 -6.66699 15.666 -12.5 30.999 -17.5s36 -7.5 62 -7.5v-137zM225.003 579.006l54 89l100 -63l-58 -86z" />
    <glyph glyph-name="uniFEAE" unicode="&#x631;" horiz-adv-x="284" arabic-form="final" 
d="M284 0c-29.333 0 -52.0039 4 -68.0039 12c-4 -40 -12.5 -75 -25.5 -105s-27.667 -55.167 -44 -75.5s-32.666 -35.666 -48.999 -45.999s-29.166 -15.5 -38.499 -15.5c-3.33301 0 -7.66602 0.333008 -12.999 1s-13.333 2 -24 4l-42.5 8c-17.667 3.33301 -40.167 8 -67.5 14
v44c28 10 54 22 78 36s45.5 29.167 64.5 45.5s35.333 33.166 49 50.499s23.834 34.333 30.501 51c-3.33301 13.333 -7.5 28.333 -12.5 45s-11 34.167 -18 52.5l-22 56l-23.5 55.5l91 58l18 -7c9.33301 -29.333 16.166 -53.5 20.499 -72.5s9.83301 -34 16.5 -45
s15.834 -18.667 27.501 -23s29.167 -6.5 52.5 -6.5v-137v0z" />
    <glyph glyph-name="uniFEB0" unicode="&#x632;" horiz-adv-x="284" arabic-form="final" 
d="M284 0c-29.333 0 -52.0039 4 -68.0039 12c-4 -40 -12.5 -75 -25.5 -105s-27.667 -55.167 -44 -75.5s-32.666 -35.666 -48.999 -45.999s-29.166 -15.5 -38.499 -15.5c-3.33301 0 -7.66602 0.333008 -12.999 1s-13.333 2 -24 4l-42.5 8c-17.667 3.33301 -40.167 8 -67.5 14
v44c28 10 54 22 78 36s45.5 29.167 64.5 45.5s35.333 33.166 49 50.499s23.834 34.333 30.501 51c-3.33301 13.333 -7.5 28.333 -12.5 45s-11 34.167 -18 52.5l-22 56l-23.5 55.5l91 58l18 -7c9.33301 -29.333 16.166 -53.5 20.499 -72.5s9.83301 -34 16.5 -45
s15.834 -18.667 27.501 -23s29.167 -6.5 52.5 -6.5v-137zM27.9961 411l54 89l100 -63l-58 -86z" />
    <glyph glyph-name="uniFEB2" unicode="&#x633;" horiz-adv-x="1084" arabic-form="final" 
d="M1084 0c-30 0 -54.832 5.00195 -74.499 15.002s-35.834 30.667 -48.501 62c-10.667 -20.667 -19.167 -35 -25.5 -43s-13.166 -13.667 -20.499 -17c-19.333 -11.333 -42.666 -17 -69.999 -17c-24 0 -45 5 -63 15s-33.667 30 -47 60
c-10.667 -20 -19.167 -33.833 -25.5 -41.5s-13.166 -13.167 -20.499 -16.5c-19.333 -11.333 -45 -17 -77 -17c-10 0 -19.5 0.666992 -28.5 2s-17.5 4.33301 -25.5 9v-10c0 -30 -2.66699 -57 -8 -81s-10.666 -41.333 -15.999 -52
c-2.66699 -5.33301 -10.834 -13.666 -24.501 -24.999s-32.334 -22.833 -56.001 -34.5s-52 -21.834 -85 -30.501s-70.5 -13 -112.5 -13c-44 0 -79.833 5 -107.5 15s-49.334 23.167 -65.001 39.5s-26.5 35.166 -32.5 56.499s-9 43.666 -9 66.999
c0 12.667 0.833008 30.5 2.5 53.5s3.5 46.333 5.5 70s4 45.334 6 65.001s3.33301 32.5 4 38.5l80 -4l-4 -67c-1.33301 -23.333 -2.66602 -45.333 -3.99902 -66l-3.5 -55.5c-1 -16.333 -1.5 -28.5 -1.5 -36.5c28 -26 71 -39 129 -39c19.333 0 39.333 1.16699 60 3.5
s40.5 5.83301 59.5 10.5s37 10.167 54 16.5s31.5 13.166 43.5 20.499c-5.33301 52 -13.5 103.167 -24.5 153.5s-22.167 93.166 -33.5 128.499l89 56l17 -4l19 -82c5.33301 -23.333 10.666 -40.333 15.999 -51c6.66699 -6 15.167 -10.333 25.5 -13s21.166 -4 32.499 -4
c12 0 24.167 0.833008 36.5 2.5s23.833 4.5 34.5 8.5l29 142h77c-0.666992 -16 -1.16699 -29 -1.5 -39s-0.5 -18.167 -0.5 -24.5v-14.5v-8c0 -21.333 5.66699 -37.833 17 -49.5s26.333 -17.5 45 -17.5c17.333 0 35.333 3.33301 54 10c2.66699 14 5.66699 30.667 9 50
s6.66602 37.666 9.99902 54.999c3.33301 20.667 7 41.667 11 63h81c0 -20 -0.166992 -36.667 -0.5 -50s-0.666016 -24.166 -0.999023 -32.499s-0.5 -14.666 -0.5 -18.999v-9.5c0 -20 5.83301 -36.167 17.5 -48.5s29.167 -18.5 52.5 -18.5v-137v0z" />
    <glyph glyph-name="uniFEB3" unicode="&#x633;" horiz-adv-x="743" arabic-form="initial" 
d="M524 0c-24 0 -45.1719 5.00098 -63.5049 15.001s-34.166 30.333 -47.499 61c-10 -20.667 -18.167 -34.834 -24.5 -42.501s-13.166 -13.167 -20.499 -16.5c-19.333 -11.333 -46.333 -17 -81 -17c-27.333 0 -50.166 5 -68.499 15s-34.166 30 -47.499 60
c-11.333 -19.333 -20.5 -32.666 -27.5 -39.999s-14.833 -13.333 -23.5 -18c-12.667 -7.33301 -30.5 -12 -53.5 -14s-45.167 -3 -66.5 -3c-10.667 0 -17.834 6.66699 -21.501 20s-5.5 29.333 -5.5 48c0 19.333 1.83301 35.666 5.5 48.999s10.834 20 21.501 20
c8.66699 0 18.5 0.166992 29.5 0.5s22.333 1 34 2s23.167 2.33301 34.5 4s21.333 3.5 30 5.5l30 148h76c-0.666992 -17.333 -1.16699 -31.5 -1.5 -42.5s-0.5 -19.833 -0.5 -26.5v-15.5v-8.5c0 -22.667 5.83301 -39.5 17.5 -50.5s27.167 -16.5 46.5 -16.5
c12 0 23.667 0.833008 35 2.5s22.333 4.5 33 8.5l28 142h77c0 -16 -0.166992 -29 -0.5 -39s-0.5 -18.167 -0.5 -24.5v-14.5v-8c0 -21.333 5.66699 -37.833 17 -49.5s26.333 -17.5 45 -17.5c12 0 26.333 1.16699 43 3.5s31.667 6.16602 45 11.499
c-4 26.667 -11.5 55.834 -22.5 87.501s-21.833 59.5 -32.5 83.5l84 66l18 -7c13.333 -34.667 22.666 -66.834 27.999 -96.501s8 -60.167 8 -91.5c0 -18.667 -2.66699 -37 -8 -55s-11.666 -34.5 -18.999 -49.5s-14.666 -27.667 -21.999 -38s-13.333 -17.5 -18 -21.5
c-14 -11.333 -31 -19.166 -51 -23.499s-39.667 -6.5 -59 -6.5z" />
    <glyph glyph-name="uniFEB4" unicode="&#x633;" horiz-adv-x="762" arabic-form="medial" 
d="M762 0c-29.333 0 -53.8359 5.00293 -73.5029 15.0029s-35.834 30.667 -48.501 62c-5.33301 -10.667 -10 -19.334 -14 -26.001s-7.83301 -12.334 -11.5 -17.001s-7.16699 -8.16699 -10.5 -10.5s-7 -4.5 -11 -6.5c-18.667 -11.333 -41.667 -17 -69 -17
c-24 0 -45.167 5 -63.5 15s-34.166 30.333 -47.499 61c-10 -20.667 -18.167 -34.834 -24.5 -42.501s-13.166 -13.167 -20.499 -16.5c-19.333 -11.333 -46.333 -17 -81 -17c-27.333 0 -50.166 5 -68.499 15s-34.166 30 -47.499 60
c-11.333 -19.333 -20.5 -32.666 -27.5 -39.999s-14.833 -13.333 -23.5 -18c-12.667 -7.33301 -30.5 -12 -53.5 -14s-45.167 -3 -66.5 -3c-10.667 0 -17.834 6.66699 -21.501 20s-5.5 29.333 -5.5 48c0 19.333 1.83301 35.666 5.5 48.999s10.834 20 21.501 20
c8.66699 0 18.5 0.166992 29.5 0.5s22.333 1 34 2s23.167 2.33301 34.5 4s21.333 3.5 30 5.5l30 148h76c-0.666992 -17.333 -1.16699 -31.5 -1.5 -42.5s-0.5 -19.833 -0.5 -26.5v-15.5v-8.5c0 -22.667 5.83301 -39.5 17.5 -50.5s27.167 -16.5 46.5 -16.5
c12 0 23.667 0.833008 35 2.5s22.333 4.5 33 8.5l28 142h77c0 -16 -0.166992 -29 -0.5 -39s-0.5 -18.167 -0.5 -24.5v-14.5v-8c0 -21.333 5.66699 -37.833 17 -49.5s26.333 -17.5 45 -17.5c16.667 0 34.334 3.33301 53.001 10c3.33301 14 6.66602 30.667 9.99902 50
s6.66602 37.666 9.99902 54.999c3.33301 20.667 7 41.667 11 63h80c0 -20 -0.166992 -36.667 -0.5 -50s-0.5 -24.166 -0.5 -32.499v-19v-9.5c0 -20 5.83301 -36.167 17.5 -48.5s28.834 -18.5 51.501 -18.5v-137v0z" />
    <glyph glyph-name="uniFEB6" unicode="&#x634;" horiz-adv-x="1084" arabic-form="final" 
d="M1084 0c-30 0 -54.832 5.00195 -74.499 15.002s-35.834 30.667 -48.501 62c-10.667 -20.667 -19.167 -35 -25.5 -43s-13.166 -13.667 -20.499 -17c-19.333 -11.333 -42.666 -17 -69.999 -17c-24 0 -45 5 -63 15s-33.667 30 -47 60
c-10.667 -20 -19.167 -33.833 -25.5 -41.5s-13.166 -13.167 -20.499 -16.5c-19.333 -11.333 -45 -17 -77 -17c-10 0 -19.5 0.666992 -28.5 2s-17.5 4.33301 -25.5 9v-10c0 -30 -2.66699 -57 -8 -81s-10.666 -41.333 -15.999 -52
c-2.66699 -5.33301 -10.834 -13.666 -24.501 -24.999s-32.334 -22.833 -56.001 -34.5s-52 -21.834 -85 -30.501s-70.5 -13 -112.5 -13c-44 0 -79.833 5 -107.5 15s-49.334 23.167 -65.001 39.5s-26.5 35.166 -32.5 56.499s-9 43.666 -9 66.999
c0 12.667 0.833008 30.5 2.5 53.5s3.5 46.333 5.5 70s4 45.334 6 65.001s3.33301 32.5 4 38.5l80 -4l-4 -67c-1.33301 -23.333 -2.66602 -45.333 -3.99902 -66l-3.5 -55.5c-1 -16.333 -1.5 -28.5 -1.5 -36.5c28 -26 71 -39 129 -39c19.333 0 39.333 1.16699 60 3.5
s40.5 5.83301 59.5 10.5s37 10.167 54 16.5s31.5 13.166 43.5 20.499c-5.33301 52 -13.5 103.167 -24.5 153.5s-22.167 93.166 -33.5 128.499l89 56l17 -4l19 -82c5.33301 -23.333 10.666 -40.333 15.999 -51c6.66699 -6 15.167 -10.333 25.5 -13s21.166 -4 32.499 -4
c12 0 24.167 0.833008 36.5 2.5s23.833 4.5 34.5 8.5l29 142h77c-0.666992 -16 -1.16699 -29 -1.5 -39s-0.5 -18.167 -0.5 -24.5v-14.5v-8c0 -21.333 5.66699 -37.833 17 -49.5s26.333 -17.5 45 -17.5c17.333 0 35.333 3.33301 54 10c2.66699 14 5.66699 30.667 9 50
s6.66602 37.666 9.99902 54.999c3.33301 20.667 7 41.667 11 63h81c0 -20 -0.166992 -36.667 -0.5 -50s-0.666016 -24.166 -0.999023 -32.499s-0.5 -14.666 -0.5 -18.999v-9.5c0 -20 5.83301 -36.167 17.5 -48.5s29.167 -18.5 52.5 -18.5v-137zM651.001 503.002l97 -61
l42 61l97 -60l-54 -89l-98 62l-42 -62l-96 60zM700.001 648.002l96 -60l-53 -89l-101 64z" />
    <glyph glyph-name="uniFEB7" unicode="&#x634;" horiz-adv-x="743" arabic-form="initial" 
d="M524 0c-24 0 -45.1719 5.00098 -63.5049 15.001s-34.166 30.333 -47.499 61c-10 -20.667 -18.167 -34.834 -24.5 -42.501s-13.166 -13.167 -20.499 -16.5c-19.333 -11.333 -46.333 -17 -81 -17c-27.333 0 -50.166 5 -68.499 15s-34.166 30 -47.499 60
c-11.333 -19.333 -20.5 -32.666 -27.5 -39.999s-14.833 -13.333 -23.5 -18c-12.667 -7.33301 -30.5 -12 -53.5 -14s-45.167 -3 -66.5 -3c-10.667 0 -17.834 6.66699 -21.501 20s-5.5 29.333 -5.5 48c0 19.333 1.83301 35.666 5.5 48.999s10.834 20 21.501 20
c8.66699 0 18.5 0.166992 29.5 0.5s22.333 1 34 2s23.167 2.33301 34.5 4s21.333 3.5 30 5.5l30 148h76c-0.666992 -17.333 -1.16699 -31.5 -1.5 -42.5s-0.5 -19.833 -0.5 -26.5v-15.5v-8.5c0 -22.667 5.83301 -39.5 17.5 -50.5s27.167 -16.5 46.5 -16.5
c12 0 23.667 0.833008 35 2.5s22.333 4.5 33 8.5l28 142h77c0 -16 -0.166992 -29 -0.5 -39s-0.5 -18.167 -0.5 -24.5v-14.5v-8c0 -21.333 5.66699 -37.833 17 -49.5s26.333 -17.5 45 -17.5c12 0 26.333 1.16699 43 3.5s31.667 6.16602 45 11.499
c-4 26.667 -11.5 55.834 -22.5 87.501s-21.833 59.5 -32.5 83.5l84 66l18 -7c13.333 -34.667 22.666 -66.834 27.999 -96.501s8 -60.167 8 -91.5c0 -18.667 -2.66699 -37 -8 -55s-11.666 -34.5 -18.999 -49.5s-14.666 -27.667 -21.999 -38s-13.333 -17.5 -18 -21.5
c-14 -11.333 -31 -19.166 -51 -23.499s-39.667 -6.5 -59 -6.5zM315.995 503.001l97 -61l42 61l97 -60l-54 -89l-98 62l-42 -62l-96 60zM364.995 648.001l96 -60l-53 -89l-101 64z" />
    <glyph glyph-name="uniFEB8" unicode="&#x634;" horiz-adv-x="762" arabic-form="medial" 
d="M762 0c-29.333 0 -53.8359 5.00293 -73.5029 15.0029s-35.834 30.667 -48.501 62c-5.33301 -10.667 -10 -19.334 -14 -26.001s-7.83301 -12.334 -11.5 -17.001s-7.16699 -8.16699 -10.5 -10.5s-7 -4.5 -11 -6.5c-18.667 -11.333 -41.667 -17 -69 -17
c-24 0 -45.167 5 -63.5 15s-34.166 30.333 -47.499 61c-10 -20.667 -18.167 -34.834 -24.5 -42.501s-13.166 -13.167 -20.499 -16.5c-19.333 -11.333 -46.333 -17 -81 -17c-27.333 0 -50.166 5 -68.499 15s-34.166 30 -47.499 60
c-11.333 -19.333 -20.5 -32.666 -27.5 -39.999s-14.833 -13.333 -23.5 -18c-12.667 -7.33301 -30.5 -12 -53.5 -14s-45.167 -3 -66.5 -3c-10.667 0 -17.834 6.66699 -21.501 20s-5.5 29.333 -5.5 48c0 19.333 1.83301 35.666 5.5 48.999s10.834 20 21.501 20
c8.66699 0 18.5 0.166992 29.5 0.5s22.333 1 34 2s23.167 2.33301 34.5 4s21.333 3.5 30 5.5l30 148h76c-0.666992 -17.333 -1.16699 -31.5 -1.5 -42.5s-0.5 -19.833 -0.5 -26.5v-15.5v-8.5c0 -22.667 5.83301 -39.5 17.5 -50.5s27.167 -16.5 46.5 -16.5
c12 0 23.667 0.833008 35 2.5s22.333 4.5 33 8.5l28 142h77c0 -16 -0.166992 -29 -0.5 -39s-0.5 -18.167 -0.5 -24.5v-14.5v-8c0 -21.333 5.66699 -37.833 17 -49.5s26.333 -17.5 45 -17.5c16.667 0 34.334 3.33301 53.001 10c3.33301 14 6.66602 30.667 9.99902 50
s6.66602 37.666 9.99902 54.999c3.33301 20.667 7 41.667 11 63h80c0 -20 -0.166992 -36.667 -0.5 -50s-0.5 -24.166 -0.5 -32.499v-19v-9.5c0 -20 5.83301 -36.167 17.5 -48.5s28.834 -18.5 51.501 -18.5v-137zM325.997 503.003l97 -61l42 61l97 -60l-54 -89l-98 62
l-42 -62l-96 60zM374.997 648.003l96 -60l-53 -89l-101 64z" />
    <glyph glyph-name="uniFEBA" unicode="&#x635;" horiz-adv-x="1106" arabic-form="final" 
d="M866 410c18 0 36.333 -5.49707 55 -16.4971s35.5 -26 50.5 -45s27.167 -41.167 36.5 -66.5s14 -52.666 14 -81.999c0 -16.667 -2.33301 -34 -7 -52c9.33301 -4.66699 20.333 -7.66699 33 -9s28.334 -2 47.001 -2h11v-137h-11c-10 0 -20.333 0.666992 -31 2
s-21.167 4 -31.5 8s-20.333 9.66699 -30 17s-18.5 17.333 -26.5 30c-5.33301 -6.66699 -10.666 -12.5 -15.999 -17.5s-11.333 -8.83301 -18 -11.5c-20.667 -9.33301 -47.167 -16.333 -79.5 -21s-72.833 -7 -121.5 -7h-60c-28.667 0 -53 1.5 -73 4.5s-37 8.16699 -51 15.5
c0.666992 -3.33301 1 -6.5 1 -9.5v-9.5c-0.666992 -33.333 -3.5 -61.5 -8.5 -84.5s-10.167 -39.167 -15.5 -48.5c-2.66699 -5.33301 -10.834 -13.666 -24.501 -24.999s-32.334 -22.833 -56.001 -34.5s-52 -21.834 -85 -30.501s-70.5 -13 -112.5 -13
c-44 0 -79.833 5 -107.5 15s-49.334 23.167 -65.001 39.5s-26.5 35.166 -32.5 56.499s-9 43.666 -9 66.999c0 14 0.833008 33.667 2.5 59s3.83398 50.666 6.50098 75.999c2.66699 29.333 5.66699 60 9 92l80 -4c-1.33301 -31.333 -3 -61.333 -5 -90
c-1.33301 -24.667 -2.83301 -49.5 -4.5 -74.5s-2.83398 -45.167 -3.50098 -60.5c28 -26 71 -39 129 -39c19.333 0 39.333 1.16699 60 3.5s40.5 5.83301 59.5 10.5s37 10.167 54 16.5s31.5 13.166 43.5 20.499c-5.33301 52 -13.5 103.167 -24.5 153.5
s-22.167 93.166 -33.5 128.499l89 56l17 -4l15 -63c2.66699 -11.333 5.33398 -21.166 8.00098 -29.499s5.66699 -15.5 9 -21.5l111.5 94l79 65.5c21.667 17.667 39.5 31.5 53.5 41.5s25.333 17.667 34 23s15.5 8.83301 20.5 10.5s9.83301 2.5 14.5 2.5zM832 288.003
c-4.66699 0 -11.167 -2.16699 -19.5 -6.5s-20.333 -12 -36 -23s-36 -26.167 -61 -45.5l-94.5 -75c3.33301 -0.666992 7 -1 11 -1h13h147c20 0 37.5 0.333008 52.5 1s28.167 1.66699 39.5 3s21.333 3 30 5s16.667 4.33301 24 7c-2 18 -7.16699 35 -15.5 51
s-17.833 30.333 -28.5 43s-21.667 22.667 -33 30s-21 11 -29 11z" />
    <glyph glyph-name="uniFEBB" unicode="&#x635;" horiz-adv-x="742" arabic-form="initial" 
d="M331 0c-23.333 0 -43.998 1.16895 -61.998 3.50195s-33.833 6.33301 -47.5 12s-25.334 13.5 -35.001 23.5s-17.834 22.667 -24.501 38c-5.33301 -10 -10.166 -18.333 -14.499 -25s-8.33301 -12.167 -12 -16.5s-7.5 -7.83301 -11.5 -10.5s-8.33301 -5.33398 -13 -8.00098
c-12.667 -7.33301 -29.834 -12 -51.501 -14s-41.5 -3 -59.5 -3c-10.667 0 -17.834 6.66699 -21.501 20s-5.5 29.333 -5.5 48c0 19.333 1.83301 35.666 5.5 48.999s10.834 20 21.501 20c6.66699 0 15 0.166992 25 0.5s20.5 1 31.5 2s21.833 2.16699 32.5 3.5
s20.667 3.33301 30 6l30 148h76c-0.666992 -17.333 -1.16699 -31.5 -1.5 -42.5s-0.5 -19.833 -0.5 -26.5v-15.5v-8.5c0 -12.667 2.33301 -23.334 7 -32.001l154.5 130.5c38.333 31.667 68 55.5 89 71.5s36 26 45 30s16.833 6 23.5 6c18 0 36.5 -5.5 55.5 -16.5
s36 -26 51 -45s27.333 -41.167 37 -66.5s14.5 -52.666 14.5 -81.999c0 -12.667 -1.83301 -27.667 -5.5 -45s-9 -34.5 -16 -51.5s-15.667 -32.333 -26 -46s-21.833 -23.5 -34.5 -29.5c-20.667 -9.33301 -47.167 -16.333 -79.5 -21s-72.833 -7 -121.5 -7h-86zM509.002 288.002
c-4.66699 0 -11.1689 -2.16699 -19.502 -6.5s-20.5 -12 -36.5 -23s-36.667 -26.333 -62 -46l-95 -75.5h173c20 0 37.333 0.333008 52 1s27.667 1.66699 39 3s21.333 3 30 5s16.667 4.33301 24 7c-2 18 -7.16699 35 -15.5 51s-17.666 30.333 -27.999 43
s-21.166 22.667 -32.499 30s-21 11 -29 11z" />
    <glyph glyph-name="uniFEBC" unicode="&#x635;" horiz-adv-x="783" arabic-form="medial" 
d="M0 0c-10.667 0 -17.8301 6.66797 -21.4971 20.001s-5.5 29.333 -5.5 48c0 19.333 1.83301 35.666 5.5 48.999s10.834 20 21.501 20c6.66699 0 15 0.166992 25 0.5s20.5 1 31.5 2s21.833 2.16699 32.5 3.5s20.667 3.33301 30 6l30 148h76
c-0.666992 -17.333 -1.16699 -31.5 -1.5 -42.5s-0.5 -19.833 -0.5 -26.5v-15.5v-8.5c0 -12.667 2.33301 -23.334 7 -32.001l154.5 130.5c38.333 31.667 68 55.5 89 71.5s36 26 45 30s16.833 6 23.5 6c18 0 36.5 -5.5 55.5 -16.5s36 -26 51 -45s27.333 -41.167 37 -66.5
s14.5 -52.666 14.5 -81.999c0 -7.33301 -0.666992 -15.5 -2 -24.5s-3 -18.167 -5 -27.5c9.33301 -4.66699 20.333 -7.66699 33 -9s28 -2 46 -2h11v-137h-11c-9.33301 0 -19.333 0.666992 -30 2s-21.334 4 -32.001 8s-20.834 9.83301 -30.501 17.5s-18.5 17.834 -26.5 30.501
c-10 -14 -21.667 -24 -35 -30c-20.667 -9.33301 -47.167 -16.333 -79.5 -21s-72.833 -7 -121.5 -7h-86c-23.333 0 -44 1.16699 -62 3.5s-33.833 6.33301 -47.5 12s-25.334 13.5 -35.001 23.5s-17.834 22.667 -24.501 38c-5.33301 -10 -10.166 -18.333 -14.499 -25
s-8.33301 -12.167 -12 -16.5s-7.5 -7.83301 -11.5 -10.5s-8.33301 -5.33398 -13 -8.00098c-12.667 -7.33301 -29.834 -12 -51.501 -14s-41.5 -3 -59.5 -3zM509.004 288.001c-4.66699 0 -11.1689 -2.16699 -19.502 -6.5s-20.5 -12 -36.5 -23s-36.667 -26.333 -62 -46
l-95 -75.5h173c20 0 37.333 0.333008 52 1s27.667 1.66699 39 3s21.333 3 30 5s16.667 4.33301 24 7c-2 18 -7.16699 35 -15.5 51s-17.666 30.333 -27.999 43s-21.166 22.667 -32.499 30s-21 11 -29 11z" />
    <glyph glyph-name="uniFEBE" unicode="&#x636;" horiz-adv-x="1106" arabic-form="final" 
d="M866 410c18 0 36.333 -5.49707 55 -16.4971s35.5 -26 50.5 -45s27.167 -41.167 36.5 -66.5s14 -52.666 14 -81.999c0 -16.667 -2.33301 -34 -7 -52c9.33301 -4.66699 20.333 -7.66699 33 -9s28.334 -2 47.001 -2h11v-137h-11c-10 0 -20.333 0.666992 -31 2
s-21.167 4 -31.5 8s-20.333 9.66699 -30 17s-18.5 17.333 -26.5 30c-5.33301 -6.66699 -10.666 -12.5 -15.999 -17.5s-11.333 -8.83301 -18 -11.5c-20.667 -9.33301 -47.167 -16.333 -79.5 -21s-72.833 -7 -121.5 -7h-60c-28.667 0 -53 1.5 -73 4.5s-37 8.16699 -51 15.5
c0.666992 -3.33301 1 -6.5 1 -9.5v-9.5c-0.666992 -33.333 -3.5 -61.5 -8.5 -84.5s-10.167 -39.167 -15.5 -48.5c-2.66699 -5.33301 -10.834 -13.666 -24.501 -24.999s-32.334 -22.833 -56.001 -34.5s-52 -21.834 -85 -30.501s-70.5 -13 -112.5 -13
c-44 0 -79.833 5 -107.5 15s-49.334 23.167 -65.001 39.5s-26.5 35.166 -32.5 56.499s-9 43.666 -9 66.999c0 14 0.833008 33.667 2.5 59s3.83398 50.666 6.50098 75.999c2.66699 29.333 5.66699 60 9 92l80 -4c-1.33301 -31.333 -3 -61.333 -5 -90
c-1.33301 -24.667 -2.83301 -49.5 -4.5 -74.5s-2.83398 -45.167 -3.50098 -60.5c28 -26 71 -39 129 -39c19.333 0 39.333 1.16699 60 3.5s40.5 5.83301 59.5 10.5s37 10.167 54 16.5s31.5 13.166 43.5 20.499c-5.33301 52 -13.5 103.167 -24.5 153.5
s-22.167 93.166 -33.5 128.499l89 56l17 -4l15 -63c2.66699 -11.333 5.33398 -21.166 8.00098 -29.499s5.66699 -15.5 9 -21.5l111.5 94l79 65.5c21.667 17.667 39.5 31.5 53.5 41.5s25.333 17.667 34 23s15.5 8.83301 20.5 10.5s9.83301 2.5 14.5 2.5zM832 288.003
c-4.66699 0 -11.167 -2.16699 -19.5 -6.5s-20.333 -12 -36 -23s-36 -26.167 -61 -45.5l-94.5 -75c3.33301 -0.666992 7 -1 11 -1h13h147c20 0 37.5 0.333008 52.5 1s28.167 1.66699 39.5 3s21.333 3 30 5s16.667 4.33301 24 7c-2 18 -7.16699 35 -15.5 51
s-17.833 30.333 -28.5 43s-21.667 22.667 -33 30s-21 11 -29 11zM775 538.003l54 89l100 -63l-58 -86z" />
    <glyph glyph-name="uniFEBF" unicode="&#x636;" horiz-adv-x="742" arabic-form="initial" 
d="M331 0c-23.333 0 -43.998 1.16895 -61.998 3.50195s-33.833 6.33301 -47.5 12s-25.334 13.5 -35.001 23.5s-17.834 22.667 -24.501 38c-5.33301 -10 -10.166 -18.333 -14.499 -25s-8.33301 -12.167 -12 -16.5s-7.5 -7.83301 -11.5 -10.5s-8.33301 -5.33398 -13 -8.00098
c-12.667 -7.33301 -29.834 -12 -51.501 -14s-41.5 -3 -59.5 -3c-10.667 0 -17.834 6.66699 -21.501 20s-5.5 29.333 -5.5 48c0 19.333 1.83301 35.666 5.5 48.999s10.834 20 21.501 20c6.66699 0 15 0.166992 25 0.5s20.5 1 31.5 2s21.833 2.16699 32.5 3.5
s20.667 3.33301 30 6l30 148h76c-0.666992 -17.333 -1.16699 -31.5 -1.5 -42.5s-0.5 -19.833 -0.5 -26.5v-15.5v-8.5c0 -12.667 2.33301 -23.334 7 -32.001l154.5 130.5c38.333 31.667 68 55.5 89 71.5s36 26 45 30s16.833 6 23.5 6c18 0 36.5 -5.5 55.5 -16.5
s36 -26 51 -45s27.333 -41.167 37 -66.5s14.5 -52.666 14.5 -81.999c0 -12.667 -1.83301 -27.667 -5.5 -45s-9 -34.5 -16 -51.5s-15.667 -32.333 -26 -46s-21.833 -23.5 -34.5 -29.5c-20.667 -9.33301 -47.167 -16.333 -79.5 -21s-72.833 -7 -121.5 -7h-86zM509.002 288.002
c-4.66699 0 -11.1689 -2.16699 -19.502 -6.5s-20.5 -12 -36.5 -23s-36.667 -26.333 -62 -46l-95 -75.5h173c20 0 37.333 0.333008 52 1s27.667 1.66699 39 3s21.333 3 30 5s16.667 4.33301 24 7c-2 18 -7.16699 35 -15.5 51s-17.666 30.333 -27.999 43
s-21.166 22.667 -32.499 30s-21 11 -29 11zM452 538.002l54 89l100 -63l-58 -86z" />
    <glyph glyph-name="uniFEC0" unicode="&#x636;" horiz-adv-x="783" arabic-form="medial" 
d="M0 0c-10.667 0 -17.8301 6.66797 -21.4971 20.001s-5.5 29.333 -5.5 48c0 19.333 1.83301 35.666 5.5 48.999s10.834 20 21.501 20c6.66699 0 15 0.166992 25 0.5s20.5 1 31.5 2s21.833 2.16699 32.5 3.5s20.667 3.33301 30 6l30 148h76
c-0.666992 -17.333 -1.16699 -31.5 -1.5 -42.5s-0.5 -19.833 -0.5 -26.5v-15.5v-8.5c0 -12.667 2.33301 -23.334 7 -32.001l154.5 130.5c38.333 31.667 68 55.5 89 71.5s36 26 45 30s16.833 6 23.5 6c18 0 36.5 -5.5 55.5 -16.5s36 -26 51 -45s27.333 -41.167 37 -66.5
s14.5 -52.666 14.5 -81.999c0 -7.33301 -0.666992 -15.5 -2 -24.5s-3 -18.167 -5 -27.5c9.33301 -4.66699 20.333 -7.66699 33 -9s28 -2 46 -2h11v-137h-11c-9.33301 0 -19.333 0.666992 -30 2s-21.334 4 -32.001 8s-20.834 9.83301 -30.501 17.5s-18.5 17.834 -26.5 30.501
c-10 -14 -21.667 -24 -35 -30c-20.667 -9.33301 -47.167 -16.333 -79.5 -21s-72.833 -7 -121.5 -7h-86c-23.333 0 -44 1.16699 -62 3.5s-33.833 6.33301 -47.5 12s-25.334 13.5 -35.001 23.5s-17.834 22.667 -24.501 38c-5.33301 -10 -10.166 -18.333 -14.499 -25
s-8.33301 -12.167 -12 -16.5s-7.5 -7.83301 -11.5 -10.5s-8.33301 -5.33398 -13 -8.00098c-12.667 -7.33301 -29.834 -12 -51.501 -14s-41.5 -3 -59.5 -3zM509.004 288.001c-4.66699 0 -11.1689 -2.16699 -19.502 -6.5s-20.5 -12 -36.5 -23s-36.667 -26.333 -62 -46
l-95 -75.5h173c20 0 37.333 0.333008 52 1s27.667 1.66699 39 3s21.333 3 30 5s16.667 4.33301 24 7c-2 18 -7.16699 35 -15.5 51s-17.666 30.333 -27.999 43s-21.166 22.667 -32.499 30s-21 11 -29 11zM452.002 538.001l54 89l100 -63l-58 -86z" />
    <glyph glyph-name="uniFEC2" unicode="&#x637;" horiz-adv-x="703" arabic-form="final" 
d="M336 0c-36 0 -75.665 0.498047 -118.998 1.49805s-87.333 4.16699 -132 9.5l-56 119l8 19c14.667 -1.33301 28.167 -2.5 40.5 -3.5s24.5 -2.16699 36.5 -3.5l76 66c10 8.66699 17.667 17.834 23 27.501s8 25.167 8 46.5c0 4 -0.166992 11.5 -0.5 22.5
s-0.666016 23.333 -0.999023 37s-0.833008 27.667 -1.5 42s-1 27.166 -1 38.499l-3.5 59.5c-1 17 -2.83301 32.5 -5.5 46.5s-6 27.667 -10 41s-9 28 -15 44l85 79c10 -21.333 18 -41 24 -59s10.5 -36 13.5 -54s4.83301 -36.5 5.5 -55.5s1 -39.833 1 -62.5
c0 -44 -0.666992 -77.667 -2 -101s-3.33301 -42.333 -6 -57l70 56c18 14 32.667 24.833 44 32.5s20.166 12.667 26.499 15s12.166 3.5 17.499 3.5c18 0 36.5 -5.5 55.5 -16.5s36 -26 51 -45s27.333 -41.167 37 -66.5s14.5 -52.666 14.5 -81.999
c0 -7.33301 -0.666992 -15.5 -2 -24.5s-3 -18.167 -5 -27.5c9.33301 -4.66699 20.333 -7.66699 33 -9s28 -2 46 -2h11v-137h-11c-9.33301 0 -19.333 0.666992 -30 2s-21.334 4 -32.001 8s-20.834 9.83301 -30.501 17.5s-18.5 17.834 -26.5 30.501
c-10 -14 -21.667 -24 -35 -30c-20.667 -9.33301 -47.167 -16.333 -79.5 -21s-73.166 -7 -122.499 -7zM429.002 287.998c-4.66699 0 -11.335 -2.16699 -20.002 -6.5s-21 -12 -37 -23s-36.667 -26.167 -62 -45.5l-95 -75c22 -0.666992 46.833 -1 74.5 -1h99.5
c20 0 37.333 0.333008 52 1s27.667 1.66699 39 3s21.333 3 30 5s16.667 4.33301 24 7c-2 18 -7.16699 35 -15.5 51s-17.666 30.333 -27.999 43s-21.166 22.667 -32.499 30s-21 11 -29 11z" />
    <glyph glyph-name="uniFEC3" unicode="&#x637;" horiz-adv-x="586" arabic-form="initial" 
d="M0 0c-10.667 0 -17.834 6.66699 -21.501 20s-5.5 29.333 -5.5 48c0 19.333 1.83301 35.666 5.5 48.999s10.834 20 21.501 20h32l82 71c10 8.66699 17.667 17.834 23 27.501s8 25.167 8 46.5c0 4 -0.166992 11.5 -0.5 22.5s-0.666016 23.333 -0.999023 37
s-0.833008 27.667 -1.5 42s-1 27.166 -1 38.499l-3.5 59.5c-1 17 -2.83301 32.5 -5.5 46.5s-6 27.667 -10 41s-9 28 -15 44l85 79c10 -21.333 18 -41 24 -59s10.5 -36 13.5 -54s4.83301 -36.5 5.5 -55.5s1 -39.833 1 -62.5c0 -44 -0.666992 -77.667 -2 -101
s-3.33301 -42.333 -6 -57l70 56c18 14 32.667 24.833 44 32.5s20.166 12.667 26.499 15s12.166 3.5 17.499 3.5c18 0 36.5 -5.5 55.5 -16.5s36 -26 51 -45s27.333 -41.167 37 -66.5s14.5 -52.666 14.5 -81.999c0 -12.667 -1.83301 -27.667 -5.5 -45s-9 -34.5 -16 -51.5
s-15.667 -32.333 -26 -46s-21.833 -23.5 -34.5 -29.5c-20.667 -9.33301 -47.167 -16.333 -79.5 -21s-73.166 -7 -122.499 -7h-260zM353 288c-4.66699 0 -11.335 -2.16699 -20.002 -6.5s-21 -12 -37 -23s-36.833 -26.333 -62.5 -46l-95.5 -75.5h175
c20 0 37.333 0.333008 52 1s27.667 1.66699 39 3s21.333 3 30 5s16.667 4.33301 24 7c-2 18 -7.16699 35 -15.5 51s-17.666 30.333 -27.999 43s-21.166 22.667 -32.499 30s-21 11 -29 11z" />
    <glyph glyph-name="uniFEC4" unicode="&#x637;" horiz-adv-x="627" arabic-form="medial" 
d="M0 0c-10.667 0 -17.832 6.66602 -21.499 19.999s-5.5 29.333 -5.5 48c0 19.333 1.83301 35.666 5.5 48.999s10.834 20 21.501 20h32l82 71c10 8.66699 17.667 17.834 23 27.501s8 25.167 8 46.5c0 4 -0.166992 11.5 -0.5 22.5s-0.666016 23.333 -0.999023 37
s-0.833008 27.667 -1.5 42s-1 27.166 -1 38.499l-3.5 59.5c-1 17 -2.83301 32.5 -5.5 46.5s-6 27.667 -10 41s-9 28 -15 44l85 79c10 -21.333 18 -41 24 -59s10.5 -36 13.5 -54s4.83301 -36.5 5.5 -55.5s1 -39.833 1 -62.5c0 -44 -0.666992 -77.667 -2 -101
s-3.33301 -42.333 -6 -57l70 56c18 14 32.667 24.833 44 32.5s20.166 12.667 26.499 15s12.166 3.5 17.499 3.5c18 0 36.5 -5.5 55.5 -16.5s36 -26 51 -45s27.333 -41.167 37 -66.5s14.5 -52.666 14.5 -81.999c0 -7.33301 -0.666992 -15.5 -2 -24.5s-3 -18.167 -5 -27.5
c9.33301 -4.66699 20.333 -7.66699 33 -9s28 -2 46 -2h11v-137h-11c-9.33301 0 -19.333 0.666992 -30 2s-21.334 4 -32.001 8s-20.834 9.83301 -30.501 17.5s-18.5 17.834 -26.5 30.501c-10 -14 -21.667 -24 -35 -30c-20.667 -9.33301 -47.167 -16.333 -79.5 -21
s-73.166 -7 -122.499 -7h-260zM353.002 287.999c-4.66699 0 -11.335 -2.16699 -20.002 -6.5s-21 -12 -37 -23s-36.833 -26.333 -62.5 -46l-95.5 -75.5h175c20 0 37.333 0.333008 52 1s27.667 1.66699 39 3s21.333 3 30 5s16.667 4.33301 24 7c-2 18 -7.16699 35 -15.5 51
s-17.666 30.333 -27.999 43s-21.166 22.667 -32.499 30s-21 11 -29 11z" />
    </font>
</defs>
</svg>
